M48
; DRILL file {KiCad 9.0.2-9.0.2-0~ubuntu22.04.1} date 2025-06-26T08:42:15+0530
; FORMAT={-:-/ absolute / metric / decimal}
; #@! TF.CreationDate,2025-06-26T08:42:15+05:30
; #@! TF.GenerationSoftware,Kicad,Pcbnew,9.0.2-9.0.2-0~ubuntu22.04.1
; #@! TF.FileFunction,Plated,1,2,PTH
FMAT,2
METRIC
; #@! TA.AperFunction,Plated,PTH,ComponentDrill
T1C0.200
; #@! TA.AperFunction,Plated,PTH,ViaDrill
T2C0.250
; #@! TA.AperFunction,Plated,PTH,ViaDrill
T3C0.300
; #@! TA.AperFunction,Plated,PTH,ComponentDrill
T4C0.400
; #@! TA.AperFunction,Plated,PTH,ComponentDrill
T5C0.600
; #@! TA.AperFunction,Plated,PTH,ViaDrill
T6C0.800
; #@! TA.AperFunction,Plated,PTH,ComponentDrill
T7C1.000
; #@! TA.AperFunction,Plated,PTH,ComponentDrill
T8C1.600
; #@! TA.AperFunction,Plated,PTH,ComponentDrill
T9C2.200
%
G90
G05
T1
X127.941Y-81.02
X127.941Y-82.12
T2
X144.05Y-79.82
X144.831Y-116.37
X147.28Y-115.21
X147.53Y-80.6
X148.18Y-116.2
X149.83Y-82.77
X149.83Y-115.67
X150.84Y-116.16
X152.1Y-88.7
X152.4Y-115.03
X155.78Y-90.32
X156.85Y-86.9
X157.35Y-114.47
X159.6Y-85.55
X159.612Y-91.212
X159.82Y-112.77
X160.23Y-110.83
X161.64Y-111.19
X162.51Y-87.75
X164.92Y-76.16
X166.42Y-76.83
X168.89Y-76.57
T3
X113.487Y-127.847
X113.513Y-113.563
X115.98Y-131.953
X116.18Y-130.353
X116.357Y-111.862
X116.891Y-120.65
X117.018Y-108.585
X118.999Y-110.82
X120.066Y-140.894
X120.574Y-112.522
X120.853Y-90.043
X121.641Y-88.9
X121.844Y-124.358
X123.19Y-113.894
X124.308Y-110.414
X124.485Y-118.059
X125.044Y-111.862
X125.197Y-88.138
X125.425Y-139.522
X126.365Y-86.436
X126.695Y-89.611
X126.924Y-97.993
X128.321Y-96.063
X128.905Y-129.972
X129.0Y-98.0
X129.743Y-131.877
X130.759Y-96.749
X130.9Y-98.7
X130.988Y-88.214
X131.801Y-102.133
X132.3Y-94.5
X132.3Y-98.7
X132.867Y-95.148
X132.944Y-81.458
X133.7Y-94.5
X134.4Y-98.0
X134.569Y-100.863
X135.1Y-98.7
X135.8Y-95.2
X136.0Y-86.0
X137.0Y-86.0
X137.5Y-90.5
X137.5Y-94.5
X138.0Y-86.5
X138.481Y-105.943
X138.836Y-73.66
X139.3Y-82.6
X139.3Y-98.0
X139.802Y-106.02
X140.0Y-83.3
X140.0Y-88.9
X140.0Y-98.7
X140.614Y-104.597
X140.7Y-84.0
X140.7Y-86.1
X140.7Y-88.2
X141.376Y-106.832
X141.4Y-84.7
X141.427Y-106.02
X141.478Y-131.928
X141.656Y-86.258
X142.138Y-89.637
X142.164Y-129.413
X142.367Y-103.48
X142.799Y-108.102
X142.824Y-79.121
X143.053Y-81.458
X143.053Y-106.147
X143.18Y-115.849
X143.307Y-141.351
X143.5Y-91.0
X143.586Y-114.935
X143.84Y-129.667
X143.891Y-95.733
X144.475Y-106.782
X144.831Y-125.019
X144.9Y-85.4
X144.9Y-89.6
X145.263Y-130.581
X145.313Y-110.947
X145.6Y-84.7
X145.694Y-113.589
X146.101Y-97.841
X146.101Y-99.009
X146.3Y-84.0
X146.355Y-81.305
X146.761Y-106.909
X146.812Y-110.973
X147.0Y-83.3
X147.879Y-85.369
X148.869Y-99.289
X148.869Y-130.404
X149.1Y-95.9
X149.8Y-95.2
X150.292Y-104.242
X150.47Y-126.34
X150.5Y-94.5
X150.571Y-121.336
X150.876Y-99.035
X151.9Y-93.1
X151.9Y-94.5
X152.044Y-101.219
X152.6Y-91.7
X152.756Y-126.365
X153.822Y-101.143
X154.94Y-103.048
X155.804Y-122.149
X156.058Y-93.066
X157.5Y-80.5
X158.14Y-124.155
X159.309Y-96.749
X159.69Y-117.602
X160.249Y-127.152
X162.62Y-118.364
T4
X108.617Y-120.883
X109.1Y-119.717
X109.1Y-122.05
X109.3Y-75.2
X109.783Y-74.033
X109.783Y-76.367
X110.267Y-119.233
X110.267Y-122.533
X110.95Y-73.55
X110.95Y-76.85
X111.433Y-119.717
X111.433Y-122.05
X111.917Y-120.883
X112.117Y-74.033
X112.117Y-76.367
X112.6Y-75.2
X152.75Y-142.45
X153.233Y-141.283
X153.233Y-143.617
X154.4Y-140.8
X154.4Y-144.1
X155.567Y-141.283
X155.567Y-143.617
X156.05Y-142.45
X170.367Y-66.067
X170.85Y-64.9
X170.85Y-67.233
X172.017Y-64.417
X172.017Y-67.717
X173.183Y-64.9
X173.183Y-67.233
X173.667Y-66.067
T6
X139.21Y-71.99
X139.7Y-70.59
X140.92Y-70.2
X144.831Y-116.24
X147.3Y-79.71
X147.47Y-78.21
X150.5Y-79.33
X151.9Y-78.74
X153.73Y-78.04
X155.82Y-79.38
X162.28Y-104.92
X165.5Y-87.46
X167.85Y-90.85
T7
X113.309Y-104.75
X113.309Y-107.29
X113.309Y-109.83
X115.849Y-104.75
X115.849Y-107.29
X115.849Y-109.83
X120.09Y-68.44
X122.63Y-68.44
X125.17Y-68.44
X127.71Y-68.44
X130.25Y-68.44
X132.79Y-68.44
X135.33Y-68.44
X137.87Y-68.44
X141.66Y-68.57
X144.2Y-68.57
X146.74Y-68.57
X149.28Y-68.57
X151.82Y-68.57
X154.36Y-68.57
X169.65Y-94.53
X169.65Y-97.07
X169.65Y-99.61
X169.65Y-102.15
X169.65Y-104.69
X169.65Y-107.23
X169.65Y-109.77
X169.65Y-112.31
X169.65Y-114.85
X169.65Y-117.39
X169.7Y-121.24
X169.7Y-123.78
X169.7Y-126.32
X169.7Y-128.86
X169.7Y-131.4
X169.7Y-133.94
X169.7Y-136.48
X169.7Y-139.02
T8
X156.7Y-84.9
X159.7Y-80.2
X162.7Y-84.9
T9
X110.267Y-120.883
X110.95Y-75.2
X154.4Y-142.45
X172.017Y-66.067
T5
G00X163.35Y-70.09
M15
G01X164.45Y-70.09
M16
G05
G00X163.35Y-78.73
M15
G01X164.45Y-78.73
M16
G05
G00X167.78Y-70.09
M15
G01X168.38Y-70.09
M16
G05
G00X167.78Y-78.73
M15
G01X168.38Y-78.73
M16
G05
M30
