%TF.GenerationSoftware,KiCad,Pcbnew,9.0.7-9.0.7~ubuntu22.04.1*%
%TF.CreationDate,2026-01-29T20:02:15+05:30*%
%TF.ProjectId,v3,76332e6b-6963-4616-945f-706362585858,V3.0.0*%
%TF.SameCoordinates,Original*%
%TF.FileFunction,Legend,Bot*%
%TF.FilePolarity,Positive*%
%FSLAX46Y46*%
G04 Gerber Fmt 4.6, Leading zero omitted, Abs format (unit mm)*
G04 Created by KiCad (PCBNEW 9.0.7-9.0.7~ubuntu22.04.1) date 2026-01-29 20:02:15*
%MOMM*%
%LPD*%
G01*
G04 APERTURE LIST*
%ADD10C,0.150000*%
G04 APERTURE END LIST*
D10*
X119959411Y-48207438D02*
X120054649Y-48159819D01*
X120054649Y-48159819D02*
X120197506Y-48159819D01*
X120197506Y-48159819D02*
X120340363Y-48207438D01*
X120340363Y-48207438D02*
X120435601Y-48302676D01*
X120435601Y-48302676D02*
X120483220Y-48397914D01*
X120483220Y-48397914D02*
X120530839Y-48588390D01*
X120530839Y-48588390D02*
X120530839Y-48731247D01*
X120530839Y-48731247D02*
X120483220Y-48921723D01*
X120483220Y-48921723D02*
X120435601Y-49016961D01*
X120435601Y-49016961D02*
X120340363Y-49112200D01*
X120340363Y-49112200D02*
X120197506Y-49159819D01*
X120197506Y-49159819D02*
X120102268Y-49159819D01*
X120102268Y-49159819D02*
X119959411Y-49112200D01*
X119959411Y-49112200D02*
X119911792Y-49064580D01*
X119911792Y-49064580D02*
X119911792Y-48731247D01*
X119911792Y-48731247D02*
X120102268Y-48731247D01*
X119483220Y-49159819D02*
X119483220Y-48159819D01*
X119483220Y-48159819D02*
X118911792Y-49159819D01*
X118911792Y-49159819D02*
X118911792Y-48159819D01*
X118435601Y-49159819D02*
X118435601Y-48159819D01*
X118435601Y-48159819D02*
X118197506Y-48159819D01*
X118197506Y-48159819D02*
X118054649Y-48207438D01*
X118054649Y-48207438D02*
X117959411Y-48302676D01*
X117959411Y-48302676D02*
X117911792Y-48397914D01*
X117911792Y-48397914D02*
X117864173Y-48588390D01*
X117864173Y-48588390D02*
X117864173Y-48731247D01*
X117864173Y-48731247D02*
X117911792Y-48921723D01*
X117911792Y-48921723D02*
X117959411Y-49016961D01*
X117959411Y-49016961D02*
X118054649Y-49112200D01*
X118054649Y-49112200D02*
X118197506Y-49159819D01*
X118197506Y-49159819D02*
X118435601Y-49159819D01*
X76049411Y-64507438D02*
X76144649Y-64459819D01*
X76144649Y-64459819D02*
X76287506Y-64459819D01*
X76287506Y-64459819D02*
X76430363Y-64507438D01*
X76430363Y-64507438D02*
X76525601Y-64602676D01*
X76525601Y-64602676D02*
X76573220Y-64697914D01*
X76573220Y-64697914D02*
X76620839Y-64888390D01*
X76620839Y-64888390D02*
X76620839Y-65031247D01*
X76620839Y-65031247D02*
X76573220Y-65221723D01*
X76573220Y-65221723D02*
X76525601Y-65316961D01*
X76525601Y-65316961D02*
X76430363Y-65412200D01*
X76430363Y-65412200D02*
X76287506Y-65459819D01*
X76287506Y-65459819D02*
X76192268Y-65459819D01*
X76192268Y-65459819D02*
X76049411Y-65412200D01*
X76049411Y-65412200D02*
X76001792Y-65364580D01*
X76001792Y-65364580D02*
X76001792Y-65031247D01*
X76001792Y-65031247D02*
X76192268Y-65031247D01*
X119772744Y-74849819D02*
X119582268Y-74849819D01*
X119582268Y-74849819D02*
X119487030Y-74897438D01*
X119487030Y-74897438D02*
X119391792Y-74992676D01*
X119391792Y-74992676D02*
X119344173Y-75183152D01*
X119344173Y-75183152D02*
X119344173Y-75516485D01*
X119344173Y-75516485D02*
X119391792Y-75706961D01*
X119391792Y-75706961D02*
X119487030Y-75802200D01*
X119487030Y-75802200D02*
X119582268Y-75849819D01*
X119582268Y-75849819D02*
X119772744Y-75849819D01*
X119772744Y-75849819D02*
X119867982Y-75802200D01*
X119867982Y-75802200D02*
X119963220Y-75706961D01*
X119963220Y-75706961D02*
X120010839Y-75516485D01*
X120010839Y-75516485D02*
X120010839Y-75183152D01*
X120010839Y-75183152D02*
X119963220Y-74992676D01*
X119963220Y-74992676D02*
X119867982Y-74897438D01*
X119867982Y-74897438D02*
X119772744Y-74849819D01*
X118915601Y-74849819D02*
X118915601Y-75659342D01*
X118915601Y-75659342D02*
X118867982Y-75754580D01*
X118867982Y-75754580D02*
X118820363Y-75802200D01*
X118820363Y-75802200D02*
X118725125Y-75849819D01*
X118725125Y-75849819D02*
X118534649Y-75849819D01*
X118534649Y-75849819D02*
X118439411Y-75802200D01*
X118439411Y-75802200D02*
X118391792Y-75754580D01*
X118391792Y-75754580D02*
X118344173Y-75659342D01*
X118344173Y-75659342D02*
X118344173Y-74849819D01*
X118010839Y-74849819D02*
X117439411Y-74849819D01*
X117725125Y-75849819D02*
X117725125Y-74849819D01*
X117106077Y-75849819D02*
X117106077Y-74849819D01*
X117106077Y-74849819D02*
X116725125Y-74849819D01*
X116725125Y-74849819D02*
X116629887Y-74897438D01*
X116629887Y-74897438D02*
X116582268Y-74945057D01*
X116582268Y-74945057D02*
X116534649Y-75040295D01*
X116534649Y-75040295D02*
X116534649Y-75183152D01*
X116534649Y-75183152D02*
X116582268Y-75278390D01*
X116582268Y-75278390D02*
X116629887Y-75326009D01*
X116629887Y-75326009D02*
X116725125Y-75373628D01*
X116725125Y-75373628D02*
X117106077Y-75373628D01*
X116106077Y-74849819D02*
X116106077Y-75659342D01*
X116106077Y-75659342D02*
X116058458Y-75754580D01*
X116058458Y-75754580D02*
X116010839Y-75802200D01*
X116010839Y-75802200D02*
X115915601Y-75849819D01*
X115915601Y-75849819D02*
X115725125Y-75849819D01*
X115725125Y-75849819D02*
X115629887Y-75802200D01*
X115629887Y-75802200D02*
X115582268Y-75754580D01*
X115582268Y-75754580D02*
X115534649Y-75659342D01*
X115534649Y-75659342D02*
X115534649Y-74849819D01*
X115201315Y-74849819D02*
X114629887Y-74849819D01*
X114915601Y-75849819D02*
X114915601Y-74849819D01*
X113344172Y-74849819D02*
X113153696Y-74849819D01*
X113153696Y-74849819D02*
X113058458Y-74897438D01*
X113058458Y-74897438D02*
X112963220Y-74992676D01*
X112963220Y-74992676D02*
X112915601Y-75183152D01*
X112915601Y-75183152D02*
X112915601Y-75516485D01*
X112915601Y-75516485D02*
X112963220Y-75706961D01*
X112963220Y-75706961D02*
X113058458Y-75802200D01*
X113058458Y-75802200D02*
X113153696Y-75849819D01*
X113153696Y-75849819D02*
X113344172Y-75849819D01*
X113344172Y-75849819D02*
X113439410Y-75802200D01*
X113439410Y-75802200D02*
X113534648Y-75706961D01*
X113534648Y-75706961D02*
X113582267Y-75516485D01*
X113582267Y-75516485D02*
X113582267Y-75183152D01*
X113582267Y-75183152D02*
X113534648Y-74992676D01*
X113534648Y-74992676D02*
X113439410Y-74897438D01*
X113439410Y-74897438D02*
X113344172Y-74849819D01*
X112487029Y-75849819D02*
X112487029Y-74849819D01*
X112487029Y-74849819D02*
X111915601Y-75849819D01*
X111915601Y-75849819D02*
X111915601Y-74849819D01*
X110963220Y-75849819D02*
X111439410Y-75849819D01*
X111439410Y-75849819D02*
X111439410Y-74849819D01*
X110439410Y-75373628D02*
X110439410Y-75849819D01*
X110772743Y-74849819D02*
X110439410Y-75373628D01*
X110439410Y-75373628D02*
X110106077Y-74849819D01*
X76249411Y-61847438D02*
X76344649Y-61799819D01*
X76344649Y-61799819D02*
X76487506Y-61799819D01*
X76487506Y-61799819D02*
X76630363Y-61847438D01*
X76630363Y-61847438D02*
X76725601Y-61942676D01*
X76725601Y-61942676D02*
X76773220Y-62037914D01*
X76773220Y-62037914D02*
X76820839Y-62228390D01*
X76820839Y-62228390D02*
X76820839Y-62371247D01*
X76820839Y-62371247D02*
X76773220Y-62561723D01*
X76773220Y-62561723D02*
X76725601Y-62656961D01*
X76725601Y-62656961D02*
X76630363Y-62752200D01*
X76630363Y-62752200D02*
X76487506Y-62799819D01*
X76487506Y-62799819D02*
X76392268Y-62799819D01*
X76392268Y-62799819D02*
X76249411Y-62752200D01*
X76249411Y-62752200D02*
X76201792Y-62704580D01*
X76201792Y-62704580D02*
X76201792Y-62371247D01*
X76201792Y-62371247D02*
X76392268Y-62371247D01*
X120203220Y-56519819D02*
X120203220Y-55519819D01*
X119774649Y-55615057D02*
X119727030Y-55567438D01*
X119727030Y-55567438D02*
X119631792Y-55519819D01*
X119631792Y-55519819D02*
X119393697Y-55519819D01*
X119393697Y-55519819D02*
X119298459Y-55567438D01*
X119298459Y-55567438D02*
X119250840Y-55615057D01*
X119250840Y-55615057D02*
X119203221Y-55710295D01*
X119203221Y-55710295D02*
X119203221Y-55805533D01*
X119203221Y-55805533D02*
X119250840Y-55948390D01*
X119250840Y-55948390D02*
X119822268Y-56519819D01*
X119822268Y-56519819D02*
X119203221Y-56519819D01*
X118203221Y-56424580D02*
X118250840Y-56472200D01*
X118250840Y-56472200D02*
X118393697Y-56519819D01*
X118393697Y-56519819D02*
X118488935Y-56519819D01*
X118488935Y-56519819D02*
X118631792Y-56472200D01*
X118631792Y-56472200D02*
X118727030Y-56376961D01*
X118727030Y-56376961D02*
X118774649Y-56281723D01*
X118774649Y-56281723D02*
X118822268Y-56091247D01*
X118822268Y-56091247D02*
X118822268Y-55948390D01*
X118822268Y-55948390D02*
X118774649Y-55757914D01*
X118774649Y-55757914D02*
X118727030Y-55662676D01*
X118727030Y-55662676D02*
X118631792Y-55567438D01*
X118631792Y-55567438D02*
X118488935Y-55519819D01*
X118488935Y-55519819D02*
X118393697Y-55519819D01*
X118393697Y-55519819D02*
X118250840Y-55567438D01*
X118250840Y-55567438D02*
X118203221Y-55615057D01*
X116488935Y-56519819D02*
X117060363Y-56519819D01*
X116774649Y-56519819D02*
X116774649Y-55519819D01*
X116774649Y-55519819D02*
X116869887Y-55662676D01*
X116869887Y-55662676D02*
X116965125Y-55757914D01*
X116965125Y-55757914D02*
X117060363Y-55805533D01*
X115346077Y-56472200D02*
X115203220Y-56519819D01*
X115203220Y-56519819D02*
X114965125Y-56519819D01*
X114965125Y-56519819D02*
X114869887Y-56472200D01*
X114869887Y-56472200D02*
X114822268Y-56424580D01*
X114822268Y-56424580D02*
X114774649Y-56329342D01*
X114774649Y-56329342D02*
X114774649Y-56234104D01*
X114774649Y-56234104D02*
X114822268Y-56138866D01*
X114822268Y-56138866D02*
X114869887Y-56091247D01*
X114869887Y-56091247D02*
X114965125Y-56043628D01*
X114965125Y-56043628D02*
X115155601Y-55996009D01*
X115155601Y-55996009D02*
X115250839Y-55948390D01*
X115250839Y-55948390D02*
X115298458Y-55900771D01*
X115298458Y-55900771D02*
X115346077Y-55805533D01*
X115346077Y-55805533D02*
X115346077Y-55710295D01*
X115346077Y-55710295D02*
X115298458Y-55615057D01*
X115298458Y-55615057D02*
X115250839Y-55567438D01*
X115250839Y-55567438D02*
X115155601Y-55519819D01*
X115155601Y-55519819D02*
X114917506Y-55519819D01*
X114917506Y-55519819D02*
X114774649Y-55567438D01*
X113774649Y-56424580D02*
X113822268Y-56472200D01*
X113822268Y-56472200D02*
X113965125Y-56519819D01*
X113965125Y-56519819D02*
X114060363Y-56519819D01*
X114060363Y-56519819D02*
X114203220Y-56472200D01*
X114203220Y-56472200D02*
X114298458Y-56376961D01*
X114298458Y-56376961D02*
X114346077Y-56281723D01*
X114346077Y-56281723D02*
X114393696Y-56091247D01*
X114393696Y-56091247D02*
X114393696Y-55948390D01*
X114393696Y-55948390D02*
X114346077Y-55757914D01*
X114346077Y-55757914D02*
X114298458Y-55662676D01*
X114298458Y-55662676D02*
X114203220Y-55567438D01*
X114203220Y-55567438D02*
X114060363Y-55519819D01*
X114060363Y-55519819D02*
X113965125Y-55519819D01*
X113965125Y-55519819D02*
X113822268Y-55567438D01*
X113822268Y-55567438D02*
X113774649Y-55615057D01*
X112869887Y-56519819D02*
X113346077Y-56519819D01*
X113346077Y-56519819D02*
X113346077Y-55519819D01*
X120513220Y-82639819D02*
X120513220Y-83449342D01*
X120513220Y-83449342D02*
X120465601Y-83544580D01*
X120465601Y-83544580D02*
X120417982Y-83592200D01*
X120417982Y-83592200D02*
X120322744Y-83639819D01*
X120322744Y-83639819D02*
X120132268Y-83639819D01*
X120132268Y-83639819D02*
X120037030Y-83592200D01*
X120037030Y-83592200D02*
X119989411Y-83544580D01*
X119989411Y-83544580D02*
X119941792Y-83449342D01*
X119941792Y-83449342D02*
X119941792Y-82639819D01*
X119513220Y-83354104D02*
X119037030Y-83354104D01*
X119608458Y-83639819D02*
X119275125Y-82639819D01*
X119275125Y-82639819D02*
X118941792Y-83639819D01*
X118037030Y-83639819D02*
X118370363Y-83163628D01*
X118608458Y-83639819D02*
X118608458Y-82639819D01*
X118608458Y-82639819D02*
X118227506Y-82639819D01*
X118227506Y-82639819D02*
X118132268Y-82687438D01*
X118132268Y-82687438D02*
X118084649Y-82735057D01*
X118084649Y-82735057D02*
X118037030Y-82830295D01*
X118037030Y-82830295D02*
X118037030Y-82973152D01*
X118037030Y-82973152D02*
X118084649Y-83068390D01*
X118084649Y-83068390D02*
X118132268Y-83116009D01*
X118132268Y-83116009D02*
X118227506Y-83163628D01*
X118227506Y-83163628D02*
X118608458Y-83163628D01*
X117751315Y-82639819D02*
X117179887Y-82639819D01*
X117465601Y-83639819D02*
X117465601Y-82639819D01*
X115894172Y-82639819D02*
X115798934Y-82639819D01*
X115798934Y-82639819D02*
X115703696Y-82687438D01*
X115703696Y-82687438D02*
X115656077Y-82735057D01*
X115656077Y-82735057D02*
X115608458Y-82830295D01*
X115608458Y-82830295D02*
X115560839Y-83020771D01*
X115560839Y-83020771D02*
X115560839Y-83258866D01*
X115560839Y-83258866D02*
X115608458Y-83449342D01*
X115608458Y-83449342D02*
X115656077Y-83544580D01*
X115656077Y-83544580D02*
X115703696Y-83592200D01*
X115703696Y-83592200D02*
X115798934Y-83639819D01*
X115798934Y-83639819D02*
X115894172Y-83639819D01*
X115894172Y-83639819D02*
X115989410Y-83592200D01*
X115989410Y-83592200D02*
X116037029Y-83544580D01*
X116037029Y-83544580D02*
X116084648Y-83449342D01*
X116084648Y-83449342D02*
X116132267Y-83258866D01*
X116132267Y-83258866D02*
X116132267Y-83020771D01*
X116132267Y-83020771D02*
X116084648Y-82830295D01*
X116084648Y-82830295D02*
X116037029Y-82735057D01*
X116037029Y-82735057D02*
X115989410Y-82687438D01*
X115989410Y-82687438D02*
X115894172Y-82639819D01*
X120333220Y-63289819D02*
X120333220Y-64099342D01*
X120333220Y-64099342D02*
X120285601Y-64194580D01*
X120285601Y-64194580D02*
X120237982Y-64242200D01*
X120237982Y-64242200D02*
X120142744Y-64289819D01*
X120142744Y-64289819D02*
X119952268Y-64289819D01*
X119952268Y-64289819D02*
X119857030Y-64242200D01*
X119857030Y-64242200D02*
X119809411Y-64194580D01*
X119809411Y-64194580D02*
X119761792Y-64099342D01*
X119761792Y-64099342D02*
X119761792Y-63289819D01*
X119333220Y-64004104D02*
X118857030Y-64004104D01*
X119428458Y-64289819D02*
X119095125Y-63289819D01*
X119095125Y-63289819D02*
X118761792Y-64289819D01*
X117857030Y-64289819D02*
X118190363Y-63813628D01*
X118428458Y-64289819D02*
X118428458Y-63289819D01*
X118428458Y-63289819D02*
X118047506Y-63289819D01*
X118047506Y-63289819D02*
X117952268Y-63337438D01*
X117952268Y-63337438D02*
X117904649Y-63385057D01*
X117904649Y-63385057D02*
X117857030Y-63480295D01*
X117857030Y-63480295D02*
X117857030Y-63623152D01*
X117857030Y-63623152D02*
X117904649Y-63718390D01*
X117904649Y-63718390D02*
X117952268Y-63766009D01*
X117952268Y-63766009D02*
X118047506Y-63813628D01*
X118047506Y-63813628D02*
X118428458Y-63813628D01*
X117571315Y-63289819D02*
X116999887Y-63289819D01*
X117285601Y-64289819D02*
X117285601Y-63289819D01*
X115380839Y-64289819D02*
X115952267Y-64289819D01*
X115666553Y-64289819D02*
X115666553Y-63289819D01*
X115666553Y-63289819D02*
X115761791Y-63432676D01*
X115761791Y-63432676D02*
X115857029Y-63527914D01*
X115857029Y-63527914D02*
X115952267Y-63575533D01*
X114333219Y-63289819D02*
X113761791Y-63289819D01*
X114047505Y-64289819D02*
X114047505Y-63289819D01*
X113523695Y-63289819D02*
X112857029Y-64289819D01*
X112857029Y-63289819D02*
X113523695Y-64289819D01*
X111476076Y-64623152D02*
X111476076Y-63194580D01*
X109999885Y-64289819D02*
X109999885Y-63289819D01*
X109571314Y-63385057D02*
X109523695Y-63337438D01*
X109523695Y-63337438D02*
X109428457Y-63289819D01*
X109428457Y-63289819D02*
X109190362Y-63289819D01*
X109190362Y-63289819D02*
X109095124Y-63337438D01*
X109095124Y-63337438D02*
X109047505Y-63385057D01*
X109047505Y-63385057D02*
X108999886Y-63480295D01*
X108999886Y-63480295D02*
X108999886Y-63575533D01*
X108999886Y-63575533D02*
X109047505Y-63718390D01*
X109047505Y-63718390D02*
X109618933Y-64289819D01*
X109618933Y-64289819D02*
X108999886Y-64289819D01*
X107999886Y-64194580D02*
X108047505Y-64242200D01*
X108047505Y-64242200D02*
X108190362Y-64289819D01*
X108190362Y-64289819D02*
X108285600Y-64289819D01*
X108285600Y-64289819D02*
X108428457Y-64242200D01*
X108428457Y-64242200D02*
X108523695Y-64146961D01*
X108523695Y-64146961D02*
X108571314Y-64051723D01*
X108571314Y-64051723D02*
X108618933Y-63861247D01*
X108618933Y-63861247D02*
X108618933Y-63718390D01*
X108618933Y-63718390D02*
X108571314Y-63527914D01*
X108571314Y-63527914D02*
X108523695Y-63432676D01*
X108523695Y-63432676D02*
X108428457Y-63337438D01*
X108428457Y-63337438D02*
X108285600Y-63289819D01*
X108285600Y-63289819D02*
X108190362Y-63289819D01*
X108190362Y-63289819D02*
X108047505Y-63337438D01*
X108047505Y-63337438D02*
X107999886Y-63385057D01*
X106618933Y-63289819D02*
X106523695Y-63289819D01*
X106523695Y-63289819D02*
X106428457Y-63337438D01*
X106428457Y-63337438D02*
X106380838Y-63385057D01*
X106380838Y-63385057D02*
X106333219Y-63480295D01*
X106333219Y-63480295D02*
X106285600Y-63670771D01*
X106285600Y-63670771D02*
X106285600Y-63908866D01*
X106285600Y-63908866D02*
X106333219Y-64099342D01*
X106333219Y-64099342D02*
X106380838Y-64194580D01*
X106380838Y-64194580D02*
X106428457Y-64242200D01*
X106428457Y-64242200D02*
X106523695Y-64289819D01*
X106523695Y-64289819D02*
X106618933Y-64289819D01*
X106618933Y-64289819D02*
X106714171Y-64242200D01*
X106714171Y-64242200D02*
X106761790Y-64194580D01*
X106761790Y-64194580D02*
X106809409Y-64099342D01*
X106809409Y-64099342D02*
X106857028Y-63908866D01*
X106857028Y-63908866D02*
X106857028Y-63670771D01*
X106857028Y-63670771D02*
X106809409Y-63480295D01*
X106809409Y-63480295D02*
X106761790Y-63385057D01*
X106761790Y-63385057D02*
X106714171Y-63337438D01*
X106714171Y-63337438D02*
X106618933Y-63289819D01*
X105142742Y-64242200D02*
X104999885Y-64289819D01*
X104999885Y-64289819D02*
X104761790Y-64289819D01*
X104761790Y-64289819D02*
X104666552Y-64242200D01*
X104666552Y-64242200D02*
X104618933Y-64194580D01*
X104618933Y-64194580D02*
X104571314Y-64099342D01*
X104571314Y-64099342D02*
X104571314Y-64004104D01*
X104571314Y-64004104D02*
X104618933Y-63908866D01*
X104618933Y-63908866D02*
X104666552Y-63861247D01*
X104666552Y-63861247D02*
X104761790Y-63813628D01*
X104761790Y-63813628D02*
X104952266Y-63766009D01*
X104952266Y-63766009D02*
X105047504Y-63718390D01*
X105047504Y-63718390D02*
X105095123Y-63670771D01*
X105095123Y-63670771D02*
X105142742Y-63575533D01*
X105142742Y-63575533D02*
X105142742Y-63480295D01*
X105142742Y-63480295D02*
X105095123Y-63385057D01*
X105095123Y-63385057D02*
X105047504Y-63337438D01*
X105047504Y-63337438D02*
X104952266Y-63289819D01*
X104952266Y-63289819D02*
X104714171Y-63289819D01*
X104714171Y-63289819D02*
X104571314Y-63337438D01*
X104142742Y-64289819D02*
X104142742Y-63289819D01*
X104142742Y-63289819D02*
X103904647Y-63289819D01*
X103904647Y-63289819D02*
X103761790Y-63337438D01*
X103761790Y-63337438D02*
X103666552Y-63432676D01*
X103666552Y-63432676D02*
X103618933Y-63527914D01*
X103618933Y-63527914D02*
X103571314Y-63718390D01*
X103571314Y-63718390D02*
X103571314Y-63861247D01*
X103571314Y-63861247D02*
X103618933Y-64051723D01*
X103618933Y-64051723D02*
X103666552Y-64146961D01*
X103666552Y-64146961D02*
X103761790Y-64242200D01*
X103761790Y-64242200D02*
X103904647Y-64289819D01*
X103904647Y-64289819D02*
X104142742Y-64289819D01*
X103190361Y-64004104D02*
X102714171Y-64004104D01*
X103285599Y-64289819D02*
X102952266Y-63289819D01*
X102952266Y-63289819D02*
X102618933Y-64289819D01*
X78228458Y-51869819D02*
X77609411Y-51869819D01*
X77609411Y-51869819D02*
X77942744Y-52250771D01*
X77942744Y-52250771D02*
X77799887Y-52250771D01*
X77799887Y-52250771D02*
X77704649Y-52298390D01*
X77704649Y-52298390D02*
X77657030Y-52346009D01*
X77657030Y-52346009D02*
X77609411Y-52441247D01*
X77609411Y-52441247D02*
X77609411Y-52679342D01*
X77609411Y-52679342D02*
X77657030Y-52774580D01*
X77657030Y-52774580D02*
X77704649Y-52822200D01*
X77704649Y-52822200D02*
X77799887Y-52869819D01*
X77799887Y-52869819D02*
X78085601Y-52869819D01*
X78085601Y-52869819D02*
X78180839Y-52822200D01*
X78180839Y-52822200D02*
X78228458Y-52774580D01*
X77180839Y-52774580D02*
X77133220Y-52822200D01*
X77133220Y-52822200D02*
X77180839Y-52869819D01*
X77180839Y-52869819D02*
X77228458Y-52822200D01*
X77228458Y-52822200D02*
X77180839Y-52774580D01*
X77180839Y-52774580D02*
X77180839Y-52869819D01*
X76799887Y-51869819D02*
X76180840Y-51869819D01*
X76180840Y-51869819D02*
X76514173Y-52250771D01*
X76514173Y-52250771D02*
X76371316Y-52250771D01*
X76371316Y-52250771D02*
X76276078Y-52298390D01*
X76276078Y-52298390D02*
X76228459Y-52346009D01*
X76228459Y-52346009D02*
X76180840Y-52441247D01*
X76180840Y-52441247D02*
X76180840Y-52679342D01*
X76180840Y-52679342D02*
X76228459Y-52774580D01*
X76228459Y-52774580D02*
X76276078Y-52822200D01*
X76276078Y-52822200D02*
X76371316Y-52869819D01*
X76371316Y-52869819D02*
X76657030Y-52869819D01*
X76657030Y-52869819D02*
X76752268Y-52822200D01*
X76752268Y-52822200D02*
X76799887Y-52774580D01*
X105683220Y-79989819D02*
X105683220Y-78989819D01*
X105254649Y-79085057D02*
X105207030Y-79037438D01*
X105207030Y-79037438D02*
X105111792Y-78989819D01*
X105111792Y-78989819D02*
X104873697Y-78989819D01*
X104873697Y-78989819D02*
X104778459Y-79037438D01*
X104778459Y-79037438D02*
X104730840Y-79085057D01*
X104730840Y-79085057D02*
X104683221Y-79180295D01*
X104683221Y-79180295D02*
X104683221Y-79275533D01*
X104683221Y-79275533D02*
X104730840Y-79418390D01*
X104730840Y-79418390D02*
X105302268Y-79989819D01*
X105302268Y-79989819D02*
X104683221Y-79989819D01*
X103683221Y-79894580D02*
X103730840Y-79942200D01*
X103730840Y-79942200D02*
X103873697Y-79989819D01*
X103873697Y-79989819D02*
X103968935Y-79989819D01*
X103968935Y-79989819D02*
X104111792Y-79942200D01*
X104111792Y-79942200D02*
X104207030Y-79846961D01*
X104207030Y-79846961D02*
X104254649Y-79751723D01*
X104254649Y-79751723D02*
X104302268Y-79561247D01*
X104302268Y-79561247D02*
X104302268Y-79418390D01*
X104302268Y-79418390D02*
X104254649Y-79227914D01*
X104254649Y-79227914D02*
X104207030Y-79132676D01*
X104207030Y-79132676D02*
X104111792Y-79037438D01*
X104111792Y-79037438D02*
X103968935Y-78989819D01*
X103968935Y-78989819D02*
X103873697Y-78989819D01*
X103873697Y-78989819D02*
X103730840Y-79037438D01*
X103730840Y-79037438D02*
X103683221Y-79085057D01*
X102302268Y-78989819D02*
X102207030Y-78989819D01*
X102207030Y-78989819D02*
X102111792Y-79037438D01*
X102111792Y-79037438D02*
X102064173Y-79085057D01*
X102064173Y-79085057D02*
X102016554Y-79180295D01*
X102016554Y-79180295D02*
X101968935Y-79370771D01*
X101968935Y-79370771D02*
X101968935Y-79608866D01*
X101968935Y-79608866D02*
X102016554Y-79799342D01*
X102016554Y-79799342D02*
X102064173Y-79894580D01*
X102064173Y-79894580D02*
X102111792Y-79942200D01*
X102111792Y-79942200D02*
X102207030Y-79989819D01*
X102207030Y-79989819D02*
X102302268Y-79989819D01*
X102302268Y-79989819D02*
X102397506Y-79942200D01*
X102397506Y-79942200D02*
X102445125Y-79894580D01*
X102445125Y-79894580D02*
X102492744Y-79799342D01*
X102492744Y-79799342D02*
X102540363Y-79608866D01*
X102540363Y-79608866D02*
X102540363Y-79370771D01*
X102540363Y-79370771D02*
X102492744Y-79180295D01*
X102492744Y-79180295D02*
X102445125Y-79085057D01*
X102445125Y-79085057D02*
X102397506Y-79037438D01*
X102397506Y-79037438D02*
X102302268Y-78989819D01*
X100826077Y-79942200D02*
X100683220Y-79989819D01*
X100683220Y-79989819D02*
X100445125Y-79989819D01*
X100445125Y-79989819D02*
X100349887Y-79942200D01*
X100349887Y-79942200D02*
X100302268Y-79894580D01*
X100302268Y-79894580D02*
X100254649Y-79799342D01*
X100254649Y-79799342D02*
X100254649Y-79704104D01*
X100254649Y-79704104D02*
X100302268Y-79608866D01*
X100302268Y-79608866D02*
X100349887Y-79561247D01*
X100349887Y-79561247D02*
X100445125Y-79513628D01*
X100445125Y-79513628D02*
X100635601Y-79466009D01*
X100635601Y-79466009D02*
X100730839Y-79418390D01*
X100730839Y-79418390D02*
X100778458Y-79370771D01*
X100778458Y-79370771D02*
X100826077Y-79275533D01*
X100826077Y-79275533D02*
X100826077Y-79180295D01*
X100826077Y-79180295D02*
X100778458Y-79085057D01*
X100778458Y-79085057D02*
X100730839Y-79037438D01*
X100730839Y-79037438D02*
X100635601Y-78989819D01*
X100635601Y-78989819D02*
X100397506Y-78989819D01*
X100397506Y-78989819D02*
X100254649Y-79037438D01*
X99254649Y-79894580D02*
X99302268Y-79942200D01*
X99302268Y-79942200D02*
X99445125Y-79989819D01*
X99445125Y-79989819D02*
X99540363Y-79989819D01*
X99540363Y-79989819D02*
X99683220Y-79942200D01*
X99683220Y-79942200D02*
X99778458Y-79846961D01*
X99778458Y-79846961D02*
X99826077Y-79751723D01*
X99826077Y-79751723D02*
X99873696Y-79561247D01*
X99873696Y-79561247D02*
X99873696Y-79418390D01*
X99873696Y-79418390D02*
X99826077Y-79227914D01*
X99826077Y-79227914D02*
X99778458Y-79132676D01*
X99778458Y-79132676D02*
X99683220Y-79037438D01*
X99683220Y-79037438D02*
X99540363Y-78989819D01*
X99540363Y-78989819D02*
X99445125Y-78989819D01*
X99445125Y-78989819D02*
X99302268Y-79037438D01*
X99302268Y-79037438D02*
X99254649Y-79085057D01*
X98349887Y-79989819D02*
X98826077Y-79989819D01*
X98826077Y-79989819D02*
X98826077Y-78989819D01*
X98162200Y-81909160D02*
X98209819Y-82052017D01*
X98209819Y-82052017D02*
X98209819Y-82290112D01*
X98209819Y-82290112D02*
X98162200Y-82385350D01*
X98162200Y-82385350D02*
X98114580Y-82432969D01*
X98114580Y-82432969D02*
X98019342Y-82480588D01*
X98019342Y-82480588D02*
X97924104Y-82480588D01*
X97924104Y-82480588D02*
X97828866Y-82432969D01*
X97828866Y-82432969D02*
X97781247Y-82385350D01*
X97781247Y-82385350D02*
X97733628Y-82290112D01*
X97733628Y-82290112D02*
X97686009Y-82099636D01*
X97686009Y-82099636D02*
X97638390Y-82004398D01*
X97638390Y-82004398D02*
X97590771Y-81956779D01*
X97590771Y-81956779D02*
X97495533Y-81909160D01*
X97495533Y-81909160D02*
X97400295Y-81909160D01*
X97400295Y-81909160D02*
X97305057Y-81956779D01*
X97305057Y-81956779D02*
X97257438Y-82004398D01*
X97257438Y-82004398D02*
X97209819Y-82099636D01*
X97209819Y-82099636D02*
X97209819Y-82337731D01*
X97209819Y-82337731D02*
X97257438Y-82480588D01*
X97209819Y-82813922D02*
X98209819Y-83052017D01*
X98209819Y-83052017D02*
X97495533Y-83242493D01*
X97495533Y-83242493D02*
X98209819Y-83432969D01*
X98209819Y-83432969D02*
X97209819Y-83671065D01*
X98114580Y-84623445D02*
X98162200Y-84575826D01*
X98162200Y-84575826D02*
X98209819Y-84432969D01*
X98209819Y-84432969D02*
X98209819Y-84337731D01*
X98209819Y-84337731D02*
X98162200Y-84194874D01*
X98162200Y-84194874D02*
X98066961Y-84099636D01*
X98066961Y-84099636D02*
X97971723Y-84052017D01*
X97971723Y-84052017D02*
X97781247Y-84004398D01*
X97781247Y-84004398D02*
X97638390Y-84004398D01*
X97638390Y-84004398D02*
X97447914Y-84052017D01*
X97447914Y-84052017D02*
X97352676Y-84099636D01*
X97352676Y-84099636D02*
X97257438Y-84194874D01*
X97257438Y-84194874D02*
X97209819Y-84337731D01*
X97209819Y-84337731D02*
X97209819Y-84432969D01*
X97209819Y-84432969D02*
X97257438Y-84575826D01*
X97257438Y-84575826D02*
X97305057Y-84623445D01*
X98209819Y-85528207D02*
X98209819Y-85052017D01*
X98209819Y-85052017D02*
X97209819Y-85052017D01*
X98209819Y-85861541D02*
X97209819Y-85861541D01*
X98209819Y-86432969D02*
X97638390Y-86004398D01*
X97209819Y-86432969D02*
X97781247Y-85861541D01*
X119712744Y-77439819D02*
X119522268Y-77439819D01*
X119522268Y-77439819D02*
X119427030Y-77487438D01*
X119427030Y-77487438D02*
X119331792Y-77582676D01*
X119331792Y-77582676D02*
X119284173Y-77773152D01*
X119284173Y-77773152D02*
X119284173Y-78106485D01*
X119284173Y-78106485D02*
X119331792Y-78296961D01*
X119331792Y-78296961D02*
X119427030Y-78392200D01*
X119427030Y-78392200D02*
X119522268Y-78439819D01*
X119522268Y-78439819D02*
X119712744Y-78439819D01*
X119712744Y-78439819D02*
X119807982Y-78392200D01*
X119807982Y-78392200D02*
X119903220Y-78296961D01*
X119903220Y-78296961D02*
X119950839Y-78106485D01*
X119950839Y-78106485D02*
X119950839Y-77773152D01*
X119950839Y-77773152D02*
X119903220Y-77582676D01*
X119903220Y-77582676D02*
X119807982Y-77487438D01*
X119807982Y-77487438D02*
X119712744Y-77439819D01*
X118855601Y-77439819D02*
X118855601Y-78249342D01*
X118855601Y-78249342D02*
X118807982Y-78344580D01*
X118807982Y-78344580D02*
X118760363Y-78392200D01*
X118760363Y-78392200D02*
X118665125Y-78439819D01*
X118665125Y-78439819D02*
X118474649Y-78439819D01*
X118474649Y-78439819D02*
X118379411Y-78392200D01*
X118379411Y-78392200D02*
X118331792Y-78344580D01*
X118331792Y-78344580D02*
X118284173Y-78249342D01*
X118284173Y-78249342D02*
X118284173Y-77439819D01*
X117950839Y-77439819D02*
X117379411Y-77439819D01*
X117665125Y-78439819D02*
X117665125Y-77439819D01*
X117046077Y-78439819D02*
X117046077Y-77439819D01*
X117046077Y-77439819D02*
X116665125Y-77439819D01*
X116665125Y-77439819D02*
X116569887Y-77487438D01*
X116569887Y-77487438D02*
X116522268Y-77535057D01*
X116522268Y-77535057D02*
X116474649Y-77630295D01*
X116474649Y-77630295D02*
X116474649Y-77773152D01*
X116474649Y-77773152D02*
X116522268Y-77868390D01*
X116522268Y-77868390D02*
X116569887Y-77916009D01*
X116569887Y-77916009D02*
X116665125Y-77963628D01*
X116665125Y-77963628D02*
X117046077Y-77963628D01*
X116046077Y-77439819D02*
X116046077Y-78249342D01*
X116046077Y-78249342D02*
X115998458Y-78344580D01*
X115998458Y-78344580D02*
X115950839Y-78392200D01*
X115950839Y-78392200D02*
X115855601Y-78439819D01*
X115855601Y-78439819D02*
X115665125Y-78439819D01*
X115665125Y-78439819D02*
X115569887Y-78392200D01*
X115569887Y-78392200D02*
X115522268Y-78344580D01*
X115522268Y-78344580D02*
X115474649Y-78249342D01*
X115474649Y-78249342D02*
X115474649Y-77439819D01*
X115141315Y-77439819D02*
X114569887Y-77439819D01*
X114855601Y-78439819D02*
X114855601Y-77439819D01*
X113284172Y-77439819D02*
X113093696Y-77439819D01*
X113093696Y-77439819D02*
X112998458Y-77487438D01*
X112998458Y-77487438D02*
X112903220Y-77582676D01*
X112903220Y-77582676D02*
X112855601Y-77773152D01*
X112855601Y-77773152D02*
X112855601Y-78106485D01*
X112855601Y-78106485D02*
X112903220Y-78296961D01*
X112903220Y-78296961D02*
X112998458Y-78392200D01*
X112998458Y-78392200D02*
X113093696Y-78439819D01*
X113093696Y-78439819D02*
X113284172Y-78439819D01*
X113284172Y-78439819D02*
X113379410Y-78392200D01*
X113379410Y-78392200D02*
X113474648Y-78296961D01*
X113474648Y-78296961D02*
X113522267Y-78106485D01*
X113522267Y-78106485D02*
X113522267Y-77773152D01*
X113522267Y-77773152D02*
X113474648Y-77582676D01*
X113474648Y-77582676D02*
X113379410Y-77487438D01*
X113379410Y-77487438D02*
X113284172Y-77439819D01*
X112427029Y-78439819D02*
X112427029Y-77439819D01*
X112427029Y-77439819D02*
X111855601Y-78439819D01*
X111855601Y-78439819D02*
X111855601Y-77439819D01*
X110903220Y-78439819D02*
X111379410Y-78439819D01*
X111379410Y-78439819D02*
X111379410Y-77439819D01*
X110379410Y-77963628D02*
X110379410Y-78439819D01*
X110712743Y-77439819D02*
X110379410Y-77963628D01*
X110379410Y-77963628D02*
X110046077Y-77439819D01*
X76309411Y-49247438D02*
X76404649Y-49199819D01*
X76404649Y-49199819D02*
X76547506Y-49199819D01*
X76547506Y-49199819D02*
X76690363Y-49247438D01*
X76690363Y-49247438D02*
X76785601Y-49342676D01*
X76785601Y-49342676D02*
X76833220Y-49437914D01*
X76833220Y-49437914D02*
X76880839Y-49628390D01*
X76880839Y-49628390D02*
X76880839Y-49771247D01*
X76880839Y-49771247D02*
X76833220Y-49961723D01*
X76833220Y-49961723D02*
X76785601Y-50056961D01*
X76785601Y-50056961D02*
X76690363Y-50152200D01*
X76690363Y-50152200D02*
X76547506Y-50199819D01*
X76547506Y-50199819D02*
X76452268Y-50199819D01*
X76452268Y-50199819D02*
X76309411Y-50152200D01*
X76309411Y-50152200D02*
X76261792Y-50104580D01*
X76261792Y-50104580D02*
X76261792Y-49771247D01*
X76261792Y-49771247D02*
X76452268Y-49771247D01*
X120503220Y-52909819D02*
X120503220Y-53719342D01*
X120503220Y-53719342D02*
X120455601Y-53814580D01*
X120455601Y-53814580D02*
X120407982Y-53862200D01*
X120407982Y-53862200D02*
X120312744Y-53909819D01*
X120312744Y-53909819D02*
X120122268Y-53909819D01*
X120122268Y-53909819D02*
X120027030Y-53862200D01*
X120027030Y-53862200D02*
X119979411Y-53814580D01*
X119979411Y-53814580D02*
X119931792Y-53719342D01*
X119931792Y-53719342D02*
X119931792Y-52909819D01*
X119503220Y-53624104D02*
X119027030Y-53624104D01*
X119598458Y-53909819D02*
X119265125Y-52909819D01*
X119265125Y-52909819D02*
X118931792Y-53909819D01*
X118027030Y-53909819D02*
X118360363Y-53433628D01*
X118598458Y-53909819D02*
X118598458Y-52909819D01*
X118598458Y-52909819D02*
X118217506Y-52909819D01*
X118217506Y-52909819D02*
X118122268Y-52957438D01*
X118122268Y-52957438D02*
X118074649Y-53005057D01*
X118074649Y-53005057D02*
X118027030Y-53100295D01*
X118027030Y-53100295D02*
X118027030Y-53243152D01*
X118027030Y-53243152D02*
X118074649Y-53338390D01*
X118074649Y-53338390D02*
X118122268Y-53386009D01*
X118122268Y-53386009D02*
X118217506Y-53433628D01*
X118217506Y-53433628D02*
X118598458Y-53433628D01*
X117741315Y-52909819D02*
X117169887Y-52909819D01*
X117455601Y-53909819D02*
X117455601Y-52909819D01*
X116646077Y-52909819D02*
X116550839Y-52909819D01*
X116550839Y-52909819D02*
X116455601Y-52957438D01*
X116455601Y-52957438D02*
X116407982Y-53005057D01*
X116407982Y-53005057D02*
X116360363Y-53100295D01*
X116360363Y-53100295D02*
X116312744Y-53290771D01*
X116312744Y-53290771D02*
X116312744Y-53528866D01*
X116312744Y-53528866D02*
X116360363Y-53719342D01*
X116360363Y-53719342D02*
X116407982Y-53814580D01*
X116407982Y-53814580D02*
X116455601Y-53862200D01*
X116455601Y-53862200D02*
X116550839Y-53909819D01*
X116550839Y-53909819D02*
X116646077Y-53909819D01*
X116646077Y-53909819D02*
X116741315Y-53862200D01*
X116741315Y-53862200D02*
X116788934Y-53814580D01*
X116788934Y-53814580D02*
X116836553Y-53719342D01*
X116836553Y-53719342D02*
X116884172Y-53528866D01*
X116884172Y-53528866D02*
X116884172Y-53290771D01*
X116884172Y-53290771D02*
X116836553Y-53100295D01*
X116836553Y-53100295D02*
X116788934Y-53005057D01*
X116788934Y-53005057D02*
X116741315Y-52957438D01*
X116741315Y-52957438D02*
X116646077Y-52909819D01*
X115265124Y-52909819D02*
X114693696Y-52909819D01*
X114979410Y-53909819D02*
X114979410Y-52909819D01*
X114455600Y-52909819D02*
X113788934Y-53909819D01*
X113788934Y-52909819D02*
X114455600Y-53909819D01*
X112407981Y-54243152D02*
X112407981Y-52814580D01*
X110931790Y-53909819D02*
X110931790Y-52909819D01*
X110503219Y-53005057D02*
X110455600Y-52957438D01*
X110455600Y-52957438D02*
X110360362Y-52909819D01*
X110360362Y-52909819D02*
X110122267Y-52909819D01*
X110122267Y-52909819D02*
X110027029Y-52957438D01*
X110027029Y-52957438D02*
X109979410Y-53005057D01*
X109979410Y-53005057D02*
X109931791Y-53100295D01*
X109931791Y-53100295D02*
X109931791Y-53195533D01*
X109931791Y-53195533D02*
X109979410Y-53338390D01*
X109979410Y-53338390D02*
X110550838Y-53909819D01*
X110550838Y-53909819D02*
X109931791Y-53909819D01*
X108931791Y-53814580D02*
X108979410Y-53862200D01*
X108979410Y-53862200D02*
X109122267Y-53909819D01*
X109122267Y-53909819D02*
X109217505Y-53909819D01*
X109217505Y-53909819D02*
X109360362Y-53862200D01*
X109360362Y-53862200D02*
X109455600Y-53766961D01*
X109455600Y-53766961D02*
X109503219Y-53671723D01*
X109503219Y-53671723D02*
X109550838Y-53481247D01*
X109550838Y-53481247D02*
X109550838Y-53338390D01*
X109550838Y-53338390D02*
X109503219Y-53147914D01*
X109503219Y-53147914D02*
X109455600Y-53052676D01*
X109455600Y-53052676D02*
X109360362Y-52957438D01*
X109360362Y-52957438D02*
X109217505Y-52909819D01*
X109217505Y-52909819D02*
X109122267Y-52909819D01*
X109122267Y-52909819D02*
X108979410Y-52957438D01*
X108979410Y-52957438D02*
X108931791Y-53005057D01*
X107550838Y-52909819D02*
X107455600Y-52909819D01*
X107455600Y-52909819D02*
X107360362Y-52957438D01*
X107360362Y-52957438D02*
X107312743Y-53005057D01*
X107312743Y-53005057D02*
X107265124Y-53100295D01*
X107265124Y-53100295D02*
X107217505Y-53290771D01*
X107217505Y-53290771D02*
X107217505Y-53528866D01*
X107217505Y-53528866D02*
X107265124Y-53719342D01*
X107265124Y-53719342D02*
X107312743Y-53814580D01*
X107312743Y-53814580D02*
X107360362Y-53862200D01*
X107360362Y-53862200D02*
X107455600Y-53909819D01*
X107455600Y-53909819D02*
X107550838Y-53909819D01*
X107550838Y-53909819D02*
X107646076Y-53862200D01*
X107646076Y-53862200D02*
X107693695Y-53814580D01*
X107693695Y-53814580D02*
X107741314Y-53719342D01*
X107741314Y-53719342D02*
X107788933Y-53528866D01*
X107788933Y-53528866D02*
X107788933Y-53290771D01*
X107788933Y-53290771D02*
X107741314Y-53100295D01*
X107741314Y-53100295D02*
X107693695Y-53005057D01*
X107693695Y-53005057D02*
X107646076Y-52957438D01*
X107646076Y-52957438D02*
X107550838Y-52909819D01*
X106074647Y-53862200D02*
X105931790Y-53909819D01*
X105931790Y-53909819D02*
X105693695Y-53909819D01*
X105693695Y-53909819D02*
X105598457Y-53862200D01*
X105598457Y-53862200D02*
X105550838Y-53814580D01*
X105550838Y-53814580D02*
X105503219Y-53719342D01*
X105503219Y-53719342D02*
X105503219Y-53624104D01*
X105503219Y-53624104D02*
X105550838Y-53528866D01*
X105550838Y-53528866D02*
X105598457Y-53481247D01*
X105598457Y-53481247D02*
X105693695Y-53433628D01*
X105693695Y-53433628D02*
X105884171Y-53386009D01*
X105884171Y-53386009D02*
X105979409Y-53338390D01*
X105979409Y-53338390D02*
X106027028Y-53290771D01*
X106027028Y-53290771D02*
X106074647Y-53195533D01*
X106074647Y-53195533D02*
X106074647Y-53100295D01*
X106074647Y-53100295D02*
X106027028Y-53005057D01*
X106027028Y-53005057D02*
X105979409Y-52957438D01*
X105979409Y-52957438D02*
X105884171Y-52909819D01*
X105884171Y-52909819D02*
X105646076Y-52909819D01*
X105646076Y-52909819D02*
X105503219Y-52957438D01*
X105074647Y-53909819D02*
X105074647Y-52909819D01*
X105074647Y-52909819D02*
X104836552Y-52909819D01*
X104836552Y-52909819D02*
X104693695Y-52957438D01*
X104693695Y-52957438D02*
X104598457Y-53052676D01*
X104598457Y-53052676D02*
X104550838Y-53147914D01*
X104550838Y-53147914D02*
X104503219Y-53338390D01*
X104503219Y-53338390D02*
X104503219Y-53481247D01*
X104503219Y-53481247D02*
X104550838Y-53671723D01*
X104550838Y-53671723D02*
X104598457Y-53766961D01*
X104598457Y-53766961D02*
X104693695Y-53862200D01*
X104693695Y-53862200D02*
X104836552Y-53909819D01*
X104836552Y-53909819D02*
X105074647Y-53909819D01*
X104122266Y-53624104D02*
X103646076Y-53624104D01*
X104217504Y-53909819D02*
X103884171Y-52909819D01*
X103884171Y-52909819D02*
X103550838Y-53909819D01*
X120503220Y-50759819D02*
X120503220Y-51569342D01*
X120503220Y-51569342D02*
X120455601Y-51664580D01*
X120455601Y-51664580D02*
X120407982Y-51712200D01*
X120407982Y-51712200D02*
X120312744Y-51759819D01*
X120312744Y-51759819D02*
X120122268Y-51759819D01*
X120122268Y-51759819D02*
X120027030Y-51712200D01*
X120027030Y-51712200D02*
X119979411Y-51664580D01*
X119979411Y-51664580D02*
X119931792Y-51569342D01*
X119931792Y-51569342D02*
X119931792Y-50759819D01*
X119503220Y-51474104D02*
X119027030Y-51474104D01*
X119598458Y-51759819D02*
X119265125Y-50759819D01*
X119265125Y-50759819D02*
X118931792Y-51759819D01*
X118027030Y-51759819D02*
X118360363Y-51283628D01*
X118598458Y-51759819D02*
X118598458Y-50759819D01*
X118598458Y-50759819D02*
X118217506Y-50759819D01*
X118217506Y-50759819D02*
X118122268Y-50807438D01*
X118122268Y-50807438D02*
X118074649Y-50855057D01*
X118074649Y-50855057D02*
X118027030Y-50950295D01*
X118027030Y-50950295D02*
X118027030Y-51093152D01*
X118027030Y-51093152D02*
X118074649Y-51188390D01*
X118074649Y-51188390D02*
X118122268Y-51236009D01*
X118122268Y-51236009D02*
X118217506Y-51283628D01*
X118217506Y-51283628D02*
X118598458Y-51283628D01*
X117741315Y-50759819D02*
X117169887Y-50759819D01*
X117455601Y-51759819D02*
X117455601Y-50759819D01*
X116646077Y-50759819D02*
X116550839Y-50759819D01*
X116550839Y-50759819D02*
X116455601Y-50807438D01*
X116455601Y-50807438D02*
X116407982Y-50855057D01*
X116407982Y-50855057D02*
X116360363Y-50950295D01*
X116360363Y-50950295D02*
X116312744Y-51140771D01*
X116312744Y-51140771D02*
X116312744Y-51378866D01*
X116312744Y-51378866D02*
X116360363Y-51569342D01*
X116360363Y-51569342D02*
X116407982Y-51664580D01*
X116407982Y-51664580D02*
X116455601Y-51712200D01*
X116455601Y-51712200D02*
X116550839Y-51759819D01*
X116550839Y-51759819D02*
X116646077Y-51759819D01*
X116646077Y-51759819D02*
X116741315Y-51712200D01*
X116741315Y-51712200D02*
X116788934Y-51664580D01*
X116788934Y-51664580D02*
X116836553Y-51569342D01*
X116836553Y-51569342D02*
X116884172Y-51378866D01*
X116884172Y-51378866D02*
X116884172Y-51140771D01*
X116884172Y-51140771D02*
X116836553Y-50950295D01*
X116836553Y-50950295D02*
X116788934Y-50855057D01*
X116788934Y-50855057D02*
X116741315Y-50807438D01*
X116741315Y-50807438D02*
X116646077Y-50759819D01*
X114550839Y-51759819D02*
X114884172Y-51283628D01*
X115122267Y-51759819D02*
X115122267Y-50759819D01*
X115122267Y-50759819D02*
X114741315Y-50759819D01*
X114741315Y-50759819D02*
X114646077Y-50807438D01*
X114646077Y-50807438D02*
X114598458Y-50855057D01*
X114598458Y-50855057D02*
X114550839Y-50950295D01*
X114550839Y-50950295D02*
X114550839Y-51093152D01*
X114550839Y-51093152D02*
X114598458Y-51188390D01*
X114598458Y-51188390D02*
X114646077Y-51236009D01*
X114646077Y-51236009D02*
X114741315Y-51283628D01*
X114741315Y-51283628D02*
X115122267Y-51283628D01*
X114217505Y-50759819D02*
X113550839Y-51759819D01*
X113550839Y-50759819D02*
X114217505Y-51759819D01*
X112169886Y-52093152D02*
X112169886Y-50664580D01*
X110693695Y-51759819D02*
X110693695Y-50759819D01*
X110265124Y-50855057D02*
X110217505Y-50807438D01*
X110217505Y-50807438D02*
X110122267Y-50759819D01*
X110122267Y-50759819D02*
X109884172Y-50759819D01*
X109884172Y-50759819D02*
X109788934Y-50807438D01*
X109788934Y-50807438D02*
X109741315Y-50855057D01*
X109741315Y-50855057D02*
X109693696Y-50950295D01*
X109693696Y-50950295D02*
X109693696Y-51045533D01*
X109693696Y-51045533D02*
X109741315Y-51188390D01*
X109741315Y-51188390D02*
X110312743Y-51759819D01*
X110312743Y-51759819D02*
X109693696Y-51759819D01*
X108693696Y-51664580D02*
X108741315Y-51712200D01*
X108741315Y-51712200D02*
X108884172Y-51759819D01*
X108884172Y-51759819D02*
X108979410Y-51759819D01*
X108979410Y-51759819D02*
X109122267Y-51712200D01*
X109122267Y-51712200D02*
X109217505Y-51616961D01*
X109217505Y-51616961D02*
X109265124Y-51521723D01*
X109265124Y-51521723D02*
X109312743Y-51331247D01*
X109312743Y-51331247D02*
X109312743Y-51188390D01*
X109312743Y-51188390D02*
X109265124Y-50997914D01*
X109265124Y-50997914D02*
X109217505Y-50902676D01*
X109217505Y-50902676D02*
X109122267Y-50807438D01*
X109122267Y-50807438D02*
X108979410Y-50759819D01*
X108979410Y-50759819D02*
X108884172Y-50759819D01*
X108884172Y-50759819D02*
X108741315Y-50807438D01*
X108741315Y-50807438D02*
X108693696Y-50855057D01*
X107312743Y-50759819D02*
X107217505Y-50759819D01*
X107217505Y-50759819D02*
X107122267Y-50807438D01*
X107122267Y-50807438D02*
X107074648Y-50855057D01*
X107074648Y-50855057D02*
X107027029Y-50950295D01*
X107027029Y-50950295D02*
X106979410Y-51140771D01*
X106979410Y-51140771D02*
X106979410Y-51378866D01*
X106979410Y-51378866D02*
X107027029Y-51569342D01*
X107027029Y-51569342D02*
X107074648Y-51664580D01*
X107074648Y-51664580D02*
X107122267Y-51712200D01*
X107122267Y-51712200D02*
X107217505Y-51759819D01*
X107217505Y-51759819D02*
X107312743Y-51759819D01*
X107312743Y-51759819D02*
X107407981Y-51712200D01*
X107407981Y-51712200D02*
X107455600Y-51664580D01*
X107455600Y-51664580D02*
X107503219Y-51569342D01*
X107503219Y-51569342D02*
X107550838Y-51378866D01*
X107550838Y-51378866D02*
X107550838Y-51140771D01*
X107550838Y-51140771D02*
X107503219Y-50950295D01*
X107503219Y-50950295D02*
X107455600Y-50855057D01*
X107455600Y-50855057D02*
X107407981Y-50807438D01*
X107407981Y-50807438D02*
X107312743Y-50759819D01*
X105836552Y-51712200D02*
X105693695Y-51759819D01*
X105693695Y-51759819D02*
X105455600Y-51759819D01*
X105455600Y-51759819D02*
X105360362Y-51712200D01*
X105360362Y-51712200D02*
X105312743Y-51664580D01*
X105312743Y-51664580D02*
X105265124Y-51569342D01*
X105265124Y-51569342D02*
X105265124Y-51474104D01*
X105265124Y-51474104D02*
X105312743Y-51378866D01*
X105312743Y-51378866D02*
X105360362Y-51331247D01*
X105360362Y-51331247D02*
X105455600Y-51283628D01*
X105455600Y-51283628D02*
X105646076Y-51236009D01*
X105646076Y-51236009D02*
X105741314Y-51188390D01*
X105741314Y-51188390D02*
X105788933Y-51140771D01*
X105788933Y-51140771D02*
X105836552Y-51045533D01*
X105836552Y-51045533D02*
X105836552Y-50950295D01*
X105836552Y-50950295D02*
X105788933Y-50855057D01*
X105788933Y-50855057D02*
X105741314Y-50807438D01*
X105741314Y-50807438D02*
X105646076Y-50759819D01*
X105646076Y-50759819D02*
X105407981Y-50759819D01*
X105407981Y-50759819D02*
X105265124Y-50807438D01*
X104265124Y-51664580D02*
X104312743Y-51712200D01*
X104312743Y-51712200D02*
X104455600Y-51759819D01*
X104455600Y-51759819D02*
X104550838Y-51759819D01*
X104550838Y-51759819D02*
X104693695Y-51712200D01*
X104693695Y-51712200D02*
X104788933Y-51616961D01*
X104788933Y-51616961D02*
X104836552Y-51521723D01*
X104836552Y-51521723D02*
X104884171Y-51331247D01*
X104884171Y-51331247D02*
X104884171Y-51188390D01*
X104884171Y-51188390D02*
X104836552Y-50997914D01*
X104836552Y-50997914D02*
X104788933Y-50902676D01*
X104788933Y-50902676D02*
X104693695Y-50807438D01*
X104693695Y-50807438D02*
X104550838Y-50759819D01*
X104550838Y-50759819D02*
X104455600Y-50759819D01*
X104455600Y-50759819D02*
X104312743Y-50807438D01*
X104312743Y-50807438D02*
X104265124Y-50855057D01*
X103360362Y-51759819D02*
X103836552Y-51759819D01*
X103836552Y-51759819D02*
X103836552Y-50759819D01*
X105733220Y-74659819D02*
X105733220Y-73659819D01*
X105304649Y-73755057D02*
X105257030Y-73707438D01*
X105257030Y-73707438D02*
X105161792Y-73659819D01*
X105161792Y-73659819D02*
X104923697Y-73659819D01*
X104923697Y-73659819D02*
X104828459Y-73707438D01*
X104828459Y-73707438D02*
X104780840Y-73755057D01*
X104780840Y-73755057D02*
X104733221Y-73850295D01*
X104733221Y-73850295D02*
X104733221Y-73945533D01*
X104733221Y-73945533D02*
X104780840Y-74088390D01*
X104780840Y-74088390D02*
X105352268Y-74659819D01*
X105352268Y-74659819D02*
X104733221Y-74659819D01*
X103733221Y-74564580D02*
X103780840Y-74612200D01*
X103780840Y-74612200D02*
X103923697Y-74659819D01*
X103923697Y-74659819D02*
X104018935Y-74659819D01*
X104018935Y-74659819D02*
X104161792Y-74612200D01*
X104161792Y-74612200D02*
X104257030Y-74516961D01*
X104257030Y-74516961D02*
X104304649Y-74421723D01*
X104304649Y-74421723D02*
X104352268Y-74231247D01*
X104352268Y-74231247D02*
X104352268Y-74088390D01*
X104352268Y-74088390D02*
X104304649Y-73897914D01*
X104304649Y-73897914D02*
X104257030Y-73802676D01*
X104257030Y-73802676D02*
X104161792Y-73707438D01*
X104161792Y-73707438D02*
X104018935Y-73659819D01*
X104018935Y-73659819D02*
X103923697Y-73659819D01*
X103923697Y-73659819D02*
X103780840Y-73707438D01*
X103780840Y-73707438D02*
X103733221Y-73755057D01*
X102018935Y-74659819D02*
X102590363Y-74659819D01*
X102304649Y-74659819D02*
X102304649Y-73659819D01*
X102304649Y-73659819D02*
X102399887Y-73802676D01*
X102399887Y-73802676D02*
X102495125Y-73897914D01*
X102495125Y-73897914D02*
X102590363Y-73945533D01*
X100876077Y-74612200D02*
X100733220Y-74659819D01*
X100733220Y-74659819D02*
X100495125Y-74659819D01*
X100495125Y-74659819D02*
X100399887Y-74612200D01*
X100399887Y-74612200D02*
X100352268Y-74564580D01*
X100352268Y-74564580D02*
X100304649Y-74469342D01*
X100304649Y-74469342D02*
X100304649Y-74374104D01*
X100304649Y-74374104D02*
X100352268Y-74278866D01*
X100352268Y-74278866D02*
X100399887Y-74231247D01*
X100399887Y-74231247D02*
X100495125Y-74183628D01*
X100495125Y-74183628D02*
X100685601Y-74136009D01*
X100685601Y-74136009D02*
X100780839Y-74088390D01*
X100780839Y-74088390D02*
X100828458Y-74040771D01*
X100828458Y-74040771D02*
X100876077Y-73945533D01*
X100876077Y-73945533D02*
X100876077Y-73850295D01*
X100876077Y-73850295D02*
X100828458Y-73755057D01*
X100828458Y-73755057D02*
X100780839Y-73707438D01*
X100780839Y-73707438D02*
X100685601Y-73659819D01*
X100685601Y-73659819D02*
X100447506Y-73659819D01*
X100447506Y-73659819D02*
X100304649Y-73707438D01*
X99304649Y-74564580D02*
X99352268Y-74612200D01*
X99352268Y-74612200D02*
X99495125Y-74659819D01*
X99495125Y-74659819D02*
X99590363Y-74659819D01*
X99590363Y-74659819D02*
X99733220Y-74612200D01*
X99733220Y-74612200D02*
X99828458Y-74516961D01*
X99828458Y-74516961D02*
X99876077Y-74421723D01*
X99876077Y-74421723D02*
X99923696Y-74231247D01*
X99923696Y-74231247D02*
X99923696Y-74088390D01*
X99923696Y-74088390D02*
X99876077Y-73897914D01*
X99876077Y-73897914D02*
X99828458Y-73802676D01*
X99828458Y-73802676D02*
X99733220Y-73707438D01*
X99733220Y-73707438D02*
X99590363Y-73659819D01*
X99590363Y-73659819D02*
X99495125Y-73659819D01*
X99495125Y-73659819D02*
X99352268Y-73707438D01*
X99352268Y-73707438D02*
X99304649Y-73755057D01*
X98399887Y-74659819D02*
X98876077Y-74659819D01*
X98876077Y-74659819D02*
X98876077Y-73659819D01*
X77691792Y-55359819D02*
X78025125Y-54883628D01*
X78263220Y-55359819D02*
X78263220Y-54359819D01*
X78263220Y-54359819D02*
X77882268Y-54359819D01*
X77882268Y-54359819D02*
X77787030Y-54407438D01*
X77787030Y-54407438D02*
X77739411Y-54455057D01*
X77739411Y-54455057D02*
X77691792Y-54550295D01*
X77691792Y-54550295D02*
X77691792Y-54693152D01*
X77691792Y-54693152D02*
X77739411Y-54788390D01*
X77739411Y-54788390D02*
X77787030Y-54836009D01*
X77787030Y-54836009D02*
X77882268Y-54883628D01*
X77882268Y-54883628D02*
X78263220Y-54883628D01*
X77310839Y-55312200D02*
X77167982Y-55359819D01*
X77167982Y-55359819D02*
X76929887Y-55359819D01*
X76929887Y-55359819D02*
X76834649Y-55312200D01*
X76834649Y-55312200D02*
X76787030Y-55264580D01*
X76787030Y-55264580D02*
X76739411Y-55169342D01*
X76739411Y-55169342D02*
X76739411Y-55074104D01*
X76739411Y-55074104D02*
X76787030Y-54978866D01*
X76787030Y-54978866D02*
X76834649Y-54931247D01*
X76834649Y-54931247D02*
X76929887Y-54883628D01*
X76929887Y-54883628D02*
X77120363Y-54836009D01*
X77120363Y-54836009D02*
X77215601Y-54788390D01*
X77215601Y-54788390D02*
X77263220Y-54740771D01*
X77263220Y-54740771D02*
X77310839Y-54645533D01*
X77310839Y-54645533D02*
X77310839Y-54550295D01*
X77310839Y-54550295D02*
X77263220Y-54455057D01*
X77263220Y-54455057D02*
X77215601Y-54407438D01*
X77215601Y-54407438D02*
X77120363Y-54359819D01*
X77120363Y-54359819D02*
X76882268Y-54359819D01*
X76882268Y-54359819D02*
X76739411Y-54407438D01*
X76453696Y-54359819D02*
X75882268Y-54359819D01*
X76167982Y-55359819D02*
X76167982Y-54359819D01*
X120483220Y-84959819D02*
X120483220Y-85769342D01*
X120483220Y-85769342D02*
X120435601Y-85864580D01*
X120435601Y-85864580D02*
X120387982Y-85912200D01*
X120387982Y-85912200D02*
X120292744Y-85959819D01*
X120292744Y-85959819D02*
X120102268Y-85959819D01*
X120102268Y-85959819D02*
X120007030Y-85912200D01*
X120007030Y-85912200D02*
X119959411Y-85864580D01*
X119959411Y-85864580D02*
X119911792Y-85769342D01*
X119911792Y-85769342D02*
X119911792Y-84959819D01*
X119483220Y-85674104D02*
X119007030Y-85674104D01*
X119578458Y-85959819D02*
X119245125Y-84959819D01*
X119245125Y-84959819D02*
X118911792Y-85959819D01*
X118007030Y-85959819D02*
X118340363Y-85483628D01*
X118578458Y-85959819D02*
X118578458Y-84959819D01*
X118578458Y-84959819D02*
X118197506Y-84959819D01*
X118197506Y-84959819D02*
X118102268Y-85007438D01*
X118102268Y-85007438D02*
X118054649Y-85055057D01*
X118054649Y-85055057D02*
X118007030Y-85150295D01*
X118007030Y-85150295D02*
X118007030Y-85293152D01*
X118007030Y-85293152D02*
X118054649Y-85388390D01*
X118054649Y-85388390D02*
X118102268Y-85436009D01*
X118102268Y-85436009D02*
X118197506Y-85483628D01*
X118197506Y-85483628D02*
X118578458Y-85483628D01*
X117721315Y-84959819D02*
X117149887Y-84959819D01*
X117435601Y-85959819D02*
X117435601Y-84959819D01*
X115864172Y-84959819D02*
X115768934Y-84959819D01*
X115768934Y-84959819D02*
X115673696Y-85007438D01*
X115673696Y-85007438D02*
X115626077Y-85055057D01*
X115626077Y-85055057D02*
X115578458Y-85150295D01*
X115578458Y-85150295D02*
X115530839Y-85340771D01*
X115530839Y-85340771D02*
X115530839Y-85578866D01*
X115530839Y-85578866D02*
X115578458Y-85769342D01*
X115578458Y-85769342D02*
X115626077Y-85864580D01*
X115626077Y-85864580D02*
X115673696Y-85912200D01*
X115673696Y-85912200D02*
X115768934Y-85959819D01*
X115768934Y-85959819D02*
X115864172Y-85959819D01*
X115864172Y-85959819D02*
X115959410Y-85912200D01*
X115959410Y-85912200D02*
X116007029Y-85864580D01*
X116007029Y-85864580D02*
X116054648Y-85769342D01*
X116054648Y-85769342D02*
X116102267Y-85578866D01*
X116102267Y-85578866D02*
X116102267Y-85340771D01*
X116102267Y-85340771D02*
X116054648Y-85150295D01*
X116054648Y-85150295D02*
X116007029Y-85055057D01*
X116007029Y-85055057D02*
X115959410Y-85007438D01*
X115959410Y-85007438D02*
X115864172Y-84959819D01*
X120353922Y-77898866D02*
X120401541Y-77851247D01*
X120401541Y-77851247D02*
X120496779Y-77803628D01*
X120496779Y-77803628D02*
X120687255Y-77898866D01*
X120687255Y-77898866D02*
X120782493Y-77851247D01*
X120782493Y-77851247D02*
X120830112Y-77803628D01*
X120613220Y-46379819D02*
X120613220Y-45379819D01*
X120184649Y-45475057D02*
X120137030Y-45427438D01*
X120137030Y-45427438D02*
X120041792Y-45379819D01*
X120041792Y-45379819D02*
X119803697Y-45379819D01*
X119803697Y-45379819D02*
X119708459Y-45427438D01*
X119708459Y-45427438D02*
X119660840Y-45475057D01*
X119660840Y-45475057D02*
X119613221Y-45570295D01*
X119613221Y-45570295D02*
X119613221Y-45665533D01*
X119613221Y-45665533D02*
X119660840Y-45808390D01*
X119660840Y-45808390D02*
X120232268Y-46379819D01*
X120232268Y-46379819D02*
X119613221Y-46379819D01*
X118613221Y-46284580D02*
X118660840Y-46332200D01*
X118660840Y-46332200D02*
X118803697Y-46379819D01*
X118803697Y-46379819D02*
X118898935Y-46379819D01*
X118898935Y-46379819D02*
X119041792Y-46332200D01*
X119041792Y-46332200D02*
X119137030Y-46236961D01*
X119137030Y-46236961D02*
X119184649Y-46141723D01*
X119184649Y-46141723D02*
X119232268Y-45951247D01*
X119232268Y-45951247D02*
X119232268Y-45808390D01*
X119232268Y-45808390D02*
X119184649Y-45617914D01*
X119184649Y-45617914D02*
X119137030Y-45522676D01*
X119137030Y-45522676D02*
X119041792Y-45427438D01*
X119041792Y-45427438D02*
X118898935Y-45379819D01*
X118898935Y-45379819D02*
X118803697Y-45379819D01*
X118803697Y-45379819D02*
X118660840Y-45427438D01*
X118660840Y-45427438D02*
X118613221Y-45475057D01*
X117660840Y-46379819D02*
X118232268Y-46379819D01*
X117946554Y-46379819D02*
X117946554Y-45379819D01*
X117946554Y-45379819D02*
X118041792Y-45522676D01*
X118041792Y-45522676D02*
X118137030Y-45617914D01*
X118137030Y-45617914D02*
X118232268Y-45665533D01*
X116517982Y-46332200D02*
X116375125Y-46379819D01*
X116375125Y-46379819D02*
X116137030Y-46379819D01*
X116137030Y-46379819D02*
X116041792Y-46332200D01*
X116041792Y-46332200D02*
X115994173Y-46284580D01*
X115994173Y-46284580D02*
X115946554Y-46189342D01*
X115946554Y-46189342D02*
X115946554Y-46094104D01*
X115946554Y-46094104D02*
X115994173Y-45998866D01*
X115994173Y-45998866D02*
X116041792Y-45951247D01*
X116041792Y-45951247D02*
X116137030Y-45903628D01*
X116137030Y-45903628D02*
X116327506Y-45856009D01*
X116327506Y-45856009D02*
X116422744Y-45808390D01*
X116422744Y-45808390D02*
X116470363Y-45760771D01*
X116470363Y-45760771D02*
X116517982Y-45665533D01*
X116517982Y-45665533D02*
X116517982Y-45570295D01*
X116517982Y-45570295D02*
X116470363Y-45475057D01*
X116470363Y-45475057D02*
X116422744Y-45427438D01*
X116422744Y-45427438D02*
X116327506Y-45379819D01*
X116327506Y-45379819D02*
X116089411Y-45379819D01*
X116089411Y-45379819D02*
X115946554Y-45427438D01*
X115517982Y-46379819D02*
X115517982Y-45379819D01*
X115517982Y-45379819D02*
X115279887Y-45379819D01*
X115279887Y-45379819D02*
X115137030Y-45427438D01*
X115137030Y-45427438D02*
X115041792Y-45522676D01*
X115041792Y-45522676D02*
X114994173Y-45617914D01*
X114994173Y-45617914D02*
X114946554Y-45808390D01*
X114946554Y-45808390D02*
X114946554Y-45951247D01*
X114946554Y-45951247D02*
X114994173Y-46141723D01*
X114994173Y-46141723D02*
X115041792Y-46236961D01*
X115041792Y-46236961D02*
X115137030Y-46332200D01*
X115137030Y-46332200D02*
X115279887Y-46379819D01*
X115279887Y-46379819D02*
X115517982Y-46379819D01*
X114565601Y-46094104D02*
X114089411Y-46094104D01*
X114660839Y-46379819D02*
X114327506Y-45379819D01*
X114327506Y-45379819D02*
X113994173Y-46379819D01*
X120403922Y-72958866D02*
X120451541Y-72911247D01*
X120451541Y-72911247D02*
X120546779Y-72863628D01*
X120546779Y-72863628D02*
X120737255Y-72958866D01*
X120737255Y-72958866D02*
X120832493Y-72911247D01*
X120832493Y-72911247D02*
X120880112Y-72863628D01*
X103392200Y-83649160D02*
X103439819Y-83792017D01*
X103439819Y-83792017D02*
X103439819Y-84030112D01*
X103439819Y-84030112D02*
X103392200Y-84125350D01*
X103392200Y-84125350D02*
X103344580Y-84172969D01*
X103344580Y-84172969D02*
X103249342Y-84220588D01*
X103249342Y-84220588D02*
X103154104Y-84220588D01*
X103154104Y-84220588D02*
X103058866Y-84172969D01*
X103058866Y-84172969D02*
X103011247Y-84125350D01*
X103011247Y-84125350D02*
X102963628Y-84030112D01*
X102963628Y-84030112D02*
X102916009Y-83839636D01*
X102916009Y-83839636D02*
X102868390Y-83744398D01*
X102868390Y-83744398D02*
X102820771Y-83696779D01*
X102820771Y-83696779D02*
X102725533Y-83649160D01*
X102725533Y-83649160D02*
X102630295Y-83649160D01*
X102630295Y-83649160D02*
X102535057Y-83696779D01*
X102535057Y-83696779D02*
X102487438Y-83744398D01*
X102487438Y-83744398D02*
X102439819Y-83839636D01*
X102439819Y-83839636D02*
X102439819Y-84077731D01*
X102439819Y-84077731D02*
X102487438Y-84220588D01*
X102439819Y-84553922D02*
X103439819Y-84792017D01*
X103439819Y-84792017D02*
X102725533Y-84982493D01*
X102725533Y-84982493D02*
X103439819Y-85172969D01*
X103439819Y-85172969D02*
X102439819Y-85411065D01*
X103439819Y-85792017D02*
X102439819Y-85792017D01*
X102439819Y-85792017D02*
X102439819Y-86030112D01*
X102439819Y-86030112D02*
X102487438Y-86172969D01*
X102487438Y-86172969D02*
X102582676Y-86268207D01*
X102582676Y-86268207D02*
X102677914Y-86315826D01*
X102677914Y-86315826D02*
X102868390Y-86363445D01*
X102868390Y-86363445D02*
X103011247Y-86363445D01*
X103011247Y-86363445D02*
X103201723Y-86315826D01*
X103201723Y-86315826D02*
X103296961Y-86268207D01*
X103296961Y-86268207D02*
X103392200Y-86172969D01*
X103392200Y-86172969D02*
X103439819Y-86030112D01*
X103439819Y-86030112D02*
X103439819Y-85792017D01*
G36*
X121831618Y-38050000D02*
G01*
X121955938Y-38050000D01*
X121955938Y-37152407D01*
X121831618Y-37152407D01*
X121831618Y-38050000D01*
G37*
G36*
X121432465Y-38060258D02*
G01*
X121482048Y-38054843D01*
X121520850Y-38039831D01*
X121551350Y-38015867D01*
X121573592Y-37983800D01*
X121587808Y-37942353D01*
X121592993Y-37888799D01*
X121592993Y-37481646D01*
X121669502Y-37481646D01*
X121686966Y-37474808D01*
X121692195Y-37466791D01*
X121694110Y-37455024D01*
X121694110Y-37407213D01*
X121588902Y-37393536D01*
X121560875Y-37187883D01*
X121552388Y-37171519D01*
X121534253Y-37165352D01*
X121472765Y-37165352D01*
X121472765Y-37394207D01*
X121288972Y-37394207D01*
X121288972Y-37481646D01*
X121472765Y-37481646D01*
X121472765Y-37880556D01*
X121467582Y-37918034D01*
X121454019Y-37942105D01*
X121432643Y-37957339D01*
X121405109Y-37962561D01*
X121374701Y-37957798D01*
X121353208Y-37946868D01*
X121337882Y-37935938D01*
X121325914Y-37931114D01*
X121316022Y-37933862D01*
X121308817Y-37942777D01*
X121273279Y-38000113D01*
X121306523Y-38025422D01*
X121345697Y-38044565D01*
X121388138Y-38056321D01*
X121432465Y-38060258D01*
G37*
G36*
X121042042Y-37105268D02*
G01*
X121042042Y-37296510D01*
X121053705Y-37398299D01*
X121057702Y-37417944D01*
X121064635Y-37431454D01*
X121075853Y-37440090D01*
X121094677Y-37443361D01*
X121110755Y-37440343D01*
X121122337Y-37431760D01*
X121129985Y-37418386D01*
X121134305Y-37398299D01*
X121145907Y-37296510D01*
X121145907Y-37105268D01*
X121042042Y-37105268D01*
G37*
G36*
X120475826Y-37492576D02*
G01*
X120486129Y-37503888D01*
X120500373Y-37507597D01*
X120522599Y-37500087D01*
X120551297Y-37484028D01*
X120590926Y-37467969D01*
X120615016Y-37462467D01*
X120645209Y-37460458D01*
X120670980Y-37462417D01*
X120693019Y-37467969D01*
X120712941Y-37477010D01*
X120729228Y-37488485D01*
X120742592Y-37502609D01*
X120752493Y-37518893D01*
X120758615Y-37536827D01*
X120760675Y-37556079D01*
X120757103Y-37580336D01*
X120746997Y-37599188D01*
X120731471Y-37614752D01*
X120710788Y-37628558D01*
X120659253Y-37650724D01*
X120600146Y-37670874D01*
X120541100Y-37694809D01*
X120513460Y-37710118D01*
X120489504Y-37728271D01*
X120469260Y-37750068D01*
X120453295Y-37776448D01*
X120443256Y-37806690D01*
X120439617Y-37845080D01*
X120443629Y-37890196D01*
X120455310Y-37930809D01*
X120474713Y-37967476D01*
X120501411Y-37998770D01*
X120534797Y-38024033D01*
X120576577Y-38043893D01*
X120623377Y-38055959D01*
X120679403Y-38060258D01*
X120743559Y-38054459D01*
X120799998Y-38037726D01*
X120850774Y-38011295D01*
X120891833Y-37978925D01*
X120863806Y-37933862D01*
X120850861Y-37920245D01*
X120831688Y-37915422D01*
X120819767Y-37917597D01*
X120807142Y-37924642D01*
X120777405Y-37945158D01*
X120735396Y-37965614D01*
X120709083Y-37972319D01*
X120673907Y-37974834D01*
X120643744Y-37972476D01*
X120619624Y-37965980D01*
X120598324Y-37955398D01*
X120581706Y-37942411D01*
X120568571Y-37926441D01*
X120559174Y-37907911D01*
X120551603Y-37866268D01*
X120555275Y-37840718D01*
X120565647Y-37820839D01*
X120581506Y-37804311D01*
X120602222Y-37790064D01*
X120653757Y-37767899D01*
X120713169Y-37747749D01*
X120772643Y-37723813D01*
X120800151Y-37708543D01*
X120824178Y-37689680D01*
X120844417Y-37666745D01*
X120860753Y-37638756D01*
X120871002Y-37606684D01*
X120874736Y-37565666D01*
X120870964Y-37527573D01*
X120859715Y-37491538D01*
X120841337Y-37458592D01*
X120815996Y-37429745D01*
X120784514Y-37406181D01*
X120744982Y-37387369D01*
X120700701Y-37375790D01*
X120647957Y-37371676D01*
X120587789Y-37376972D01*
X120535239Y-37392192D01*
X120488105Y-37416974D01*
X120449143Y-37449528D01*
X120475826Y-37492576D01*
G37*
X120283922Y-80528866D02*
X120331541Y-80481247D01*
X120331541Y-80481247D02*
X120426779Y-80433628D01*
X120426779Y-80433628D02*
X120617255Y-80528866D01*
X120617255Y-80528866D02*
X120712493Y-80481247D01*
X120712493Y-80481247D02*
X120760112Y-80433628D01*
X119702744Y-72449819D02*
X119512268Y-72449819D01*
X119512268Y-72449819D02*
X119417030Y-72497438D01*
X119417030Y-72497438D02*
X119321792Y-72592676D01*
X119321792Y-72592676D02*
X119274173Y-72783152D01*
X119274173Y-72783152D02*
X119274173Y-73116485D01*
X119274173Y-73116485D02*
X119321792Y-73306961D01*
X119321792Y-73306961D02*
X119417030Y-73402200D01*
X119417030Y-73402200D02*
X119512268Y-73449819D01*
X119512268Y-73449819D02*
X119702744Y-73449819D01*
X119702744Y-73449819D02*
X119797982Y-73402200D01*
X119797982Y-73402200D02*
X119893220Y-73306961D01*
X119893220Y-73306961D02*
X119940839Y-73116485D01*
X119940839Y-73116485D02*
X119940839Y-72783152D01*
X119940839Y-72783152D02*
X119893220Y-72592676D01*
X119893220Y-72592676D02*
X119797982Y-72497438D01*
X119797982Y-72497438D02*
X119702744Y-72449819D01*
X118845601Y-72449819D02*
X118845601Y-73259342D01*
X118845601Y-73259342D02*
X118797982Y-73354580D01*
X118797982Y-73354580D02*
X118750363Y-73402200D01*
X118750363Y-73402200D02*
X118655125Y-73449819D01*
X118655125Y-73449819D02*
X118464649Y-73449819D01*
X118464649Y-73449819D02*
X118369411Y-73402200D01*
X118369411Y-73402200D02*
X118321792Y-73354580D01*
X118321792Y-73354580D02*
X118274173Y-73259342D01*
X118274173Y-73259342D02*
X118274173Y-72449819D01*
X117940839Y-72449819D02*
X117369411Y-72449819D01*
X117655125Y-73449819D02*
X117655125Y-72449819D01*
X117036077Y-73449819D02*
X117036077Y-72449819D01*
X117036077Y-72449819D02*
X116655125Y-72449819D01*
X116655125Y-72449819D02*
X116559887Y-72497438D01*
X116559887Y-72497438D02*
X116512268Y-72545057D01*
X116512268Y-72545057D02*
X116464649Y-72640295D01*
X116464649Y-72640295D02*
X116464649Y-72783152D01*
X116464649Y-72783152D02*
X116512268Y-72878390D01*
X116512268Y-72878390D02*
X116559887Y-72926009D01*
X116559887Y-72926009D02*
X116655125Y-72973628D01*
X116655125Y-72973628D02*
X117036077Y-72973628D01*
X116036077Y-72449819D02*
X116036077Y-73259342D01*
X116036077Y-73259342D02*
X115988458Y-73354580D01*
X115988458Y-73354580D02*
X115940839Y-73402200D01*
X115940839Y-73402200D02*
X115845601Y-73449819D01*
X115845601Y-73449819D02*
X115655125Y-73449819D01*
X115655125Y-73449819D02*
X115559887Y-73402200D01*
X115559887Y-73402200D02*
X115512268Y-73354580D01*
X115512268Y-73354580D02*
X115464649Y-73259342D01*
X115464649Y-73259342D02*
X115464649Y-72449819D01*
X115131315Y-72449819D02*
X114559887Y-72449819D01*
X114845601Y-73449819D02*
X114845601Y-72449819D01*
X113274172Y-72449819D02*
X113083696Y-72449819D01*
X113083696Y-72449819D02*
X112988458Y-72497438D01*
X112988458Y-72497438D02*
X112893220Y-72592676D01*
X112893220Y-72592676D02*
X112845601Y-72783152D01*
X112845601Y-72783152D02*
X112845601Y-73116485D01*
X112845601Y-73116485D02*
X112893220Y-73306961D01*
X112893220Y-73306961D02*
X112988458Y-73402200D01*
X112988458Y-73402200D02*
X113083696Y-73449819D01*
X113083696Y-73449819D02*
X113274172Y-73449819D01*
X113274172Y-73449819D02*
X113369410Y-73402200D01*
X113369410Y-73402200D02*
X113464648Y-73306961D01*
X113464648Y-73306961D02*
X113512267Y-73116485D01*
X113512267Y-73116485D02*
X113512267Y-72783152D01*
X113512267Y-72783152D02*
X113464648Y-72592676D01*
X113464648Y-72592676D02*
X113369410Y-72497438D01*
X113369410Y-72497438D02*
X113274172Y-72449819D01*
X112417029Y-73449819D02*
X112417029Y-72449819D01*
X112417029Y-72449819D02*
X111845601Y-73449819D01*
X111845601Y-73449819D02*
X111845601Y-72449819D01*
X110893220Y-73449819D02*
X111369410Y-73449819D01*
X111369410Y-73449819D02*
X111369410Y-72449819D01*
X110369410Y-72973628D02*
X110369410Y-73449819D01*
X110702743Y-72449819D02*
X110369410Y-72973628D01*
X110369410Y-72973628D02*
X110036077Y-72449819D01*
X105793220Y-72249819D02*
X105793220Y-71249819D01*
X105364649Y-71345057D02*
X105317030Y-71297438D01*
X105317030Y-71297438D02*
X105221792Y-71249819D01*
X105221792Y-71249819D02*
X104983697Y-71249819D01*
X104983697Y-71249819D02*
X104888459Y-71297438D01*
X104888459Y-71297438D02*
X104840840Y-71345057D01*
X104840840Y-71345057D02*
X104793221Y-71440295D01*
X104793221Y-71440295D02*
X104793221Y-71535533D01*
X104793221Y-71535533D02*
X104840840Y-71678390D01*
X104840840Y-71678390D02*
X105412268Y-72249819D01*
X105412268Y-72249819D02*
X104793221Y-72249819D01*
X103793221Y-72154580D02*
X103840840Y-72202200D01*
X103840840Y-72202200D02*
X103983697Y-72249819D01*
X103983697Y-72249819D02*
X104078935Y-72249819D01*
X104078935Y-72249819D02*
X104221792Y-72202200D01*
X104221792Y-72202200D02*
X104317030Y-72106961D01*
X104317030Y-72106961D02*
X104364649Y-72011723D01*
X104364649Y-72011723D02*
X104412268Y-71821247D01*
X104412268Y-71821247D02*
X104412268Y-71678390D01*
X104412268Y-71678390D02*
X104364649Y-71487914D01*
X104364649Y-71487914D02*
X104317030Y-71392676D01*
X104317030Y-71392676D02*
X104221792Y-71297438D01*
X104221792Y-71297438D02*
X104078935Y-71249819D01*
X104078935Y-71249819D02*
X103983697Y-71249819D01*
X103983697Y-71249819D02*
X103840840Y-71297438D01*
X103840840Y-71297438D02*
X103793221Y-71345057D01*
X102078935Y-72249819D02*
X102650363Y-72249819D01*
X102364649Y-72249819D02*
X102364649Y-71249819D01*
X102364649Y-71249819D02*
X102459887Y-71392676D01*
X102459887Y-71392676D02*
X102555125Y-71487914D01*
X102555125Y-71487914D02*
X102650363Y-71535533D01*
X100936077Y-72202200D02*
X100793220Y-72249819D01*
X100793220Y-72249819D02*
X100555125Y-72249819D01*
X100555125Y-72249819D02*
X100459887Y-72202200D01*
X100459887Y-72202200D02*
X100412268Y-72154580D01*
X100412268Y-72154580D02*
X100364649Y-72059342D01*
X100364649Y-72059342D02*
X100364649Y-71964104D01*
X100364649Y-71964104D02*
X100412268Y-71868866D01*
X100412268Y-71868866D02*
X100459887Y-71821247D01*
X100459887Y-71821247D02*
X100555125Y-71773628D01*
X100555125Y-71773628D02*
X100745601Y-71726009D01*
X100745601Y-71726009D02*
X100840839Y-71678390D01*
X100840839Y-71678390D02*
X100888458Y-71630771D01*
X100888458Y-71630771D02*
X100936077Y-71535533D01*
X100936077Y-71535533D02*
X100936077Y-71440295D01*
X100936077Y-71440295D02*
X100888458Y-71345057D01*
X100888458Y-71345057D02*
X100840839Y-71297438D01*
X100840839Y-71297438D02*
X100745601Y-71249819D01*
X100745601Y-71249819D02*
X100507506Y-71249819D01*
X100507506Y-71249819D02*
X100364649Y-71297438D01*
X99936077Y-72249819D02*
X99936077Y-71249819D01*
X99936077Y-71249819D02*
X99697982Y-71249819D01*
X99697982Y-71249819D02*
X99555125Y-71297438D01*
X99555125Y-71297438D02*
X99459887Y-71392676D01*
X99459887Y-71392676D02*
X99412268Y-71487914D01*
X99412268Y-71487914D02*
X99364649Y-71678390D01*
X99364649Y-71678390D02*
X99364649Y-71821247D01*
X99364649Y-71821247D02*
X99412268Y-72011723D01*
X99412268Y-72011723D02*
X99459887Y-72106961D01*
X99459887Y-72106961D02*
X99555125Y-72202200D01*
X99555125Y-72202200D02*
X99697982Y-72249819D01*
X99697982Y-72249819D02*
X99936077Y-72249819D01*
X98983696Y-71964104D02*
X98507506Y-71964104D01*
X99078934Y-72249819D02*
X98745601Y-71249819D01*
X98745601Y-71249819D02*
X98412268Y-72249819D01*
X120393922Y-75448866D02*
X120441541Y-75401247D01*
X120441541Y-75401247D02*
X120536779Y-75353628D01*
X120536779Y-75353628D02*
X120727255Y-75448866D01*
X120727255Y-75448866D02*
X120822493Y-75401247D01*
X120822493Y-75401247D02*
X120870112Y-75353628D01*
X76658458Y-66949819D02*
X76039411Y-66949819D01*
X76039411Y-66949819D02*
X76372744Y-67330771D01*
X76372744Y-67330771D02*
X76229887Y-67330771D01*
X76229887Y-67330771D02*
X76134649Y-67378390D01*
X76134649Y-67378390D02*
X76087030Y-67426009D01*
X76087030Y-67426009D02*
X76039411Y-67521247D01*
X76039411Y-67521247D02*
X76039411Y-67759342D01*
X76039411Y-67759342D02*
X76087030Y-67854580D01*
X76087030Y-67854580D02*
X76134649Y-67902200D01*
X76134649Y-67902200D02*
X76229887Y-67949819D01*
X76229887Y-67949819D02*
X76515601Y-67949819D01*
X76515601Y-67949819D02*
X76610839Y-67902200D01*
X76610839Y-67902200D02*
X76658458Y-67854580D01*
X105793220Y-77269819D02*
X105793220Y-76269819D01*
X105364649Y-76365057D02*
X105317030Y-76317438D01*
X105317030Y-76317438D02*
X105221792Y-76269819D01*
X105221792Y-76269819D02*
X104983697Y-76269819D01*
X104983697Y-76269819D02*
X104888459Y-76317438D01*
X104888459Y-76317438D02*
X104840840Y-76365057D01*
X104840840Y-76365057D02*
X104793221Y-76460295D01*
X104793221Y-76460295D02*
X104793221Y-76555533D01*
X104793221Y-76555533D02*
X104840840Y-76698390D01*
X104840840Y-76698390D02*
X105412268Y-77269819D01*
X105412268Y-77269819D02*
X104793221Y-77269819D01*
X103793221Y-77174580D02*
X103840840Y-77222200D01*
X103840840Y-77222200D02*
X103983697Y-77269819D01*
X103983697Y-77269819D02*
X104078935Y-77269819D01*
X104078935Y-77269819D02*
X104221792Y-77222200D01*
X104221792Y-77222200D02*
X104317030Y-77126961D01*
X104317030Y-77126961D02*
X104364649Y-77031723D01*
X104364649Y-77031723D02*
X104412268Y-76841247D01*
X104412268Y-76841247D02*
X104412268Y-76698390D01*
X104412268Y-76698390D02*
X104364649Y-76507914D01*
X104364649Y-76507914D02*
X104317030Y-76412676D01*
X104317030Y-76412676D02*
X104221792Y-76317438D01*
X104221792Y-76317438D02*
X104078935Y-76269819D01*
X104078935Y-76269819D02*
X103983697Y-76269819D01*
X103983697Y-76269819D02*
X103840840Y-76317438D01*
X103840840Y-76317438D02*
X103793221Y-76365057D01*
X102412268Y-76269819D02*
X102317030Y-76269819D01*
X102317030Y-76269819D02*
X102221792Y-76317438D01*
X102221792Y-76317438D02*
X102174173Y-76365057D01*
X102174173Y-76365057D02*
X102126554Y-76460295D01*
X102126554Y-76460295D02*
X102078935Y-76650771D01*
X102078935Y-76650771D02*
X102078935Y-76888866D01*
X102078935Y-76888866D02*
X102126554Y-77079342D01*
X102126554Y-77079342D02*
X102174173Y-77174580D01*
X102174173Y-77174580D02*
X102221792Y-77222200D01*
X102221792Y-77222200D02*
X102317030Y-77269819D01*
X102317030Y-77269819D02*
X102412268Y-77269819D01*
X102412268Y-77269819D02*
X102507506Y-77222200D01*
X102507506Y-77222200D02*
X102555125Y-77174580D01*
X102555125Y-77174580D02*
X102602744Y-77079342D01*
X102602744Y-77079342D02*
X102650363Y-76888866D01*
X102650363Y-76888866D02*
X102650363Y-76650771D01*
X102650363Y-76650771D02*
X102602744Y-76460295D01*
X102602744Y-76460295D02*
X102555125Y-76365057D01*
X102555125Y-76365057D02*
X102507506Y-76317438D01*
X102507506Y-76317438D02*
X102412268Y-76269819D01*
X100936077Y-77222200D02*
X100793220Y-77269819D01*
X100793220Y-77269819D02*
X100555125Y-77269819D01*
X100555125Y-77269819D02*
X100459887Y-77222200D01*
X100459887Y-77222200D02*
X100412268Y-77174580D01*
X100412268Y-77174580D02*
X100364649Y-77079342D01*
X100364649Y-77079342D02*
X100364649Y-76984104D01*
X100364649Y-76984104D02*
X100412268Y-76888866D01*
X100412268Y-76888866D02*
X100459887Y-76841247D01*
X100459887Y-76841247D02*
X100555125Y-76793628D01*
X100555125Y-76793628D02*
X100745601Y-76746009D01*
X100745601Y-76746009D02*
X100840839Y-76698390D01*
X100840839Y-76698390D02*
X100888458Y-76650771D01*
X100888458Y-76650771D02*
X100936077Y-76555533D01*
X100936077Y-76555533D02*
X100936077Y-76460295D01*
X100936077Y-76460295D02*
X100888458Y-76365057D01*
X100888458Y-76365057D02*
X100840839Y-76317438D01*
X100840839Y-76317438D02*
X100745601Y-76269819D01*
X100745601Y-76269819D02*
X100507506Y-76269819D01*
X100507506Y-76269819D02*
X100364649Y-76317438D01*
X99936077Y-77269819D02*
X99936077Y-76269819D01*
X99936077Y-76269819D02*
X99697982Y-76269819D01*
X99697982Y-76269819D02*
X99555125Y-76317438D01*
X99555125Y-76317438D02*
X99459887Y-76412676D01*
X99459887Y-76412676D02*
X99412268Y-76507914D01*
X99412268Y-76507914D02*
X99364649Y-76698390D01*
X99364649Y-76698390D02*
X99364649Y-76841247D01*
X99364649Y-76841247D02*
X99412268Y-77031723D01*
X99412268Y-77031723D02*
X99459887Y-77126961D01*
X99459887Y-77126961D02*
X99555125Y-77222200D01*
X99555125Y-77222200D02*
X99697982Y-77269819D01*
X99697982Y-77269819D02*
X99936077Y-77269819D01*
X98983696Y-76984104D02*
X98507506Y-76984104D01*
X99078934Y-77269819D02*
X98745601Y-76269819D01*
X98745601Y-76269819D02*
X98412268Y-77269819D01*
X120543220Y-42939819D02*
X120543220Y-43749342D01*
X120543220Y-43749342D02*
X120495601Y-43844580D01*
X120495601Y-43844580D02*
X120447982Y-43892200D01*
X120447982Y-43892200D02*
X120352744Y-43939819D01*
X120352744Y-43939819D02*
X120162268Y-43939819D01*
X120162268Y-43939819D02*
X120067030Y-43892200D01*
X120067030Y-43892200D02*
X120019411Y-43844580D01*
X120019411Y-43844580D02*
X119971792Y-43749342D01*
X119971792Y-43749342D02*
X119971792Y-42939819D01*
X119543220Y-43654104D02*
X119067030Y-43654104D01*
X119638458Y-43939819D02*
X119305125Y-42939819D01*
X119305125Y-42939819D02*
X118971792Y-43939819D01*
X118067030Y-43939819D02*
X118400363Y-43463628D01*
X118638458Y-43939819D02*
X118638458Y-42939819D01*
X118638458Y-42939819D02*
X118257506Y-42939819D01*
X118257506Y-42939819D02*
X118162268Y-42987438D01*
X118162268Y-42987438D02*
X118114649Y-43035057D01*
X118114649Y-43035057D02*
X118067030Y-43130295D01*
X118067030Y-43130295D02*
X118067030Y-43273152D01*
X118067030Y-43273152D02*
X118114649Y-43368390D01*
X118114649Y-43368390D02*
X118162268Y-43416009D01*
X118162268Y-43416009D02*
X118257506Y-43463628D01*
X118257506Y-43463628D02*
X118638458Y-43463628D01*
X117781315Y-42939819D02*
X117209887Y-42939819D01*
X117495601Y-43939819D02*
X117495601Y-42939819D01*
X115924172Y-42939819D02*
X115828934Y-42939819D01*
X115828934Y-42939819D02*
X115733696Y-42987438D01*
X115733696Y-42987438D02*
X115686077Y-43035057D01*
X115686077Y-43035057D02*
X115638458Y-43130295D01*
X115638458Y-43130295D02*
X115590839Y-43320771D01*
X115590839Y-43320771D02*
X115590839Y-43558866D01*
X115590839Y-43558866D02*
X115638458Y-43749342D01*
X115638458Y-43749342D02*
X115686077Y-43844580D01*
X115686077Y-43844580D02*
X115733696Y-43892200D01*
X115733696Y-43892200D02*
X115828934Y-43939819D01*
X115828934Y-43939819D02*
X115924172Y-43939819D01*
X115924172Y-43939819D02*
X116019410Y-43892200D01*
X116019410Y-43892200D02*
X116067029Y-43844580D01*
X116067029Y-43844580D02*
X116114648Y-43749342D01*
X116114648Y-43749342D02*
X116162267Y-43558866D01*
X116162267Y-43558866D02*
X116162267Y-43320771D01*
X116162267Y-43320771D02*
X116114648Y-43130295D01*
X116114648Y-43130295D02*
X116067029Y-43035057D01*
X116067029Y-43035057D02*
X116019410Y-42987438D01*
X116019410Y-42987438D02*
X115924172Y-42939819D01*
X114543219Y-42939819D02*
X113971791Y-42939819D01*
X114257505Y-43939819D02*
X114257505Y-42939819D01*
X113733695Y-42939819D02*
X113067029Y-43939819D01*
X113067029Y-42939819D02*
X113733695Y-43939819D01*
X111686076Y-44273152D02*
X111686076Y-42844580D01*
X110209885Y-43939819D02*
X110209885Y-42939819D01*
X109781314Y-43035057D02*
X109733695Y-42987438D01*
X109733695Y-42987438D02*
X109638457Y-42939819D01*
X109638457Y-42939819D02*
X109400362Y-42939819D01*
X109400362Y-42939819D02*
X109305124Y-42987438D01*
X109305124Y-42987438D02*
X109257505Y-43035057D01*
X109257505Y-43035057D02*
X109209886Y-43130295D01*
X109209886Y-43130295D02*
X109209886Y-43225533D01*
X109209886Y-43225533D02*
X109257505Y-43368390D01*
X109257505Y-43368390D02*
X109828933Y-43939819D01*
X109828933Y-43939819D02*
X109209886Y-43939819D01*
X108209886Y-43844580D02*
X108257505Y-43892200D01*
X108257505Y-43892200D02*
X108400362Y-43939819D01*
X108400362Y-43939819D02*
X108495600Y-43939819D01*
X108495600Y-43939819D02*
X108638457Y-43892200D01*
X108638457Y-43892200D02*
X108733695Y-43796961D01*
X108733695Y-43796961D02*
X108781314Y-43701723D01*
X108781314Y-43701723D02*
X108828933Y-43511247D01*
X108828933Y-43511247D02*
X108828933Y-43368390D01*
X108828933Y-43368390D02*
X108781314Y-43177914D01*
X108781314Y-43177914D02*
X108733695Y-43082676D01*
X108733695Y-43082676D02*
X108638457Y-42987438D01*
X108638457Y-42987438D02*
X108495600Y-42939819D01*
X108495600Y-42939819D02*
X108400362Y-42939819D01*
X108400362Y-42939819D02*
X108257505Y-42987438D01*
X108257505Y-42987438D02*
X108209886Y-43035057D01*
X107590838Y-42939819D02*
X107495600Y-42939819D01*
X107495600Y-42939819D02*
X107400362Y-42987438D01*
X107400362Y-42987438D02*
X107352743Y-43035057D01*
X107352743Y-43035057D02*
X107305124Y-43130295D01*
X107305124Y-43130295D02*
X107257505Y-43320771D01*
X107257505Y-43320771D02*
X107257505Y-43558866D01*
X107257505Y-43558866D02*
X107305124Y-43749342D01*
X107305124Y-43749342D02*
X107352743Y-43844580D01*
X107352743Y-43844580D02*
X107400362Y-43892200D01*
X107400362Y-43892200D02*
X107495600Y-43939819D01*
X107495600Y-43939819D02*
X107590838Y-43939819D01*
X107590838Y-43939819D02*
X107686076Y-43892200D01*
X107686076Y-43892200D02*
X107733695Y-43844580D01*
X107733695Y-43844580D02*
X107781314Y-43749342D01*
X107781314Y-43749342D02*
X107828933Y-43558866D01*
X107828933Y-43558866D02*
X107828933Y-43320771D01*
X107828933Y-43320771D02*
X107781314Y-43130295D01*
X107781314Y-43130295D02*
X107733695Y-43035057D01*
X107733695Y-43035057D02*
X107686076Y-42987438D01*
X107686076Y-42987438D02*
X107590838Y-42939819D01*
X106114647Y-43892200D02*
X105971790Y-43939819D01*
X105971790Y-43939819D02*
X105733695Y-43939819D01*
X105733695Y-43939819D02*
X105638457Y-43892200D01*
X105638457Y-43892200D02*
X105590838Y-43844580D01*
X105590838Y-43844580D02*
X105543219Y-43749342D01*
X105543219Y-43749342D02*
X105543219Y-43654104D01*
X105543219Y-43654104D02*
X105590838Y-43558866D01*
X105590838Y-43558866D02*
X105638457Y-43511247D01*
X105638457Y-43511247D02*
X105733695Y-43463628D01*
X105733695Y-43463628D02*
X105924171Y-43416009D01*
X105924171Y-43416009D02*
X106019409Y-43368390D01*
X106019409Y-43368390D02*
X106067028Y-43320771D01*
X106067028Y-43320771D02*
X106114647Y-43225533D01*
X106114647Y-43225533D02*
X106114647Y-43130295D01*
X106114647Y-43130295D02*
X106067028Y-43035057D01*
X106067028Y-43035057D02*
X106019409Y-42987438D01*
X106019409Y-42987438D02*
X105924171Y-42939819D01*
X105924171Y-42939819D02*
X105686076Y-42939819D01*
X105686076Y-42939819D02*
X105543219Y-42987438D01*
X105114647Y-43939819D02*
X105114647Y-42939819D01*
X105114647Y-42939819D02*
X104876552Y-42939819D01*
X104876552Y-42939819D02*
X104733695Y-42987438D01*
X104733695Y-42987438D02*
X104638457Y-43082676D01*
X104638457Y-43082676D02*
X104590838Y-43177914D01*
X104590838Y-43177914D02*
X104543219Y-43368390D01*
X104543219Y-43368390D02*
X104543219Y-43511247D01*
X104543219Y-43511247D02*
X104590838Y-43701723D01*
X104590838Y-43701723D02*
X104638457Y-43796961D01*
X104638457Y-43796961D02*
X104733695Y-43892200D01*
X104733695Y-43892200D02*
X104876552Y-43939819D01*
X104876552Y-43939819D02*
X105114647Y-43939819D01*
X104162266Y-43654104D02*
X103686076Y-43654104D01*
X104257504Y-43939819D02*
X103924171Y-42939819D01*
X103924171Y-42939819D02*
X103590838Y-43939819D01*
X119702744Y-80049819D02*
X119512268Y-80049819D01*
X119512268Y-80049819D02*
X119417030Y-80097438D01*
X119417030Y-80097438D02*
X119321792Y-80192676D01*
X119321792Y-80192676D02*
X119274173Y-80383152D01*
X119274173Y-80383152D02*
X119274173Y-80716485D01*
X119274173Y-80716485D02*
X119321792Y-80906961D01*
X119321792Y-80906961D02*
X119417030Y-81002200D01*
X119417030Y-81002200D02*
X119512268Y-81049819D01*
X119512268Y-81049819D02*
X119702744Y-81049819D01*
X119702744Y-81049819D02*
X119797982Y-81002200D01*
X119797982Y-81002200D02*
X119893220Y-80906961D01*
X119893220Y-80906961D02*
X119940839Y-80716485D01*
X119940839Y-80716485D02*
X119940839Y-80383152D01*
X119940839Y-80383152D02*
X119893220Y-80192676D01*
X119893220Y-80192676D02*
X119797982Y-80097438D01*
X119797982Y-80097438D02*
X119702744Y-80049819D01*
X118845601Y-80049819D02*
X118845601Y-80859342D01*
X118845601Y-80859342D02*
X118797982Y-80954580D01*
X118797982Y-80954580D02*
X118750363Y-81002200D01*
X118750363Y-81002200D02*
X118655125Y-81049819D01*
X118655125Y-81049819D02*
X118464649Y-81049819D01*
X118464649Y-81049819D02*
X118369411Y-81002200D01*
X118369411Y-81002200D02*
X118321792Y-80954580D01*
X118321792Y-80954580D02*
X118274173Y-80859342D01*
X118274173Y-80859342D02*
X118274173Y-80049819D01*
X117940839Y-80049819D02*
X117369411Y-80049819D01*
X117655125Y-81049819D02*
X117655125Y-80049819D01*
X117036077Y-81049819D02*
X117036077Y-80049819D01*
X117036077Y-80049819D02*
X116655125Y-80049819D01*
X116655125Y-80049819D02*
X116559887Y-80097438D01*
X116559887Y-80097438D02*
X116512268Y-80145057D01*
X116512268Y-80145057D02*
X116464649Y-80240295D01*
X116464649Y-80240295D02*
X116464649Y-80383152D01*
X116464649Y-80383152D02*
X116512268Y-80478390D01*
X116512268Y-80478390D02*
X116559887Y-80526009D01*
X116559887Y-80526009D02*
X116655125Y-80573628D01*
X116655125Y-80573628D02*
X117036077Y-80573628D01*
X116036077Y-80049819D02*
X116036077Y-80859342D01*
X116036077Y-80859342D02*
X115988458Y-80954580D01*
X115988458Y-80954580D02*
X115940839Y-81002200D01*
X115940839Y-81002200D02*
X115845601Y-81049819D01*
X115845601Y-81049819D02*
X115655125Y-81049819D01*
X115655125Y-81049819D02*
X115559887Y-81002200D01*
X115559887Y-81002200D02*
X115512268Y-80954580D01*
X115512268Y-80954580D02*
X115464649Y-80859342D01*
X115464649Y-80859342D02*
X115464649Y-80049819D01*
X115131315Y-80049819D02*
X114559887Y-80049819D01*
X114845601Y-81049819D02*
X114845601Y-80049819D01*
X113274172Y-80049819D02*
X113083696Y-80049819D01*
X113083696Y-80049819D02*
X112988458Y-80097438D01*
X112988458Y-80097438D02*
X112893220Y-80192676D01*
X112893220Y-80192676D02*
X112845601Y-80383152D01*
X112845601Y-80383152D02*
X112845601Y-80716485D01*
X112845601Y-80716485D02*
X112893220Y-80906961D01*
X112893220Y-80906961D02*
X112988458Y-81002200D01*
X112988458Y-81002200D02*
X113083696Y-81049819D01*
X113083696Y-81049819D02*
X113274172Y-81049819D01*
X113274172Y-81049819D02*
X113369410Y-81002200D01*
X113369410Y-81002200D02*
X113464648Y-80906961D01*
X113464648Y-80906961D02*
X113512267Y-80716485D01*
X113512267Y-80716485D02*
X113512267Y-80383152D01*
X113512267Y-80383152D02*
X113464648Y-80192676D01*
X113464648Y-80192676D02*
X113369410Y-80097438D01*
X113369410Y-80097438D02*
X113274172Y-80049819D01*
X112417029Y-81049819D02*
X112417029Y-80049819D01*
X112417029Y-80049819D02*
X111845601Y-81049819D01*
X111845601Y-81049819D02*
X111845601Y-80049819D01*
X110893220Y-81049819D02*
X111369410Y-81049819D01*
X111369410Y-81049819D02*
X111369410Y-80049819D01*
X110369410Y-80573628D02*
X110369410Y-81049819D01*
X110702743Y-80049819D02*
X110369410Y-80573628D01*
X110369410Y-80573628D02*
X110036077Y-80049819D01*
X120613220Y-40479819D02*
X120613220Y-41289342D01*
X120613220Y-41289342D02*
X120565601Y-41384580D01*
X120565601Y-41384580D02*
X120517982Y-41432200D01*
X120517982Y-41432200D02*
X120422744Y-41479819D01*
X120422744Y-41479819D02*
X120232268Y-41479819D01*
X120232268Y-41479819D02*
X120137030Y-41432200D01*
X120137030Y-41432200D02*
X120089411Y-41384580D01*
X120089411Y-41384580D02*
X120041792Y-41289342D01*
X120041792Y-41289342D02*
X120041792Y-40479819D01*
X119613220Y-41194104D02*
X119137030Y-41194104D01*
X119708458Y-41479819D02*
X119375125Y-40479819D01*
X119375125Y-40479819D02*
X119041792Y-41479819D01*
X118137030Y-41479819D02*
X118470363Y-41003628D01*
X118708458Y-41479819D02*
X118708458Y-40479819D01*
X118708458Y-40479819D02*
X118327506Y-40479819D01*
X118327506Y-40479819D02*
X118232268Y-40527438D01*
X118232268Y-40527438D02*
X118184649Y-40575057D01*
X118184649Y-40575057D02*
X118137030Y-40670295D01*
X118137030Y-40670295D02*
X118137030Y-40813152D01*
X118137030Y-40813152D02*
X118184649Y-40908390D01*
X118184649Y-40908390D02*
X118232268Y-40956009D01*
X118232268Y-40956009D02*
X118327506Y-41003628D01*
X118327506Y-41003628D02*
X118708458Y-41003628D01*
X117851315Y-40479819D02*
X117279887Y-40479819D01*
X117565601Y-41479819D02*
X117565601Y-40479819D01*
X115994172Y-40479819D02*
X115898934Y-40479819D01*
X115898934Y-40479819D02*
X115803696Y-40527438D01*
X115803696Y-40527438D02*
X115756077Y-40575057D01*
X115756077Y-40575057D02*
X115708458Y-40670295D01*
X115708458Y-40670295D02*
X115660839Y-40860771D01*
X115660839Y-40860771D02*
X115660839Y-41098866D01*
X115660839Y-41098866D02*
X115708458Y-41289342D01*
X115708458Y-41289342D02*
X115756077Y-41384580D01*
X115756077Y-41384580D02*
X115803696Y-41432200D01*
X115803696Y-41432200D02*
X115898934Y-41479819D01*
X115898934Y-41479819D02*
X115994172Y-41479819D01*
X115994172Y-41479819D02*
X116089410Y-41432200D01*
X116089410Y-41432200D02*
X116137029Y-41384580D01*
X116137029Y-41384580D02*
X116184648Y-41289342D01*
X116184648Y-41289342D02*
X116232267Y-41098866D01*
X116232267Y-41098866D02*
X116232267Y-40860771D01*
X116232267Y-40860771D02*
X116184648Y-40670295D01*
X116184648Y-40670295D02*
X116137029Y-40575057D01*
X116137029Y-40575057D02*
X116089410Y-40527438D01*
X116089410Y-40527438D02*
X115994172Y-40479819D01*
X113898934Y-41479819D02*
X114232267Y-41003628D01*
X114470362Y-41479819D02*
X114470362Y-40479819D01*
X114470362Y-40479819D02*
X114089410Y-40479819D01*
X114089410Y-40479819D02*
X113994172Y-40527438D01*
X113994172Y-40527438D02*
X113946553Y-40575057D01*
X113946553Y-40575057D02*
X113898934Y-40670295D01*
X113898934Y-40670295D02*
X113898934Y-40813152D01*
X113898934Y-40813152D02*
X113946553Y-40908390D01*
X113946553Y-40908390D02*
X113994172Y-40956009D01*
X113994172Y-40956009D02*
X114089410Y-41003628D01*
X114089410Y-41003628D02*
X114470362Y-41003628D01*
X113565600Y-40479819D02*
X112898934Y-41479819D01*
X112898934Y-40479819D02*
X113565600Y-41479819D01*
X111517981Y-41813152D02*
X111517981Y-40384580D01*
X110041790Y-41479819D02*
X110041790Y-40479819D01*
X109613219Y-40575057D02*
X109565600Y-40527438D01*
X109565600Y-40527438D02*
X109470362Y-40479819D01*
X109470362Y-40479819D02*
X109232267Y-40479819D01*
X109232267Y-40479819D02*
X109137029Y-40527438D01*
X109137029Y-40527438D02*
X109089410Y-40575057D01*
X109089410Y-40575057D02*
X109041791Y-40670295D01*
X109041791Y-40670295D02*
X109041791Y-40765533D01*
X109041791Y-40765533D02*
X109089410Y-40908390D01*
X109089410Y-40908390D02*
X109660838Y-41479819D01*
X109660838Y-41479819D02*
X109041791Y-41479819D01*
X108041791Y-41384580D02*
X108089410Y-41432200D01*
X108089410Y-41432200D02*
X108232267Y-41479819D01*
X108232267Y-41479819D02*
X108327505Y-41479819D01*
X108327505Y-41479819D02*
X108470362Y-41432200D01*
X108470362Y-41432200D02*
X108565600Y-41336961D01*
X108565600Y-41336961D02*
X108613219Y-41241723D01*
X108613219Y-41241723D02*
X108660838Y-41051247D01*
X108660838Y-41051247D02*
X108660838Y-40908390D01*
X108660838Y-40908390D02*
X108613219Y-40717914D01*
X108613219Y-40717914D02*
X108565600Y-40622676D01*
X108565600Y-40622676D02*
X108470362Y-40527438D01*
X108470362Y-40527438D02*
X108327505Y-40479819D01*
X108327505Y-40479819D02*
X108232267Y-40479819D01*
X108232267Y-40479819D02*
X108089410Y-40527438D01*
X108089410Y-40527438D02*
X108041791Y-40575057D01*
X107422743Y-40479819D02*
X107327505Y-40479819D01*
X107327505Y-40479819D02*
X107232267Y-40527438D01*
X107232267Y-40527438D02*
X107184648Y-40575057D01*
X107184648Y-40575057D02*
X107137029Y-40670295D01*
X107137029Y-40670295D02*
X107089410Y-40860771D01*
X107089410Y-40860771D02*
X107089410Y-41098866D01*
X107089410Y-41098866D02*
X107137029Y-41289342D01*
X107137029Y-41289342D02*
X107184648Y-41384580D01*
X107184648Y-41384580D02*
X107232267Y-41432200D01*
X107232267Y-41432200D02*
X107327505Y-41479819D01*
X107327505Y-41479819D02*
X107422743Y-41479819D01*
X107422743Y-41479819D02*
X107517981Y-41432200D01*
X107517981Y-41432200D02*
X107565600Y-41384580D01*
X107565600Y-41384580D02*
X107613219Y-41289342D01*
X107613219Y-41289342D02*
X107660838Y-41098866D01*
X107660838Y-41098866D02*
X107660838Y-40860771D01*
X107660838Y-40860771D02*
X107613219Y-40670295D01*
X107613219Y-40670295D02*
X107565600Y-40575057D01*
X107565600Y-40575057D02*
X107517981Y-40527438D01*
X107517981Y-40527438D02*
X107422743Y-40479819D01*
X105946552Y-41432200D02*
X105803695Y-41479819D01*
X105803695Y-41479819D02*
X105565600Y-41479819D01*
X105565600Y-41479819D02*
X105470362Y-41432200D01*
X105470362Y-41432200D02*
X105422743Y-41384580D01*
X105422743Y-41384580D02*
X105375124Y-41289342D01*
X105375124Y-41289342D02*
X105375124Y-41194104D01*
X105375124Y-41194104D02*
X105422743Y-41098866D01*
X105422743Y-41098866D02*
X105470362Y-41051247D01*
X105470362Y-41051247D02*
X105565600Y-41003628D01*
X105565600Y-41003628D02*
X105756076Y-40956009D01*
X105756076Y-40956009D02*
X105851314Y-40908390D01*
X105851314Y-40908390D02*
X105898933Y-40860771D01*
X105898933Y-40860771D02*
X105946552Y-40765533D01*
X105946552Y-40765533D02*
X105946552Y-40670295D01*
X105946552Y-40670295D02*
X105898933Y-40575057D01*
X105898933Y-40575057D02*
X105851314Y-40527438D01*
X105851314Y-40527438D02*
X105756076Y-40479819D01*
X105756076Y-40479819D02*
X105517981Y-40479819D01*
X105517981Y-40479819D02*
X105375124Y-40527438D01*
X104375124Y-41384580D02*
X104422743Y-41432200D01*
X104422743Y-41432200D02*
X104565600Y-41479819D01*
X104565600Y-41479819D02*
X104660838Y-41479819D01*
X104660838Y-41479819D02*
X104803695Y-41432200D01*
X104803695Y-41432200D02*
X104898933Y-41336961D01*
X104898933Y-41336961D02*
X104946552Y-41241723D01*
X104946552Y-41241723D02*
X104994171Y-41051247D01*
X104994171Y-41051247D02*
X104994171Y-40908390D01*
X104994171Y-40908390D02*
X104946552Y-40717914D01*
X104946552Y-40717914D02*
X104898933Y-40622676D01*
X104898933Y-40622676D02*
X104803695Y-40527438D01*
X104803695Y-40527438D02*
X104660838Y-40479819D01*
X104660838Y-40479819D02*
X104565600Y-40479819D01*
X104565600Y-40479819D02*
X104422743Y-40527438D01*
X104422743Y-40527438D02*
X104375124Y-40575057D01*
X103470362Y-41479819D02*
X103946552Y-41479819D01*
X103946552Y-41479819D02*
X103946552Y-40479819D01*
X120303220Y-60659819D02*
X120303220Y-61469342D01*
X120303220Y-61469342D02*
X120255601Y-61564580D01*
X120255601Y-61564580D02*
X120207982Y-61612200D01*
X120207982Y-61612200D02*
X120112744Y-61659819D01*
X120112744Y-61659819D02*
X119922268Y-61659819D01*
X119922268Y-61659819D02*
X119827030Y-61612200D01*
X119827030Y-61612200D02*
X119779411Y-61564580D01*
X119779411Y-61564580D02*
X119731792Y-61469342D01*
X119731792Y-61469342D02*
X119731792Y-60659819D01*
X119303220Y-61374104D02*
X118827030Y-61374104D01*
X119398458Y-61659819D02*
X119065125Y-60659819D01*
X119065125Y-60659819D02*
X118731792Y-61659819D01*
X117827030Y-61659819D02*
X118160363Y-61183628D01*
X118398458Y-61659819D02*
X118398458Y-60659819D01*
X118398458Y-60659819D02*
X118017506Y-60659819D01*
X118017506Y-60659819D02*
X117922268Y-60707438D01*
X117922268Y-60707438D02*
X117874649Y-60755057D01*
X117874649Y-60755057D02*
X117827030Y-60850295D01*
X117827030Y-60850295D02*
X117827030Y-60993152D01*
X117827030Y-60993152D02*
X117874649Y-61088390D01*
X117874649Y-61088390D02*
X117922268Y-61136009D01*
X117922268Y-61136009D02*
X118017506Y-61183628D01*
X118017506Y-61183628D02*
X118398458Y-61183628D01*
X117541315Y-60659819D02*
X116969887Y-60659819D01*
X117255601Y-61659819D02*
X117255601Y-60659819D01*
X115350839Y-61659819D02*
X115922267Y-61659819D01*
X115636553Y-61659819D02*
X115636553Y-60659819D01*
X115636553Y-60659819D02*
X115731791Y-60802676D01*
X115731791Y-60802676D02*
X115827029Y-60897914D01*
X115827029Y-60897914D02*
X115922267Y-60945533D01*
X113588934Y-61659819D02*
X113922267Y-61183628D01*
X114160362Y-61659819D02*
X114160362Y-60659819D01*
X114160362Y-60659819D02*
X113779410Y-60659819D01*
X113779410Y-60659819D02*
X113684172Y-60707438D01*
X113684172Y-60707438D02*
X113636553Y-60755057D01*
X113636553Y-60755057D02*
X113588934Y-60850295D01*
X113588934Y-60850295D02*
X113588934Y-60993152D01*
X113588934Y-60993152D02*
X113636553Y-61088390D01*
X113636553Y-61088390D02*
X113684172Y-61136009D01*
X113684172Y-61136009D02*
X113779410Y-61183628D01*
X113779410Y-61183628D02*
X114160362Y-61183628D01*
X113255600Y-60659819D02*
X112588934Y-61659819D01*
X112588934Y-60659819D02*
X113255600Y-61659819D01*
X111207981Y-61993152D02*
X111207981Y-60564580D01*
X109731790Y-61659819D02*
X109731790Y-60659819D01*
X109303219Y-60755057D02*
X109255600Y-60707438D01*
X109255600Y-60707438D02*
X109160362Y-60659819D01*
X109160362Y-60659819D02*
X108922267Y-60659819D01*
X108922267Y-60659819D02*
X108827029Y-60707438D01*
X108827029Y-60707438D02*
X108779410Y-60755057D01*
X108779410Y-60755057D02*
X108731791Y-60850295D01*
X108731791Y-60850295D02*
X108731791Y-60945533D01*
X108731791Y-60945533D02*
X108779410Y-61088390D01*
X108779410Y-61088390D02*
X109350838Y-61659819D01*
X109350838Y-61659819D02*
X108731791Y-61659819D01*
X107731791Y-61564580D02*
X107779410Y-61612200D01*
X107779410Y-61612200D02*
X107922267Y-61659819D01*
X107922267Y-61659819D02*
X108017505Y-61659819D01*
X108017505Y-61659819D02*
X108160362Y-61612200D01*
X108160362Y-61612200D02*
X108255600Y-61516961D01*
X108255600Y-61516961D02*
X108303219Y-61421723D01*
X108303219Y-61421723D02*
X108350838Y-61231247D01*
X108350838Y-61231247D02*
X108350838Y-61088390D01*
X108350838Y-61088390D02*
X108303219Y-60897914D01*
X108303219Y-60897914D02*
X108255600Y-60802676D01*
X108255600Y-60802676D02*
X108160362Y-60707438D01*
X108160362Y-60707438D02*
X108017505Y-60659819D01*
X108017505Y-60659819D02*
X107922267Y-60659819D01*
X107922267Y-60659819D02*
X107779410Y-60707438D01*
X107779410Y-60707438D02*
X107731791Y-60755057D01*
X106350838Y-60659819D02*
X106255600Y-60659819D01*
X106255600Y-60659819D02*
X106160362Y-60707438D01*
X106160362Y-60707438D02*
X106112743Y-60755057D01*
X106112743Y-60755057D02*
X106065124Y-60850295D01*
X106065124Y-60850295D02*
X106017505Y-61040771D01*
X106017505Y-61040771D02*
X106017505Y-61278866D01*
X106017505Y-61278866D02*
X106065124Y-61469342D01*
X106065124Y-61469342D02*
X106112743Y-61564580D01*
X106112743Y-61564580D02*
X106160362Y-61612200D01*
X106160362Y-61612200D02*
X106255600Y-61659819D01*
X106255600Y-61659819D02*
X106350838Y-61659819D01*
X106350838Y-61659819D02*
X106446076Y-61612200D01*
X106446076Y-61612200D02*
X106493695Y-61564580D01*
X106493695Y-61564580D02*
X106541314Y-61469342D01*
X106541314Y-61469342D02*
X106588933Y-61278866D01*
X106588933Y-61278866D02*
X106588933Y-61040771D01*
X106588933Y-61040771D02*
X106541314Y-60850295D01*
X106541314Y-60850295D02*
X106493695Y-60755057D01*
X106493695Y-60755057D02*
X106446076Y-60707438D01*
X106446076Y-60707438D02*
X106350838Y-60659819D01*
X104874647Y-61612200D02*
X104731790Y-61659819D01*
X104731790Y-61659819D02*
X104493695Y-61659819D01*
X104493695Y-61659819D02*
X104398457Y-61612200D01*
X104398457Y-61612200D02*
X104350838Y-61564580D01*
X104350838Y-61564580D02*
X104303219Y-61469342D01*
X104303219Y-61469342D02*
X104303219Y-61374104D01*
X104303219Y-61374104D02*
X104350838Y-61278866D01*
X104350838Y-61278866D02*
X104398457Y-61231247D01*
X104398457Y-61231247D02*
X104493695Y-61183628D01*
X104493695Y-61183628D02*
X104684171Y-61136009D01*
X104684171Y-61136009D02*
X104779409Y-61088390D01*
X104779409Y-61088390D02*
X104827028Y-61040771D01*
X104827028Y-61040771D02*
X104874647Y-60945533D01*
X104874647Y-60945533D02*
X104874647Y-60850295D01*
X104874647Y-60850295D02*
X104827028Y-60755057D01*
X104827028Y-60755057D02*
X104779409Y-60707438D01*
X104779409Y-60707438D02*
X104684171Y-60659819D01*
X104684171Y-60659819D02*
X104446076Y-60659819D01*
X104446076Y-60659819D02*
X104303219Y-60707438D01*
X103303219Y-61564580D02*
X103350838Y-61612200D01*
X103350838Y-61612200D02*
X103493695Y-61659819D01*
X103493695Y-61659819D02*
X103588933Y-61659819D01*
X103588933Y-61659819D02*
X103731790Y-61612200D01*
X103731790Y-61612200D02*
X103827028Y-61516961D01*
X103827028Y-61516961D02*
X103874647Y-61421723D01*
X103874647Y-61421723D02*
X103922266Y-61231247D01*
X103922266Y-61231247D02*
X103922266Y-61088390D01*
X103922266Y-61088390D02*
X103874647Y-60897914D01*
X103874647Y-60897914D02*
X103827028Y-60802676D01*
X103827028Y-60802676D02*
X103731790Y-60707438D01*
X103731790Y-60707438D02*
X103588933Y-60659819D01*
X103588933Y-60659819D02*
X103493695Y-60659819D01*
X103493695Y-60659819D02*
X103350838Y-60707438D01*
X103350838Y-60707438D02*
X103303219Y-60755057D01*
X102398457Y-61659819D02*
X102874647Y-61659819D01*
X102874647Y-61659819D02*
X102874647Y-60659819D01*
X120253220Y-58979819D02*
X120253220Y-57979819D01*
X119824649Y-58075057D02*
X119777030Y-58027438D01*
X119777030Y-58027438D02*
X119681792Y-57979819D01*
X119681792Y-57979819D02*
X119443697Y-57979819D01*
X119443697Y-57979819D02*
X119348459Y-58027438D01*
X119348459Y-58027438D02*
X119300840Y-58075057D01*
X119300840Y-58075057D02*
X119253221Y-58170295D01*
X119253221Y-58170295D02*
X119253221Y-58265533D01*
X119253221Y-58265533D02*
X119300840Y-58408390D01*
X119300840Y-58408390D02*
X119872268Y-58979819D01*
X119872268Y-58979819D02*
X119253221Y-58979819D01*
X118253221Y-58884580D02*
X118300840Y-58932200D01*
X118300840Y-58932200D02*
X118443697Y-58979819D01*
X118443697Y-58979819D02*
X118538935Y-58979819D01*
X118538935Y-58979819D02*
X118681792Y-58932200D01*
X118681792Y-58932200D02*
X118777030Y-58836961D01*
X118777030Y-58836961D02*
X118824649Y-58741723D01*
X118824649Y-58741723D02*
X118872268Y-58551247D01*
X118872268Y-58551247D02*
X118872268Y-58408390D01*
X118872268Y-58408390D02*
X118824649Y-58217914D01*
X118824649Y-58217914D02*
X118777030Y-58122676D01*
X118777030Y-58122676D02*
X118681792Y-58027438D01*
X118681792Y-58027438D02*
X118538935Y-57979819D01*
X118538935Y-57979819D02*
X118443697Y-57979819D01*
X118443697Y-57979819D02*
X118300840Y-58027438D01*
X118300840Y-58027438D02*
X118253221Y-58075057D01*
X116538935Y-58979819D02*
X117110363Y-58979819D01*
X116824649Y-58979819D02*
X116824649Y-57979819D01*
X116824649Y-57979819D02*
X116919887Y-58122676D01*
X116919887Y-58122676D02*
X117015125Y-58217914D01*
X117015125Y-58217914D02*
X117110363Y-58265533D01*
X115396077Y-58932200D02*
X115253220Y-58979819D01*
X115253220Y-58979819D02*
X115015125Y-58979819D01*
X115015125Y-58979819D02*
X114919887Y-58932200D01*
X114919887Y-58932200D02*
X114872268Y-58884580D01*
X114872268Y-58884580D02*
X114824649Y-58789342D01*
X114824649Y-58789342D02*
X114824649Y-58694104D01*
X114824649Y-58694104D02*
X114872268Y-58598866D01*
X114872268Y-58598866D02*
X114919887Y-58551247D01*
X114919887Y-58551247D02*
X115015125Y-58503628D01*
X115015125Y-58503628D02*
X115205601Y-58456009D01*
X115205601Y-58456009D02*
X115300839Y-58408390D01*
X115300839Y-58408390D02*
X115348458Y-58360771D01*
X115348458Y-58360771D02*
X115396077Y-58265533D01*
X115396077Y-58265533D02*
X115396077Y-58170295D01*
X115396077Y-58170295D02*
X115348458Y-58075057D01*
X115348458Y-58075057D02*
X115300839Y-58027438D01*
X115300839Y-58027438D02*
X115205601Y-57979819D01*
X115205601Y-57979819D02*
X114967506Y-57979819D01*
X114967506Y-57979819D02*
X114824649Y-58027438D01*
X114396077Y-58979819D02*
X114396077Y-57979819D01*
X114396077Y-57979819D02*
X114157982Y-57979819D01*
X114157982Y-57979819D02*
X114015125Y-58027438D01*
X114015125Y-58027438D02*
X113919887Y-58122676D01*
X113919887Y-58122676D02*
X113872268Y-58217914D01*
X113872268Y-58217914D02*
X113824649Y-58408390D01*
X113824649Y-58408390D02*
X113824649Y-58551247D01*
X113824649Y-58551247D02*
X113872268Y-58741723D01*
X113872268Y-58741723D02*
X113919887Y-58836961D01*
X113919887Y-58836961D02*
X114015125Y-58932200D01*
X114015125Y-58932200D02*
X114157982Y-58979819D01*
X114157982Y-58979819D02*
X114396077Y-58979819D01*
X113443696Y-58694104D02*
X112967506Y-58694104D01*
X113538934Y-58979819D02*
X113205601Y-57979819D01*
X113205601Y-57979819D02*
X112872268Y-58979819D01*
X76798458Y-56929819D02*
X76179411Y-56929819D01*
X76179411Y-56929819D02*
X76512744Y-57310771D01*
X76512744Y-57310771D02*
X76369887Y-57310771D01*
X76369887Y-57310771D02*
X76274649Y-57358390D01*
X76274649Y-57358390D02*
X76227030Y-57406009D01*
X76227030Y-57406009D02*
X76179411Y-57501247D01*
X76179411Y-57501247D02*
X76179411Y-57739342D01*
X76179411Y-57739342D02*
X76227030Y-57834580D01*
X76227030Y-57834580D02*
X76274649Y-57882200D01*
X76274649Y-57882200D02*
X76369887Y-57929819D01*
X76369887Y-57929819D02*
X76655601Y-57929819D01*
X76655601Y-57929819D02*
X76750839Y-57882200D01*
X76750839Y-57882200D02*
X76798458Y-57834580D01*
X76257030Y-59369819D02*
X76733220Y-59369819D01*
X76733220Y-59369819D02*
X76780839Y-59846009D01*
X76780839Y-59846009D02*
X76733220Y-59798390D01*
X76733220Y-59798390D02*
X76637982Y-59750771D01*
X76637982Y-59750771D02*
X76399887Y-59750771D01*
X76399887Y-59750771D02*
X76304649Y-59798390D01*
X76304649Y-59798390D02*
X76257030Y-59846009D01*
X76257030Y-59846009D02*
X76209411Y-59941247D01*
X76209411Y-59941247D02*
X76209411Y-60179342D01*
X76209411Y-60179342D02*
X76257030Y-60274580D01*
X76257030Y-60274580D02*
X76304649Y-60322200D01*
X76304649Y-60322200D02*
X76399887Y-60369819D01*
X76399887Y-60369819D02*
X76637982Y-60369819D01*
X76637982Y-60369819D02*
X76733220Y-60322200D01*
X76733220Y-60322200D02*
X76780839Y-60274580D01*
X99827438Y-84090588D02*
X99779819Y-83995350D01*
X99779819Y-83995350D02*
X99779819Y-83852493D01*
X99779819Y-83852493D02*
X99827438Y-83709636D01*
X99827438Y-83709636D02*
X99922676Y-83614398D01*
X99922676Y-83614398D02*
X100017914Y-83566779D01*
X100017914Y-83566779D02*
X100208390Y-83519160D01*
X100208390Y-83519160D02*
X100351247Y-83519160D01*
X100351247Y-83519160D02*
X100541723Y-83566779D01*
X100541723Y-83566779D02*
X100636961Y-83614398D01*
X100636961Y-83614398D02*
X100732200Y-83709636D01*
X100732200Y-83709636D02*
X100779819Y-83852493D01*
X100779819Y-83852493D02*
X100779819Y-83947731D01*
X100779819Y-83947731D02*
X100732200Y-84090588D01*
X100732200Y-84090588D02*
X100684580Y-84138207D01*
X100684580Y-84138207D02*
X100351247Y-84138207D01*
X100351247Y-84138207D02*
X100351247Y-83947731D01*
X100779819Y-84566779D02*
X99779819Y-84566779D01*
X99779819Y-84566779D02*
X100779819Y-85138207D01*
X100779819Y-85138207D02*
X99779819Y-85138207D01*
X100779819Y-85614398D02*
X99779819Y-85614398D01*
X99779819Y-85614398D02*
X99779819Y-85852493D01*
X99779819Y-85852493D02*
X99827438Y-85995350D01*
X99827438Y-85995350D02*
X99922676Y-86090588D01*
X99922676Y-86090588D02*
X100017914Y-86138207D01*
X100017914Y-86138207D02*
X100208390Y-86185826D01*
X100208390Y-86185826D02*
X100351247Y-86185826D01*
X100351247Y-86185826D02*
X100541723Y-86138207D01*
X100541723Y-86138207D02*
X100636961Y-86090588D01*
X100636961Y-86090588D02*
X100732200Y-85995350D01*
X100732200Y-85995350D02*
X100779819Y-85852493D01*
X100779819Y-85852493D02*
X100779819Y-85614398D01*
M02*
