%TF.GenerationSoftware,KiCad,Pcbnew,9.0.7-9.0.7~ubuntu22.04.1*%
%TF.CreationDate,2026-01-29T20:02:15+05:30*%
%TF.ProjectId,v3,76332e6b-6963-4616-945f-706362585858,V3.0.0*%
%TF.SameCoordinates,Original*%
%TF.FileFunction,Other,User*%
%FSLAX46Y46*%
G04 Gerber Fmt 4.6, Leading zero omitted, Abs format (unit mm)*
G04 Created by KiCad (PCBNEW 9.0.7-9.0.7~ubuntu22.04.1) date 2026-01-29 20:02:15*
%MOMM*%
%LPD*%
G01*
G04 APERTURE LIST*
%ADD10C,0.050000*%
G04 APERTURE END LIST*
D10*
%TO.C,U3*%
X90600000Y-34700000D02*
X83400000Y-34700000D01*
X83400000Y-34700000D02*
X83400000Y-43500000D01*
X90600000Y-43500000D02*
X90600000Y-34700000D01*
X83400000Y-43500000D02*
X90600000Y-43500000D01*
%TO.C,SW2*%
X84700000Y-22810500D02*
X93200000Y-22810500D01*
X84700000Y-28810500D02*
X84700000Y-22810500D01*
X93200000Y-22810500D02*
X93200000Y-28810500D01*
X93200000Y-28810500D02*
X84700000Y-28810500D01*
%TO.C,C6*%
X98638944Y-62581594D02*
X97111594Y-64108944D01*
X97988406Y-61931056D02*
X98638944Y-62581594D01*
X97111594Y-64108944D02*
X96461056Y-63458406D01*
X96461056Y-63458406D02*
X97988406Y-61931056D01*
%TO.C,U5*%
X82891081Y-58003552D02*
X86780168Y-61892639D01*
X86780168Y-61892639D02*
X91475357Y-57197450D01*
X87586270Y-53308363D02*
X82891081Y-58003552D01*
X91475357Y-57197450D02*
X87586270Y-53308363D01*
%TO.C,J7*%
X106050000Y-69880500D02*
X109600000Y-69880500D01*
X106050000Y-86130500D02*
X106050000Y-69880500D01*
X109600000Y-69880500D02*
X109600000Y-86130500D01*
X109600000Y-86130500D02*
X106050000Y-86130500D01*
%TO.C,REF\u002A\u002A*%
X125120000Y-37090000D02*
G75*
G02*
X120120000Y-37090000I-2500000J0D01*
G01*
X120120000Y-37090000D02*
G75*
G02*
X125120000Y-37090000I2500000J0D01*
G01*
%TO.C,J5*%
X76000000Y-87000000D02*
X72450000Y-87000000D01*
X76000000Y-70750000D02*
X76000000Y-87000000D01*
X72450000Y-87000000D02*
X72450000Y-70750000D01*
X72450000Y-70750000D02*
X76000000Y-70750000D01*
%TO.C,R20*%
X120930000Y-78070000D02*
X120930000Y-80270000D01*
X119990000Y-78070000D02*
X120930000Y-78070000D01*
X120930000Y-80270000D02*
X119990000Y-80270000D01*
X119990000Y-80270000D02*
X119990000Y-78070000D01*
%TO.C,C16*%
X82740000Y-40080000D02*
X82740000Y-37980000D01*
X82740000Y-37980000D02*
X81790000Y-37980000D01*
X81790000Y-40280000D02*
X81790000Y-40080000D01*
X81790000Y-40280000D02*
X80640000Y-41430000D01*
X81790000Y-40080000D02*
X82740000Y-40080000D01*
X81790000Y-37980000D02*
X81790000Y-37780000D01*
X81790000Y-37780000D02*
X80640000Y-36630000D01*
X80640000Y-41430000D02*
X76990000Y-41430000D01*
X80640000Y-36630000D02*
X76990000Y-36630000D01*
X76990000Y-41430000D02*
X76990000Y-40080000D01*
X76990000Y-40080000D02*
X76040000Y-40080000D01*
X76990000Y-37980000D02*
X76990000Y-36630000D01*
X76040000Y-40080000D02*
X76040000Y-37980000D01*
X76040000Y-37980000D02*
X76990000Y-37980000D01*
%TO.C,R8*%
X112950000Y-50712500D02*
X115150000Y-50712500D01*
X112950000Y-51652500D02*
X112950000Y-50712500D01*
X115150000Y-50712500D02*
X115150000Y-51652500D01*
X115150000Y-51652500D02*
X112950000Y-51652500D01*
%TO.C,J6*%
X72600000Y-47890500D02*
X76150000Y-47890500D01*
X72600000Y-69240500D02*
X72600000Y-47890500D01*
X76150000Y-47890500D02*
X76150000Y-69240500D01*
X76150000Y-69240500D02*
X72600000Y-69240500D01*
%TO.C,REF1\u002A\u002A*%
X76880000Y-35750000D02*
G75*
G02*
X71880000Y-35750000I-2500000J0D01*
G01*
X71880000Y-35750000D02*
G75*
G02*
X76880000Y-35750000I2500000J0D01*
G01*
%TO.C,JP3*%
X121350000Y-48652500D02*
X121350000Y-46152500D01*
X121350000Y-48652500D02*
X116750000Y-48652500D01*
X116750000Y-46152500D02*
X121350000Y-46152500D01*
X116750000Y-46152500D02*
X116750000Y-48652500D01*
%TO.C,Q5*%
X116032500Y-70420000D02*
X116032500Y-73820000D01*
X116032500Y-73820000D02*
X119872500Y-73820000D01*
X119872500Y-70420000D02*
X116032500Y-70420000D01*
X119872500Y-73820000D02*
X119872500Y-70420000D01*
%TO.C,C5*%
X96660205Y-52185270D02*
X95132855Y-50657920D01*
X97310743Y-51534732D02*
X96660205Y-52185270D01*
X95132855Y-50657920D02*
X95783393Y-50007382D01*
X95783393Y-50007382D02*
X97310743Y-51534732D01*
%TO.C,R16*%
X107712251Y-62400361D02*
X106156616Y-60844726D01*
X108376932Y-61735680D02*
X107712251Y-62400361D01*
X106156616Y-60844726D02*
X106821297Y-60180045D01*
X106821297Y-60180045D02*
X108376932Y-61735680D01*
%TO.C,J3*%
X124520000Y-65420500D02*
X120970000Y-65420500D01*
X124520000Y-39020500D02*
X124520000Y-65420500D01*
X120970000Y-65420500D02*
X120970000Y-39020500D01*
X120970000Y-39020500D02*
X124520000Y-39020500D01*
%TO.C,R21*%
X120870000Y-74720000D02*
X120870000Y-76920000D01*
X119930000Y-74720000D02*
X120870000Y-74720000D01*
X120870000Y-76920000D02*
X119930000Y-76920000D01*
X119930000Y-76920000D02*
X119930000Y-74720000D01*
%TO.C,C7*%
X95188944Y-57715268D02*
X93661594Y-59242618D01*
X94538406Y-57064730D02*
X95188944Y-57715268D01*
X93661594Y-59242618D02*
X93011056Y-58592080D01*
X93011056Y-58592080D02*
X94538406Y-57064730D01*
%TO.C,C1*%
X105098406Y-66678944D02*
X103571056Y-65151594D01*
X105748944Y-66028406D02*
X105098406Y-66678944D01*
X103571056Y-65151594D02*
X104221594Y-64501056D01*
X104221594Y-64501056D02*
X105748944Y-66028406D01*
%TO.C,D3*%
X104739727Y-30174437D02*
X102335563Y-27770273D01*
X102335563Y-27770273D02*
X99620273Y-30485563D01*
X102024437Y-32889727D02*
X104739727Y-30174437D01*
X99620273Y-30485563D02*
X102024437Y-32889727D01*
%TO.C,Q4*%
X116050000Y-73880000D02*
X116050000Y-77280000D01*
X116050000Y-77280000D02*
X119890000Y-77280000D01*
X119890000Y-73880000D02*
X116050000Y-73880000D01*
X119890000Y-77280000D02*
X119890000Y-73880000D01*
%TO.C,Y1*%
X107054641Y-67173332D02*
X109458804Y-64769169D01*
X109458804Y-64769169D02*
X106488955Y-61799320D01*
X104084792Y-64203483D02*
X107054641Y-67173332D01*
X106488955Y-61799320D02*
X104084792Y-64203483D01*
%TO.C,JP4*%
X116775200Y-48737200D02*
X116775200Y-51237200D01*
X116775200Y-48737200D02*
X120075200Y-48737200D01*
X120075200Y-51237200D02*
X116775200Y-51237200D01*
X120075200Y-51237200D02*
X120075200Y-48737200D01*
%TO.C,F1*%
X98680000Y-27017500D02*
X98680000Y-31917500D01*
X96440000Y-27017500D02*
X98680000Y-27017500D01*
X98680000Y-31917500D02*
X96440000Y-31917500D01*
X96440000Y-31917500D02*
X96440000Y-27017500D01*
%TO.C,C15*%
X88241056Y-53378406D02*
X89768406Y-51851056D01*
X88891594Y-54028944D02*
X88241056Y-53378406D01*
X89768406Y-51851056D02*
X90418944Y-52501594D01*
X90418944Y-52501594D02*
X88891594Y-54028944D01*
%TO.C,C3*%
X94738406Y-50758945D02*
X93211056Y-49231595D01*
X95388944Y-50108407D02*
X94738406Y-50758945D01*
X93211056Y-49231595D02*
X93861594Y-48581057D01*
X93861594Y-48581057D02*
X95388944Y-50108407D01*
%TO.C,R14*%
X114910000Y-69800000D02*
X114910000Y-67600000D01*
X115850000Y-69800000D02*
X114910000Y-69800000D01*
X114910000Y-67600000D02*
X115850000Y-67600000D01*
X115850000Y-67600000D02*
X115850000Y-69800000D01*
%TO.C,C9*%
X106172854Y-53114732D02*
X107700204Y-51587382D01*
X106823392Y-53765270D02*
X106172854Y-53114732D01*
X107700204Y-51587382D02*
X108350742Y-52237920D01*
X108350742Y-52237920D02*
X106823392Y-53765270D01*
%TO.C,R13*%
X115000000Y-73480000D02*
X115000000Y-71280000D01*
X115940000Y-73480000D02*
X115000000Y-73480000D01*
X115000000Y-71280000D02*
X115940000Y-71280000D01*
X115940000Y-71280000D02*
X115940000Y-73480000D01*
%TO.C,JP6*%
X80620000Y-51330000D02*
X80620000Y-48830000D01*
X80620000Y-51330000D02*
X77320000Y-51330000D01*
X77320000Y-48830000D02*
X80620000Y-48830000D01*
X77320000Y-48830000D02*
X77320000Y-51330000D01*
%TO.C,R4*%
X97696321Y-49066168D02*
X99251956Y-50621803D01*
X97031640Y-49730849D02*
X97696321Y-49066168D01*
X99251956Y-50621803D02*
X98587275Y-51286484D01*
X98587275Y-51286484D02*
X97031640Y-49730849D01*
%TO.C,JP2*%
X91670000Y-81340000D02*
X94170000Y-81340000D01*
X91670000Y-81340000D02*
X91670000Y-78040000D01*
X94170000Y-78040000D02*
X94170000Y-81340000D01*
X94170000Y-78040000D02*
X91670000Y-78040000D01*
%TO.C,J2*%
X87500000Y-84530000D02*
X94800000Y-84530000D01*
X87500000Y-90580000D02*
X87500000Y-84530000D01*
X94800000Y-84530000D02*
X94800000Y-90580000D01*
X94800000Y-90580000D02*
X87500000Y-90580000D01*
%TO.C,C14*%
X87270000Y-43650000D02*
X87270000Y-45810000D01*
X86350000Y-43650000D02*
X87270000Y-43650000D01*
X87270000Y-45810000D02*
X86350000Y-45810000D01*
X86350000Y-45810000D02*
X86350000Y-43650000D01*
%TO.C,D5*%
X110950000Y-50672500D02*
X110950000Y-46972500D01*
X112850000Y-50672500D02*
X110950000Y-50672500D01*
X110950000Y-46972500D02*
X112850000Y-46972500D01*
X112850000Y-46972500D02*
X112850000Y-50672500D01*
%TO.C,C12*%
X99750204Y-50485270D02*
X98222854Y-48957920D01*
X100400742Y-49834732D02*
X99750204Y-50485270D01*
X98222854Y-48957920D02*
X98873392Y-48307382D01*
X98873392Y-48307382D02*
X100400742Y-49834732D01*
%TO.C,JP5*%
X80570000Y-53890000D02*
X80570000Y-51390000D01*
X80570000Y-53890000D02*
X77270000Y-53890000D01*
X77270000Y-51390000D02*
X80570000Y-51390000D01*
X77270000Y-51390000D02*
X77270000Y-53890000D01*
%TO.C,R2*%
X109050158Y-26954523D02*
X107494523Y-28510158D01*
X108385477Y-26289842D02*
X109050158Y-26954523D01*
X107494523Y-28510158D02*
X106829842Y-27845477D01*
X106829842Y-27845477D02*
X108385477Y-26289842D01*
%TO.C,R1*%
X113110000Y-46892500D02*
X110910000Y-46892500D01*
X113110000Y-45952500D02*
X113110000Y-46892500D01*
X110910000Y-46892500D02*
X110910000Y-45952500D01*
X110910000Y-45952500D02*
X113110000Y-45952500D01*
%TO.C,R11*%
X115060000Y-80420000D02*
X115060000Y-78220000D01*
X116000000Y-80420000D02*
X115060000Y-80420000D01*
X115060000Y-78220000D02*
X116000000Y-78220000D01*
X116000000Y-78220000D02*
X116000000Y-80420000D01*
%TO.C,J10*%
X116870000Y-44485000D02*
X116870000Y-38335000D01*
X116870000Y-38335000D02*
X113270000Y-38335000D01*
X113270000Y-44485000D02*
X116870000Y-44485000D01*
X113270000Y-38335000D02*
X113270000Y-44485000D01*
%TO.C,U1*%
X95723024Y-56482753D02*
X101549584Y-62309313D01*
X101549584Y-62309313D02*
X107376144Y-56482753D01*
X101549584Y-50656193D02*
X95723024Y-56482753D01*
X107376144Y-56482753D02*
X101549584Y-50656193D01*
%TO.C,U4*%
X110220000Y-30450000D02*
X110220000Y-37650000D01*
X110220000Y-37650000D02*
X119020000Y-37650000D01*
X119020000Y-30450000D02*
X110220000Y-30450000D01*
X119020000Y-37650000D02*
X119020000Y-30450000D01*
%TO.C,Q3*%
X116052500Y-77320000D02*
X116052500Y-80720000D01*
X116052500Y-80720000D02*
X119892500Y-80720000D01*
X119892500Y-77320000D02*
X116052500Y-77320000D01*
X119892500Y-80720000D02*
X119892500Y-77320000D01*
%TO.C,R22*%
X120900000Y-71080000D02*
X120900000Y-73280000D01*
X119960000Y-71080000D02*
X120900000Y-71080000D01*
X120900000Y-73280000D02*
X119960000Y-73280000D01*
X119960000Y-73280000D02*
X119960000Y-71080000D01*
%TO.C,JP1*%
X89140000Y-81330000D02*
X91640000Y-81330000D01*
X89140000Y-81330000D02*
X89140000Y-78030000D01*
X91640000Y-78030000D02*
X91640000Y-81330000D01*
X91640000Y-78030000D02*
X89140000Y-78030000D01*
%TO.C,J1*%
X115150000Y-24375000D02*
X104510000Y-24375000D01*
X115150000Y-15345000D02*
X115150000Y-24375000D01*
X104510000Y-24375000D02*
X104510000Y-15345000D01*
X104510000Y-15345000D02*
X115150000Y-15345000D01*
%TO.C,R6*%
X82206123Y-61221442D02*
X83761758Y-62777077D01*
X81541442Y-61886123D02*
X82206123Y-61221442D01*
X83761758Y-62777077D02*
X83097077Y-63441758D01*
X83097077Y-63441758D02*
X81541442Y-61886123D01*
%TO.C,C11*%
X107592042Y-59437584D02*
X109119392Y-60964934D01*
X106941504Y-60088122D02*
X107592042Y-59437584D01*
X109119392Y-60964934D02*
X108468854Y-61615472D01*
X108468854Y-61615472D02*
X106941504Y-60088122D01*
%TO.C,R5*%
X96987447Y-49785649D02*
X98543082Y-51341284D01*
X96322766Y-50450330D02*
X96987447Y-49785649D01*
X98543082Y-51341284D02*
X97878401Y-52005965D01*
X97878401Y-52005965D02*
X96322766Y-50450330D01*
%TO.C,C10*%
X102271056Y-50538406D02*
X103798406Y-49011056D01*
X102921594Y-51188944D02*
X102271056Y-50538406D01*
X103798406Y-49011056D02*
X104448944Y-49661594D01*
X104448944Y-49661594D02*
X102921594Y-51188944D01*
%TO.C,D4*%
X114830000Y-46972500D02*
X114830000Y-50672500D01*
X112930000Y-46972500D02*
X114830000Y-46972500D01*
X114830000Y-50672500D02*
X112930000Y-50672500D01*
X112930000Y-50672500D02*
X112930000Y-46972500D01*
%TO.C,SW1*%
X125650000Y-22790000D02*
X125650000Y-31290000D01*
X119650000Y-22790000D02*
X125650000Y-22790000D01*
X125650000Y-31290000D02*
X119650000Y-31290000D01*
X119650000Y-31290000D02*
X119650000Y-22790000D01*
%TO.C,Q6*%
X115920000Y-66950000D02*
X115920000Y-70350000D01*
X115920000Y-70350000D02*
X119760000Y-70350000D01*
X119760000Y-66950000D02*
X115920000Y-66950000D01*
X119760000Y-70350000D02*
X119760000Y-66950000D01*
%TO.C,R12*%
X115060000Y-76850000D02*
X115060000Y-74650000D01*
X116000000Y-76850000D02*
X115060000Y-76850000D01*
X115060000Y-74650000D02*
X116000000Y-74650000D01*
X116000000Y-74650000D02*
X116000000Y-76850000D01*
%TO.C,D2*%
X113230000Y-38320000D02*
X107730000Y-38320000D01*
X107730000Y-38320000D02*
X107730000Y-45220000D01*
X113230000Y-45220000D02*
X113230000Y-38320000D01*
X107730000Y-45220000D02*
X113230000Y-45220000D01*
%TO.C,R23*%
X120780000Y-67690000D02*
X120780000Y-69890000D01*
X119840000Y-67690000D02*
X120780000Y-67690000D01*
X120780000Y-69890000D02*
X119840000Y-69890000D01*
X119840000Y-69890000D02*
X119840000Y-67690000D01*
%TO.C,J4*%
X124575000Y-87280000D02*
X121025000Y-87280000D01*
X124575000Y-65930000D02*
X124575000Y-87280000D01*
X121025000Y-87280000D02*
X121025000Y-65930000D01*
X121025000Y-65930000D02*
X124575000Y-65930000D01*
%TO.C,C4*%
X94058406Y-51408944D02*
X92531056Y-49881594D01*
X94708944Y-50758406D02*
X94058406Y-51408944D01*
X92531056Y-49881594D02*
X93181594Y-49231056D01*
X93181594Y-49231056D02*
X94708944Y-50758406D01*
%TO.C,R33*%
X109545477Y-60430158D02*
X107989842Y-58874523D01*
X110210158Y-59765477D02*
X109545477Y-60430158D01*
X107989842Y-58874523D02*
X108654523Y-58209842D01*
X108654523Y-58209842D02*
X110210158Y-59765477D01*
%TO.C,J9*%
X74448000Y-16992500D02*
X83948000Y-16992500D01*
X74448000Y-25992500D02*
X74448000Y-16992500D01*
X72448000Y-25992500D02*
X74448000Y-25992500D01*
X74448000Y-29992500D02*
X72448000Y-29992500D01*
X72448000Y-29992500D02*
X72448000Y-25992500D01*
X83948000Y-31992500D02*
X83948000Y-16992500D01*
X83698000Y-31992500D02*
X83948000Y-31992500D01*
X83698000Y-31992500D02*
X81198000Y-31992500D01*
X81198000Y-31992500D02*
X81198000Y-32992500D01*
X77198000Y-31992500D02*
X74448000Y-31992500D01*
X74448000Y-31992500D02*
X74448000Y-29992500D01*
X81198000Y-32992500D02*
X77198000Y-32992500D01*
X77198000Y-32992500D02*
X77198000Y-31992500D01*
%TO.C,C2*%
X109608406Y-64658944D02*
X108081056Y-63131594D01*
X110258944Y-64008406D02*
X109608406Y-64658944D01*
X108081056Y-63131594D02*
X108731594Y-62481056D01*
X108731594Y-62481056D02*
X110258944Y-64008406D01*
%TO.C,J8*%
X96020000Y-90000000D02*
X96020000Y-86450000D01*
X104670000Y-90000000D02*
X96020000Y-90000000D01*
X96020000Y-86450000D02*
X104670000Y-86450000D01*
X104670000Y-86450000D02*
X104670000Y-90000000D01*
%TO.C,C13*%
X107510000Y-31340000D02*
X107510000Y-33500000D01*
X106590000Y-31340000D02*
X107510000Y-31340000D01*
X107510000Y-33500000D02*
X106590000Y-33500000D01*
X106590000Y-33500000D02*
X106590000Y-31340000D01*
%TO.C,R3*%
X106417662Y-25367019D02*
X104862027Y-26922654D01*
X105752981Y-24702338D02*
X106417662Y-25367019D01*
X104862027Y-26922654D02*
X104197346Y-26257973D01*
X104197346Y-26257973D02*
X105752981Y-24702338D01*
%TO.C,C17*%
X82670000Y-44960000D02*
X82670000Y-42860000D01*
X82670000Y-42860000D02*
X81720000Y-42860000D01*
X81720000Y-45160000D02*
X81720000Y-44960000D01*
X81720000Y-45160000D02*
X80570000Y-46310000D01*
X81720000Y-44960000D02*
X82670000Y-44960000D01*
X81720000Y-42860000D02*
X81720000Y-42660000D01*
X81720000Y-42660000D02*
X80570000Y-41510000D01*
X80570000Y-46310000D02*
X76920000Y-46310000D01*
X80570000Y-41510000D02*
X76920000Y-41510000D01*
X76920000Y-46310000D02*
X76920000Y-44960000D01*
X76920000Y-44960000D02*
X75970000Y-44960000D01*
X76920000Y-42860000D02*
X76920000Y-41510000D01*
X75970000Y-44960000D02*
X75970000Y-42860000D01*
X75970000Y-42860000D02*
X76920000Y-42860000D01*
%TO.C,REF2\u002A\u002A*%
X110130000Y-88050500D02*
G75*
G02*
X105130000Y-88050500I-2500000J0D01*
G01*
X105130000Y-88050500D02*
G75*
G02*
X110130000Y-88050500I2500000J0D01*
G01*
%TO.C,C8*%
X95858944Y-58421594D02*
X94331594Y-59948944D01*
X95208406Y-57771056D02*
X95858944Y-58421594D01*
X94331594Y-59948944D02*
X93681056Y-59298406D01*
X93681056Y-59298406D02*
X95208406Y-57771056D01*
%TO.C,REF3\u002A\u002A*%
X82300000Y-87950000D02*
G75*
G02*
X77300000Y-87950000I-2500000J0D01*
G01*
X77300000Y-87950000D02*
G75*
G02*
X82300000Y-87950000I2500000J0D01*
G01*
%TO.C,R15*%
X91990000Y-83850000D02*
X91990000Y-81650000D01*
X92930000Y-83850000D02*
X91990000Y-83850000D01*
X91990000Y-81650000D02*
X92930000Y-81650000D01*
X92930000Y-81650000D02*
X92930000Y-83850000D01*
%TO.C,R7*%
X84722677Y-65016558D02*
X83167042Y-63460923D01*
X85387358Y-64351877D02*
X84722677Y-65016558D01*
X83167042Y-63460923D02*
X83831723Y-62796242D01*
X83831723Y-62796242D02*
X85387358Y-64351877D01*
%TO.C,R17*%
X90490000Y-83750000D02*
X90490000Y-81550000D01*
X91430000Y-83750000D02*
X90490000Y-83750000D01*
X90490000Y-81550000D02*
X91430000Y-81550000D01*
X91430000Y-81550000D02*
X91430000Y-83750000D01*
%TO.C,D1*%
X106591953Y-29576726D02*
X108713274Y-31698047D01*
X106591953Y-29576726D02*
X111046726Y-25121953D01*
X111046726Y-25121953D02*
X113168047Y-27243274D01*
X113168047Y-27243274D02*
X108713274Y-31698047D01*
%TD*%
M02*
