%TF.GenerationSoftware,KiCad,Pcbnew,9.0.7-9.0.7~ubuntu22.04.1*%
%TF.CreationDate,2026-01-29T20:02:15+05:30*%
%TF.ProjectId,v3,76332e6b-6963-4616-945f-706362585858,V3.0.0*%
%TF.SameCoordinates,Original*%
%TF.FileFunction,Legend,Top*%
%TF.FilePolarity,Positive*%
%FSLAX46Y46*%
G04 Gerber Fmt 4.6, Leading zero omitted, Abs format (unit mm)*
G04 Created by KiCad (PCBNEW 9.0.7-9.0.7~ubuntu22.04.1) date 2026-01-29 20:02:15*
%MOMM*%
%LPD*%
G01*
G04 APERTURE LIST*
%ADD10C,0.150000*%
%ADD11C,0.000000*%
%ADD12C,0.187500*%
%ADD13C,0.063500*%
%ADD14C,0.123000*%
%ADD15C,0.248000*%
%ADD16C,0.120000*%
%ADD17C,0.010000*%
%ADD18C,0.127000*%
%ADD19C,0.200000*%
%ADD20C,0.100000*%
%ADD21C,0.300000*%
G04 APERTURE END LIST*
D10*
X93571428Y-40759875D02*
X93761904Y-40759875D01*
X93761904Y-40759875D02*
X93857142Y-40807494D01*
X93857142Y-40807494D02*
X93952380Y-40902732D01*
X93952380Y-40902732D02*
X93999999Y-41093208D01*
X93999999Y-41093208D02*
X93999999Y-41426541D01*
X93999999Y-41426541D02*
X93952380Y-41617017D01*
X93952380Y-41617017D02*
X93857142Y-41712256D01*
X93857142Y-41712256D02*
X93761904Y-41759875D01*
X93761904Y-41759875D02*
X93571428Y-41759875D01*
X93571428Y-41759875D02*
X93476190Y-41712256D01*
X93476190Y-41712256D02*
X93380952Y-41617017D01*
X93380952Y-41617017D02*
X93333333Y-41426541D01*
X93333333Y-41426541D02*
X93333333Y-41093208D01*
X93333333Y-41093208D02*
X93380952Y-40902732D01*
X93380952Y-40902732D02*
X93476190Y-40807494D01*
X93476190Y-40807494D02*
X93571428Y-40759875D01*
X94428571Y-41759875D02*
X94428571Y-40759875D01*
X94428571Y-40759875D02*
X94809523Y-40759875D01*
X94809523Y-40759875D02*
X94904761Y-40807494D01*
X94904761Y-40807494D02*
X94952380Y-40855113D01*
X94952380Y-40855113D02*
X94999999Y-40950351D01*
X94999999Y-40950351D02*
X94999999Y-41093208D01*
X94999999Y-41093208D02*
X94952380Y-41188446D01*
X94952380Y-41188446D02*
X94904761Y-41236065D01*
X94904761Y-41236065D02*
X94809523Y-41283684D01*
X94809523Y-41283684D02*
X94428571Y-41283684D01*
X95428571Y-41236065D02*
X95761904Y-41236065D01*
X95904761Y-41759875D02*
X95428571Y-41759875D01*
X95428571Y-41759875D02*
X95428571Y-40759875D01*
X95428571Y-40759875D02*
X95904761Y-40759875D01*
X96333333Y-41759875D02*
X96333333Y-40759875D01*
X96333333Y-40759875D02*
X96904761Y-41759875D01*
X96904761Y-41759875D02*
X96904761Y-40759875D01*
X98095238Y-41712256D02*
X98238095Y-41759875D01*
X98238095Y-41759875D02*
X98476190Y-41759875D01*
X98476190Y-41759875D02*
X98571428Y-41712256D01*
X98571428Y-41712256D02*
X98619047Y-41664636D01*
X98619047Y-41664636D02*
X98666666Y-41569398D01*
X98666666Y-41569398D02*
X98666666Y-41474160D01*
X98666666Y-41474160D02*
X98619047Y-41378922D01*
X98619047Y-41378922D02*
X98571428Y-41331303D01*
X98571428Y-41331303D02*
X98476190Y-41283684D01*
X98476190Y-41283684D02*
X98285714Y-41236065D01*
X98285714Y-41236065D02*
X98190476Y-41188446D01*
X98190476Y-41188446D02*
X98142857Y-41140827D01*
X98142857Y-41140827D02*
X98095238Y-41045589D01*
X98095238Y-41045589D02*
X98095238Y-40950351D01*
X98095238Y-40950351D02*
X98142857Y-40855113D01*
X98142857Y-40855113D02*
X98190476Y-40807494D01*
X98190476Y-40807494D02*
X98285714Y-40759875D01*
X98285714Y-40759875D02*
X98523809Y-40759875D01*
X98523809Y-40759875D02*
X98666666Y-40807494D01*
X99285714Y-40759875D02*
X99476190Y-40759875D01*
X99476190Y-40759875D02*
X99571428Y-40807494D01*
X99571428Y-40807494D02*
X99666666Y-40902732D01*
X99666666Y-40902732D02*
X99714285Y-41093208D01*
X99714285Y-41093208D02*
X99714285Y-41426541D01*
X99714285Y-41426541D02*
X99666666Y-41617017D01*
X99666666Y-41617017D02*
X99571428Y-41712256D01*
X99571428Y-41712256D02*
X99476190Y-41759875D01*
X99476190Y-41759875D02*
X99285714Y-41759875D01*
X99285714Y-41759875D02*
X99190476Y-41712256D01*
X99190476Y-41712256D02*
X99095238Y-41617017D01*
X99095238Y-41617017D02*
X99047619Y-41426541D01*
X99047619Y-41426541D02*
X99047619Y-41093208D01*
X99047619Y-41093208D02*
X99095238Y-40902732D01*
X99095238Y-40902732D02*
X99190476Y-40807494D01*
X99190476Y-40807494D02*
X99285714Y-40759875D01*
X100142857Y-40759875D02*
X100142857Y-41569398D01*
X100142857Y-41569398D02*
X100190476Y-41664636D01*
X100190476Y-41664636D02*
X100238095Y-41712256D01*
X100238095Y-41712256D02*
X100333333Y-41759875D01*
X100333333Y-41759875D02*
X100523809Y-41759875D01*
X100523809Y-41759875D02*
X100619047Y-41712256D01*
X100619047Y-41712256D02*
X100666666Y-41664636D01*
X100666666Y-41664636D02*
X100714285Y-41569398D01*
X100714285Y-41569398D02*
X100714285Y-40759875D01*
X101761904Y-41759875D02*
X101428571Y-41283684D01*
X101190476Y-41759875D02*
X101190476Y-40759875D01*
X101190476Y-40759875D02*
X101571428Y-40759875D01*
X101571428Y-40759875D02*
X101666666Y-40807494D01*
X101666666Y-40807494D02*
X101714285Y-40855113D01*
X101714285Y-40855113D02*
X101761904Y-40950351D01*
X101761904Y-40950351D02*
X101761904Y-41093208D01*
X101761904Y-41093208D02*
X101714285Y-41188446D01*
X101714285Y-41188446D02*
X101666666Y-41236065D01*
X101666666Y-41236065D02*
X101571428Y-41283684D01*
X101571428Y-41283684D02*
X101190476Y-41283684D01*
X102761904Y-41664636D02*
X102714285Y-41712256D01*
X102714285Y-41712256D02*
X102571428Y-41759875D01*
X102571428Y-41759875D02*
X102476190Y-41759875D01*
X102476190Y-41759875D02*
X102333333Y-41712256D01*
X102333333Y-41712256D02*
X102238095Y-41617017D01*
X102238095Y-41617017D02*
X102190476Y-41521779D01*
X102190476Y-41521779D02*
X102142857Y-41331303D01*
X102142857Y-41331303D02*
X102142857Y-41188446D01*
X102142857Y-41188446D02*
X102190476Y-40997970D01*
X102190476Y-40997970D02*
X102238095Y-40902732D01*
X102238095Y-40902732D02*
X102333333Y-40807494D01*
X102333333Y-40807494D02*
X102476190Y-40759875D01*
X102476190Y-40759875D02*
X102571428Y-40759875D01*
X102571428Y-40759875D02*
X102714285Y-40807494D01*
X102714285Y-40807494D02*
X102761904Y-40855113D01*
X103190476Y-41236065D02*
X103523809Y-41236065D01*
X103666666Y-41759875D02*
X103190476Y-41759875D01*
X103190476Y-41759875D02*
X103190476Y-40759875D01*
X103190476Y-40759875D02*
X103666666Y-40759875D01*
X92285714Y-43274580D02*
X92238095Y-43322200D01*
X92238095Y-43322200D02*
X92095238Y-43369819D01*
X92095238Y-43369819D02*
X92000000Y-43369819D01*
X92000000Y-43369819D02*
X91857143Y-43322200D01*
X91857143Y-43322200D02*
X91761905Y-43226961D01*
X91761905Y-43226961D02*
X91714286Y-43131723D01*
X91714286Y-43131723D02*
X91666667Y-42941247D01*
X91666667Y-42941247D02*
X91666667Y-42798390D01*
X91666667Y-42798390D02*
X91714286Y-42607914D01*
X91714286Y-42607914D02*
X91761905Y-42512676D01*
X91761905Y-42512676D02*
X91857143Y-42417438D01*
X91857143Y-42417438D02*
X92000000Y-42369819D01*
X92000000Y-42369819D02*
X92095238Y-42369819D01*
X92095238Y-42369819D02*
X92238095Y-42417438D01*
X92238095Y-42417438D02*
X92285714Y-42465057D01*
X92904762Y-42369819D02*
X93095238Y-42369819D01*
X93095238Y-42369819D02*
X93190476Y-42417438D01*
X93190476Y-42417438D02*
X93285714Y-42512676D01*
X93285714Y-42512676D02*
X93333333Y-42703152D01*
X93333333Y-42703152D02*
X93333333Y-43036485D01*
X93333333Y-43036485D02*
X93285714Y-43226961D01*
X93285714Y-43226961D02*
X93190476Y-43322200D01*
X93190476Y-43322200D02*
X93095238Y-43369819D01*
X93095238Y-43369819D02*
X92904762Y-43369819D01*
X92904762Y-43369819D02*
X92809524Y-43322200D01*
X92809524Y-43322200D02*
X92714286Y-43226961D01*
X92714286Y-43226961D02*
X92666667Y-43036485D01*
X92666667Y-43036485D02*
X92666667Y-42703152D01*
X92666667Y-42703152D02*
X92714286Y-42512676D01*
X92714286Y-42512676D02*
X92809524Y-42417438D01*
X92809524Y-42417438D02*
X92904762Y-42369819D01*
X93761905Y-43369819D02*
X93761905Y-42369819D01*
X93761905Y-42369819D02*
X94095238Y-43084104D01*
X94095238Y-43084104D02*
X94428571Y-42369819D01*
X94428571Y-42369819D02*
X94428571Y-43369819D01*
X94904762Y-43369819D02*
X94904762Y-42369819D01*
X94904762Y-42369819D02*
X95238095Y-43084104D01*
X95238095Y-43084104D02*
X95571428Y-42369819D01*
X95571428Y-42369819D02*
X95571428Y-43369819D01*
X96047619Y-42369819D02*
X96047619Y-43179342D01*
X96047619Y-43179342D02*
X96095238Y-43274580D01*
X96095238Y-43274580D02*
X96142857Y-43322200D01*
X96142857Y-43322200D02*
X96238095Y-43369819D01*
X96238095Y-43369819D02*
X96428571Y-43369819D01*
X96428571Y-43369819D02*
X96523809Y-43322200D01*
X96523809Y-43322200D02*
X96571428Y-43274580D01*
X96571428Y-43274580D02*
X96619047Y-43179342D01*
X96619047Y-43179342D02*
X96619047Y-42369819D01*
X97095238Y-43369819D02*
X97095238Y-42369819D01*
X97095238Y-42369819D02*
X97666666Y-43369819D01*
X97666666Y-43369819D02*
X97666666Y-42369819D01*
X98142857Y-43369819D02*
X98142857Y-42369819D01*
X98476190Y-42369819D02*
X99047618Y-42369819D01*
X98761904Y-43369819D02*
X98761904Y-42369819D01*
X99571428Y-42893628D02*
X99571428Y-43369819D01*
X99238095Y-42369819D02*
X99571428Y-42893628D01*
X99571428Y-42893628D02*
X99904761Y-42369819D01*
X100952381Y-43322200D02*
X101095238Y-43369819D01*
X101095238Y-43369819D02*
X101333333Y-43369819D01*
X101333333Y-43369819D02*
X101428571Y-43322200D01*
X101428571Y-43322200D02*
X101476190Y-43274580D01*
X101476190Y-43274580D02*
X101523809Y-43179342D01*
X101523809Y-43179342D02*
X101523809Y-43084104D01*
X101523809Y-43084104D02*
X101476190Y-42988866D01*
X101476190Y-42988866D02*
X101428571Y-42941247D01*
X101428571Y-42941247D02*
X101333333Y-42893628D01*
X101333333Y-42893628D02*
X101142857Y-42846009D01*
X101142857Y-42846009D02*
X101047619Y-42798390D01*
X101047619Y-42798390D02*
X101000000Y-42750771D01*
X101000000Y-42750771D02*
X100952381Y-42655533D01*
X100952381Y-42655533D02*
X100952381Y-42560295D01*
X100952381Y-42560295D02*
X101000000Y-42465057D01*
X101000000Y-42465057D02*
X101047619Y-42417438D01*
X101047619Y-42417438D02*
X101142857Y-42369819D01*
X101142857Y-42369819D02*
X101380952Y-42369819D01*
X101380952Y-42369819D02*
X101523809Y-42417438D01*
X101952381Y-43369819D02*
X101952381Y-42369819D01*
X101952381Y-42846009D02*
X102523809Y-42846009D01*
X102523809Y-43369819D02*
X102523809Y-42369819D01*
X102952381Y-43084104D02*
X103428571Y-43084104D01*
X102857143Y-43369819D02*
X103190476Y-42369819D01*
X103190476Y-42369819D02*
X103523809Y-43369819D01*
X104428571Y-43369819D02*
X104095238Y-42893628D01*
X103857143Y-43369819D02*
X103857143Y-42369819D01*
X103857143Y-42369819D02*
X104238095Y-42369819D01*
X104238095Y-42369819D02*
X104333333Y-42417438D01*
X104333333Y-42417438D02*
X104380952Y-42465057D01*
X104380952Y-42465057D02*
X104428571Y-42560295D01*
X104428571Y-42560295D02*
X104428571Y-42703152D01*
X104428571Y-42703152D02*
X104380952Y-42798390D01*
X104380952Y-42798390D02*
X104333333Y-42846009D01*
X104333333Y-42846009D02*
X104238095Y-42893628D01*
X104238095Y-42893628D02*
X103857143Y-42893628D01*
X104857143Y-42846009D02*
X105190476Y-42846009D01*
X105333333Y-43369819D02*
X104857143Y-43369819D01*
X104857143Y-43369819D02*
X104857143Y-42369819D01*
X104857143Y-42369819D02*
X105333333Y-42369819D01*
X118102500Y-87000000D02*
X119152500Y-87000000D01*
X103030000Y-79520000D02*
X103970000Y-79520000D01*
D11*
G36*
X86614023Y-86051350D02*
G01*
X86637387Y-86052380D01*
X86659495Y-86054202D01*
X86669739Y-86055403D01*
X86679265Y-86056791D01*
X86687937Y-86058365D01*
X86695620Y-86060121D01*
X86727016Y-86069162D01*
X86757223Y-86080165D01*
X86786175Y-86093063D01*
X86813809Y-86107785D01*
X86840059Y-86124264D01*
X86864860Y-86142430D01*
X86888146Y-86162215D01*
X86909853Y-86183549D01*
X86929916Y-86206364D01*
X86948268Y-86230591D01*
X86964846Y-86256161D01*
X86979584Y-86283006D01*
X86992417Y-86311056D01*
X87003280Y-86340242D01*
X87012108Y-86370497D01*
X87018835Y-86401751D01*
X87022814Y-86709314D01*
X87024233Y-87351353D01*
X87023032Y-87994048D01*
X87019153Y-88303576D01*
X87012856Y-88335008D01*
X87004484Y-88365443D01*
X86994098Y-88394813D01*
X86981757Y-88423050D01*
X86967522Y-88450087D01*
X86951454Y-88475857D01*
X86933613Y-88500292D01*
X86914060Y-88523325D01*
X86892855Y-88544888D01*
X86870058Y-88564915D01*
X86845730Y-88583336D01*
X86819931Y-88600086D01*
X86792723Y-88615096D01*
X86764164Y-88628299D01*
X86734316Y-88639628D01*
X86703240Y-88649015D01*
X86691471Y-88652069D01*
X86681476Y-88654393D01*
X86672293Y-88656092D01*
X86667704Y-88656740D01*
X86662957Y-88657270D01*
X86652505Y-88658032D01*
X86639973Y-88658481D01*
X86624398Y-88658722D01*
X86604815Y-88658858D01*
X86581148Y-88658778D01*
X86570607Y-88658566D01*
X86560792Y-88658218D01*
X86551597Y-88657720D01*
X86542921Y-88657055D01*
X86534660Y-88656210D01*
X86526710Y-88655167D01*
X86518969Y-88653913D01*
X86511332Y-88652431D01*
X86503698Y-88650706D01*
X86495962Y-88648723D01*
X86488022Y-88646466D01*
X86479773Y-88643921D01*
X86461940Y-88637903D01*
X86435607Y-88627615D01*
X86410222Y-88615725D01*
X86385840Y-88602297D01*
X86362518Y-88587396D01*
X86340310Y-88571087D01*
X86319272Y-88553434D01*
X86299458Y-88534502D01*
X86280925Y-88514356D01*
X86263728Y-88493060D01*
X86247922Y-88470679D01*
X86233562Y-88447278D01*
X86220705Y-88422921D01*
X86209404Y-88397673D01*
X86199715Y-88371598D01*
X86191695Y-88344762D01*
X86189174Y-88333738D01*
X86346688Y-88333738D01*
X86476863Y-88333738D01*
X86478450Y-88307385D01*
X86478852Y-88301704D01*
X86479462Y-88296207D01*
X86480281Y-88290895D01*
X86481308Y-88285766D01*
X86482543Y-88280819D01*
X86483987Y-88276053D01*
X86485639Y-88271468D01*
X86487499Y-88267063D01*
X86489568Y-88262836D01*
X86491845Y-88258787D01*
X86494330Y-88254914D01*
X86497024Y-88251218D01*
X86499926Y-88247696D01*
X86503037Y-88244348D01*
X86506355Y-88241173D01*
X86509883Y-88238171D01*
X86517433Y-88232754D01*
X86525518Y-88227937D01*
X86534078Y-88223725D01*
X86543051Y-88220123D01*
X86552378Y-88217134D01*
X86561998Y-88214764D01*
X86571851Y-88213017D01*
X86581876Y-88211897D01*
X86592012Y-88211411D01*
X86602199Y-88211561D01*
X86612378Y-88212354D01*
X86622486Y-88213792D01*
X86632464Y-88215882D01*
X86642252Y-88218628D01*
X86651788Y-88222034D01*
X86661013Y-88226106D01*
X86667297Y-88229395D01*
X86673172Y-88232953D01*
X86678640Y-88236783D01*
X86683699Y-88240884D01*
X86688351Y-88245259D01*
X86692596Y-88249909D01*
X86696434Y-88254835D01*
X86699867Y-88260038D01*
X86702894Y-88265521D01*
X86705515Y-88271284D01*
X86707732Y-88277329D01*
X86709545Y-88283657D01*
X86710955Y-88290270D01*
X86711961Y-88297169D01*
X86712564Y-88304355D01*
X86712765Y-88311830D01*
X86712765Y-88333738D01*
X86846115Y-88333738D01*
X86845798Y-88299766D01*
X86845422Y-88285781D01*
X86844481Y-88272110D01*
X86842981Y-88258761D01*
X86840933Y-88245743D01*
X86838343Y-88233064D01*
X86835222Y-88220733D01*
X86831577Y-88208758D01*
X86827417Y-88197149D01*
X86822751Y-88185912D01*
X86817586Y-88175058D01*
X86811933Y-88164594D01*
X86805798Y-88154530D01*
X86799191Y-88144873D01*
X86792121Y-88135632D01*
X86784595Y-88126816D01*
X86776622Y-88118433D01*
X86768212Y-88110492D01*
X86759371Y-88103002D01*
X86750110Y-88095970D01*
X86740437Y-88089406D01*
X86730359Y-88083318D01*
X86719886Y-88077715D01*
X86709026Y-88072604D01*
X86697788Y-88067996D01*
X86686180Y-88063897D01*
X86674211Y-88060317D01*
X86661889Y-88057265D01*
X86649223Y-88054748D01*
X86636222Y-88052776D01*
X86622894Y-88051356D01*
X86609247Y-88050498D01*
X86595290Y-88050211D01*
X86580577Y-88050494D01*
X86566316Y-88051347D01*
X86552499Y-88052772D01*
X86539117Y-88054775D01*
X86526161Y-88057357D01*
X86513623Y-88060524D01*
X86501492Y-88064279D01*
X86489761Y-88068626D01*
X86478421Y-88073567D01*
X86467462Y-88079108D01*
X86456877Y-88085251D01*
X86446655Y-88092001D01*
X86436789Y-88099362D01*
X86427270Y-88107336D01*
X86418088Y-88115927D01*
X86409235Y-88125140D01*
X86402146Y-88133280D01*
X86395521Y-88141637D01*
X86389355Y-88150226D01*
X86383642Y-88159063D01*
X86378377Y-88168165D01*
X86373555Y-88177547D01*
X86369172Y-88187224D01*
X86365222Y-88197213D01*
X86361699Y-88207529D01*
X86358599Y-88218189D01*
X86355917Y-88229208D01*
X86353648Y-88240601D01*
X86351786Y-88252386D01*
X86350326Y-88264576D01*
X86349263Y-88277189D01*
X86348593Y-88290240D01*
X86346688Y-88333738D01*
X86189174Y-88333738D01*
X86185398Y-88317228D01*
X86182044Y-88284099D01*
X86180238Y-88185545D01*
X86179808Y-87860663D01*
X86353990Y-87860663D01*
X86353990Y-88019413D01*
X86595290Y-88019413D01*
X86839765Y-88019413D01*
X86839765Y-87860663D01*
X86353990Y-87860663D01*
X86179808Y-87860663D01*
X86179552Y-87666988D01*
X86353990Y-87666988D01*
X86353990Y-87828913D01*
X86839765Y-87828913D01*
X86839765Y-87666988D01*
X86353990Y-87666988D01*
X86179552Y-87666988D01*
X86179365Y-87525701D01*
X86179365Y-86966901D01*
X86353990Y-86966901D01*
X86353990Y-87126921D01*
X86369230Y-87131366D01*
X86441303Y-87153546D01*
X86533139Y-87182364D01*
X86612475Y-87207670D01*
X86637371Y-87215834D01*
X86647043Y-87219313D01*
X86644493Y-87220604D01*
X86636287Y-87223629D01*
X86605291Y-87234077D01*
X86558817Y-87249049D01*
X86501628Y-87266938D01*
X86353990Y-87312341D01*
X86353990Y-87472361D01*
X86504168Y-87527288D01*
X86747055Y-87616188D01*
X86839765Y-87650161D01*
X86839765Y-87492681D01*
X86821668Y-87487601D01*
X86641883Y-87434499D01*
X86514010Y-87396161D01*
X86526507Y-87392147D01*
X86561357Y-87381675D01*
X86676570Y-87347901D01*
X86839765Y-87300276D01*
X86839130Y-87222806D01*
X86838178Y-87145018D01*
X86678793Y-87098981D01*
X86616806Y-87080858D01*
X86565802Y-87065683D01*
X86531051Y-87055091D01*
X86521416Y-87052026D01*
X86517820Y-87050721D01*
X86520749Y-87049400D01*
X86529821Y-87046290D01*
X86563818Y-87035520D01*
X86614663Y-87020047D01*
X86677205Y-87001508D01*
X86838178Y-86953883D01*
X86839130Y-86871968D01*
X86839306Y-86849777D01*
X86839348Y-86831775D01*
X86839315Y-86824231D01*
X86839242Y-86817597D01*
X86839128Y-86811829D01*
X86838971Y-86806881D01*
X86838770Y-86802706D01*
X86838522Y-86799259D01*
X86838226Y-86796496D01*
X86838059Y-86795356D01*
X86837880Y-86794369D01*
X86837687Y-86793531D01*
X86837482Y-86792834D01*
X86837262Y-86792274D01*
X86837029Y-86791845D01*
X86836782Y-86791541D01*
X86836521Y-86791357D01*
X86836245Y-86791286D01*
X86835955Y-86791323D01*
X86593068Y-86879906D01*
X86353990Y-86966901D01*
X86179365Y-86966901D01*
X86179365Y-86765288D01*
X86836245Y-86765288D01*
X86839765Y-86765288D01*
X86839765Y-86603363D01*
X86779123Y-86603363D01*
X86796903Y-86585266D01*
X86803235Y-86578390D01*
X86809134Y-86571221D01*
X86814597Y-86563760D01*
X86819624Y-86556011D01*
X86824211Y-86547978D01*
X86828357Y-86539663D01*
X86832061Y-86531070D01*
X86835320Y-86522202D01*
X86838133Y-86513063D01*
X86840497Y-86503655D01*
X86842411Y-86493982D01*
X86843873Y-86484048D01*
X86844881Y-86473854D01*
X86845433Y-86463406D01*
X86845528Y-86452705D01*
X86845163Y-86441756D01*
X86844181Y-86428359D01*
X86842551Y-86415321D01*
X86840276Y-86402650D01*
X86837364Y-86390355D01*
X86833819Y-86378446D01*
X86829647Y-86366930D01*
X86824854Y-86355818D01*
X86819445Y-86345117D01*
X86813426Y-86334836D01*
X86806802Y-86324984D01*
X86799579Y-86315571D01*
X86791763Y-86306605D01*
X86783359Y-86298094D01*
X86774372Y-86290048D01*
X86764809Y-86282476D01*
X86754675Y-86275386D01*
X86746834Y-86270387D01*
X86739005Y-86265744D01*
X86731157Y-86261447D01*
X86723257Y-86257487D01*
X86715274Y-86253854D01*
X86707175Y-86250539D01*
X86698928Y-86247533D01*
X86690500Y-86244826D01*
X86681861Y-86242410D01*
X86672978Y-86240275D01*
X86663818Y-86238411D01*
X86654350Y-86236809D01*
X86644542Y-86235461D01*
X86634361Y-86234356D01*
X86623775Y-86233486D01*
X86612753Y-86232841D01*
X86598192Y-86232445D01*
X86583928Y-86232620D01*
X86569970Y-86233357D01*
X86556329Y-86234646D01*
X86543017Y-86236478D01*
X86530044Y-86238844D01*
X86517421Y-86241734D01*
X86505160Y-86245139D01*
X86493270Y-86249049D01*
X86481764Y-86253456D01*
X86470651Y-86258350D01*
X86459943Y-86263721D01*
X86449651Y-86269560D01*
X86439786Y-86275858D01*
X86430358Y-86282605D01*
X86421379Y-86289792D01*
X86412860Y-86297410D01*
X86404811Y-86305449D01*
X86397243Y-86313901D01*
X86390168Y-86322755D01*
X86383596Y-86332002D01*
X86377537Y-86341633D01*
X86372005Y-86351638D01*
X86367008Y-86362009D01*
X86362558Y-86372735D01*
X86358665Y-86383808D01*
X86355342Y-86395218D01*
X86352599Y-86406955D01*
X86350446Y-86419011D01*
X86348894Y-86431376D01*
X86347955Y-86444041D01*
X86347640Y-86456996D01*
X86347805Y-86467212D01*
X86348305Y-86477039D01*
X86349149Y-86486496D01*
X86350344Y-86495602D01*
X86351898Y-86504376D01*
X86353818Y-86512840D01*
X86356114Y-86521011D01*
X86358792Y-86528909D01*
X86361861Y-86536555D01*
X86365329Y-86543967D01*
X86369203Y-86551165D01*
X86373492Y-86558169D01*
X86378202Y-86564998D01*
X86383343Y-86571671D01*
X86388922Y-86578209D01*
X86394948Y-86584631D01*
X86413045Y-86603363D01*
X86178730Y-86603363D01*
X86180318Y-86502716D01*
X86180765Y-86470815D01*
X86181220Y-86445928D01*
X86181481Y-86435711D01*
X86181780Y-86426763D01*
X86182129Y-86418923D01*
X86182540Y-86412030D01*
X86183026Y-86405921D01*
X86183598Y-86400437D01*
X86184269Y-86395414D01*
X86185050Y-86390693D01*
X86185955Y-86386111D01*
X86186994Y-86381507D01*
X86189525Y-86371588D01*
X86198834Y-86340899D01*
X86210049Y-86311380D01*
X86223101Y-86283094D01*
X86237924Y-86256102D01*
X86254451Y-86230467D01*
X86272616Y-86206249D01*
X86292350Y-86183512D01*
X86313588Y-86162316D01*
X86336262Y-86142724D01*
X86360305Y-86124797D01*
X86385651Y-86108598D01*
X86412232Y-86094187D01*
X86439981Y-86081628D01*
X86468831Y-86070982D01*
X86498716Y-86062310D01*
X86529568Y-86055676D01*
X86537920Y-86054362D01*
X86547173Y-86053275D01*
X86557190Y-86052413D01*
X86567836Y-86051771D01*
X86590479Y-86051138D01*
X86614023Y-86051350D01*
G37*
D10*
X111607600Y-83261200D02*
X111607600Y-87630000D01*
X91033600Y-70053200D02*
X94284800Y-70053200D01*
X94183200Y-30937200D02*
X94234000Y-33731200D01*
X98501200Y-33731200D02*
X102057200Y-33731200D01*
D11*
G36*
X86261915Y-88613138D02*
G01*
X86300015Y-88613138D01*
X86300015Y-88636633D01*
X86300000Y-88640000D01*
X86299950Y-88643089D01*
X86299862Y-88645921D01*
X86299732Y-88648514D01*
X86299556Y-88650891D01*
X86299329Y-88653069D01*
X86299047Y-88655070D01*
X86298705Y-88656913D01*
X86298301Y-88658619D01*
X86297829Y-88660207D01*
X86297286Y-88661697D01*
X86296666Y-88663110D01*
X86295967Y-88664464D01*
X86295184Y-88665782D01*
X86294312Y-88667081D01*
X86293348Y-88668383D01*
X86292546Y-88669337D01*
X86291692Y-88670236D01*
X86290789Y-88671078D01*
X86289838Y-88671863D01*
X86288845Y-88672592D01*
X86287810Y-88673264D01*
X86286739Y-88673878D01*
X86285633Y-88674435D01*
X86284496Y-88674935D01*
X86283332Y-88675376D01*
X86282142Y-88675760D01*
X86280930Y-88676085D01*
X86279699Y-88676351D01*
X86278453Y-88676559D01*
X86277193Y-88676707D01*
X86275925Y-88676797D01*
X86274650Y-88676826D01*
X86273371Y-88676796D01*
X86272092Y-88676706D01*
X86270816Y-88676556D01*
X86269545Y-88676345D01*
X86268284Y-88676074D01*
X86267034Y-88675742D01*
X86265800Y-88675348D01*
X86264583Y-88674893D01*
X86263388Y-88674377D01*
X86262217Y-88673798D01*
X86261074Y-88673158D01*
X86259961Y-88672455D01*
X86258881Y-88671690D01*
X86257838Y-88670862D01*
X86256835Y-88669970D01*
X86249533Y-88663303D01*
X86238738Y-88669970D01*
X86236268Y-88671474D01*
X86234085Y-88672768D01*
X86232173Y-88673853D01*
X86230512Y-88674728D01*
X86229771Y-88675087D01*
X86229086Y-88675393D01*
X86228456Y-88675647D01*
X86227877Y-88675847D01*
X86227348Y-88675995D01*
X86226867Y-88676091D01*
X86226430Y-88676133D01*
X86226038Y-88676122D01*
X86225686Y-88676058D01*
X86225372Y-88675941D01*
X86225096Y-88675772D01*
X86224853Y-88675548D01*
X86224643Y-88675272D01*
X86224462Y-88674942D01*
X86224310Y-88674559D01*
X86224182Y-88674123D01*
X86224078Y-88673633D01*
X86223995Y-88673089D01*
X86223931Y-88672492D01*
X86223883Y-88671841D01*
X86223829Y-88670379D01*
X86223815Y-88668700D01*
X86223853Y-88667595D01*
X86223967Y-88666536D01*
X86224160Y-88665521D01*
X86224288Y-88665028D01*
X86224435Y-88664543D01*
X86224604Y-88664067D01*
X86224794Y-88663599D01*
X86225005Y-88663138D01*
X86225238Y-88662684D01*
X86225771Y-88661793D01*
X86226395Y-88660922D01*
X86227111Y-88660065D01*
X86227923Y-88659219D01*
X86228833Y-88658378D01*
X86229843Y-88657538D01*
X86230955Y-88656695D01*
X86232171Y-88655843D01*
X86233495Y-88654978D01*
X86234928Y-88654096D01*
X86236465Y-88653160D01*
X86237866Y-88652254D01*
X86239136Y-88651370D01*
X86240280Y-88650499D01*
X86241304Y-88649633D01*
X86242211Y-88648766D01*
X86242623Y-88648328D01*
X86243008Y-88647888D01*
X86243366Y-88647442D01*
X86243699Y-88646991D01*
X86244006Y-88646534D01*
X86244289Y-88646069D01*
X86244548Y-88645596D01*
X86244784Y-88645113D01*
X86244998Y-88644620D01*
X86245189Y-88644115D01*
X86245360Y-88643598D01*
X86245444Y-88643300D01*
X86261915Y-88643300D01*
X86261927Y-88645502D01*
X86261970Y-88647473D01*
X86262049Y-88649230D01*
X86262173Y-88650787D01*
X86262254Y-88651495D01*
X86262349Y-88652159D01*
X86262459Y-88652781D01*
X86262585Y-88653363D01*
X86262727Y-88653907D01*
X86262887Y-88654414D01*
X86263066Y-88654886D01*
X86263264Y-88655326D01*
X86263483Y-88655735D01*
X86263723Y-88656115D01*
X86263986Y-88656469D01*
X86264271Y-88656797D01*
X86264581Y-88657103D01*
X86264916Y-88657387D01*
X86265277Y-88657653D01*
X86265666Y-88657901D01*
X86266081Y-88658133D01*
X86266526Y-88658352D01*
X86267001Y-88658560D01*
X86267506Y-88658758D01*
X86268043Y-88658949D01*
X86268612Y-88659133D01*
X86269853Y-88659493D01*
X86270752Y-88659705D01*
X86271661Y-88659867D01*
X86272575Y-88659979D01*
X86273489Y-88660044D01*
X86274397Y-88660062D01*
X86275294Y-88660034D01*
X86276176Y-88659963D01*
X86277036Y-88659850D01*
X86277870Y-88659696D01*
X86278674Y-88659502D01*
X86279441Y-88659270D01*
X86280166Y-88659002D01*
X86280846Y-88658698D01*
X86281473Y-88658360D01*
X86282044Y-88657990D01*
X86282306Y-88657793D01*
X86282553Y-88657588D01*
X86283077Y-88657117D01*
X86283578Y-88656541D01*
X86284053Y-88655867D01*
X86284502Y-88655103D01*
X86284923Y-88654255D01*
X86285315Y-88653330D01*
X86285676Y-88652335D01*
X86286005Y-88651278D01*
X86286301Y-88650165D01*
X86286562Y-88649003D01*
X86286786Y-88647799D01*
X86286973Y-88646560D01*
X86287120Y-88645293D01*
X86287228Y-88644006D01*
X86287293Y-88642704D01*
X86287315Y-88641396D01*
X86287290Y-88637308D01*
X86287231Y-88635655D01*
X86287117Y-88634237D01*
X86287033Y-88633611D01*
X86286927Y-88633037D01*
X86286799Y-88632513D01*
X86286645Y-88632036D01*
X86286464Y-88631605D01*
X86286252Y-88631217D01*
X86286007Y-88630869D01*
X86285728Y-88630561D01*
X86285411Y-88630288D01*
X86285055Y-88630050D01*
X86284657Y-88629843D01*
X86284214Y-88629666D01*
X86283726Y-88629516D01*
X86283188Y-88629391D01*
X86282599Y-88629288D01*
X86281957Y-88629206D01*
X86280503Y-88629095D01*
X86278807Y-88629037D01*
X86274615Y-88629013D01*
X86261915Y-88629013D01*
X86261915Y-88643300D01*
X86245444Y-88643300D01*
X86245509Y-88643067D01*
X86245639Y-88642522D01*
X86245749Y-88641962D01*
X86245914Y-88640791D01*
X86246009Y-88639546D01*
X86246040Y-88638221D01*
X86246027Y-88636757D01*
X86245979Y-88635455D01*
X86245885Y-88634305D01*
X86245733Y-88633299D01*
X86245630Y-88632847D01*
X86245509Y-88632427D01*
X86245367Y-88632038D01*
X86245203Y-88631679D01*
X86245015Y-88631350D01*
X86244802Y-88631047D01*
X86244562Y-88630771D01*
X86244294Y-88630521D01*
X86243996Y-88630295D01*
X86243667Y-88630092D01*
X86243305Y-88629910D01*
X86242909Y-88629750D01*
X86242476Y-88629608D01*
X86242007Y-88629486D01*
X86241499Y-88629380D01*
X86240950Y-88629291D01*
X86239726Y-88629155D01*
X86238322Y-88629070D01*
X86236727Y-88629026D01*
X86234928Y-88629013D01*
X86233181Y-88629000D01*
X86231624Y-88628958D01*
X86230247Y-88628879D01*
X86229623Y-88628823D01*
X86229039Y-88628755D01*
X86228495Y-88628674D01*
X86227989Y-88628579D01*
X86227520Y-88628469D01*
X86227086Y-88628343D01*
X86226687Y-88628201D01*
X86226320Y-88628041D01*
X86225985Y-88627862D01*
X86225680Y-88627664D01*
X86225404Y-88627445D01*
X86225156Y-88627205D01*
X86224933Y-88626942D01*
X86224736Y-88626656D01*
X86224562Y-88626347D01*
X86224410Y-88626012D01*
X86224279Y-88625651D01*
X86224167Y-88625262D01*
X86224074Y-88624847D01*
X86223997Y-88624402D01*
X86223936Y-88623927D01*
X86223889Y-88623422D01*
X86223832Y-88622316D01*
X86223815Y-88621076D01*
X86223815Y-88613138D01*
X86261915Y-88613138D01*
G37*
D10*
X83475000Y-70966500D02*
X83475000Y-85444500D01*
X94284800Y-70713600D02*
X94335600Y-77978000D01*
X104030000Y-77000000D02*
X103450000Y-77000000D01*
X82650000Y-70966500D02*
X83475000Y-70966500D01*
X94284800Y-70053200D02*
X91033600Y-70053200D01*
X111112500Y-70300000D02*
X109887500Y-70300000D01*
X98501200Y-33731200D02*
X98552000Y-31038800D01*
X103030000Y-79520000D02*
X103030000Y-77000000D01*
D11*
G36*
X86602181Y-86394449D02*
G01*
X86607481Y-86394675D01*
X86612690Y-86395064D01*
X86617807Y-86395615D01*
X86622827Y-86396327D01*
X86627749Y-86397196D01*
X86632571Y-86398224D01*
X86637289Y-86399406D01*
X86641900Y-86400743D01*
X86646403Y-86402233D01*
X86650795Y-86403874D01*
X86655072Y-86405664D01*
X86659233Y-86407603D01*
X86663275Y-86409688D01*
X86667195Y-86411918D01*
X86670990Y-86414292D01*
X86674658Y-86416808D01*
X86678197Y-86419465D01*
X86681603Y-86422260D01*
X86684874Y-86425194D01*
X86688008Y-86428263D01*
X86691001Y-86431467D01*
X86693852Y-86434803D01*
X86696558Y-86438272D01*
X86699115Y-86441870D01*
X86701522Y-86445597D01*
X86703775Y-86449450D01*
X86705873Y-86453429D01*
X86707812Y-86457533D01*
X86709590Y-86461758D01*
X86711187Y-86466320D01*
X86712525Y-86471167D01*
X86713608Y-86476255D01*
X86714437Y-86481542D01*
X86715015Y-86486986D01*
X86715344Y-86492543D01*
X86715427Y-86498171D01*
X86715265Y-86503827D01*
X86714862Y-86509468D01*
X86714219Y-86515051D01*
X86713339Y-86520534D01*
X86712224Y-86525873D01*
X86710877Y-86531027D01*
X86709299Y-86535951D01*
X86707494Y-86540604D01*
X86705463Y-86544943D01*
X86703363Y-86548799D01*
X86701004Y-86552619D01*
X86698401Y-86556388D01*
X86695570Y-86560094D01*
X86692528Y-86563721D01*
X86689289Y-86567256D01*
X86685869Y-86570685D01*
X86682285Y-86573994D01*
X86678552Y-86577170D01*
X86674686Y-86580197D01*
X86670703Y-86583062D01*
X86666618Y-86585752D01*
X86662448Y-86588252D01*
X86658208Y-86590548D01*
X86653915Y-86592626D01*
X86649583Y-86594473D01*
X86644355Y-86596259D01*
X86638496Y-86597807D01*
X86632096Y-86599117D01*
X86625244Y-86600188D01*
X86618032Y-86601022D01*
X86610549Y-86601617D01*
X86602885Y-86601974D01*
X86595131Y-86602093D01*
X86587378Y-86601974D01*
X86579714Y-86601617D01*
X86572231Y-86601022D01*
X86565018Y-86600188D01*
X86558167Y-86599117D01*
X86551767Y-86597807D01*
X86545908Y-86596259D01*
X86540680Y-86594473D01*
X86536634Y-86592703D01*
X86532495Y-86590627D01*
X86528298Y-86588274D01*
X86524076Y-86585672D01*
X86519863Y-86582851D01*
X86515694Y-86579840D01*
X86511601Y-86576666D01*
X86507620Y-86573359D01*
X86503784Y-86569949D01*
X86500128Y-86566462D01*
X86496684Y-86562930D01*
X86493487Y-86559379D01*
X86490571Y-86555840D01*
X86487970Y-86552341D01*
X86485717Y-86548911D01*
X86483848Y-86545578D01*
X86481448Y-86540368D01*
X86479369Y-86534884D01*
X86477610Y-86529163D01*
X86476173Y-86523244D01*
X86475058Y-86517165D01*
X86474265Y-86510964D01*
X86473795Y-86504680D01*
X86473648Y-86498350D01*
X86473825Y-86492013D01*
X86474326Y-86485706D01*
X86475151Y-86479468D01*
X86476302Y-86473337D01*
X86477778Y-86467351D01*
X86479581Y-86461549D01*
X86481709Y-86455967D01*
X86484165Y-86450646D01*
X86486035Y-86447425D01*
X86488286Y-86444093D01*
X86490886Y-86440682D01*
X86493799Y-86437221D01*
X86496991Y-86433742D01*
X86500428Y-86430275D01*
X86504075Y-86426850D01*
X86507898Y-86423499D01*
X86511862Y-86420253D01*
X86515934Y-86417141D01*
X86520077Y-86414194D01*
X86524259Y-86411444D01*
X86528445Y-86408921D01*
X86532600Y-86406656D01*
X86536690Y-86404679D01*
X86540680Y-86403021D01*
X86545131Y-86401520D01*
X86550091Y-86400123D01*
X86555475Y-86398846D01*
X86561199Y-86397702D01*
X86567175Y-86396708D01*
X86573318Y-86395877D01*
X86579543Y-86395224D01*
X86585765Y-86394766D01*
X86591321Y-86394493D01*
X86596793Y-86394388D01*
X86602181Y-86394449D01*
G37*
D10*
X83475000Y-85444500D02*
X82400000Y-85444500D01*
X111112500Y-70300000D02*
X111112500Y-85600000D01*
X116954250Y-39973350D02*
X119938800Y-39979600D01*
X103030000Y-77000000D02*
X103450000Y-77000000D01*
X94335600Y-77978000D02*
X94284800Y-70053200D01*
X116941600Y-39979600D02*
X117195600Y-66598800D01*
X102057200Y-33731200D02*
X102057200Y-30988000D01*
X109675000Y-85700000D02*
X111125000Y-85700000D01*
X80770000Y-67810000D02*
X78475000Y-67810500D01*
X94234000Y-33731200D02*
X98501200Y-33731200D01*
X80804400Y-48762750D02*
X80770000Y-67810000D01*
D11*
G36*
X86261118Y-88562364D02*
G01*
X86262053Y-88562439D01*
X86264311Y-88562730D01*
X86267008Y-88563192D01*
X86270051Y-88563806D01*
X86273347Y-88564555D01*
X86276803Y-88565419D01*
X86280326Y-88566379D01*
X86283823Y-88567418D01*
X86288472Y-88568945D01*
X86293006Y-88570782D01*
X86297415Y-88572915D01*
X86301687Y-88575336D01*
X86305812Y-88578031D01*
X86309780Y-88580991D01*
X86313579Y-88584204D01*
X86317200Y-88587659D01*
X86320630Y-88591344D01*
X86323860Y-88595249D01*
X86326879Y-88599362D01*
X86329676Y-88603673D01*
X86332241Y-88608169D01*
X86334562Y-88612840D01*
X86336630Y-88617675D01*
X86338433Y-88622663D01*
X86339122Y-88625234D01*
X86339645Y-88628150D01*
X86340007Y-88631366D01*
X86340214Y-88634832D01*
X86340269Y-88638501D01*
X86340180Y-88642325D01*
X86339949Y-88646256D01*
X86339584Y-88650246D01*
X86339088Y-88654247D01*
X86338467Y-88658211D01*
X86337726Y-88662091D01*
X86336870Y-88665838D01*
X86335904Y-88669405D01*
X86334834Y-88672743D01*
X86333664Y-88675805D01*
X86332400Y-88678543D01*
X86331687Y-88679895D01*
X86330865Y-88681325D01*
X86329944Y-88682820D01*
X86328932Y-88684367D01*
X86327841Y-88685956D01*
X86326680Y-88687573D01*
X86325457Y-88689207D01*
X86324185Y-88690846D01*
X86322871Y-88692478D01*
X86321526Y-88694089D01*
X86320160Y-88695670D01*
X86318782Y-88697206D01*
X86317403Y-88698687D01*
X86316031Y-88700100D01*
X86314677Y-88701432D01*
X86313350Y-88702673D01*
X86309225Y-88706159D01*
X86304957Y-88709298D01*
X86300561Y-88712094D01*
X86296050Y-88714553D01*
X86291441Y-88716677D01*
X86286747Y-88718472D01*
X86281983Y-88719943D01*
X86277165Y-88721093D01*
X86272307Y-88721927D01*
X86267423Y-88722450D01*
X86262530Y-88722667D01*
X86257640Y-88722581D01*
X86252770Y-88722197D01*
X86247933Y-88721519D01*
X86243145Y-88720553D01*
X86238420Y-88719302D01*
X86233774Y-88717771D01*
X86229220Y-88715965D01*
X86224774Y-88713888D01*
X86220450Y-88711544D01*
X86216264Y-88708938D01*
X86212230Y-88706074D01*
X86208362Y-88702958D01*
X86204676Y-88699592D01*
X86201186Y-88695983D01*
X86197907Y-88692134D01*
X86194854Y-88688049D01*
X86192041Y-88683734D01*
X86189484Y-88679193D01*
X86187197Y-88674430D01*
X86185195Y-88669449D01*
X86183493Y-88664256D01*
X86182082Y-88658620D01*
X86181065Y-88653029D01*
X86180441Y-88647490D01*
X86180266Y-88643371D01*
X86198823Y-88643371D01*
X86199050Y-88648063D01*
X86199343Y-88651209D01*
X86199745Y-88654275D01*
X86200255Y-88657262D01*
X86200872Y-88660167D01*
X86201596Y-88662990D01*
X86202425Y-88665730D01*
X86203360Y-88668387D01*
X86204398Y-88670958D01*
X86205540Y-88673443D01*
X86206784Y-88675841D01*
X86208129Y-88678151D01*
X86209576Y-88680372D01*
X86211123Y-88682503D01*
X86212768Y-88684543D01*
X86214512Y-88686491D01*
X86216354Y-88688346D01*
X86218292Y-88690107D01*
X86220327Y-88691773D01*
X86222456Y-88693343D01*
X86224680Y-88694817D01*
X86226997Y-88696192D01*
X86229407Y-88697469D01*
X86231908Y-88698645D01*
X86234501Y-88699721D01*
X86237184Y-88700695D01*
X86239956Y-88701566D01*
X86242817Y-88702334D01*
X86245766Y-88702996D01*
X86248802Y-88703553D01*
X86251924Y-88704003D01*
X86255131Y-88704345D01*
X86258423Y-88704578D01*
X86261766Y-88704733D01*
X86264795Y-88704835D01*
X86267545Y-88704877D01*
X86270051Y-88704851D01*
X86272349Y-88704748D01*
X86274474Y-88704561D01*
X86276461Y-88704282D01*
X86278346Y-88703903D01*
X86280164Y-88703416D01*
X86281950Y-88702814D01*
X86283740Y-88702087D01*
X86285569Y-88701229D01*
X86287472Y-88700232D01*
X86289485Y-88699087D01*
X86291644Y-88697787D01*
X86293983Y-88696323D01*
X86295795Y-88695114D01*
X86297541Y-88693868D01*
X86299222Y-88692586D01*
X86300839Y-88691268D01*
X86302392Y-88689914D01*
X86303883Y-88688526D01*
X86305313Y-88687104D01*
X86306683Y-88685647D01*
X86307992Y-88684157D01*
X86309244Y-88682634D01*
X86310437Y-88681078D01*
X86311574Y-88679491D01*
X86312655Y-88677871D01*
X86313681Y-88676221D01*
X86314653Y-88674539D01*
X86315573Y-88672828D01*
X86316816Y-88670100D01*
X86317929Y-88667335D01*
X86318912Y-88664540D01*
X86319766Y-88661717D01*
X86320493Y-88658874D01*
X86321093Y-88656013D01*
X86321567Y-88653140D01*
X86321918Y-88650261D01*
X86322145Y-88647379D01*
X86322249Y-88644499D01*
X86322233Y-88641627D01*
X86322097Y-88638767D01*
X86321842Y-88635924D01*
X86321469Y-88633103D01*
X86320980Y-88630308D01*
X86320375Y-88627545D01*
X86319655Y-88624818D01*
X86318823Y-88622132D01*
X86317878Y-88619492D01*
X86316822Y-88616903D01*
X86315656Y-88614369D01*
X86314381Y-88611896D01*
X86312999Y-88609488D01*
X86311510Y-88607150D01*
X86309915Y-88604887D01*
X86308215Y-88602704D01*
X86306413Y-88600605D01*
X86304508Y-88598596D01*
X86302502Y-88596680D01*
X86300396Y-88594864D01*
X86298191Y-88593152D01*
X86295888Y-88591548D01*
X86294066Y-88590405D01*
X86292280Y-88589355D01*
X86290514Y-88588393D01*
X86288754Y-88587515D01*
X86286982Y-88586717D01*
X86285183Y-88585995D01*
X86283342Y-88585344D01*
X86281441Y-88584761D01*
X86279467Y-88584242D01*
X86277402Y-88583781D01*
X86275231Y-88583375D01*
X86272938Y-88583020D01*
X86270508Y-88582712D01*
X86267924Y-88582445D01*
X86262233Y-88582023D01*
X86258889Y-88581868D01*
X86255860Y-88581766D01*
X86253110Y-88581724D01*
X86250604Y-88581750D01*
X86248306Y-88581853D01*
X86246181Y-88582040D01*
X86244194Y-88582319D01*
X86242309Y-88582698D01*
X86240492Y-88583185D01*
X86238705Y-88583787D01*
X86236915Y-88584514D01*
X86235086Y-88585372D01*
X86233183Y-88586369D01*
X86231170Y-88587514D01*
X86229011Y-88588814D01*
X86226673Y-88590278D01*
X86222993Y-88592793D01*
X86219573Y-88595457D01*
X86216415Y-88598268D01*
X86213516Y-88601227D01*
X86210878Y-88604333D01*
X86208501Y-88607585D01*
X86206384Y-88610983D01*
X86204527Y-88614527D01*
X86202931Y-88618216D01*
X86201595Y-88622050D01*
X86200520Y-88626028D01*
X86199705Y-88630149D01*
X86199151Y-88634414D01*
X86198857Y-88638821D01*
X86198823Y-88643371D01*
X86180266Y-88643371D01*
X86180208Y-88642011D01*
X86180366Y-88636598D01*
X86180914Y-88631260D01*
X86181851Y-88626004D01*
X86183175Y-88620837D01*
X86184886Y-88615767D01*
X86186984Y-88610801D01*
X86189466Y-88605947D01*
X86192333Y-88601212D01*
X86195583Y-88596603D01*
X86199215Y-88592128D01*
X86203229Y-88587795D01*
X86207623Y-88583611D01*
X86210039Y-88581593D01*
X86212739Y-88579597D01*
X86215688Y-88577639D01*
X86218849Y-88575732D01*
X86222187Y-88573893D01*
X86225666Y-88572136D01*
X86229250Y-88570475D01*
X86232904Y-88568926D01*
X86236590Y-88567504D01*
X86240275Y-88566222D01*
X86243921Y-88565097D01*
X86247494Y-88564144D01*
X86250956Y-88563376D01*
X86253110Y-88563008D01*
X86254273Y-88562809D01*
X86257409Y-88562458D01*
X86260328Y-88562338D01*
X86261118Y-88562364D01*
G37*
D10*
X98552000Y-31038800D02*
X98501200Y-33731200D01*
X78504400Y-48773250D02*
X80804400Y-48762750D01*
X124664941Y-81867119D02*
X124664941Y-82573833D01*
X124664941Y-82573833D02*
X124706512Y-82656976D01*
X124706512Y-82656976D02*
X124748084Y-82698548D01*
X124748084Y-82698548D02*
X124831226Y-82740119D01*
X124831226Y-82740119D02*
X124997512Y-82740119D01*
X124997512Y-82740119D02*
X125080655Y-82698548D01*
X125080655Y-82698548D02*
X125122226Y-82656976D01*
X125122226Y-82656976D02*
X125163798Y-82573833D01*
X125163798Y-82573833D02*
X125163798Y-81867119D01*
X124623369Y-83896171D02*
X125039084Y-83896171D01*
X124540226Y-84145600D02*
X124831226Y-83272600D01*
X124831226Y-83272600D02*
X125122226Y-84145600D01*
X125163798Y-85551081D02*
X124872798Y-85135367D01*
X124664941Y-85551081D02*
X124664941Y-84678081D01*
X124664941Y-84678081D02*
X124997512Y-84678081D01*
X124997512Y-84678081D02*
X125080655Y-84719652D01*
X125080655Y-84719652D02*
X125122226Y-84761224D01*
X125122226Y-84761224D02*
X125163798Y-84844367D01*
X125163798Y-84844367D02*
X125163798Y-84969081D01*
X125163798Y-84969081D02*
X125122226Y-85052224D01*
X125122226Y-85052224D02*
X125080655Y-85093795D01*
X125080655Y-85093795D02*
X124997512Y-85135367D01*
X124997512Y-85135367D02*
X124664941Y-85135367D01*
X124540226Y-86083562D02*
X125039084Y-86083562D01*
X124789655Y-86956562D02*
X124789655Y-86083562D01*
X76409160Y-74535057D02*
X76456779Y-74487438D01*
X76456779Y-74487438D02*
X76552017Y-74439819D01*
X76552017Y-74439819D02*
X76790112Y-74439819D01*
X76790112Y-74439819D02*
X76885350Y-74487438D01*
X76885350Y-74487438D02*
X76932969Y-74535057D01*
X76932969Y-74535057D02*
X76980588Y-74630295D01*
X76980588Y-74630295D02*
X76980588Y-74725533D01*
X76980588Y-74725533D02*
X76932969Y-74868390D01*
X76932969Y-74868390D02*
X76361541Y-75439819D01*
X76361541Y-75439819D02*
X76980588Y-75439819D01*
X77313922Y-74439819D02*
X77980588Y-74439819D01*
X77980588Y-74439819D02*
X77552017Y-75439819D01*
X79075827Y-75154104D02*
X79552017Y-75154104D01*
X78980589Y-75439819D02*
X79313922Y-74439819D01*
X79313922Y-74439819D02*
X79647255Y-75439819D01*
X79980589Y-75439819D02*
X79980589Y-74439819D01*
X79980589Y-74439819D02*
X80218684Y-74439819D01*
X80218684Y-74439819D02*
X80361541Y-74487438D01*
X80361541Y-74487438D02*
X80456779Y-74582676D01*
X80456779Y-74582676D02*
X80504398Y-74677914D01*
X80504398Y-74677914D02*
X80552017Y-74868390D01*
X80552017Y-74868390D02*
X80552017Y-75011247D01*
X80552017Y-75011247D02*
X80504398Y-75201723D01*
X80504398Y-75201723D02*
X80456779Y-75296961D01*
X80456779Y-75296961D02*
X80361541Y-75392200D01*
X80361541Y-75392200D02*
X80218684Y-75439819D01*
X80218684Y-75439819D02*
X79980589Y-75439819D01*
X81552017Y-75344580D02*
X81504398Y-75392200D01*
X81504398Y-75392200D02*
X81361541Y-75439819D01*
X81361541Y-75439819D02*
X81266303Y-75439819D01*
X81266303Y-75439819D02*
X81123446Y-75392200D01*
X81123446Y-75392200D02*
X81028208Y-75296961D01*
X81028208Y-75296961D02*
X80980589Y-75201723D01*
X80980589Y-75201723D02*
X80932970Y-75011247D01*
X80932970Y-75011247D02*
X80932970Y-74868390D01*
X80932970Y-74868390D02*
X80980589Y-74677914D01*
X80980589Y-74677914D02*
X81028208Y-74582676D01*
X81028208Y-74582676D02*
X81123446Y-74487438D01*
X81123446Y-74487438D02*
X81266303Y-74439819D01*
X81266303Y-74439819D02*
X81361541Y-74439819D01*
X81361541Y-74439819D02*
X81504398Y-74487438D01*
X81504398Y-74487438D02*
X81552017Y-74535057D01*
X82504398Y-75439819D02*
X81932970Y-75439819D01*
X82218684Y-75439819D02*
X82218684Y-74439819D01*
X82218684Y-74439819D02*
X82123446Y-74582676D01*
X82123446Y-74582676D02*
X82028208Y-74677914D01*
X82028208Y-74677914D02*
X81932970Y-74725533D01*
X115821222Y-48481522D02*
X115853274Y-48417417D01*
X115853274Y-48417417D02*
X115853274Y-48321260D01*
X115853274Y-48321260D02*
X115821222Y-48225103D01*
X115821222Y-48225103D02*
X115757117Y-48160998D01*
X115757117Y-48160998D02*
X115693012Y-48128945D01*
X115693012Y-48128945D02*
X115564803Y-48096893D01*
X115564803Y-48096893D02*
X115468646Y-48096893D01*
X115468646Y-48096893D02*
X115340436Y-48128945D01*
X115340436Y-48128945D02*
X115276331Y-48160998D01*
X115276331Y-48160998D02*
X115212227Y-48225103D01*
X115212227Y-48225103D02*
X115180174Y-48321260D01*
X115180174Y-48321260D02*
X115180174Y-48385364D01*
X115180174Y-48385364D02*
X115212227Y-48481522D01*
X115212227Y-48481522D02*
X115244279Y-48513574D01*
X115244279Y-48513574D02*
X115468646Y-48513574D01*
X115468646Y-48513574D02*
X115468646Y-48385364D01*
X115180174Y-49154622D02*
X115180174Y-48769993D01*
X115180174Y-48962307D02*
X115853274Y-48962307D01*
X115853274Y-48962307D02*
X115757117Y-48898203D01*
X115757117Y-48898203D02*
X115693012Y-48834098D01*
X115693012Y-48834098D02*
X115660960Y-48769993D01*
X115628907Y-49731565D02*
X115180174Y-49731565D01*
X115885327Y-49571303D02*
X115404541Y-49411041D01*
X115404541Y-49411041D02*
X115404541Y-49827722D01*
X76339160Y-84685057D02*
X76386779Y-84637438D01*
X76386779Y-84637438D02*
X76482017Y-84589819D01*
X76482017Y-84589819D02*
X76720112Y-84589819D01*
X76720112Y-84589819D02*
X76815350Y-84637438D01*
X76815350Y-84637438D02*
X76862969Y-84685057D01*
X76862969Y-84685057D02*
X76910588Y-84780295D01*
X76910588Y-84780295D02*
X76910588Y-84875533D01*
X76910588Y-84875533D02*
X76862969Y-85018390D01*
X76862969Y-85018390D02*
X76291541Y-85589819D01*
X76291541Y-85589819D02*
X76910588Y-85589819D01*
X77815350Y-84589819D02*
X77339160Y-84589819D01*
X77339160Y-84589819D02*
X77291541Y-85066009D01*
X77291541Y-85066009D02*
X77339160Y-85018390D01*
X77339160Y-85018390D02*
X77434398Y-84970771D01*
X77434398Y-84970771D02*
X77672493Y-84970771D01*
X77672493Y-84970771D02*
X77767731Y-85018390D01*
X77767731Y-85018390D02*
X77815350Y-85066009D01*
X77815350Y-85066009D02*
X77862969Y-85161247D01*
X77862969Y-85161247D02*
X77862969Y-85399342D01*
X77862969Y-85399342D02*
X77815350Y-85494580D01*
X77815350Y-85494580D02*
X77767731Y-85542200D01*
X77767731Y-85542200D02*
X77672493Y-85589819D01*
X77672493Y-85589819D02*
X77434398Y-85589819D01*
X77434398Y-85589819D02*
X77339160Y-85542200D01*
X77339160Y-85542200D02*
X77291541Y-85494580D01*
X79339160Y-85970771D02*
X79291541Y-85923152D01*
X79291541Y-85923152D02*
X79196303Y-85780295D01*
X79196303Y-85780295D02*
X79148684Y-85685057D01*
X79148684Y-85685057D02*
X79101065Y-85542200D01*
X79101065Y-85542200D02*
X79053446Y-85304104D01*
X79053446Y-85304104D02*
X79053446Y-85113628D01*
X79053446Y-85113628D02*
X79101065Y-84875533D01*
X79101065Y-84875533D02*
X79148684Y-84732676D01*
X79148684Y-84732676D02*
X79196303Y-84637438D01*
X79196303Y-84637438D02*
X79291541Y-84494580D01*
X79291541Y-84494580D02*
X79339160Y-84446961D01*
X80196303Y-85589819D02*
X79720113Y-85589819D01*
X79720113Y-85589819D02*
X79720113Y-84589819D01*
X80862970Y-85066009D02*
X81005827Y-85113628D01*
X81005827Y-85113628D02*
X81053446Y-85161247D01*
X81053446Y-85161247D02*
X81101065Y-85256485D01*
X81101065Y-85256485D02*
X81101065Y-85399342D01*
X81101065Y-85399342D02*
X81053446Y-85494580D01*
X81053446Y-85494580D02*
X81005827Y-85542200D01*
X81005827Y-85542200D02*
X80910589Y-85589819D01*
X80910589Y-85589819D02*
X80529637Y-85589819D01*
X80529637Y-85589819D02*
X80529637Y-84589819D01*
X80529637Y-84589819D02*
X80862970Y-84589819D01*
X80862970Y-84589819D02*
X80958208Y-84637438D01*
X80958208Y-84637438D02*
X81005827Y-84685057D01*
X81005827Y-84685057D02*
X81053446Y-84780295D01*
X81053446Y-84780295D02*
X81053446Y-84875533D01*
X81053446Y-84875533D02*
X81005827Y-84970771D01*
X81005827Y-84970771D02*
X80958208Y-85018390D01*
X80958208Y-85018390D02*
X80862970Y-85066009D01*
X80862970Y-85066009D02*
X80529637Y-85066009D01*
X81434399Y-85970771D02*
X81482018Y-85923152D01*
X81482018Y-85923152D02*
X81577256Y-85780295D01*
X81577256Y-85780295D02*
X81624875Y-85685057D01*
X81624875Y-85685057D02*
X81672494Y-85542200D01*
X81672494Y-85542200D02*
X81720113Y-85304104D01*
X81720113Y-85304104D02*
X81720113Y-85113628D01*
X81720113Y-85113628D02*
X81672494Y-84875533D01*
X81672494Y-84875533D02*
X81624875Y-84732676D01*
X81624875Y-84732676D02*
X81577256Y-84637438D01*
X81577256Y-84637438D02*
X81482018Y-84494580D01*
X81482018Y-84494580D02*
X81434399Y-84446961D01*
X76329160Y-82305057D02*
X76376779Y-82257438D01*
X76376779Y-82257438D02*
X76472017Y-82209819D01*
X76472017Y-82209819D02*
X76710112Y-82209819D01*
X76710112Y-82209819D02*
X76805350Y-82257438D01*
X76805350Y-82257438D02*
X76852969Y-82305057D01*
X76852969Y-82305057D02*
X76900588Y-82400295D01*
X76900588Y-82400295D02*
X76900588Y-82495533D01*
X76900588Y-82495533D02*
X76852969Y-82638390D01*
X76852969Y-82638390D02*
X76281541Y-83209819D01*
X76281541Y-83209819D02*
X76900588Y-83209819D01*
X77757731Y-82543152D02*
X77757731Y-83209819D01*
X77519636Y-82162200D02*
X77281541Y-82876485D01*
X77281541Y-82876485D02*
X77900588Y-82876485D01*
X76832969Y-59369819D02*
X76356779Y-59369819D01*
X76356779Y-59369819D02*
X76309160Y-59846009D01*
X76309160Y-59846009D02*
X76356779Y-59798390D01*
X76356779Y-59798390D02*
X76452017Y-59750771D01*
X76452017Y-59750771D02*
X76690112Y-59750771D01*
X76690112Y-59750771D02*
X76785350Y-59798390D01*
X76785350Y-59798390D02*
X76832969Y-59846009D01*
X76832969Y-59846009D02*
X76880588Y-59941247D01*
X76880588Y-59941247D02*
X76880588Y-60179342D01*
X76880588Y-60179342D02*
X76832969Y-60274580D01*
X76832969Y-60274580D02*
X76785350Y-60322200D01*
X76785350Y-60322200D02*
X76690112Y-60369819D01*
X76690112Y-60369819D02*
X76452017Y-60369819D01*
X76452017Y-60369819D02*
X76356779Y-60322200D01*
X76356779Y-60322200D02*
X76309160Y-60274580D01*
X77309160Y-60274580D02*
X77356779Y-60322200D01*
X77356779Y-60322200D02*
X77309160Y-60369819D01*
X77309160Y-60369819D02*
X77261541Y-60322200D01*
X77261541Y-60322200D02*
X77309160Y-60274580D01*
X77309160Y-60274580D02*
X77309160Y-60369819D01*
X77975826Y-59369819D02*
X78071064Y-59369819D01*
X78071064Y-59369819D02*
X78166302Y-59417438D01*
X78166302Y-59417438D02*
X78213921Y-59465057D01*
X78213921Y-59465057D02*
X78261540Y-59560295D01*
X78261540Y-59560295D02*
X78309159Y-59750771D01*
X78309159Y-59750771D02*
X78309159Y-59988866D01*
X78309159Y-59988866D02*
X78261540Y-60179342D01*
X78261540Y-60179342D02*
X78213921Y-60274580D01*
X78213921Y-60274580D02*
X78166302Y-60322200D01*
X78166302Y-60322200D02*
X78071064Y-60369819D01*
X78071064Y-60369819D02*
X77975826Y-60369819D01*
X77975826Y-60369819D02*
X77880588Y-60322200D01*
X77880588Y-60322200D02*
X77832969Y-60274580D01*
X77832969Y-60274580D02*
X77785350Y-60179342D01*
X77785350Y-60179342D02*
X77737731Y-59988866D01*
X77737731Y-59988866D02*
X77737731Y-59750771D01*
X77737731Y-59750771D02*
X77785350Y-59560295D01*
X77785350Y-59560295D02*
X77832969Y-59465057D01*
X77832969Y-59465057D02*
X77880588Y-59417438D01*
X77880588Y-59417438D02*
X77975826Y-59369819D01*
X124810588Y-46279819D02*
X124239160Y-46279819D01*
X124524874Y-46279819D02*
X124524874Y-45279819D01*
X124524874Y-45279819D02*
X124429636Y-45422676D01*
X124429636Y-45422676D02*
X124334398Y-45517914D01*
X124334398Y-45517914D02*
X124239160Y-45565533D01*
X125715350Y-45279819D02*
X125239160Y-45279819D01*
X125239160Y-45279819D02*
X125191541Y-45756009D01*
X125191541Y-45756009D02*
X125239160Y-45708390D01*
X125239160Y-45708390D02*
X125334398Y-45660771D01*
X125334398Y-45660771D02*
X125572493Y-45660771D01*
X125572493Y-45660771D02*
X125667731Y-45708390D01*
X125667731Y-45708390D02*
X125715350Y-45756009D01*
X125715350Y-45756009D02*
X125762969Y-45851247D01*
X125762969Y-45851247D02*
X125762969Y-46089342D01*
X125762969Y-46089342D02*
X125715350Y-46184580D01*
X125715350Y-46184580D02*
X125667731Y-46232200D01*
X125667731Y-46232200D02*
X125572493Y-46279819D01*
X125572493Y-46279819D02*
X125334398Y-46279819D01*
X125334398Y-46279819D02*
X125239160Y-46232200D01*
X125239160Y-46232200D02*
X125191541Y-46184580D01*
X124720588Y-51249819D02*
X124149160Y-51249819D01*
X124434874Y-51249819D02*
X124434874Y-50249819D01*
X124434874Y-50249819D02*
X124339636Y-50392676D01*
X124339636Y-50392676D02*
X124244398Y-50487914D01*
X124244398Y-50487914D02*
X124149160Y-50535533D01*
X125053922Y-50249819D02*
X125672969Y-50249819D01*
X125672969Y-50249819D02*
X125339636Y-50630771D01*
X125339636Y-50630771D02*
X125482493Y-50630771D01*
X125482493Y-50630771D02*
X125577731Y-50678390D01*
X125577731Y-50678390D02*
X125625350Y-50726009D01*
X125625350Y-50726009D02*
X125672969Y-50821247D01*
X125672969Y-50821247D02*
X125672969Y-51059342D01*
X125672969Y-51059342D02*
X125625350Y-51154580D01*
X125625350Y-51154580D02*
X125577731Y-51202200D01*
X125577731Y-51202200D02*
X125482493Y-51249819D01*
X125482493Y-51249819D02*
X125196779Y-51249819D01*
X125196779Y-51249819D02*
X125101541Y-51202200D01*
X125101541Y-51202200D02*
X125053922Y-51154580D01*
X76163922Y-66960319D02*
X76497255Y-67960319D01*
X76497255Y-67960319D02*
X76830588Y-66960319D01*
X77163922Y-67960319D02*
X77163922Y-66960319D01*
X77640112Y-67960319D02*
X77640112Y-66960319D01*
X77640112Y-66960319D02*
X78211540Y-67960319D01*
X78211540Y-67960319D02*
X78211540Y-66960319D01*
X76439160Y-79735057D02*
X76486779Y-79687438D01*
X76486779Y-79687438D02*
X76582017Y-79639819D01*
X76582017Y-79639819D02*
X76820112Y-79639819D01*
X76820112Y-79639819D02*
X76915350Y-79687438D01*
X76915350Y-79687438D02*
X76962969Y-79735057D01*
X76962969Y-79735057D02*
X77010588Y-79830295D01*
X77010588Y-79830295D02*
X77010588Y-79925533D01*
X77010588Y-79925533D02*
X76962969Y-80068390D01*
X76962969Y-80068390D02*
X76391541Y-80639819D01*
X76391541Y-80639819D02*
X77010588Y-80639819D01*
X77486779Y-80639819D02*
X77677255Y-80639819D01*
X77677255Y-80639819D02*
X77772493Y-80592200D01*
X77772493Y-80592200D02*
X77820112Y-80544580D01*
X77820112Y-80544580D02*
X77915350Y-80401723D01*
X77915350Y-80401723D02*
X77962969Y-80211247D01*
X77962969Y-80211247D02*
X77962969Y-79830295D01*
X77962969Y-79830295D02*
X77915350Y-79735057D01*
X77915350Y-79735057D02*
X77867731Y-79687438D01*
X77867731Y-79687438D02*
X77772493Y-79639819D01*
X77772493Y-79639819D02*
X77582017Y-79639819D01*
X77582017Y-79639819D02*
X77486779Y-79687438D01*
X77486779Y-79687438D02*
X77439160Y-79735057D01*
X77439160Y-79735057D02*
X77391541Y-79830295D01*
X77391541Y-79830295D02*
X77391541Y-80068390D01*
X77391541Y-80068390D02*
X77439160Y-80163628D01*
X77439160Y-80163628D02*
X77486779Y-80211247D01*
X77486779Y-80211247D02*
X77582017Y-80258866D01*
X77582017Y-80258866D02*
X77772493Y-80258866D01*
X77772493Y-80258866D02*
X77867731Y-80211247D01*
X77867731Y-80211247D02*
X77915350Y-80163628D01*
X77915350Y-80163628D02*
X77962969Y-80068390D01*
X79105827Y-80354104D02*
X79582017Y-80354104D01*
X79010589Y-80639819D02*
X79343922Y-79639819D01*
X79343922Y-79639819D02*
X79677255Y-80639819D01*
X80010589Y-80639819D02*
X80010589Y-79639819D01*
X80010589Y-79639819D02*
X80248684Y-79639819D01*
X80248684Y-79639819D02*
X80391541Y-79687438D01*
X80391541Y-79687438D02*
X80486779Y-79782676D01*
X80486779Y-79782676D02*
X80534398Y-79877914D01*
X80534398Y-79877914D02*
X80582017Y-80068390D01*
X80582017Y-80068390D02*
X80582017Y-80211247D01*
X80582017Y-80211247D02*
X80534398Y-80401723D01*
X80534398Y-80401723D02*
X80486779Y-80496961D01*
X80486779Y-80496961D02*
X80391541Y-80592200D01*
X80391541Y-80592200D02*
X80248684Y-80639819D01*
X80248684Y-80639819D02*
X80010589Y-80639819D01*
X81582017Y-80544580D02*
X81534398Y-80592200D01*
X81534398Y-80592200D02*
X81391541Y-80639819D01*
X81391541Y-80639819D02*
X81296303Y-80639819D01*
X81296303Y-80639819D02*
X81153446Y-80592200D01*
X81153446Y-80592200D02*
X81058208Y-80496961D01*
X81058208Y-80496961D02*
X81010589Y-80401723D01*
X81010589Y-80401723D02*
X80962970Y-80211247D01*
X80962970Y-80211247D02*
X80962970Y-80068390D01*
X80962970Y-80068390D02*
X81010589Y-79877914D01*
X81010589Y-79877914D02*
X81058208Y-79782676D01*
X81058208Y-79782676D02*
X81153446Y-79687438D01*
X81153446Y-79687438D02*
X81296303Y-79639819D01*
X81296303Y-79639819D02*
X81391541Y-79639819D01*
X81391541Y-79639819D02*
X81534398Y-79687438D01*
X81534398Y-79687438D02*
X81582017Y-79735057D01*
X81915351Y-79639819D02*
X82534398Y-79639819D01*
X82534398Y-79639819D02*
X82201065Y-80020771D01*
X82201065Y-80020771D02*
X82343922Y-80020771D01*
X82343922Y-80020771D02*
X82439160Y-80068390D01*
X82439160Y-80068390D02*
X82486779Y-80116009D01*
X82486779Y-80116009D02*
X82534398Y-80211247D01*
X82534398Y-80211247D02*
X82534398Y-80449342D01*
X82534398Y-80449342D02*
X82486779Y-80544580D01*
X82486779Y-80544580D02*
X82439160Y-80592200D01*
X82439160Y-80592200D02*
X82343922Y-80639819D01*
X82343922Y-80639819D02*
X82058208Y-80639819D01*
X82058208Y-80639819D02*
X81962970Y-80592200D01*
X81962970Y-80592200D02*
X81915351Y-80544580D01*
X76459160Y-77145057D02*
X76506779Y-77097438D01*
X76506779Y-77097438D02*
X76602017Y-77049819D01*
X76602017Y-77049819D02*
X76840112Y-77049819D01*
X76840112Y-77049819D02*
X76935350Y-77097438D01*
X76935350Y-77097438D02*
X76982969Y-77145057D01*
X76982969Y-77145057D02*
X77030588Y-77240295D01*
X77030588Y-77240295D02*
X77030588Y-77335533D01*
X77030588Y-77335533D02*
X76982969Y-77478390D01*
X76982969Y-77478390D02*
X76411541Y-78049819D01*
X76411541Y-78049819D02*
X77030588Y-78049819D01*
X77602017Y-77478390D02*
X77506779Y-77430771D01*
X77506779Y-77430771D02*
X77459160Y-77383152D01*
X77459160Y-77383152D02*
X77411541Y-77287914D01*
X77411541Y-77287914D02*
X77411541Y-77240295D01*
X77411541Y-77240295D02*
X77459160Y-77145057D01*
X77459160Y-77145057D02*
X77506779Y-77097438D01*
X77506779Y-77097438D02*
X77602017Y-77049819D01*
X77602017Y-77049819D02*
X77792493Y-77049819D01*
X77792493Y-77049819D02*
X77887731Y-77097438D01*
X77887731Y-77097438D02*
X77935350Y-77145057D01*
X77935350Y-77145057D02*
X77982969Y-77240295D01*
X77982969Y-77240295D02*
X77982969Y-77287914D01*
X77982969Y-77287914D02*
X77935350Y-77383152D01*
X77935350Y-77383152D02*
X77887731Y-77430771D01*
X77887731Y-77430771D02*
X77792493Y-77478390D01*
X77792493Y-77478390D02*
X77602017Y-77478390D01*
X77602017Y-77478390D02*
X77506779Y-77526009D01*
X77506779Y-77526009D02*
X77459160Y-77573628D01*
X77459160Y-77573628D02*
X77411541Y-77668866D01*
X77411541Y-77668866D02*
X77411541Y-77859342D01*
X77411541Y-77859342D02*
X77459160Y-77954580D01*
X77459160Y-77954580D02*
X77506779Y-78002200D01*
X77506779Y-78002200D02*
X77602017Y-78049819D01*
X77602017Y-78049819D02*
X77792493Y-78049819D01*
X77792493Y-78049819D02*
X77887731Y-78002200D01*
X77887731Y-78002200D02*
X77935350Y-77954580D01*
X77935350Y-77954580D02*
X77982969Y-77859342D01*
X77982969Y-77859342D02*
X77982969Y-77668866D01*
X77982969Y-77668866D02*
X77935350Y-77573628D01*
X77935350Y-77573628D02*
X77887731Y-77526009D01*
X77887731Y-77526009D02*
X77792493Y-77478390D01*
X79125827Y-77764104D02*
X79602017Y-77764104D01*
X79030589Y-78049819D02*
X79363922Y-77049819D01*
X79363922Y-77049819D02*
X79697255Y-78049819D01*
X80030589Y-78049819D02*
X80030589Y-77049819D01*
X80030589Y-77049819D02*
X80268684Y-77049819D01*
X80268684Y-77049819D02*
X80411541Y-77097438D01*
X80411541Y-77097438D02*
X80506779Y-77192676D01*
X80506779Y-77192676D02*
X80554398Y-77287914D01*
X80554398Y-77287914D02*
X80602017Y-77478390D01*
X80602017Y-77478390D02*
X80602017Y-77621247D01*
X80602017Y-77621247D02*
X80554398Y-77811723D01*
X80554398Y-77811723D02*
X80506779Y-77906961D01*
X80506779Y-77906961D02*
X80411541Y-78002200D01*
X80411541Y-78002200D02*
X80268684Y-78049819D01*
X80268684Y-78049819D02*
X80030589Y-78049819D01*
X81602017Y-77954580D02*
X81554398Y-78002200D01*
X81554398Y-78002200D02*
X81411541Y-78049819D01*
X81411541Y-78049819D02*
X81316303Y-78049819D01*
X81316303Y-78049819D02*
X81173446Y-78002200D01*
X81173446Y-78002200D02*
X81078208Y-77906961D01*
X81078208Y-77906961D02*
X81030589Y-77811723D01*
X81030589Y-77811723D02*
X80982970Y-77621247D01*
X80982970Y-77621247D02*
X80982970Y-77478390D01*
X80982970Y-77478390D02*
X81030589Y-77287914D01*
X81030589Y-77287914D02*
X81078208Y-77192676D01*
X81078208Y-77192676D02*
X81173446Y-77097438D01*
X81173446Y-77097438D02*
X81316303Y-77049819D01*
X81316303Y-77049819D02*
X81411541Y-77049819D01*
X81411541Y-77049819D02*
X81554398Y-77097438D01*
X81554398Y-77097438D02*
X81602017Y-77145057D01*
X81982970Y-77145057D02*
X82030589Y-77097438D01*
X82030589Y-77097438D02*
X82125827Y-77049819D01*
X82125827Y-77049819D02*
X82363922Y-77049819D01*
X82363922Y-77049819D02*
X82459160Y-77097438D01*
X82459160Y-77097438D02*
X82506779Y-77145057D01*
X82506779Y-77145057D02*
X82554398Y-77240295D01*
X82554398Y-77240295D02*
X82554398Y-77335533D01*
X82554398Y-77335533D02*
X82506779Y-77478390D01*
X82506779Y-77478390D02*
X81935351Y-78049819D01*
X81935351Y-78049819D02*
X82554398Y-78049819D01*
X124700588Y-56569819D02*
X124129160Y-56569819D01*
X124414874Y-56569819D02*
X124414874Y-55569819D01*
X124414874Y-55569819D02*
X124319636Y-55712676D01*
X124319636Y-55712676D02*
X124224398Y-55807914D01*
X124224398Y-55807914D02*
X124129160Y-55855533D01*
X125652969Y-56569819D02*
X125081541Y-56569819D01*
X125367255Y-56569819D02*
X125367255Y-55569819D01*
X125367255Y-55569819D02*
X125272017Y-55712676D01*
X125272017Y-55712676D02*
X125176779Y-55807914D01*
X125176779Y-55807914D02*
X125081541Y-55855533D01*
X76556779Y-50219819D02*
X76556779Y-49219819D01*
X82500588Y-49437438D02*
X82405350Y-49389819D01*
X82405350Y-49389819D02*
X82262493Y-49389819D01*
X82262493Y-49389819D02*
X82119636Y-49437438D01*
X82119636Y-49437438D02*
X82024398Y-49532676D01*
X82024398Y-49532676D02*
X81976779Y-49627914D01*
X81976779Y-49627914D02*
X81929160Y-49818390D01*
X81929160Y-49818390D02*
X81929160Y-49961247D01*
X81929160Y-49961247D02*
X81976779Y-50151723D01*
X81976779Y-50151723D02*
X82024398Y-50246961D01*
X82024398Y-50246961D02*
X82119636Y-50342200D01*
X82119636Y-50342200D02*
X82262493Y-50389819D01*
X82262493Y-50389819D02*
X82357731Y-50389819D01*
X82357731Y-50389819D02*
X82500588Y-50342200D01*
X82500588Y-50342200D02*
X82548207Y-50294580D01*
X82548207Y-50294580D02*
X82548207Y-49961247D01*
X82548207Y-49961247D02*
X82357731Y-49961247D01*
X82976779Y-50389819D02*
X82976779Y-49389819D01*
X82976779Y-49389819D02*
X83548207Y-50389819D01*
X83548207Y-50389819D02*
X83548207Y-49389819D01*
X84024398Y-50389819D02*
X84024398Y-49389819D01*
X84024398Y-49389819D02*
X84262493Y-49389819D01*
X84262493Y-49389819D02*
X84405350Y-49437438D01*
X84405350Y-49437438D02*
X84500588Y-49532676D01*
X84500588Y-49532676D02*
X84548207Y-49627914D01*
X84548207Y-49627914D02*
X84595826Y-49818390D01*
X84595826Y-49818390D02*
X84595826Y-49961247D01*
X84595826Y-49961247D02*
X84548207Y-50151723D01*
X84548207Y-50151723D02*
X84500588Y-50246961D01*
X84500588Y-50246961D02*
X84405350Y-50342200D01*
X84405350Y-50342200D02*
X84262493Y-50389819D01*
X84262493Y-50389819D02*
X84024398Y-50389819D01*
X104960588Y-74760319D02*
X104389160Y-74760319D01*
X104674874Y-74760319D02*
X104674874Y-73760319D01*
X104674874Y-73760319D02*
X104579636Y-73903176D01*
X104579636Y-73903176D02*
X104484398Y-73998414D01*
X104484398Y-73998414D02*
X104389160Y-74046033D01*
X105436779Y-74760319D02*
X105627255Y-74760319D01*
X105627255Y-74760319D02*
X105722493Y-74712700D01*
X105722493Y-74712700D02*
X105770112Y-74665080D01*
X105770112Y-74665080D02*
X105865350Y-74522223D01*
X105865350Y-74522223D02*
X105912969Y-74331747D01*
X105912969Y-74331747D02*
X105912969Y-73950795D01*
X105912969Y-73950795D02*
X105865350Y-73855557D01*
X105865350Y-73855557D02*
X105817731Y-73807938D01*
X105817731Y-73807938D02*
X105722493Y-73760319D01*
X105722493Y-73760319D02*
X105532017Y-73760319D01*
X105532017Y-73760319D02*
X105436779Y-73807938D01*
X105436779Y-73807938D02*
X105389160Y-73855557D01*
X105389160Y-73855557D02*
X105341541Y-73950795D01*
X105341541Y-73950795D02*
X105341541Y-74188890D01*
X105341541Y-74188890D02*
X105389160Y-74284128D01*
X105389160Y-74284128D02*
X105436779Y-74331747D01*
X105436779Y-74331747D02*
X105532017Y-74379366D01*
X105532017Y-74379366D02*
X105722493Y-74379366D01*
X105722493Y-74379366D02*
X105817731Y-74331747D01*
X105817731Y-74331747D02*
X105865350Y-74284128D01*
X105865350Y-74284128D02*
X105912969Y-74188890D01*
X118380180Y-25818207D02*
X118856371Y-25484874D01*
X118380180Y-25246779D02*
X119380180Y-25246779D01*
X119380180Y-25246779D02*
X119380180Y-25627731D01*
X119380180Y-25627731D02*
X119332561Y-25722969D01*
X119332561Y-25722969D02*
X119284942Y-25770588D01*
X119284942Y-25770588D02*
X119189704Y-25818207D01*
X119189704Y-25818207D02*
X119046847Y-25818207D01*
X119046847Y-25818207D02*
X118951609Y-25770588D01*
X118951609Y-25770588D02*
X118903990Y-25722969D01*
X118903990Y-25722969D02*
X118856371Y-25627731D01*
X118856371Y-25627731D02*
X118856371Y-25246779D01*
X118903990Y-26246779D02*
X118903990Y-26580112D01*
X118380180Y-26722969D02*
X118380180Y-26246779D01*
X118380180Y-26246779D02*
X119380180Y-26246779D01*
X119380180Y-26246779D02*
X119380180Y-26722969D01*
X118427800Y-27103922D02*
X118380180Y-27246779D01*
X118380180Y-27246779D02*
X118380180Y-27484874D01*
X118380180Y-27484874D02*
X118427800Y-27580112D01*
X118427800Y-27580112D02*
X118475419Y-27627731D01*
X118475419Y-27627731D02*
X118570657Y-27675350D01*
X118570657Y-27675350D02*
X118665895Y-27675350D01*
X118665895Y-27675350D02*
X118761133Y-27627731D01*
X118761133Y-27627731D02*
X118808752Y-27580112D01*
X118808752Y-27580112D02*
X118856371Y-27484874D01*
X118856371Y-27484874D02*
X118903990Y-27294398D01*
X118903990Y-27294398D02*
X118951609Y-27199160D01*
X118951609Y-27199160D02*
X118999228Y-27151541D01*
X118999228Y-27151541D02*
X119094466Y-27103922D01*
X119094466Y-27103922D02*
X119189704Y-27103922D01*
X119189704Y-27103922D02*
X119284942Y-27151541D01*
X119284942Y-27151541D02*
X119332561Y-27199160D01*
X119332561Y-27199160D02*
X119380180Y-27294398D01*
X119380180Y-27294398D02*
X119380180Y-27532493D01*
X119380180Y-27532493D02*
X119332561Y-27675350D01*
X118903990Y-28103922D02*
X118903990Y-28437255D01*
X118380180Y-28580112D02*
X118380180Y-28103922D01*
X118380180Y-28103922D02*
X119380180Y-28103922D01*
X119380180Y-28103922D02*
X119380180Y-28580112D01*
X119380180Y-28865827D02*
X119380180Y-29437255D01*
X118380180Y-29151541D02*
X119380180Y-29151541D01*
G36*
X117862907Y-65737161D02*
G01*
X117923939Y-65747204D01*
X117979796Y-65763430D01*
X118033108Y-65786336D01*
X118080135Y-65814123D01*
X118121518Y-65846778D01*
X118157790Y-65884833D01*
X118188104Y-65927715D01*
X118212682Y-65975922D01*
X118230288Y-66027132D01*
X118241091Y-66082570D01*
X118244800Y-66142923D01*
X118244800Y-66453050D01*
X117347207Y-66453050D01*
X117347207Y-66142923D01*
X117447591Y-66142923D01*
X117447591Y-66328059D01*
X118144355Y-66328059D01*
X118144355Y-66142923D01*
X118138287Y-66080915D01*
X118120785Y-66026785D01*
X118092002Y-65978728D01*
X118052519Y-65938003D01*
X118003791Y-65905905D01*
X117942854Y-65881278D01*
X117875449Y-65866680D01*
X117796003Y-65861494D01*
X117716549Y-65866688D01*
X117649458Y-65881278D01*
X117588786Y-65905871D01*
X117539854Y-65938003D01*
X117500026Y-65978759D01*
X117471160Y-66026785D01*
X117453658Y-66080915D01*
X117447591Y-66142923D01*
X117347207Y-66142923D01*
X117350950Y-66082582D01*
X117361852Y-66027146D01*
X117379630Y-65975922D01*
X117404366Y-65927689D01*
X117434706Y-65884807D01*
X117470855Y-65846778D01*
X117512023Y-65814160D01*
X117559038Y-65786368D01*
X117612577Y-65763430D01*
X117668630Y-65747181D01*
X117729553Y-65737149D01*
X117796003Y-65733694D01*
X117862907Y-65737161D01*
G37*
G36*
X118244800Y-65448907D02*
G01*
X118244800Y-65573226D01*
X117347207Y-65573226D01*
X117347207Y-65448907D01*
X118244800Y-65448907D01*
G37*
G36*
X118158032Y-64525119D02*
G01*
X118200578Y-64593223D01*
X118230450Y-64664826D01*
X118248241Y-64740995D01*
X118254386Y-64825660D01*
X118250482Y-64894718D01*
X118239185Y-64957420D01*
X118220925Y-65014582D01*
X118195228Y-65068674D01*
X118163936Y-65116397D01*
X118126952Y-65158380D01*
X118084393Y-65194665D01*
X118036337Y-65225143D01*
X117982177Y-65249910D01*
X117925096Y-65267488D01*
X117863266Y-65278308D01*
X117796003Y-65282028D01*
X117728248Y-65278416D01*
X117666197Y-65267932D01*
X117609157Y-65250948D01*
X117554874Y-65226876D01*
X117506804Y-65197281D01*
X117464321Y-65162105D01*
X117427286Y-65121282D01*
X117396026Y-65074932D01*
X117370410Y-65022459D01*
X117352143Y-64966864D01*
X117340850Y-64905872D01*
X117336949Y-64838666D01*
X117338994Y-64787804D01*
X117344826Y-64742678D01*
X117354514Y-64699694D01*
X117367357Y-64661040D01*
X117383763Y-64624710D01*
X117403200Y-64591736D01*
X117450339Y-64532630D01*
X117506331Y-64567434D01*
X117517582Y-64577213D01*
X117523428Y-64589355D01*
X117523702Y-64602971D01*
X117517261Y-64618664D01*
X117495768Y-64653225D01*
X117471893Y-64697921D01*
X117452415Y-64759409D01*
X117446390Y-64796607D01*
X117444171Y-64843429D01*
X117450515Y-64912153D01*
X117468779Y-64972206D01*
X117498786Y-65025793D01*
X117539182Y-65070575D01*
X117588998Y-65106085D01*
X117650190Y-65133101D01*
X117717803Y-65149276D01*
X117796003Y-65154960D01*
X117877343Y-65148979D01*
X117946640Y-65132063D01*
X118008880Y-65103762D01*
X118059358Y-65066483D01*
X118099862Y-65019644D01*
X118129700Y-64963718D01*
X118147671Y-64901143D01*
X118153941Y-64829079D01*
X118150441Y-64773455D01*
X118140630Y-64726620D01*
X118124796Y-64682210D01*
X118103383Y-64637837D01*
X117906645Y-64637837D01*
X117906645Y-64766920D01*
X117904849Y-64778296D01*
X117899806Y-64786764D01*
X117892132Y-64792395D01*
X117882771Y-64794275D01*
X117812368Y-64794275D01*
X117812368Y-64525119D01*
X118158032Y-64525119D01*
G37*
G36*
X118244800Y-64213038D02*
G01*
X118244800Y-64337357D01*
X117347207Y-64337357D01*
X117347207Y-64213038D01*
X118244800Y-64213038D01*
G37*
G36*
X117347207Y-63433354D02*
G01*
X117451010Y-63433354D01*
X117451010Y-63694999D01*
X118244800Y-63694999D01*
X118244800Y-63819990D01*
X117451010Y-63819990D01*
X117451010Y-64082307D01*
X117347207Y-64082307D01*
X117347207Y-63433354D01*
G37*
G36*
X118244800Y-62817862D02*
G01*
X118242624Y-62833018D01*
X118236617Y-62844118D01*
X118216101Y-62859505D01*
X118000251Y-62936014D01*
X118000251Y-63306286D01*
X118215429Y-63382063D01*
X118235946Y-63397511D01*
X118242534Y-63409703D01*
X118244800Y-63424439D01*
X118244800Y-63520732D01*
X117347207Y-63183982D01*
X117347207Y-63121150D01*
X117464688Y-63121150D01*
X117512498Y-63134828D01*
X117550722Y-63147773D01*
X117911408Y-63274840D01*
X117911408Y-62967460D01*
X117550051Y-63094467D01*
X117511827Y-63108144D01*
X117464688Y-63121150D01*
X117347207Y-63121150D01*
X117347207Y-63057586D01*
X118244800Y-62721508D01*
X118244800Y-62817862D01*
G37*
G36*
X118140264Y-62497720D02*
G01*
X118140264Y-62151384D01*
X118244800Y-62151384D01*
X118244800Y-62622040D01*
X117347207Y-62622040D01*
X117347207Y-62497720D01*
X118140264Y-62497720D01*
G37*
G36*
X118244800Y-61574238D02*
G01*
X118244800Y-61698558D01*
X117347207Y-61698558D01*
X117347207Y-61574238D01*
X118244800Y-61574238D01*
G37*
G36*
X118258477Y-61351306D02*
G01*
X118279015Y-61363373D01*
X118292915Y-61379332D01*
X118301450Y-61398320D01*
X118304212Y-61417556D01*
X118304212Y-61468115D01*
X117317104Y-61026829D01*
X117292440Y-61011903D01*
X117278335Y-60991534D01*
X117273385Y-60963997D01*
X117273385Y-60913439D01*
X118258477Y-61351306D01*
G37*
G36*
X117862905Y-60045980D02*
G01*
X117924405Y-60056008D01*
X117981139Y-60072267D01*
X118035383Y-60095222D01*
X118083454Y-60123230D01*
X118125975Y-60156286D01*
X118163413Y-60194823D01*
X118194862Y-60238161D01*
X118220558Y-60286773D01*
X118239105Y-60338512D01*
X118250479Y-60394624D01*
X118254386Y-60455850D01*
X118250495Y-60516588D01*
X118239135Y-60572592D01*
X118220558Y-60624561D01*
X118194861Y-60673387D01*
X118163411Y-60716948D01*
X118125975Y-60755719D01*
X118083440Y-60789019D01*
X118035368Y-60817250D01*
X117981139Y-60840411D01*
X117924392Y-60856839D01*
X117862893Y-60866968D01*
X117796003Y-60870452D01*
X117729565Y-60866980D01*
X117668177Y-60856862D01*
X117611234Y-60840411D01*
X117556756Y-60817245D01*
X117508460Y-60789013D01*
X117465726Y-60755719D01*
X117428035Y-60716919D01*
X117396469Y-60673357D01*
X117370776Y-60624561D01*
X117352200Y-60572592D01*
X117340840Y-60516588D01*
X117336949Y-60455850D01*
X117444171Y-60455850D01*
X117450426Y-60519135D01*
X117468474Y-60574369D01*
X117497960Y-60623394D01*
X117538144Y-60664861D01*
X117587470Y-60697529D01*
X117648786Y-60722563D01*
X117716484Y-60737438D01*
X117796003Y-60742713D01*
X117875476Y-60737441D01*
X117943221Y-60722563D01*
X118004494Y-60697535D01*
X118053863Y-60664861D01*
X118093979Y-60623382D01*
X118123228Y-60574369D01*
X118140953Y-60519158D01*
X118147102Y-60455850D01*
X118140953Y-60392542D01*
X118123228Y-60337331D01*
X118093965Y-60288376D01*
X118053863Y-60247145D01*
X118004518Y-60214709D01*
X117943221Y-60189748D01*
X117875476Y-60174870D01*
X117796003Y-60169598D01*
X117716484Y-60174873D01*
X117648786Y-60189748D01*
X117587446Y-60214715D01*
X117538144Y-60247145D01*
X117497974Y-60288364D01*
X117468474Y-60337331D01*
X117450426Y-60392565D01*
X117444171Y-60455850D01*
X117336949Y-60455850D01*
X117340856Y-60394624D01*
X117352230Y-60338512D01*
X117370776Y-60286773D01*
X117396468Y-60238191D01*
X117428033Y-60194852D01*
X117465726Y-60156286D01*
X117508446Y-60123236D01*
X117556740Y-60095226D01*
X117611234Y-60072267D01*
X117668164Y-60055986D01*
X117729554Y-60045969D01*
X117796003Y-60042530D01*
X117862905Y-60045980D01*
G37*
D12*
X106681404Y-40436783D02*
X107443404Y-40436783D01*
X107443404Y-40436783D02*
X106681404Y-40872212D01*
X106681404Y-40872212D02*
X107443404Y-40872212D01*
X107080547Y-41235069D02*
X107080547Y-41489069D01*
X106681404Y-41597926D02*
X106681404Y-41235069D01*
X106681404Y-41235069D02*
X107443404Y-41235069D01*
X107443404Y-41235069D02*
X107443404Y-41597926D01*
X107443404Y-42069641D02*
X107443404Y-42214784D01*
X107443404Y-42214784D02*
X107407118Y-42287355D01*
X107407118Y-42287355D02*
X107334547Y-42359927D01*
X107334547Y-42359927D02*
X107189404Y-42396212D01*
X107189404Y-42396212D02*
X106935404Y-42396212D01*
X106935404Y-42396212D02*
X106790261Y-42359927D01*
X106790261Y-42359927D02*
X106717690Y-42287355D01*
X106717690Y-42287355D02*
X106681404Y-42214784D01*
X106681404Y-42214784D02*
X106681404Y-42069641D01*
X106681404Y-42069641D02*
X106717690Y-41997070D01*
X106717690Y-41997070D02*
X106790261Y-41924498D01*
X106790261Y-41924498D02*
X106935404Y-41888212D01*
X106935404Y-41888212D02*
X107189404Y-41888212D01*
X107189404Y-41888212D02*
X107334547Y-41924498D01*
X107334547Y-41924498D02*
X107407118Y-41997070D01*
X107407118Y-41997070D02*
X107443404Y-42069641D01*
X106681404Y-42722784D02*
X107443404Y-42722784D01*
X107443404Y-42722784D02*
X107443404Y-43013070D01*
X107443404Y-43013070D02*
X107407118Y-43085641D01*
X107407118Y-43085641D02*
X107370832Y-43121927D01*
X107370832Y-43121927D02*
X107298261Y-43158213D01*
X107298261Y-43158213D02*
X107189404Y-43158213D01*
X107189404Y-43158213D02*
X107116832Y-43121927D01*
X107116832Y-43121927D02*
X107080547Y-43085641D01*
X107080547Y-43085641D02*
X107044261Y-43013070D01*
X107044261Y-43013070D02*
X107044261Y-42722784D01*
X106681404Y-43484784D02*
X107443404Y-43484784D01*
X107443404Y-43775070D02*
X106681404Y-44283070D01*
X107443404Y-44283070D02*
X106681404Y-43775070D01*
X107080547Y-44573355D02*
X107080547Y-44827355D01*
X106681404Y-44936212D02*
X106681404Y-44573355D01*
X106681404Y-44573355D02*
X107443404Y-44573355D01*
X107443404Y-44573355D02*
X107443404Y-44936212D01*
X106681404Y-45625641D02*
X106681404Y-45262784D01*
X106681404Y-45262784D02*
X107443404Y-45262784D01*
D10*
X124780588Y-41279819D02*
X124209160Y-41279819D01*
X124494874Y-41279819D02*
X124494874Y-40279819D01*
X124494874Y-40279819D02*
X124399636Y-40422676D01*
X124399636Y-40422676D02*
X124304398Y-40517914D01*
X124304398Y-40517914D02*
X124209160Y-40565533D01*
X125113922Y-40279819D02*
X125780588Y-40279819D01*
X125780588Y-40279819D02*
X125352017Y-41279819D01*
X124589160Y-79865057D02*
X124636779Y-79817438D01*
X124636779Y-79817438D02*
X124732017Y-79769819D01*
X124732017Y-79769819D02*
X124970112Y-79769819D01*
X124970112Y-79769819D02*
X125065350Y-79817438D01*
X125065350Y-79817438D02*
X125112969Y-79865057D01*
X125112969Y-79865057D02*
X125160588Y-79960295D01*
X125160588Y-79960295D02*
X125160588Y-80055533D01*
X125160588Y-80055533D02*
X125112969Y-80198390D01*
X125112969Y-80198390D02*
X124541541Y-80769819D01*
X124541541Y-80769819D02*
X125160588Y-80769819D01*
X104409160Y-76445557D02*
X104456779Y-76397938D01*
X104456779Y-76397938D02*
X104552017Y-76350319D01*
X104552017Y-76350319D02*
X104790112Y-76350319D01*
X104790112Y-76350319D02*
X104885350Y-76397938D01*
X104885350Y-76397938D02*
X104932969Y-76445557D01*
X104932969Y-76445557D02*
X104980588Y-76540795D01*
X104980588Y-76540795D02*
X104980588Y-76636033D01*
X104980588Y-76636033D02*
X104932969Y-76778890D01*
X104932969Y-76778890D02*
X104361541Y-77350319D01*
X104361541Y-77350319D02*
X104980588Y-77350319D01*
X105599636Y-76350319D02*
X105694874Y-76350319D01*
X105694874Y-76350319D02*
X105790112Y-76397938D01*
X105790112Y-76397938D02*
X105837731Y-76445557D01*
X105837731Y-76445557D02*
X105885350Y-76540795D01*
X105885350Y-76540795D02*
X105932969Y-76731271D01*
X105932969Y-76731271D02*
X105932969Y-76969366D01*
X105932969Y-76969366D02*
X105885350Y-77159842D01*
X105885350Y-77159842D02*
X105837731Y-77255080D01*
X105837731Y-77255080D02*
X105790112Y-77302700D01*
X105790112Y-77302700D02*
X105694874Y-77350319D01*
X105694874Y-77350319D02*
X105599636Y-77350319D01*
X105599636Y-77350319D02*
X105504398Y-77302700D01*
X105504398Y-77302700D02*
X105456779Y-77255080D01*
X105456779Y-77255080D02*
X105409160Y-77159842D01*
X105409160Y-77159842D02*
X105361541Y-76969366D01*
X105361541Y-76969366D02*
X105361541Y-76731271D01*
X105361541Y-76731271D02*
X105409160Y-76540795D01*
X105409160Y-76540795D02*
X105456779Y-76445557D01*
X105456779Y-76445557D02*
X105504398Y-76397938D01*
X105504398Y-76397938D02*
X105599636Y-76350319D01*
X104709160Y-84195557D02*
X104756779Y-84147938D01*
X104756779Y-84147938D02*
X104852017Y-84100319D01*
X104852017Y-84100319D02*
X105090112Y-84100319D01*
X105090112Y-84100319D02*
X105185350Y-84147938D01*
X105185350Y-84147938D02*
X105232969Y-84195557D01*
X105232969Y-84195557D02*
X105280588Y-84290795D01*
X105280588Y-84290795D02*
X105280588Y-84386033D01*
X105280588Y-84386033D02*
X105232969Y-84528890D01*
X105232969Y-84528890D02*
X104661541Y-85100319D01*
X104661541Y-85100319D02*
X105280588Y-85100319D01*
X105613922Y-84100319D02*
X106232969Y-84100319D01*
X106232969Y-84100319D02*
X105899636Y-84481271D01*
X105899636Y-84481271D02*
X106042493Y-84481271D01*
X106042493Y-84481271D02*
X106137731Y-84528890D01*
X106137731Y-84528890D02*
X106185350Y-84576509D01*
X106185350Y-84576509D02*
X106232969Y-84671747D01*
X106232969Y-84671747D02*
X106232969Y-84909842D01*
X106232969Y-84909842D02*
X106185350Y-85005080D01*
X106185350Y-85005080D02*
X106137731Y-85052700D01*
X106137731Y-85052700D02*
X106042493Y-85100319D01*
X106042493Y-85100319D02*
X105756779Y-85100319D01*
X105756779Y-85100319D02*
X105661541Y-85052700D01*
X105661541Y-85052700D02*
X105613922Y-85005080D01*
X99142779Y-32397819D02*
X99142779Y-33207342D01*
X99142779Y-33207342D02*
X99190398Y-33302580D01*
X99190398Y-33302580D02*
X99238017Y-33350200D01*
X99238017Y-33350200D02*
X99333255Y-33397819D01*
X99333255Y-33397819D02*
X99523731Y-33397819D01*
X99523731Y-33397819D02*
X99618969Y-33350200D01*
X99618969Y-33350200D02*
X99666588Y-33302580D01*
X99666588Y-33302580D02*
X99714207Y-33207342D01*
X99714207Y-33207342D02*
X99714207Y-32397819D01*
X100142779Y-33350200D02*
X100285636Y-33397819D01*
X100285636Y-33397819D02*
X100523731Y-33397819D01*
X100523731Y-33397819D02*
X100618969Y-33350200D01*
X100618969Y-33350200D02*
X100666588Y-33302580D01*
X100666588Y-33302580D02*
X100714207Y-33207342D01*
X100714207Y-33207342D02*
X100714207Y-33112104D01*
X100714207Y-33112104D02*
X100666588Y-33016866D01*
X100666588Y-33016866D02*
X100618969Y-32969247D01*
X100618969Y-32969247D02*
X100523731Y-32921628D01*
X100523731Y-32921628D02*
X100333255Y-32874009D01*
X100333255Y-32874009D02*
X100238017Y-32826390D01*
X100238017Y-32826390D02*
X100190398Y-32778771D01*
X100190398Y-32778771D02*
X100142779Y-32683533D01*
X100142779Y-32683533D02*
X100142779Y-32588295D01*
X100142779Y-32588295D02*
X100190398Y-32493057D01*
X100190398Y-32493057D02*
X100238017Y-32445438D01*
X100238017Y-32445438D02*
X100333255Y-32397819D01*
X100333255Y-32397819D02*
X100571350Y-32397819D01*
X100571350Y-32397819D02*
X100714207Y-32445438D01*
X101476112Y-32874009D02*
X101618969Y-32921628D01*
X101618969Y-32921628D02*
X101666588Y-32969247D01*
X101666588Y-32969247D02*
X101714207Y-33064485D01*
X101714207Y-33064485D02*
X101714207Y-33207342D01*
X101714207Y-33207342D02*
X101666588Y-33302580D01*
X101666588Y-33302580D02*
X101618969Y-33350200D01*
X101618969Y-33350200D02*
X101523731Y-33397819D01*
X101523731Y-33397819D02*
X101142779Y-33397819D01*
X101142779Y-33397819D02*
X101142779Y-32397819D01*
X101142779Y-32397819D02*
X101476112Y-32397819D01*
X101476112Y-32397819D02*
X101571350Y-32445438D01*
X101571350Y-32445438D02*
X101618969Y-32493057D01*
X101618969Y-32493057D02*
X101666588Y-32588295D01*
X101666588Y-32588295D02*
X101666588Y-32683533D01*
X101666588Y-32683533D02*
X101618969Y-32778771D01*
X101618969Y-32778771D02*
X101571350Y-32826390D01*
X101571350Y-32826390D02*
X101476112Y-32874009D01*
X101476112Y-32874009D02*
X101142779Y-32874009D01*
X124484398Y-61599819D02*
X124674874Y-61599819D01*
X124674874Y-61599819D02*
X124770112Y-61552200D01*
X124770112Y-61552200D02*
X124817731Y-61504580D01*
X124817731Y-61504580D02*
X124912969Y-61361723D01*
X124912969Y-61361723D02*
X124960588Y-61171247D01*
X124960588Y-61171247D02*
X124960588Y-60790295D01*
X124960588Y-60790295D02*
X124912969Y-60695057D01*
X124912969Y-60695057D02*
X124865350Y-60647438D01*
X124865350Y-60647438D02*
X124770112Y-60599819D01*
X124770112Y-60599819D02*
X124579636Y-60599819D01*
X124579636Y-60599819D02*
X124484398Y-60647438D01*
X124484398Y-60647438D02*
X124436779Y-60695057D01*
X124436779Y-60695057D02*
X124389160Y-60790295D01*
X124389160Y-60790295D02*
X124389160Y-61028390D01*
X124389160Y-61028390D02*
X124436779Y-61123628D01*
X124436779Y-61123628D02*
X124484398Y-61171247D01*
X124484398Y-61171247D02*
X124579636Y-61218866D01*
X124579636Y-61218866D02*
X124770112Y-61218866D01*
X124770112Y-61218866D02*
X124865350Y-61171247D01*
X124865350Y-61171247D02*
X124912969Y-61123628D01*
X124912969Y-61123628D02*
X124960588Y-61028390D01*
X76526779Y-52719819D02*
X76526779Y-51719819D01*
G36*
X101820000Y-77319082D02*
G01*
X102781339Y-77319082D01*
X102781339Y-77449569D01*
X101820000Y-77449569D01*
X101820000Y-77319082D01*
G37*
G36*
X101820000Y-77649176D02*
G01*
X101906767Y-77649176D01*
X101982838Y-77688383D01*
X102047817Y-77734234D01*
X102106518Y-77786121D01*
X102158520Y-77839747D01*
X102250416Y-77949351D01*
X102335108Y-78047414D01*
X102379196Y-78087499D01*
X102423951Y-78118122D01*
X102472907Y-78138214D01*
X102529159Y-78145111D01*
X102580026Y-78139482D01*
X102620203Y-78123803D01*
X102652135Y-78098644D01*
X102675646Y-78065216D01*
X102690493Y-78023018D01*
X102695854Y-77969562D01*
X102690793Y-77918716D01*
X102676427Y-77876114D01*
X102653173Y-77840052D01*
X102621663Y-77811343D01*
X102582345Y-77791403D01*
X102533311Y-77780334D01*
X102544912Y-77654672D01*
X102600867Y-77666283D01*
X102649397Y-77686449D01*
X102691719Y-77715058D01*
X102728644Y-77752674D01*
X102757745Y-77796395D01*
X102779006Y-77846329D01*
X102792304Y-77903588D01*
X102796971Y-77969562D01*
X102792019Y-78042848D01*
X102778255Y-78103130D01*
X102756848Y-78152669D01*
X102728278Y-78193288D01*
X102691452Y-78226726D01*
X102647696Y-78250936D01*
X102595614Y-78266120D01*
X102533250Y-78271507D01*
X102477998Y-78265230D01*
X102421875Y-78245861D01*
X102368016Y-78215035D01*
X102311233Y-78169719D01*
X102249847Y-78106358D01*
X102139713Y-77976400D01*
X102075858Y-77902804D01*
X102023942Y-77851348D01*
X101971424Y-77810165D01*
X101924535Y-77784426D01*
X101924535Y-78286528D01*
X101820000Y-78286528D01*
X101820000Y-77649176D01*
G37*
G36*
X102690420Y-78897501D02*
G01*
X102683404Y-78818973D01*
X102663535Y-78752823D01*
X102631647Y-78696674D01*
X102587288Y-78648862D01*
X102533752Y-78611548D01*
X102470186Y-78583903D01*
X102394659Y-78566337D01*
X102304760Y-78560080D01*
X102216374Y-78566466D01*
X102140691Y-78584563D01*
X102075614Y-78613357D01*
X102019485Y-78652648D01*
X101972628Y-78702541D01*
X101939309Y-78759806D01*
X101918775Y-78825908D01*
X101911591Y-78902997D01*
X101917240Y-78967884D01*
X101933603Y-79025675D01*
X101960423Y-79077721D01*
X101998263Y-79125006D01*
X102048472Y-79168066D01*
X102113091Y-79206957D01*
X102059602Y-79313569D01*
X101999641Y-79280034D01*
X101948527Y-79241126D01*
X101905358Y-79196758D01*
X101869520Y-79146568D01*
X101841460Y-79091670D01*
X101821155Y-79032250D01*
X101808666Y-78967600D01*
X101804368Y-78896891D01*
X101811530Y-78801467D01*
X101832008Y-78718222D01*
X101864940Y-78645137D01*
X101898490Y-78595186D01*
X101938226Y-78551851D01*
X101984542Y-78514622D01*
X102038108Y-78483265D01*
X102115101Y-78453130D01*
X102203316Y-78434221D01*
X102304760Y-78427578D01*
X102398304Y-78433194D01*
X102479609Y-78449151D01*
X102550424Y-78474474D01*
X102612230Y-78508700D01*
X102666179Y-78551898D01*
X102712105Y-78603870D01*
X102748132Y-78663064D01*
X102774578Y-78730518D01*
X102791154Y-78807645D01*
X102796971Y-78896158D01*
X102792832Y-78973576D01*
X102781055Y-79041368D01*
X102762385Y-79100801D01*
X102737254Y-79152979D01*
X102704014Y-79200920D01*
X102663876Y-79241889D01*
X102616264Y-79276417D01*
X102560239Y-79304654D01*
X102519511Y-79181006D01*
X102571045Y-79153852D01*
X102612993Y-79118211D01*
X102646517Y-79073417D01*
X102670413Y-79022324D01*
X102685239Y-78964168D01*
X102690420Y-78897501D01*
G37*
X104549160Y-81685557D02*
X104596779Y-81637938D01*
X104596779Y-81637938D02*
X104692017Y-81590319D01*
X104692017Y-81590319D02*
X104930112Y-81590319D01*
X104930112Y-81590319D02*
X105025350Y-81637938D01*
X105025350Y-81637938D02*
X105072969Y-81685557D01*
X105072969Y-81685557D02*
X105120588Y-81780795D01*
X105120588Y-81780795D02*
X105120588Y-81876033D01*
X105120588Y-81876033D02*
X105072969Y-82018890D01*
X105072969Y-82018890D02*
X104501541Y-82590319D01*
X104501541Y-82590319D02*
X105120588Y-82590319D01*
X105501541Y-81685557D02*
X105549160Y-81637938D01*
X105549160Y-81637938D02*
X105644398Y-81590319D01*
X105644398Y-81590319D02*
X105882493Y-81590319D01*
X105882493Y-81590319D02*
X105977731Y-81637938D01*
X105977731Y-81637938D02*
X106025350Y-81685557D01*
X106025350Y-81685557D02*
X106072969Y-81780795D01*
X106072969Y-81780795D02*
X106072969Y-81876033D01*
X106072969Y-81876033D02*
X106025350Y-82018890D01*
X106025350Y-82018890D02*
X105453922Y-82590319D01*
X105453922Y-82590319D02*
X106072969Y-82590319D01*
X120562969Y-45569819D02*
X120086779Y-45569819D01*
X120086779Y-45569819D02*
X120086779Y-44569819D01*
X105070588Y-72220319D02*
X104499160Y-72220319D01*
X104784874Y-72220319D02*
X104784874Y-71220319D01*
X104784874Y-71220319D02*
X104689636Y-71363176D01*
X104689636Y-71363176D02*
X104594398Y-71458414D01*
X104594398Y-71458414D02*
X104499160Y-71506033D01*
X105642017Y-71648890D02*
X105546779Y-71601271D01*
X105546779Y-71601271D02*
X105499160Y-71553652D01*
X105499160Y-71553652D02*
X105451541Y-71458414D01*
X105451541Y-71458414D02*
X105451541Y-71410795D01*
X105451541Y-71410795D02*
X105499160Y-71315557D01*
X105499160Y-71315557D02*
X105546779Y-71267938D01*
X105546779Y-71267938D02*
X105642017Y-71220319D01*
X105642017Y-71220319D02*
X105832493Y-71220319D01*
X105832493Y-71220319D02*
X105927731Y-71267938D01*
X105927731Y-71267938D02*
X105975350Y-71315557D01*
X105975350Y-71315557D02*
X106022969Y-71410795D01*
X106022969Y-71410795D02*
X106022969Y-71458414D01*
X106022969Y-71458414D02*
X105975350Y-71553652D01*
X105975350Y-71553652D02*
X105927731Y-71601271D01*
X105927731Y-71601271D02*
X105832493Y-71648890D01*
X105832493Y-71648890D02*
X105642017Y-71648890D01*
X105642017Y-71648890D02*
X105546779Y-71696509D01*
X105546779Y-71696509D02*
X105499160Y-71744128D01*
X105499160Y-71744128D02*
X105451541Y-71839366D01*
X105451541Y-71839366D02*
X105451541Y-72029842D01*
X105451541Y-72029842D02*
X105499160Y-72125080D01*
X105499160Y-72125080D02*
X105546779Y-72172700D01*
X105546779Y-72172700D02*
X105642017Y-72220319D01*
X105642017Y-72220319D02*
X105832493Y-72220319D01*
X105832493Y-72220319D02*
X105927731Y-72172700D01*
X105927731Y-72172700D02*
X105975350Y-72125080D01*
X105975350Y-72125080D02*
X106022969Y-72029842D01*
X106022969Y-72029842D02*
X106022969Y-71839366D01*
X106022969Y-71839366D02*
X105975350Y-71744128D01*
X105975350Y-71744128D02*
X105927731Y-71696509D01*
X105927731Y-71696509D02*
X105832493Y-71648890D01*
X76151541Y-56940319D02*
X76770588Y-56940319D01*
X76770588Y-56940319D02*
X76437255Y-57321271D01*
X76437255Y-57321271D02*
X76580112Y-57321271D01*
X76580112Y-57321271D02*
X76675350Y-57368890D01*
X76675350Y-57368890D02*
X76722969Y-57416509D01*
X76722969Y-57416509D02*
X76770588Y-57511747D01*
X76770588Y-57511747D02*
X76770588Y-57749842D01*
X76770588Y-57749842D02*
X76722969Y-57845080D01*
X76722969Y-57845080D02*
X76675350Y-57892700D01*
X76675350Y-57892700D02*
X76580112Y-57940319D01*
X76580112Y-57940319D02*
X76294398Y-57940319D01*
X76294398Y-57940319D02*
X76199160Y-57892700D01*
X76199160Y-57892700D02*
X76151541Y-57845080D01*
X77199160Y-57845080D02*
X77246779Y-57892700D01*
X77246779Y-57892700D02*
X77199160Y-57940319D01*
X77199160Y-57940319D02*
X77151541Y-57892700D01*
X77151541Y-57892700D02*
X77199160Y-57845080D01*
X77199160Y-57845080D02*
X77199160Y-57940319D01*
X77580112Y-56940319D02*
X78199159Y-56940319D01*
X78199159Y-56940319D02*
X77865826Y-57321271D01*
X77865826Y-57321271D02*
X78008683Y-57321271D01*
X78008683Y-57321271D02*
X78103921Y-57368890D01*
X78103921Y-57368890D02*
X78151540Y-57416509D01*
X78151540Y-57416509D02*
X78199159Y-57511747D01*
X78199159Y-57511747D02*
X78199159Y-57749842D01*
X78199159Y-57749842D02*
X78151540Y-57845080D01*
X78151540Y-57845080D02*
X78103921Y-57892700D01*
X78103921Y-57892700D02*
X78008683Y-57940319D01*
X78008683Y-57940319D02*
X77722969Y-57940319D01*
X77722969Y-57940319D02*
X77627731Y-57892700D01*
X77627731Y-57892700D02*
X77580112Y-57845080D01*
D13*
G36*
X110817921Y-47887290D02*
G01*
X110814570Y-47937428D01*
X110805358Y-47977749D01*
X110789810Y-48013502D01*
X110769803Y-48041299D01*
X110744458Y-48063193D01*
X110714046Y-48078793D01*
X110680032Y-48087960D01*
X110640958Y-48091161D01*
X110602268Y-48087761D01*
X110568064Y-48077940D01*
X110537306Y-48061554D01*
X110511028Y-48038895D01*
X110489966Y-48010580D01*
X110473728Y-47975151D01*
X110463997Y-47935418D01*
X110460506Y-47887290D01*
X110522970Y-47887290D01*
X110525240Y-47916579D01*
X110531617Y-47941069D01*
X110542214Y-47962902D01*
X110555928Y-47980347D01*
X110572978Y-47994162D01*
X110593228Y-48004192D01*
X110615674Y-48010154D01*
X110640958Y-48012218D01*
X110676147Y-48008465D01*
X110703847Y-47998046D01*
X110725756Y-47981432D01*
X110741669Y-47959000D01*
X110752056Y-47928475D01*
X110755922Y-47887290D01*
X110755922Y-47802725D01*
X110522970Y-47802725D01*
X110522970Y-47887290D01*
X110460506Y-47887290D01*
X110460506Y-47802725D01*
X110247950Y-47802725D01*
X110247950Y-47723782D01*
X110817921Y-47723782D01*
X110817921Y-47887290D01*
G37*
G36*
X110575123Y-48152535D02*
G01*
X110614105Y-48158960D01*
X110650264Y-48169406D01*
X110684857Y-48184116D01*
X110715525Y-48202044D01*
X110742661Y-48223185D01*
X110766595Y-48247823D01*
X110786639Y-48275486D01*
X110802954Y-48306471D01*
X110814750Y-48339471D01*
X110821964Y-48375034D01*
X110824435Y-48413602D01*
X110821954Y-48452481D01*
X110814731Y-48488112D01*
X110802954Y-48520966D01*
X110786640Y-48551816D01*
X110766596Y-48579336D01*
X110742661Y-48603825D01*
X110715534Y-48624812D01*
X110684867Y-48642599D01*
X110650264Y-48657178D01*
X110614113Y-48667516D01*
X110575130Y-48673877D01*
X110532935Y-48676060D01*
X110490453Y-48673870D01*
X110451400Y-48667502D01*
X110415374Y-48657178D01*
X110380929Y-48642601D01*
X110350404Y-48624816D01*
X110323403Y-48603825D01*
X110299630Y-48579354D01*
X110279660Y-48551835D01*
X110263343Y-48520966D01*
X110251565Y-48488112D01*
X110244343Y-48452481D01*
X110241862Y-48413602D01*
X110309987Y-48413602D01*
X110313892Y-48453803D01*
X110325148Y-48488862D01*
X110343729Y-48519948D01*
X110369194Y-48546130D01*
X110400528Y-48566727D01*
X110439452Y-48582577D01*
X110482470Y-48592024D01*
X110532935Y-48595373D01*
X110583430Y-48592023D01*
X110626418Y-48582577D01*
X110665369Y-48566723D01*
X110696676Y-48546130D01*
X110722184Y-48519956D01*
X110740916Y-48488862D01*
X110752377Y-48453788D01*
X110756348Y-48413602D01*
X110752377Y-48373416D01*
X110740916Y-48338343D01*
X110722193Y-48307212D01*
X110696676Y-48280880D01*
X110665354Y-48260136D01*
X110626418Y-48244239D01*
X110583430Y-48234794D01*
X110532935Y-48231444D01*
X110482470Y-48234792D01*
X110439452Y-48244239D01*
X110400543Y-48260132D01*
X110369194Y-48280880D01*
X110343720Y-48307219D01*
X110325148Y-48338343D01*
X110313892Y-48373402D01*
X110309987Y-48413602D01*
X110241862Y-48413602D01*
X110244333Y-48375034D01*
X110251546Y-48339471D01*
X110263343Y-48306471D01*
X110279660Y-48275467D01*
X110299631Y-48247805D01*
X110323403Y-48223185D01*
X110350413Y-48202040D01*
X110380939Y-48184113D01*
X110415374Y-48169406D01*
X110451408Y-48158974D01*
X110490460Y-48152542D01*
X110532935Y-48150330D01*
X110575123Y-48152535D01*
G37*
G36*
X110817921Y-48703086D02*
G01*
X110817921Y-48769466D01*
X110816628Y-48778867D01*
X110812919Y-48786565D01*
X110807120Y-48792503D01*
X110799736Y-48795909D01*
X110406262Y-48906530D01*
X110357679Y-48917814D01*
X110383502Y-48923436D01*
X110406727Y-48929950D01*
X110799271Y-49057049D01*
X110806079Y-49060409D01*
X110812299Y-49066588D01*
X110816491Y-49074557D01*
X110817921Y-49083958D01*
X110817921Y-49106951D01*
X110816600Y-49116657D01*
X110812919Y-49124050D01*
X110807165Y-49129743D01*
X110799736Y-49133394D01*
X110406262Y-49260494D01*
X110383928Y-49267008D01*
X110358997Y-49272630D01*
X110384161Y-49277865D01*
X110406262Y-49283487D01*
X110799271Y-49393681D01*
X110806064Y-49397077D01*
X110812299Y-49403413D01*
X110816495Y-49411552D01*
X110817921Y-49421017D01*
X110817921Y-49483016D01*
X110247950Y-49309969D01*
X110247950Y-49238393D01*
X110680003Y-49101290D01*
X110693225Y-49097180D01*
X110708618Y-49093070D01*
X110693225Y-49089348D01*
X110680003Y-49085238D01*
X110247950Y-48947320D01*
X110247950Y-48876171D01*
X110817921Y-48703086D01*
G37*
G36*
X110817921Y-49884283D02*
G01*
X110753750Y-49884283D01*
X110753750Y-49630549D01*
X110566784Y-49630549D01*
X110566784Y-49834847D01*
X110504747Y-49834847D01*
X110504747Y-49630549D01*
X110312159Y-49630549D01*
X110312159Y-49884710D01*
X110247950Y-49884283D01*
X110247950Y-49551141D01*
X110817921Y-49551141D01*
X110817921Y-49884283D01*
G37*
G36*
X110817921Y-50141817D02*
G01*
X110814954Y-50191978D01*
X110806870Y-50231810D01*
X110793002Y-50267236D01*
X110775192Y-50294275D01*
X110752383Y-50315645D01*
X110725329Y-50330528D01*
X110694853Y-50339204D01*
X110659608Y-50342238D01*
X110630365Y-50339962D01*
X110603658Y-50333320D01*
X110578857Y-50322437D01*
X110556820Y-50307729D01*
X110537610Y-50289316D01*
X110521032Y-50266745D01*
X110508002Y-50241205D01*
X110498233Y-50211648D01*
X110487609Y-50225529D01*
X110473534Y-50238131D01*
X110247950Y-50391247D01*
X110247950Y-50320990D01*
X110252004Y-50302790D01*
X110264002Y-50289312D01*
X110467020Y-50154418D01*
X110480668Y-50140305D01*
X110481179Y-50138793D01*
X110542473Y-50138793D01*
X110544596Y-50168897D01*
X110550500Y-50193657D01*
X110560396Y-50215745D01*
X110573260Y-50233361D01*
X110589459Y-50247388D01*
X110608621Y-50257440D01*
X110629966Y-50263404D01*
X110653986Y-50265466D01*
X110685613Y-50261914D01*
X110709972Y-50252114D01*
X110728798Y-50236481D01*
X110742979Y-50214237D01*
X110752391Y-50183559D01*
X110755922Y-50141817D01*
X110755922Y-50064619D01*
X110542473Y-50064619D01*
X110542473Y-50138793D01*
X110481179Y-50138793D01*
X110483591Y-50131657D01*
X110484778Y-50117545D01*
X110484778Y-50064619D01*
X110247950Y-50064619D01*
X110247950Y-49985676D01*
X110817921Y-49985676D01*
X110817921Y-50141817D01*
G37*
D10*
X86600112Y-29326009D02*
X86742969Y-29373628D01*
X86742969Y-29373628D02*
X86790588Y-29421247D01*
X86790588Y-29421247D02*
X86838207Y-29516485D01*
X86838207Y-29516485D02*
X86838207Y-29659342D01*
X86838207Y-29659342D02*
X86790588Y-29754580D01*
X86790588Y-29754580D02*
X86742969Y-29802200D01*
X86742969Y-29802200D02*
X86647731Y-29849819D01*
X86647731Y-29849819D02*
X86266779Y-29849819D01*
X86266779Y-29849819D02*
X86266779Y-28849819D01*
X86266779Y-28849819D02*
X86600112Y-28849819D01*
X86600112Y-28849819D02*
X86695350Y-28897438D01*
X86695350Y-28897438D02*
X86742969Y-28945057D01*
X86742969Y-28945057D02*
X86790588Y-29040295D01*
X86790588Y-29040295D02*
X86790588Y-29135533D01*
X86790588Y-29135533D02*
X86742969Y-29230771D01*
X86742969Y-29230771D02*
X86695350Y-29278390D01*
X86695350Y-29278390D02*
X86600112Y-29326009D01*
X86600112Y-29326009D02*
X86266779Y-29326009D01*
X87457255Y-28849819D02*
X87647731Y-28849819D01*
X87647731Y-28849819D02*
X87742969Y-28897438D01*
X87742969Y-28897438D02*
X87838207Y-28992676D01*
X87838207Y-28992676D02*
X87885826Y-29183152D01*
X87885826Y-29183152D02*
X87885826Y-29516485D01*
X87885826Y-29516485D02*
X87838207Y-29706961D01*
X87838207Y-29706961D02*
X87742969Y-29802200D01*
X87742969Y-29802200D02*
X87647731Y-29849819D01*
X87647731Y-29849819D02*
X87457255Y-29849819D01*
X87457255Y-29849819D02*
X87362017Y-29802200D01*
X87362017Y-29802200D02*
X87266779Y-29706961D01*
X87266779Y-29706961D02*
X87219160Y-29516485D01*
X87219160Y-29516485D02*
X87219160Y-29183152D01*
X87219160Y-29183152D02*
X87266779Y-28992676D01*
X87266779Y-28992676D02*
X87362017Y-28897438D01*
X87362017Y-28897438D02*
X87457255Y-28849819D01*
X88504874Y-28849819D02*
X88695350Y-28849819D01*
X88695350Y-28849819D02*
X88790588Y-28897438D01*
X88790588Y-28897438D02*
X88885826Y-28992676D01*
X88885826Y-28992676D02*
X88933445Y-29183152D01*
X88933445Y-29183152D02*
X88933445Y-29516485D01*
X88933445Y-29516485D02*
X88885826Y-29706961D01*
X88885826Y-29706961D02*
X88790588Y-29802200D01*
X88790588Y-29802200D02*
X88695350Y-29849819D01*
X88695350Y-29849819D02*
X88504874Y-29849819D01*
X88504874Y-29849819D02*
X88409636Y-29802200D01*
X88409636Y-29802200D02*
X88314398Y-29706961D01*
X88314398Y-29706961D02*
X88266779Y-29516485D01*
X88266779Y-29516485D02*
X88266779Y-29183152D01*
X88266779Y-29183152D02*
X88314398Y-28992676D01*
X88314398Y-28992676D02*
X88409636Y-28897438D01*
X88409636Y-28897438D02*
X88504874Y-28849819D01*
X89219160Y-28849819D02*
X89790588Y-28849819D01*
X89504874Y-29849819D02*
X89504874Y-28849819D01*
X90076303Y-29802200D02*
X90219160Y-29849819D01*
X90219160Y-29849819D02*
X90457255Y-29849819D01*
X90457255Y-29849819D02*
X90552493Y-29802200D01*
X90552493Y-29802200D02*
X90600112Y-29754580D01*
X90600112Y-29754580D02*
X90647731Y-29659342D01*
X90647731Y-29659342D02*
X90647731Y-29564104D01*
X90647731Y-29564104D02*
X90600112Y-29468866D01*
X90600112Y-29468866D02*
X90552493Y-29421247D01*
X90552493Y-29421247D02*
X90457255Y-29373628D01*
X90457255Y-29373628D02*
X90266779Y-29326009D01*
X90266779Y-29326009D02*
X90171541Y-29278390D01*
X90171541Y-29278390D02*
X90123922Y-29230771D01*
X90123922Y-29230771D02*
X90076303Y-29135533D01*
X90076303Y-29135533D02*
X90076303Y-29040295D01*
X90076303Y-29040295D02*
X90123922Y-28945057D01*
X90123922Y-28945057D02*
X90171541Y-28897438D01*
X90171541Y-28897438D02*
X90266779Y-28849819D01*
X90266779Y-28849819D02*
X90504874Y-28849819D01*
X90504874Y-28849819D02*
X90647731Y-28897438D01*
X91076303Y-29326009D02*
X91409636Y-29326009D01*
X91552493Y-29849819D02*
X91076303Y-29849819D01*
X91076303Y-29849819D02*
X91076303Y-28849819D01*
X91076303Y-28849819D02*
X91552493Y-28849819D01*
X92457255Y-29849819D02*
X91981065Y-29849819D01*
X91981065Y-29849819D02*
X91981065Y-28849819D01*
X104469160Y-78995557D02*
X104516779Y-78947938D01*
X104516779Y-78947938D02*
X104612017Y-78900319D01*
X104612017Y-78900319D02*
X104850112Y-78900319D01*
X104850112Y-78900319D02*
X104945350Y-78947938D01*
X104945350Y-78947938D02*
X104992969Y-78995557D01*
X104992969Y-78995557D02*
X105040588Y-79090795D01*
X105040588Y-79090795D02*
X105040588Y-79186033D01*
X105040588Y-79186033D02*
X104992969Y-79328890D01*
X104992969Y-79328890D02*
X104421541Y-79900319D01*
X104421541Y-79900319D02*
X105040588Y-79900319D01*
X105992969Y-79900319D02*
X105421541Y-79900319D01*
X105707255Y-79900319D02*
X105707255Y-78900319D01*
X105707255Y-78900319D02*
X105612017Y-79043176D01*
X105612017Y-79043176D02*
X105516779Y-79138414D01*
X105516779Y-79138414D02*
X105421541Y-79186033D01*
X81851541Y-52069819D02*
X82470588Y-52069819D01*
X82470588Y-52069819D02*
X82137255Y-52450771D01*
X82137255Y-52450771D02*
X82280112Y-52450771D01*
X82280112Y-52450771D02*
X82375350Y-52498390D01*
X82375350Y-52498390D02*
X82422969Y-52546009D01*
X82422969Y-52546009D02*
X82470588Y-52641247D01*
X82470588Y-52641247D02*
X82470588Y-52879342D01*
X82470588Y-52879342D02*
X82422969Y-52974580D01*
X82422969Y-52974580D02*
X82375350Y-53022200D01*
X82375350Y-53022200D02*
X82280112Y-53069819D01*
X82280112Y-53069819D02*
X81994398Y-53069819D01*
X81994398Y-53069819D02*
X81899160Y-53022200D01*
X81899160Y-53022200D02*
X81851541Y-52974580D01*
X82899160Y-52974580D02*
X82946779Y-53022200D01*
X82946779Y-53022200D02*
X82899160Y-53069819D01*
X82899160Y-53069819D02*
X82851541Y-53022200D01*
X82851541Y-53022200D02*
X82899160Y-52974580D01*
X82899160Y-52974580D02*
X82899160Y-53069819D01*
X83280112Y-52069819D02*
X83899159Y-52069819D01*
X83899159Y-52069819D02*
X83565826Y-52450771D01*
X83565826Y-52450771D02*
X83708683Y-52450771D01*
X83708683Y-52450771D02*
X83803921Y-52498390D01*
X83803921Y-52498390D02*
X83851540Y-52546009D01*
X83851540Y-52546009D02*
X83899159Y-52641247D01*
X83899159Y-52641247D02*
X83899159Y-52879342D01*
X83899159Y-52879342D02*
X83851540Y-52974580D01*
X83851540Y-52974580D02*
X83803921Y-53022200D01*
X83803921Y-53022200D02*
X83708683Y-53069819D01*
X83708683Y-53069819D02*
X83422969Y-53069819D01*
X83422969Y-53069819D02*
X83327731Y-53022200D01*
X83327731Y-53022200D02*
X83280112Y-52974580D01*
X125065350Y-69669819D02*
X124874874Y-69669819D01*
X124874874Y-69669819D02*
X124779636Y-69717438D01*
X124779636Y-69717438D02*
X124732017Y-69765057D01*
X124732017Y-69765057D02*
X124636779Y-69907914D01*
X124636779Y-69907914D02*
X124589160Y-70098390D01*
X124589160Y-70098390D02*
X124589160Y-70479342D01*
X124589160Y-70479342D02*
X124636779Y-70574580D01*
X124636779Y-70574580D02*
X124684398Y-70622200D01*
X124684398Y-70622200D02*
X124779636Y-70669819D01*
X124779636Y-70669819D02*
X124970112Y-70669819D01*
X124970112Y-70669819D02*
X125065350Y-70622200D01*
X125065350Y-70622200D02*
X125112969Y-70574580D01*
X125112969Y-70574580D02*
X125160588Y-70479342D01*
X125160588Y-70479342D02*
X125160588Y-70241247D01*
X125160588Y-70241247D02*
X125112969Y-70146009D01*
X125112969Y-70146009D02*
X125065350Y-70098390D01*
X125065350Y-70098390D02*
X124970112Y-70050771D01*
X124970112Y-70050771D02*
X124779636Y-70050771D01*
X124779636Y-70050771D02*
X124684398Y-70098390D01*
X124684398Y-70098390D02*
X124636779Y-70146009D01*
X124636779Y-70146009D02*
X124589160Y-70241247D01*
X124441541Y-67169819D02*
X125108207Y-67169819D01*
X125108207Y-67169819D02*
X124679636Y-68169819D01*
X124730588Y-59119819D02*
X124159160Y-59119819D01*
X124444874Y-59119819D02*
X124444874Y-58119819D01*
X124444874Y-58119819D02*
X124349636Y-58262676D01*
X124349636Y-58262676D02*
X124254398Y-58357914D01*
X124254398Y-58357914D02*
X124159160Y-58405533D01*
X125349636Y-58119819D02*
X125444874Y-58119819D01*
X125444874Y-58119819D02*
X125540112Y-58167438D01*
X125540112Y-58167438D02*
X125587731Y-58215057D01*
X125587731Y-58215057D02*
X125635350Y-58310295D01*
X125635350Y-58310295D02*
X125682969Y-58500771D01*
X125682969Y-58500771D02*
X125682969Y-58738866D01*
X125682969Y-58738866D02*
X125635350Y-58929342D01*
X125635350Y-58929342D02*
X125587731Y-59024580D01*
X125587731Y-59024580D02*
X125540112Y-59072200D01*
X125540112Y-59072200D02*
X125444874Y-59119819D01*
X125444874Y-59119819D02*
X125349636Y-59119819D01*
X125349636Y-59119819D02*
X125254398Y-59072200D01*
X125254398Y-59072200D02*
X125206779Y-59024580D01*
X125206779Y-59024580D02*
X125159160Y-58929342D01*
X125159160Y-58929342D02*
X125111541Y-58738866D01*
X125111541Y-58738866D02*
X125111541Y-58500771D01*
X125111541Y-58500771D02*
X125159160Y-58310295D01*
X125159160Y-58310295D02*
X125206779Y-58215057D01*
X125206779Y-58215057D02*
X125254398Y-58167438D01*
X125254398Y-58167438D02*
X125349636Y-58119819D01*
X76610588Y-64517938D02*
X76515350Y-64470319D01*
X76515350Y-64470319D02*
X76372493Y-64470319D01*
X76372493Y-64470319D02*
X76229636Y-64517938D01*
X76229636Y-64517938D02*
X76134398Y-64613176D01*
X76134398Y-64613176D02*
X76086779Y-64708414D01*
X76086779Y-64708414D02*
X76039160Y-64898890D01*
X76039160Y-64898890D02*
X76039160Y-65041747D01*
X76039160Y-65041747D02*
X76086779Y-65232223D01*
X76086779Y-65232223D02*
X76134398Y-65327461D01*
X76134398Y-65327461D02*
X76229636Y-65422700D01*
X76229636Y-65422700D02*
X76372493Y-65470319D01*
X76372493Y-65470319D02*
X76467731Y-65470319D01*
X76467731Y-65470319D02*
X76610588Y-65422700D01*
X76610588Y-65422700D02*
X76658207Y-65375080D01*
X76658207Y-65375080D02*
X76658207Y-65041747D01*
X76658207Y-65041747D02*
X76467731Y-65041747D01*
X77086779Y-65470319D02*
X77086779Y-64470319D01*
X77086779Y-64470319D02*
X77658207Y-65470319D01*
X77658207Y-65470319D02*
X77658207Y-64470319D01*
X78134398Y-65470319D02*
X78134398Y-64470319D01*
X78134398Y-64470319D02*
X78372493Y-64470319D01*
X78372493Y-64470319D02*
X78515350Y-64517938D01*
X78515350Y-64517938D02*
X78610588Y-64613176D01*
X78610588Y-64613176D02*
X78658207Y-64708414D01*
X78658207Y-64708414D02*
X78705826Y-64898890D01*
X78705826Y-64898890D02*
X78705826Y-65041747D01*
X78705826Y-65041747D02*
X78658207Y-65232223D01*
X78658207Y-65232223D02*
X78610588Y-65327461D01*
X78610588Y-65327461D02*
X78515350Y-65422700D01*
X78515350Y-65422700D02*
X78372493Y-65470319D01*
X78372493Y-65470319D02*
X78134398Y-65470319D01*
D14*
X111314364Y-89131764D02*
X111337792Y-89061479D01*
X111337792Y-89061479D02*
X111337792Y-88944336D01*
X111337792Y-88944336D02*
X111314364Y-88897479D01*
X111314364Y-88897479D02*
X111290935Y-88874050D01*
X111290935Y-88874050D02*
X111244078Y-88850621D01*
X111244078Y-88850621D02*
X111197221Y-88850621D01*
X111197221Y-88850621D02*
X111150364Y-88874050D01*
X111150364Y-88874050D02*
X111126935Y-88897479D01*
X111126935Y-88897479D02*
X111103506Y-88944336D01*
X111103506Y-88944336D02*
X111080078Y-89038050D01*
X111080078Y-89038050D02*
X111056649Y-89084907D01*
X111056649Y-89084907D02*
X111033221Y-89108336D01*
X111033221Y-89108336D02*
X110986364Y-89131764D01*
X110986364Y-89131764D02*
X110939506Y-89131764D01*
X110939506Y-89131764D02*
X110892649Y-89108336D01*
X110892649Y-89108336D02*
X110869221Y-89084907D01*
X110869221Y-89084907D02*
X110845792Y-89038050D01*
X110845792Y-89038050D02*
X110845792Y-88920907D01*
X110845792Y-88920907D02*
X110869221Y-88850621D01*
X111080078Y-88639765D02*
X111080078Y-88475765D01*
X111337792Y-88405479D02*
X111337792Y-88639765D01*
X111337792Y-88639765D02*
X110845792Y-88639765D01*
X110845792Y-88639765D02*
X110845792Y-88405479D01*
X110845792Y-88264907D02*
X110845792Y-87983765D01*
X111337792Y-88124336D02*
X110845792Y-88124336D01*
X110845792Y-87444908D02*
X111244078Y-87444908D01*
X111244078Y-87444908D02*
X111290935Y-87421479D01*
X111290935Y-87421479D02*
X111314364Y-87398051D01*
X111314364Y-87398051D02*
X111337792Y-87351193D01*
X111337792Y-87351193D02*
X111337792Y-87257479D01*
X111337792Y-87257479D02*
X111314364Y-87210622D01*
X111314364Y-87210622D02*
X111290935Y-87187193D01*
X111290935Y-87187193D02*
X111244078Y-87163765D01*
X111244078Y-87163765D02*
X110845792Y-87163765D01*
X111197221Y-86952907D02*
X111197221Y-86718622D01*
X111337792Y-86999764D02*
X110845792Y-86835764D01*
X110845792Y-86835764D02*
X111337792Y-86671764D01*
X111337792Y-86226622D02*
X111103506Y-86390622D01*
X111337792Y-86507765D02*
X110845792Y-86507765D01*
X110845792Y-86507765D02*
X110845792Y-86320336D01*
X110845792Y-86320336D02*
X110869221Y-86273479D01*
X110869221Y-86273479D02*
X110892649Y-86250050D01*
X110892649Y-86250050D02*
X110939506Y-86226622D01*
X110939506Y-86226622D02*
X111009792Y-86226622D01*
X111009792Y-86226622D02*
X111056649Y-86250050D01*
X111056649Y-86250050D02*
X111080078Y-86273479D01*
X111080078Y-86273479D02*
X111103506Y-86320336D01*
X111103506Y-86320336D02*
X111103506Y-86507765D01*
X110845792Y-86086050D02*
X110845792Y-85804908D01*
X111337792Y-85945479D02*
X110845792Y-85945479D01*
D10*
X124770588Y-43769819D02*
X124199160Y-43769819D01*
X124484874Y-43769819D02*
X124484874Y-42769819D01*
X124484874Y-42769819D02*
X124389636Y-42912676D01*
X124389636Y-42912676D02*
X124294398Y-43007914D01*
X124294398Y-43007914D02*
X124199160Y-43055533D01*
X125627731Y-42769819D02*
X125437255Y-42769819D01*
X125437255Y-42769819D02*
X125342017Y-42817438D01*
X125342017Y-42817438D02*
X125294398Y-42865057D01*
X125294398Y-42865057D02*
X125199160Y-43007914D01*
X125199160Y-43007914D02*
X125151541Y-43198390D01*
X125151541Y-43198390D02*
X125151541Y-43579342D01*
X125151541Y-43579342D02*
X125199160Y-43674580D01*
X125199160Y-43674580D02*
X125246779Y-43722200D01*
X125246779Y-43722200D02*
X125342017Y-43769819D01*
X125342017Y-43769819D02*
X125532493Y-43769819D01*
X125532493Y-43769819D02*
X125627731Y-43722200D01*
X125627731Y-43722200D02*
X125675350Y-43674580D01*
X125675350Y-43674580D02*
X125722969Y-43579342D01*
X125722969Y-43579342D02*
X125722969Y-43341247D01*
X125722969Y-43341247D02*
X125675350Y-43246009D01*
X125675350Y-43246009D02*
X125627731Y-43198390D01*
X125627731Y-43198390D02*
X125532493Y-43150771D01*
X125532493Y-43150771D02*
X125342017Y-43150771D01*
X125342017Y-43150771D02*
X125246779Y-43198390D01*
X125246779Y-43198390D02*
X125199160Y-43246009D01*
X125199160Y-43246009D02*
X125151541Y-43341247D01*
X112480912Y-87230009D02*
X112623769Y-87277628D01*
X112623769Y-87277628D02*
X112671388Y-87325247D01*
X112671388Y-87325247D02*
X112719007Y-87420485D01*
X112719007Y-87420485D02*
X112719007Y-87563342D01*
X112719007Y-87563342D02*
X112671388Y-87658580D01*
X112671388Y-87658580D02*
X112623769Y-87706200D01*
X112623769Y-87706200D02*
X112528531Y-87753819D01*
X112528531Y-87753819D02*
X112147579Y-87753819D01*
X112147579Y-87753819D02*
X112147579Y-86753819D01*
X112147579Y-86753819D02*
X112480912Y-86753819D01*
X112480912Y-86753819D02*
X112576150Y-86801438D01*
X112576150Y-86801438D02*
X112623769Y-86849057D01*
X112623769Y-86849057D02*
X112671388Y-86944295D01*
X112671388Y-86944295D02*
X112671388Y-87039533D01*
X112671388Y-87039533D02*
X112623769Y-87134771D01*
X112623769Y-87134771D02*
X112576150Y-87182390D01*
X112576150Y-87182390D02*
X112480912Y-87230009D01*
X112480912Y-87230009D02*
X112147579Y-87230009D01*
X112099960Y-83099304D02*
X112576150Y-83099304D01*
X112004722Y-83385019D02*
X112338055Y-82385019D01*
X112338055Y-82385019D02*
X112671388Y-83385019D01*
X76748207Y-55360319D02*
X76414874Y-54884128D01*
X76176779Y-55360319D02*
X76176779Y-54360319D01*
X76176779Y-54360319D02*
X76557731Y-54360319D01*
X76557731Y-54360319D02*
X76652969Y-54407938D01*
X76652969Y-54407938D02*
X76700588Y-54455557D01*
X76700588Y-54455557D02*
X76748207Y-54550795D01*
X76748207Y-54550795D02*
X76748207Y-54693652D01*
X76748207Y-54693652D02*
X76700588Y-54788890D01*
X76700588Y-54788890D02*
X76652969Y-54836509D01*
X76652969Y-54836509D02*
X76557731Y-54884128D01*
X76557731Y-54884128D02*
X76176779Y-54884128D01*
X77129160Y-55312700D02*
X77272017Y-55360319D01*
X77272017Y-55360319D02*
X77510112Y-55360319D01*
X77510112Y-55360319D02*
X77605350Y-55312700D01*
X77605350Y-55312700D02*
X77652969Y-55265080D01*
X77652969Y-55265080D02*
X77700588Y-55169842D01*
X77700588Y-55169842D02*
X77700588Y-55074604D01*
X77700588Y-55074604D02*
X77652969Y-54979366D01*
X77652969Y-54979366D02*
X77605350Y-54931747D01*
X77605350Y-54931747D02*
X77510112Y-54884128D01*
X77510112Y-54884128D02*
X77319636Y-54836509D01*
X77319636Y-54836509D02*
X77224398Y-54788890D01*
X77224398Y-54788890D02*
X77176779Y-54741271D01*
X77176779Y-54741271D02*
X77129160Y-54646033D01*
X77129160Y-54646033D02*
X77129160Y-54550795D01*
X77129160Y-54550795D02*
X77176779Y-54455557D01*
X77176779Y-54455557D02*
X77224398Y-54407938D01*
X77224398Y-54407938D02*
X77319636Y-54360319D01*
X77319636Y-54360319D02*
X77557731Y-54360319D01*
X77557731Y-54360319D02*
X77700588Y-54407938D01*
X77986303Y-54360319D02*
X78557731Y-54360319D01*
X78272017Y-55360319D02*
X78272017Y-54360319D01*
X117852988Y-51393838D02*
X117757750Y-51346219D01*
X117757750Y-51346219D02*
X117614893Y-51346219D01*
X117614893Y-51346219D02*
X117472036Y-51393838D01*
X117472036Y-51393838D02*
X117376798Y-51489076D01*
X117376798Y-51489076D02*
X117329179Y-51584314D01*
X117329179Y-51584314D02*
X117281560Y-51774790D01*
X117281560Y-51774790D02*
X117281560Y-51917647D01*
X117281560Y-51917647D02*
X117329179Y-52108123D01*
X117329179Y-52108123D02*
X117376798Y-52203361D01*
X117376798Y-52203361D02*
X117472036Y-52298600D01*
X117472036Y-52298600D02*
X117614893Y-52346219D01*
X117614893Y-52346219D02*
X117710131Y-52346219D01*
X117710131Y-52346219D02*
X117852988Y-52298600D01*
X117852988Y-52298600D02*
X117900607Y-52250980D01*
X117900607Y-52250980D02*
X117900607Y-51917647D01*
X117900607Y-51917647D02*
X117710131Y-51917647D01*
X118329179Y-52346219D02*
X118329179Y-51346219D01*
X118329179Y-51346219D02*
X118900607Y-52346219D01*
X118900607Y-52346219D02*
X118900607Y-51346219D01*
X119376798Y-52346219D02*
X119376798Y-51346219D01*
X119376798Y-51346219D02*
X119614893Y-51346219D01*
X119614893Y-51346219D02*
X119757750Y-51393838D01*
X119757750Y-51393838D02*
X119852988Y-51489076D01*
X119852988Y-51489076D02*
X119900607Y-51584314D01*
X119900607Y-51584314D02*
X119948226Y-51774790D01*
X119948226Y-51774790D02*
X119948226Y-51917647D01*
X119948226Y-51917647D02*
X119900607Y-52108123D01*
X119900607Y-52108123D02*
X119852988Y-52203361D01*
X119852988Y-52203361D02*
X119757750Y-52298600D01*
X119757750Y-52298600D02*
X119614893Y-52346219D01*
X119614893Y-52346219D02*
X119376798Y-52346219D01*
X76489160Y-72115057D02*
X76536779Y-72067438D01*
X76536779Y-72067438D02*
X76632017Y-72019819D01*
X76632017Y-72019819D02*
X76870112Y-72019819D01*
X76870112Y-72019819D02*
X76965350Y-72067438D01*
X76965350Y-72067438D02*
X77012969Y-72115057D01*
X77012969Y-72115057D02*
X77060588Y-72210295D01*
X77060588Y-72210295D02*
X77060588Y-72305533D01*
X77060588Y-72305533D02*
X77012969Y-72448390D01*
X77012969Y-72448390D02*
X76441541Y-73019819D01*
X76441541Y-73019819D02*
X77060588Y-73019819D01*
X77917731Y-72019819D02*
X77727255Y-72019819D01*
X77727255Y-72019819D02*
X77632017Y-72067438D01*
X77632017Y-72067438D02*
X77584398Y-72115057D01*
X77584398Y-72115057D02*
X77489160Y-72257914D01*
X77489160Y-72257914D02*
X77441541Y-72448390D01*
X77441541Y-72448390D02*
X77441541Y-72829342D01*
X77441541Y-72829342D02*
X77489160Y-72924580D01*
X77489160Y-72924580D02*
X77536779Y-72972200D01*
X77536779Y-72972200D02*
X77632017Y-73019819D01*
X77632017Y-73019819D02*
X77822493Y-73019819D01*
X77822493Y-73019819D02*
X77917731Y-72972200D01*
X77917731Y-72972200D02*
X77965350Y-72924580D01*
X77965350Y-72924580D02*
X78012969Y-72829342D01*
X78012969Y-72829342D02*
X78012969Y-72591247D01*
X78012969Y-72591247D02*
X77965350Y-72496009D01*
X77965350Y-72496009D02*
X77917731Y-72448390D01*
X77917731Y-72448390D02*
X77822493Y-72400771D01*
X77822493Y-72400771D02*
X77632017Y-72400771D01*
X77632017Y-72400771D02*
X77536779Y-72448390D01*
X77536779Y-72448390D02*
X77489160Y-72496009D01*
X77489160Y-72496009D02*
X77441541Y-72591247D01*
X79155827Y-72734104D02*
X79632017Y-72734104D01*
X79060589Y-73019819D02*
X79393922Y-72019819D01*
X79393922Y-72019819D02*
X79727255Y-73019819D01*
X80060589Y-73019819D02*
X80060589Y-72019819D01*
X80060589Y-72019819D02*
X80298684Y-72019819D01*
X80298684Y-72019819D02*
X80441541Y-72067438D01*
X80441541Y-72067438D02*
X80536779Y-72162676D01*
X80536779Y-72162676D02*
X80584398Y-72257914D01*
X80584398Y-72257914D02*
X80632017Y-72448390D01*
X80632017Y-72448390D02*
X80632017Y-72591247D01*
X80632017Y-72591247D02*
X80584398Y-72781723D01*
X80584398Y-72781723D02*
X80536779Y-72876961D01*
X80536779Y-72876961D02*
X80441541Y-72972200D01*
X80441541Y-72972200D02*
X80298684Y-73019819D01*
X80298684Y-73019819D02*
X80060589Y-73019819D01*
X81632017Y-72924580D02*
X81584398Y-72972200D01*
X81584398Y-72972200D02*
X81441541Y-73019819D01*
X81441541Y-73019819D02*
X81346303Y-73019819D01*
X81346303Y-73019819D02*
X81203446Y-72972200D01*
X81203446Y-72972200D02*
X81108208Y-72876961D01*
X81108208Y-72876961D02*
X81060589Y-72781723D01*
X81060589Y-72781723D02*
X81012970Y-72591247D01*
X81012970Y-72591247D02*
X81012970Y-72448390D01*
X81012970Y-72448390D02*
X81060589Y-72257914D01*
X81060589Y-72257914D02*
X81108208Y-72162676D01*
X81108208Y-72162676D02*
X81203446Y-72067438D01*
X81203446Y-72067438D02*
X81346303Y-72019819D01*
X81346303Y-72019819D02*
X81441541Y-72019819D01*
X81441541Y-72019819D02*
X81584398Y-72067438D01*
X81584398Y-72067438D02*
X81632017Y-72115057D01*
X82251065Y-72019819D02*
X82346303Y-72019819D01*
X82346303Y-72019819D02*
X82441541Y-72067438D01*
X82441541Y-72067438D02*
X82489160Y-72115057D01*
X82489160Y-72115057D02*
X82536779Y-72210295D01*
X82536779Y-72210295D02*
X82584398Y-72400771D01*
X82584398Y-72400771D02*
X82584398Y-72638866D01*
X82584398Y-72638866D02*
X82536779Y-72829342D01*
X82536779Y-72829342D02*
X82489160Y-72924580D01*
X82489160Y-72924580D02*
X82441541Y-72972200D01*
X82441541Y-72972200D02*
X82346303Y-73019819D01*
X82346303Y-73019819D02*
X82251065Y-73019819D01*
X82251065Y-73019819D02*
X82155827Y-72972200D01*
X82155827Y-72972200D02*
X82108208Y-72924580D01*
X82108208Y-72924580D02*
X82060589Y-72829342D01*
X82060589Y-72829342D02*
X82012970Y-72638866D01*
X82012970Y-72638866D02*
X82012970Y-72400771D01*
X82012970Y-72400771D02*
X82060589Y-72210295D01*
X82060589Y-72210295D02*
X82108208Y-72115057D01*
X82108208Y-72115057D02*
X82155827Y-72067438D01*
X82155827Y-72067438D02*
X82251065Y-72019819D01*
X94818200Y-69935960D02*
X94770580Y-70078817D01*
X94770580Y-70078817D02*
X94770580Y-70316912D01*
X94770580Y-70316912D02*
X94818200Y-70412150D01*
X94818200Y-70412150D02*
X94865819Y-70459769D01*
X94865819Y-70459769D02*
X94961057Y-70507388D01*
X94961057Y-70507388D02*
X95056295Y-70507388D01*
X95056295Y-70507388D02*
X95151533Y-70459769D01*
X95151533Y-70459769D02*
X95199152Y-70412150D01*
X95199152Y-70412150D02*
X95246771Y-70316912D01*
X95246771Y-70316912D02*
X95294390Y-70126436D01*
X95294390Y-70126436D02*
X95342009Y-70031198D01*
X95342009Y-70031198D02*
X95389628Y-69983579D01*
X95389628Y-69983579D02*
X95484866Y-69935960D01*
X95484866Y-69935960D02*
X95580104Y-69935960D01*
X95580104Y-69935960D02*
X95675342Y-69983579D01*
X95675342Y-69983579D02*
X95722961Y-70031198D01*
X95722961Y-70031198D02*
X95770580Y-70126436D01*
X95770580Y-70126436D02*
X95770580Y-70364531D01*
X95770580Y-70364531D02*
X95722961Y-70507388D01*
X95294390Y-70935960D02*
X95294390Y-71269293D01*
X94770580Y-71412150D02*
X94770580Y-70935960D01*
X94770580Y-70935960D02*
X95770580Y-70935960D01*
X95770580Y-70935960D02*
X95770580Y-71412150D01*
X95770580Y-71697865D02*
X95770580Y-72269293D01*
X94770580Y-71983579D02*
X95770580Y-71983579D01*
X95770580Y-73364532D02*
X94961057Y-73364532D01*
X94961057Y-73364532D02*
X94865819Y-73412151D01*
X94865819Y-73412151D02*
X94818200Y-73459770D01*
X94818200Y-73459770D02*
X94770580Y-73555008D01*
X94770580Y-73555008D02*
X94770580Y-73745484D01*
X94770580Y-73745484D02*
X94818200Y-73840722D01*
X94818200Y-73840722D02*
X94865819Y-73888341D01*
X94865819Y-73888341D02*
X94961057Y-73935960D01*
X94961057Y-73935960D02*
X95770580Y-73935960D01*
X95056295Y-74364532D02*
X95056295Y-74840722D01*
X94770580Y-74269294D02*
X95770580Y-74602627D01*
X95770580Y-74602627D02*
X94770580Y-74935960D01*
X94770580Y-75840722D02*
X95246771Y-75507389D01*
X94770580Y-75269294D02*
X95770580Y-75269294D01*
X95770580Y-75269294D02*
X95770580Y-75650246D01*
X95770580Y-75650246D02*
X95722961Y-75745484D01*
X95722961Y-75745484D02*
X95675342Y-75793103D01*
X95675342Y-75793103D02*
X95580104Y-75840722D01*
X95580104Y-75840722D02*
X95437247Y-75840722D01*
X95437247Y-75840722D02*
X95342009Y-75793103D01*
X95342009Y-75793103D02*
X95294390Y-75745484D01*
X95294390Y-75745484D02*
X95246771Y-75650246D01*
X95246771Y-75650246D02*
X95246771Y-75269294D01*
X95770580Y-76126437D02*
X95770580Y-76697865D01*
X94770580Y-76412151D02*
X95770580Y-76412151D01*
D15*
X93048390Y-70659309D02*
X93048390Y-71131690D01*
X92764961Y-70564833D02*
X93756961Y-70895499D01*
X93756961Y-70895499D02*
X92764961Y-71226166D01*
X93142866Y-72312643D02*
X93142866Y-73068453D01*
X92764961Y-74816262D02*
X92764961Y-74249405D01*
X92764961Y-74532833D02*
X93756961Y-74532833D01*
X93756961Y-74532833D02*
X93615247Y-74438357D01*
X93615247Y-74438357D02*
X93520771Y-74343881D01*
X93520771Y-74343881D02*
X93473533Y-74249405D01*
X93756961Y-76186167D02*
X93756961Y-76280644D01*
X93756961Y-76280644D02*
X93709723Y-76375120D01*
X93709723Y-76375120D02*
X93662485Y-76422358D01*
X93662485Y-76422358D02*
X93568009Y-76469596D01*
X93568009Y-76469596D02*
X93379057Y-76516834D01*
X93379057Y-76516834D02*
X93142866Y-76516834D01*
X93142866Y-76516834D02*
X92953914Y-76469596D01*
X92953914Y-76469596D02*
X92859438Y-76422358D01*
X92859438Y-76422358D02*
X92812200Y-76375120D01*
X92812200Y-76375120D02*
X92764961Y-76280644D01*
X92764961Y-76280644D02*
X92764961Y-76186167D01*
X92764961Y-76186167D02*
X92812200Y-76091691D01*
X92812200Y-76091691D02*
X92859438Y-76044453D01*
X92859438Y-76044453D02*
X92953914Y-75997215D01*
X92953914Y-75997215D02*
X93142866Y-75949977D01*
X93142866Y-75949977D02*
X93379057Y-75949977D01*
X93379057Y-75949977D02*
X93568009Y-75997215D01*
X93568009Y-75997215D02*
X93662485Y-76044453D01*
X93662485Y-76044453D02*
X93709723Y-76091691D01*
X93709723Y-76091691D02*
X93756961Y-76186167D01*
X91687516Y-71037214D02*
X91640278Y-71178928D01*
X91640278Y-71178928D02*
X91593040Y-71226166D01*
X91593040Y-71226166D02*
X91498564Y-71273404D01*
X91498564Y-71273404D02*
X91356850Y-71273404D01*
X91356850Y-71273404D02*
X91262374Y-71226166D01*
X91262374Y-71226166D02*
X91215136Y-71178928D01*
X91215136Y-71178928D02*
X91167897Y-71084452D01*
X91167897Y-71084452D02*
X91167897Y-70706547D01*
X91167897Y-70706547D02*
X92159897Y-70706547D01*
X92159897Y-70706547D02*
X92159897Y-71037214D01*
X92159897Y-71037214D02*
X92112659Y-71131690D01*
X92112659Y-71131690D02*
X92065421Y-71178928D01*
X92065421Y-71178928D02*
X91970945Y-71226166D01*
X91970945Y-71226166D02*
X91876469Y-71226166D01*
X91876469Y-71226166D02*
X91781993Y-71178928D01*
X91781993Y-71178928D02*
X91734755Y-71131690D01*
X91734755Y-71131690D02*
X91687516Y-71037214D01*
X91687516Y-71037214D02*
X91687516Y-70706547D01*
X91545802Y-72454357D02*
X91545802Y-73210167D01*
X92159897Y-74627309D02*
X92159897Y-74721786D01*
X92159897Y-74721786D02*
X92112659Y-74816262D01*
X92112659Y-74816262D02*
X92065421Y-74863500D01*
X92065421Y-74863500D02*
X91970945Y-74910738D01*
X91970945Y-74910738D02*
X91781993Y-74957976D01*
X91781993Y-74957976D02*
X91545802Y-74957976D01*
X91545802Y-74957976D02*
X91356850Y-74910738D01*
X91356850Y-74910738D02*
X91262374Y-74863500D01*
X91262374Y-74863500D02*
X91215136Y-74816262D01*
X91215136Y-74816262D02*
X91167897Y-74721786D01*
X91167897Y-74721786D02*
X91167897Y-74627309D01*
X91167897Y-74627309D02*
X91215136Y-74532833D01*
X91215136Y-74532833D02*
X91262374Y-74485595D01*
X91262374Y-74485595D02*
X91356850Y-74438357D01*
X91356850Y-74438357D02*
X91545802Y-74391119D01*
X91545802Y-74391119D02*
X91781993Y-74391119D01*
X91781993Y-74391119D02*
X91970945Y-74438357D01*
X91970945Y-74438357D02*
X92065421Y-74485595D01*
X92065421Y-74485595D02*
X92112659Y-74532833D01*
X92112659Y-74532833D02*
X92159897Y-74627309D01*
X91167897Y-76658548D02*
X91167897Y-76091691D01*
X91167897Y-76375119D02*
X92159897Y-76375119D01*
X92159897Y-76375119D02*
X92018183Y-76280643D01*
X92018183Y-76280643D02*
X91923707Y-76186167D01*
X91923707Y-76186167D02*
X91876469Y-76091691D01*
D10*
X124965350Y-75203152D02*
X124965350Y-75869819D01*
X124727255Y-74822200D02*
X124489160Y-75536485D01*
X124489160Y-75536485D02*
X125108207Y-75536485D01*
X76780588Y-61867938D02*
X76685350Y-61820319D01*
X76685350Y-61820319D02*
X76542493Y-61820319D01*
X76542493Y-61820319D02*
X76399636Y-61867938D01*
X76399636Y-61867938D02*
X76304398Y-61963176D01*
X76304398Y-61963176D02*
X76256779Y-62058414D01*
X76256779Y-62058414D02*
X76209160Y-62248890D01*
X76209160Y-62248890D02*
X76209160Y-62391747D01*
X76209160Y-62391747D02*
X76256779Y-62582223D01*
X76256779Y-62582223D02*
X76304398Y-62677461D01*
X76304398Y-62677461D02*
X76399636Y-62772700D01*
X76399636Y-62772700D02*
X76542493Y-62820319D01*
X76542493Y-62820319D02*
X76637731Y-62820319D01*
X76637731Y-62820319D02*
X76780588Y-62772700D01*
X76780588Y-62772700D02*
X76828207Y-62725080D01*
X76828207Y-62725080D02*
X76828207Y-62391747D01*
X76828207Y-62391747D02*
X76637731Y-62391747D01*
X77256779Y-62820319D02*
X77256779Y-61820319D01*
X77256779Y-61820319D02*
X77828207Y-62820319D01*
X77828207Y-62820319D02*
X77828207Y-61820319D01*
X78304398Y-62820319D02*
X78304398Y-61820319D01*
X78304398Y-61820319D02*
X78542493Y-61820319D01*
X78542493Y-61820319D02*
X78685350Y-61867938D01*
X78685350Y-61867938D02*
X78780588Y-61963176D01*
X78780588Y-61963176D02*
X78828207Y-62058414D01*
X78828207Y-62058414D02*
X78875826Y-62248890D01*
X78875826Y-62248890D02*
X78875826Y-62391747D01*
X78875826Y-62391747D02*
X78828207Y-62582223D01*
X78828207Y-62582223D02*
X78780588Y-62677461D01*
X78780588Y-62677461D02*
X78685350Y-62772700D01*
X78685350Y-62772700D02*
X78542493Y-62820319D01*
X78542493Y-62820319D02*
X78304398Y-62820319D01*
X125112969Y-72269819D02*
X124636779Y-72269819D01*
X124636779Y-72269819D02*
X124589160Y-72746009D01*
X124589160Y-72746009D02*
X124636779Y-72698390D01*
X124636779Y-72698390D02*
X124732017Y-72650771D01*
X124732017Y-72650771D02*
X124970112Y-72650771D01*
X124970112Y-72650771D02*
X125065350Y-72698390D01*
X125065350Y-72698390D02*
X125112969Y-72746009D01*
X125112969Y-72746009D02*
X125160588Y-72841247D01*
X125160588Y-72841247D02*
X125160588Y-73079342D01*
X125160588Y-73079342D02*
X125112969Y-73174580D01*
X125112969Y-73174580D02*
X125065350Y-73222200D01*
X125065350Y-73222200D02*
X124970112Y-73269819D01*
X124970112Y-73269819D02*
X124732017Y-73269819D01*
X124732017Y-73269819D02*
X124636779Y-73222200D01*
X124636779Y-73222200D02*
X124589160Y-73174580D01*
X124559636Y-63678390D02*
X124464398Y-63630771D01*
X124464398Y-63630771D02*
X124416779Y-63583152D01*
X124416779Y-63583152D02*
X124369160Y-63487914D01*
X124369160Y-63487914D02*
X124369160Y-63440295D01*
X124369160Y-63440295D02*
X124416779Y-63345057D01*
X124416779Y-63345057D02*
X124464398Y-63297438D01*
X124464398Y-63297438D02*
X124559636Y-63249819D01*
X124559636Y-63249819D02*
X124750112Y-63249819D01*
X124750112Y-63249819D02*
X124845350Y-63297438D01*
X124845350Y-63297438D02*
X124892969Y-63345057D01*
X124892969Y-63345057D02*
X124940588Y-63440295D01*
X124940588Y-63440295D02*
X124940588Y-63487914D01*
X124940588Y-63487914D02*
X124892969Y-63583152D01*
X124892969Y-63583152D02*
X124845350Y-63630771D01*
X124845350Y-63630771D02*
X124750112Y-63678390D01*
X124750112Y-63678390D02*
X124559636Y-63678390D01*
X124559636Y-63678390D02*
X124464398Y-63726009D01*
X124464398Y-63726009D02*
X124416779Y-63773628D01*
X124416779Y-63773628D02*
X124369160Y-63868866D01*
X124369160Y-63868866D02*
X124369160Y-64059342D01*
X124369160Y-64059342D02*
X124416779Y-64154580D01*
X124416779Y-64154580D02*
X124464398Y-64202200D01*
X124464398Y-64202200D02*
X124559636Y-64249819D01*
X124559636Y-64249819D02*
X124750112Y-64249819D01*
X124750112Y-64249819D02*
X124845350Y-64202200D01*
X124845350Y-64202200D02*
X124892969Y-64154580D01*
X124892969Y-64154580D02*
X124940588Y-64059342D01*
X124940588Y-64059342D02*
X124940588Y-63868866D01*
X124940588Y-63868866D02*
X124892969Y-63773628D01*
X124892969Y-63773628D02*
X124845350Y-63726009D01*
X124845350Y-63726009D02*
X124750112Y-63678390D01*
G36*
X80620392Y-63687937D02*
G01*
X80615115Y-63766894D01*
X80600608Y-63830392D01*
X80576123Y-63886696D01*
X80544616Y-63930471D01*
X80504703Y-63964950D01*
X80456810Y-63989516D01*
X80403244Y-64003953D01*
X80341711Y-64008995D01*
X80280781Y-64003640D01*
X80226917Y-63988173D01*
X80178479Y-63962369D01*
X80137096Y-63926685D01*
X80103927Y-63882095D01*
X80078356Y-63826301D01*
X80063031Y-63763729D01*
X80057534Y-63687937D01*
X80155903Y-63687937D01*
X80159478Y-63734062D01*
X80169520Y-63772629D01*
X80186208Y-63807012D01*
X80207805Y-63834483D01*
X80234655Y-63856239D01*
X80266545Y-63872035D01*
X80301893Y-63881424D01*
X80341711Y-63884675D01*
X80397126Y-63878763D01*
X80440748Y-63862356D01*
X80475251Y-63836193D01*
X80500310Y-63800867D01*
X80516669Y-63752795D01*
X80522756Y-63687937D01*
X80522756Y-63554764D01*
X80155903Y-63554764D01*
X80155903Y-63687937D01*
X80057534Y-63687937D01*
X80057534Y-63554764D01*
X79722800Y-63554764D01*
X79722800Y-63430444D01*
X80620392Y-63430444D01*
X80620392Y-63687937D01*
G37*
G36*
X80238034Y-64105646D02*
G01*
X80299422Y-64115764D01*
X80356365Y-64132215D01*
X80410843Y-64155380D01*
X80459139Y-64183612D01*
X80501873Y-64216906D01*
X80539564Y-64255706D01*
X80571130Y-64299269D01*
X80596823Y-64348065D01*
X80615399Y-64400034D01*
X80626759Y-64456038D01*
X80630650Y-64516775D01*
X80626743Y-64578001D01*
X80615369Y-64634113D01*
X80596823Y-64685853D01*
X80571131Y-64734435D01*
X80539566Y-64777773D01*
X80501873Y-64816339D01*
X80459153Y-64849390D01*
X80410859Y-64877400D01*
X80356365Y-64900359D01*
X80299435Y-64916640D01*
X80238045Y-64926657D01*
X80171596Y-64930095D01*
X80104694Y-64926645D01*
X80043194Y-64916617D01*
X79986460Y-64900359D01*
X79932216Y-64877404D01*
X79884145Y-64849395D01*
X79841624Y-64816339D01*
X79804186Y-64777803D01*
X79772737Y-64734465D01*
X79747041Y-64685853D01*
X79728494Y-64634113D01*
X79717120Y-64578001D01*
X79713213Y-64516775D01*
X79820497Y-64516775D01*
X79826646Y-64580083D01*
X79844371Y-64635294D01*
X79873634Y-64684250D01*
X79913736Y-64725481D01*
X79963081Y-64757917D01*
X80024378Y-64782878D01*
X80092123Y-64797755D01*
X80171596Y-64803028D01*
X80251115Y-64797753D01*
X80318813Y-64782878D01*
X80380153Y-64757911D01*
X80429455Y-64725481D01*
X80469625Y-64684262D01*
X80499125Y-64635294D01*
X80517173Y-64580061D01*
X80523428Y-64516775D01*
X80517173Y-64453490D01*
X80499125Y-64398257D01*
X80469639Y-64349231D01*
X80429455Y-64307765D01*
X80380129Y-64275097D01*
X80318813Y-64250062D01*
X80251115Y-64235187D01*
X80171596Y-64229912D01*
X80092123Y-64235185D01*
X80024378Y-64250062D01*
X79963105Y-64275090D01*
X79913736Y-64307765D01*
X79873620Y-64349243D01*
X79844371Y-64398257D01*
X79826646Y-64453468D01*
X79820497Y-64516775D01*
X79713213Y-64516775D01*
X79717104Y-64456038D01*
X79728464Y-64400034D01*
X79747041Y-64348065D01*
X79772738Y-64299239D01*
X79804188Y-64255677D01*
X79841624Y-64216906D01*
X79884159Y-64183606D01*
X79932231Y-64155376D01*
X79986460Y-64132215D01*
X80043207Y-64115787D01*
X80104706Y-64105658D01*
X80171596Y-64102173D01*
X80238034Y-64105646D01*
G37*
G36*
X80620392Y-64972655D02*
G01*
X80620392Y-65077191D01*
X80618356Y-65091996D01*
X80612515Y-65104118D01*
X80603383Y-65113469D01*
X80591754Y-65118834D01*
X79972110Y-65293040D01*
X79895601Y-65310809D01*
X79936268Y-65319663D01*
X79972843Y-65329921D01*
X80591022Y-65530078D01*
X80601743Y-65535369D01*
X80611538Y-65545099D01*
X80618140Y-65557650D01*
X80620392Y-65572454D01*
X80620392Y-65608663D01*
X80618312Y-65623949D01*
X80612515Y-65635591D01*
X80603455Y-65644555D01*
X80591754Y-65650307D01*
X79972110Y-65850464D01*
X79936939Y-65860722D01*
X79897677Y-65869576D01*
X79937306Y-65877819D01*
X79972110Y-65886673D01*
X80591022Y-66060207D01*
X80601720Y-66065555D01*
X80611538Y-66075533D01*
X80618147Y-66088349D01*
X80620392Y-66103255D01*
X80620392Y-66200891D01*
X79722800Y-65928377D01*
X79722800Y-65815659D01*
X80403199Y-65599748D01*
X80424021Y-65593276D01*
X80448262Y-65586803D01*
X80424021Y-65580942D01*
X80403199Y-65574469D01*
X79722800Y-65357276D01*
X79722800Y-65245230D01*
X80620392Y-64972655D01*
G37*
G36*
X80620392Y-66832808D02*
G01*
X80519336Y-66832808D01*
X80519336Y-66433227D01*
X80224902Y-66433227D01*
X80224902Y-66754956D01*
X80127205Y-66754956D01*
X80127205Y-66433227D01*
X79823916Y-66433227D01*
X79823916Y-66833480D01*
X79722800Y-66832808D01*
X79722800Y-66308175D01*
X80620392Y-66308175D01*
X80620392Y-66832808D01*
G37*
G36*
X80620392Y-67238374D02*
G01*
X80615720Y-67317367D01*
X80602990Y-67380095D01*
X80581150Y-67435883D01*
X80553103Y-67478464D01*
X80517184Y-67512119D01*
X80474579Y-67535556D01*
X80426585Y-67549219D01*
X80371081Y-67553996D01*
X80325029Y-67550412D01*
X80282970Y-67539952D01*
X80243914Y-67522815D01*
X80209209Y-67499652D01*
X80178957Y-67470655D01*
X80152850Y-67435111D01*
X80132331Y-67394890D01*
X80116946Y-67348344D01*
X80100216Y-67370204D01*
X80078051Y-67390048D01*
X79722800Y-67631177D01*
X79722800Y-67520535D01*
X79729185Y-67491875D01*
X79748079Y-67470648D01*
X80067793Y-67258218D01*
X80089286Y-67235992D01*
X80090091Y-67233611D01*
X80186617Y-67233611D01*
X80189960Y-67281020D01*
X80199256Y-67320012D01*
X80214841Y-67354795D01*
X80235099Y-67382538D01*
X80260609Y-67404627D01*
X80290786Y-67420457D01*
X80324401Y-67429849D01*
X80362227Y-67433096D01*
X80412033Y-67427502D01*
X80450394Y-67412070D01*
X80480041Y-67387450D01*
X80502373Y-67352421D01*
X80517196Y-67304109D01*
X80522756Y-67238374D01*
X80522756Y-67116802D01*
X80186617Y-67116802D01*
X80186617Y-67233611D01*
X80090091Y-67233611D01*
X80093889Y-67222374D01*
X80095758Y-67200150D01*
X80095758Y-67116802D01*
X79722800Y-67116802D01*
X79722800Y-66992482D01*
X80620392Y-66992482D01*
X80620392Y-67238374D01*
G37*
G36*
X112180092Y-70705076D02*
G01*
X112176349Y-70765417D01*
X112165447Y-70820853D01*
X112147669Y-70872077D01*
X112122933Y-70920310D01*
X112092593Y-70963192D01*
X112056444Y-71001221D01*
X112015276Y-71033839D01*
X111968261Y-71061631D01*
X111914722Y-71084569D01*
X111858669Y-71100818D01*
X111797746Y-71110850D01*
X111731296Y-71114305D01*
X111664392Y-71110838D01*
X111603360Y-71100795D01*
X111547503Y-71084569D01*
X111494191Y-71061663D01*
X111447164Y-71033876D01*
X111405781Y-71001221D01*
X111369509Y-70963166D01*
X111339195Y-70920284D01*
X111314617Y-70872077D01*
X111297011Y-70820867D01*
X111286208Y-70765429D01*
X111282500Y-70705076D01*
X111382944Y-70705076D01*
X111389012Y-70767084D01*
X111406514Y-70821214D01*
X111435297Y-70869271D01*
X111474780Y-70909996D01*
X111523508Y-70942094D01*
X111584445Y-70966721D01*
X111651850Y-70981319D01*
X111731296Y-70986505D01*
X111810750Y-70981311D01*
X111877841Y-70966721D01*
X111938513Y-70942128D01*
X111987445Y-70909996D01*
X112027273Y-70869240D01*
X112056139Y-70821214D01*
X112073641Y-70767084D01*
X112079708Y-70705076D01*
X112079708Y-70519940D01*
X111382944Y-70519940D01*
X111382944Y-70705076D01*
X111282500Y-70705076D01*
X111282500Y-70394949D01*
X112180092Y-70394949D01*
X112180092Y-70705076D01*
G37*
G36*
X111282500Y-71399092D02*
G01*
X111282500Y-71274773D01*
X112180092Y-71274773D01*
X112180092Y-71399092D01*
X111282500Y-71399092D01*
G37*
G36*
X111369267Y-72322880D02*
G01*
X111326721Y-72254776D01*
X111296849Y-72183173D01*
X111279058Y-72107004D01*
X111272913Y-72022339D01*
X111276817Y-71953281D01*
X111288114Y-71890579D01*
X111306374Y-71833417D01*
X111332071Y-71779325D01*
X111363363Y-71731602D01*
X111400347Y-71689619D01*
X111442906Y-71653334D01*
X111490962Y-71622856D01*
X111545122Y-71598089D01*
X111602203Y-71580511D01*
X111664033Y-71569691D01*
X111731296Y-71565971D01*
X111799051Y-71569583D01*
X111861102Y-71580067D01*
X111918142Y-71597051D01*
X111972425Y-71621123D01*
X112020495Y-71650718D01*
X112062978Y-71685894D01*
X112100013Y-71726717D01*
X112131273Y-71773067D01*
X112156889Y-71825540D01*
X112175156Y-71881135D01*
X112186449Y-71942127D01*
X112190350Y-72009333D01*
X112188305Y-72060195D01*
X112182473Y-72105321D01*
X112172785Y-72148305D01*
X112159942Y-72186959D01*
X112143536Y-72223289D01*
X112124099Y-72256263D01*
X112076960Y-72315369D01*
X112020968Y-72280565D01*
X112009717Y-72270786D01*
X112003871Y-72258644D01*
X112003597Y-72245028D01*
X112010038Y-72229335D01*
X112031531Y-72194774D01*
X112055406Y-72150078D01*
X112074884Y-72088590D01*
X112080909Y-72051392D01*
X112083128Y-72004570D01*
X112076784Y-71935846D01*
X112058520Y-71875793D01*
X112028513Y-71822206D01*
X111988117Y-71777424D01*
X111938301Y-71741914D01*
X111877109Y-71714898D01*
X111809496Y-71698723D01*
X111731296Y-71693039D01*
X111649956Y-71699020D01*
X111580659Y-71715936D01*
X111518419Y-71744237D01*
X111467941Y-71781516D01*
X111427437Y-71828355D01*
X111397599Y-71884281D01*
X111379628Y-71946856D01*
X111373358Y-72018920D01*
X111376858Y-72074544D01*
X111386669Y-72121379D01*
X111402503Y-72165789D01*
X111423916Y-72210162D01*
X111620654Y-72210162D01*
X111620654Y-72081079D01*
X111622450Y-72069703D01*
X111627493Y-72061235D01*
X111635167Y-72055604D01*
X111644528Y-72053724D01*
X111714931Y-72053724D01*
X111714931Y-72322880D01*
X111369267Y-72322880D01*
G37*
G36*
X111282500Y-72634961D02*
G01*
X111282500Y-72510642D01*
X112180092Y-72510642D01*
X112180092Y-72634961D01*
X111282500Y-72634961D01*
G37*
G36*
X112180092Y-73414645D02*
G01*
X112076289Y-73414645D01*
X112076289Y-73153000D01*
X111282500Y-73153000D01*
X111282500Y-73028009D01*
X112076289Y-73028009D01*
X112076289Y-72765692D01*
X112180092Y-72765692D01*
X112180092Y-73414645D01*
G37*
G36*
X112180092Y-73664017D02*
G01*
X112180092Y-73790413D01*
X111282500Y-74126491D01*
X111282500Y-74030137D01*
X111284675Y-74014981D01*
X111290682Y-74003881D01*
X111311198Y-73988494D01*
X111527048Y-73911985D01*
X111527048Y-73880539D01*
X111615891Y-73880539D01*
X111977248Y-73753532D01*
X112015472Y-73739855D01*
X112062611Y-73726849D01*
X112014801Y-73713171D01*
X111976577Y-73700226D01*
X111615891Y-73573159D01*
X111615891Y-73880539D01*
X111527048Y-73880539D01*
X111527048Y-73541713D01*
X111311870Y-73465936D01*
X111291353Y-73450488D01*
X111284765Y-73438296D01*
X111282500Y-73423560D01*
X111282500Y-73327267D01*
X112180092Y-73664017D01*
G37*
G36*
X111387035Y-74350279D02*
G01*
X111387035Y-74696615D01*
X111282500Y-74696615D01*
X111282500Y-74225959D01*
X112180092Y-74225959D01*
X112180092Y-74350279D01*
X111387035Y-74350279D01*
G37*
G36*
X111282500Y-75273761D02*
G01*
X111282500Y-75149441D01*
X112180092Y-75149441D01*
X112180092Y-75273761D01*
X111282500Y-75273761D01*
G37*
G36*
X111268822Y-75496693D02*
G01*
X111248284Y-75484626D01*
X111234384Y-75468667D01*
X111225849Y-75449679D01*
X111223087Y-75430443D01*
X111223087Y-75379884D01*
X112210195Y-75821170D01*
X112234859Y-75836096D01*
X112248964Y-75856465D01*
X112253914Y-75884002D01*
X112253914Y-75934560D01*
X111268822Y-75496693D01*
G37*
G36*
X111797734Y-75981019D02*
G01*
X111859122Y-75991137D01*
X111916065Y-76007588D01*
X111970543Y-76030754D01*
X112018839Y-76058986D01*
X112061573Y-76092280D01*
X112099264Y-76131080D01*
X112130830Y-76174642D01*
X112156523Y-76223438D01*
X112175099Y-76275407D01*
X112186459Y-76331411D01*
X112190350Y-76392149D01*
X112186443Y-76453375D01*
X112175069Y-76509487D01*
X112156523Y-76561226D01*
X112130831Y-76609808D01*
X112099266Y-76653147D01*
X112061573Y-76691713D01*
X112018853Y-76724763D01*
X111970559Y-76752773D01*
X111916065Y-76775732D01*
X111859135Y-76792013D01*
X111797745Y-76802030D01*
X111731296Y-76805469D01*
X111664394Y-76802019D01*
X111602894Y-76791991D01*
X111546160Y-76775732D01*
X111491916Y-76752777D01*
X111443845Y-76724769D01*
X111401324Y-76691713D01*
X111363886Y-76653176D01*
X111332437Y-76609838D01*
X111306741Y-76561226D01*
X111288194Y-76509487D01*
X111276820Y-76453375D01*
X111272913Y-76392149D01*
X111380197Y-76392149D01*
X111386346Y-76455457D01*
X111404071Y-76510668D01*
X111433334Y-76559623D01*
X111473436Y-76600854D01*
X111522781Y-76633290D01*
X111584078Y-76658251D01*
X111651823Y-76673129D01*
X111731296Y-76678401D01*
X111810815Y-76673126D01*
X111878513Y-76658251D01*
X111939853Y-76633284D01*
X111989155Y-76600854D01*
X112029325Y-76559635D01*
X112058825Y-76510668D01*
X112076873Y-76455434D01*
X112083128Y-76392149D01*
X112076873Y-76328864D01*
X112058825Y-76273630D01*
X112029339Y-76224605D01*
X111989155Y-76183138D01*
X111939829Y-76150470D01*
X111878513Y-76125436D01*
X111810815Y-76110561D01*
X111731296Y-76105286D01*
X111651823Y-76110558D01*
X111584078Y-76125436D01*
X111522805Y-76150464D01*
X111473436Y-76183138D01*
X111433320Y-76224617D01*
X111404071Y-76273630D01*
X111386346Y-76328841D01*
X111380197Y-76392149D01*
X111272913Y-76392149D01*
X111276804Y-76331411D01*
X111288164Y-76275407D01*
X111306741Y-76223438D01*
X111332438Y-76174612D01*
X111363888Y-76131051D01*
X111401324Y-76092280D01*
X111443859Y-76058980D01*
X111491931Y-76030749D01*
X111546160Y-76007588D01*
X111602907Y-75991160D01*
X111664406Y-75981031D01*
X111731296Y-75977547D01*
X111797734Y-75981019D01*
G37*
G36*
X84542592Y-71562745D02*
G01*
X84542592Y-71689140D01*
X83645000Y-72025219D01*
X83645000Y-71928865D01*
X83647175Y-71913709D01*
X83653182Y-71902609D01*
X83673698Y-71887221D01*
X83889548Y-71810712D01*
X83889548Y-71779266D01*
X83978391Y-71779266D01*
X84339748Y-71652260D01*
X84377972Y-71638582D01*
X84425111Y-71625576D01*
X84377301Y-71611899D01*
X84339077Y-71598954D01*
X83978391Y-71471886D01*
X83978391Y-71779266D01*
X83889548Y-71779266D01*
X83889548Y-71440440D01*
X83674370Y-71364664D01*
X83653853Y-71349215D01*
X83647265Y-71337023D01*
X83645000Y-71322288D01*
X83645000Y-71225995D01*
X84542592Y-71562745D01*
G37*
G36*
X84542592Y-72196433D02*
G01*
X84538806Y-72220308D01*
X84521465Y-72238748D01*
X83849919Y-72726501D01*
X83882404Y-72724120D01*
X83912079Y-72723081D01*
X84542592Y-72723081D01*
X84542592Y-72832380D01*
X83645000Y-72832380D01*
X83645000Y-72769549D01*
X83649762Y-72745308D01*
X83666859Y-72725829D01*
X84336329Y-72238076D01*
X84306226Y-72240091D01*
X84278932Y-72240824D01*
X83645000Y-72240824D01*
X83645000Y-72131525D01*
X84542592Y-72131525D01*
X84542592Y-72196433D01*
G37*
G36*
X84542592Y-73276353D02*
G01*
X84542592Y-73402748D01*
X83645000Y-73738826D01*
X83645000Y-73642473D01*
X83647175Y-73627317D01*
X83653182Y-73616217D01*
X83673698Y-73600829D01*
X83889548Y-73524320D01*
X83889548Y-73492874D01*
X83978391Y-73492874D01*
X84339748Y-73365868D01*
X84377972Y-73352190D01*
X84425111Y-73339184D01*
X84377301Y-73325506D01*
X84339077Y-73312562D01*
X83978391Y-73185494D01*
X83978391Y-73492874D01*
X83889548Y-73492874D01*
X83889548Y-73154048D01*
X83674370Y-73078272D01*
X83653853Y-73062823D01*
X83647265Y-73050631D01*
X83645000Y-73035896D01*
X83645000Y-72939603D01*
X84542592Y-73276353D01*
G37*
G36*
X83749535Y-73962614D02*
G01*
X83749535Y-74308950D01*
X83645000Y-74308950D01*
X83645000Y-73838294D01*
X84542592Y-73838294D01*
X84542592Y-73962614D01*
X83749535Y-73962614D01*
G37*
G36*
X84160234Y-74353578D02*
G01*
X84221622Y-74363696D01*
X84278565Y-74380147D01*
X84333043Y-74403312D01*
X84381339Y-74431544D01*
X84424073Y-74464838D01*
X84461764Y-74503638D01*
X84493330Y-74547201D01*
X84519023Y-74595997D01*
X84537599Y-74647966D01*
X84548959Y-74703970D01*
X84552850Y-74764707D01*
X84548943Y-74825933D01*
X84537569Y-74882045D01*
X84519023Y-74933785D01*
X84493331Y-74982367D01*
X84461766Y-75025705D01*
X84424073Y-75064271D01*
X84381353Y-75097322D01*
X84333059Y-75125332D01*
X84278565Y-75148291D01*
X84221635Y-75164572D01*
X84160245Y-75174589D01*
X84093796Y-75178027D01*
X84026894Y-75174577D01*
X83965394Y-75164549D01*
X83908660Y-75148291D01*
X83854416Y-75125336D01*
X83806345Y-75097327D01*
X83763824Y-75064271D01*
X83726386Y-75025735D01*
X83694937Y-74982397D01*
X83669241Y-74933785D01*
X83650694Y-74882045D01*
X83639320Y-74825933D01*
X83635413Y-74764707D01*
X83742697Y-74764707D01*
X83748846Y-74828015D01*
X83766571Y-74883226D01*
X83795834Y-74932182D01*
X83835936Y-74973413D01*
X83885281Y-75005849D01*
X83946578Y-75030810D01*
X84014323Y-75045687D01*
X84093796Y-75050960D01*
X84173315Y-75045685D01*
X84241013Y-75030810D01*
X84302353Y-75005843D01*
X84351655Y-74973413D01*
X84391825Y-74932194D01*
X84421325Y-74883226D01*
X84439373Y-74827993D01*
X84445628Y-74764707D01*
X84439373Y-74701422D01*
X84421325Y-74646189D01*
X84391839Y-74597163D01*
X84351655Y-74555697D01*
X84302329Y-74523028D01*
X84241013Y-74497994D01*
X84173315Y-74483119D01*
X84093796Y-74477844D01*
X84014323Y-74483117D01*
X83946578Y-74497994D01*
X83885305Y-74523022D01*
X83835936Y-74555697D01*
X83795820Y-74597175D01*
X83766571Y-74646189D01*
X83748846Y-74701400D01*
X83742697Y-74764707D01*
X83635413Y-74764707D01*
X83639304Y-74703970D01*
X83650664Y-74647966D01*
X83669241Y-74595997D01*
X83694938Y-74547171D01*
X83726388Y-74503609D01*
X83763824Y-74464838D01*
X83806359Y-74431538D01*
X83854431Y-74403308D01*
X83908660Y-74380147D01*
X83965407Y-74363719D01*
X84026906Y-74353590D01*
X84093796Y-74350105D01*
X84160234Y-74353578D01*
G37*
G36*
X83731767Y-76036541D02*
G01*
X83689221Y-75968437D01*
X83659349Y-75896834D01*
X83641558Y-75820666D01*
X83635413Y-75736000D01*
X83639317Y-75666942D01*
X83650614Y-75604240D01*
X83668874Y-75547078D01*
X83694571Y-75492986D01*
X83725863Y-75445263D01*
X83762847Y-75403280D01*
X83805406Y-75366995D01*
X83853462Y-75336517D01*
X83907622Y-75311750D01*
X83964703Y-75294172D01*
X84026533Y-75283352D01*
X84093796Y-75279632D01*
X84161551Y-75283244D01*
X84223602Y-75293728D01*
X84280642Y-75310712D01*
X84334925Y-75334784D01*
X84382995Y-75364380D01*
X84425478Y-75399556D01*
X84462513Y-75440378D01*
X84493773Y-75486728D01*
X84519389Y-75539202D01*
X84537656Y-75594796D01*
X84548949Y-75655788D01*
X84552850Y-75722994D01*
X84550805Y-75773856D01*
X84544973Y-75818982D01*
X84535285Y-75861966D01*
X84522442Y-75900620D01*
X84506036Y-75936950D01*
X84486599Y-75969924D01*
X84439460Y-76029031D01*
X84383468Y-75994226D01*
X84372217Y-75984447D01*
X84366371Y-75972305D01*
X84366097Y-75958689D01*
X84372538Y-75942996D01*
X84394031Y-75908436D01*
X84417906Y-75863739D01*
X84437384Y-75802251D01*
X84443409Y-75765053D01*
X84445628Y-75718232D01*
X84439284Y-75649508D01*
X84421020Y-75589454D01*
X84391013Y-75535868D01*
X84350617Y-75491086D01*
X84300801Y-75455575D01*
X84239609Y-75428560D01*
X84171996Y-75412384D01*
X84093796Y-75406700D01*
X84012456Y-75412681D01*
X83943159Y-75429598D01*
X83880919Y-75457898D01*
X83830441Y-75495177D01*
X83789937Y-75542016D01*
X83760099Y-75597942D01*
X83742128Y-75660518D01*
X83735858Y-75732581D01*
X83739358Y-75788205D01*
X83749169Y-75835041D01*
X83765003Y-75879450D01*
X83786416Y-75923823D01*
X83983154Y-75923823D01*
X83983154Y-75794741D01*
X83984950Y-75783364D01*
X83989993Y-75774896D01*
X83997667Y-75769265D01*
X84007028Y-75767385D01*
X84077431Y-75767385D01*
X84077431Y-76036541D01*
X83731767Y-76036541D01*
G37*
G36*
X83645000Y-76664184D02*
G01*
X83645000Y-76539864D01*
X84542592Y-76539864D01*
X84542592Y-76664184D01*
X83645000Y-76664184D01*
G37*
G36*
X84160234Y-76831177D02*
G01*
X84221622Y-76841296D01*
X84278565Y-76857747D01*
X84333043Y-76880912D01*
X84381339Y-76909144D01*
X84424073Y-76942438D01*
X84461764Y-76981238D01*
X84493330Y-77024800D01*
X84519023Y-77073596D01*
X84537599Y-77125565D01*
X84548959Y-77181569D01*
X84552850Y-77242307D01*
X84548943Y-77303533D01*
X84537569Y-77359645D01*
X84519023Y-77411384D01*
X84493331Y-77459966D01*
X84461766Y-77503305D01*
X84424073Y-77541871D01*
X84381353Y-77574921D01*
X84333059Y-77602931D01*
X84278565Y-77625890D01*
X84221635Y-77642171D01*
X84160245Y-77652188D01*
X84093796Y-77655627D01*
X84026894Y-77652177D01*
X83965394Y-77642149D01*
X83908660Y-77625890D01*
X83854416Y-77602935D01*
X83806345Y-77574927D01*
X83763824Y-77541871D01*
X83726386Y-77503334D01*
X83694937Y-77459996D01*
X83669241Y-77411384D01*
X83650694Y-77359645D01*
X83639320Y-77303533D01*
X83635413Y-77242307D01*
X83742697Y-77242307D01*
X83748846Y-77305615D01*
X83766571Y-77360826D01*
X83795834Y-77409781D01*
X83835936Y-77451012D01*
X83885281Y-77483448D01*
X83946578Y-77508409D01*
X84014323Y-77523287D01*
X84093796Y-77528560D01*
X84173315Y-77523285D01*
X84241013Y-77508409D01*
X84302353Y-77483442D01*
X84351655Y-77451012D01*
X84391825Y-77409793D01*
X84421325Y-77360826D01*
X84439373Y-77305592D01*
X84445628Y-77242307D01*
X84439373Y-77179022D01*
X84421325Y-77123788D01*
X84391839Y-77074763D01*
X84351655Y-77033296D01*
X84302329Y-77000628D01*
X84241013Y-76975594D01*
X84173315Y-76960719D01*
X84093796Y-76955444D01*
X84014323Y-76960716D01*
X83946578Y-76975594D01*
X83885305Y-77000622D01*
X83835936Y-77033296D01*
X83795820Y-77074775D01*
X83766571Y-77123788D01*
X83748846Y-77178999D01*
X83742697Y-77242307D01*
X83635413Y-77242307D01*
X83639304Y-77181569D01*
X83650664Y-77125565D01*
X83669241Y-77073596D01*
X83694938Y-77024771D01*
X83726388Y-76981209D01*
X83763824Y-76942438D01*
X83806359Y-76909138D01*
X83854431Y-76880907D01*
X83908660Y-76857747D01*
X83965407Y-76841318D01*
X84026906Y-76831189D01*
X84093796Y-76827705D01*
X84160234Y-76831177D01*
G37*
X124740588Y-53859819D02*
X124169160Y-53859819D01*
X124454874Y-53859819D02*
X124454874Y-52859819D01*
X124454874Y-52859819D02*
X124359636Y-53002676D01*
X124359636Y-53002676D02*
X124264398Y-53097914D01*
X124264398Y-53097914D02*
X124169160Y-53145533D01*
X125121541Y-52955057D02*
X125169160Y-52907438D01*
X125169160Y-52907438D02*
X125264398Y-52859819D01*
X125264398Y-52859819D02*
X125502493Y-52859819D01*
X125502493Y-52859819D02*
X125597731Y-52907438D01*
X125597731Y-52907438D02*
X125645350Y-52955057D01*
X125645350Y-52955057D02*
X125692969Y-53050295D01*
X125692969Y-53050295D02*
X125692969Y-53145533D01*
X125692969Y-53145533D02*
X125645350Y-53288390D01*
X125645350Y-53288390D02*
X125073922Y-53859819D01*
X125073922Y-53859819D02*
X125692969Y-53859819D01*
X124541541Y-77169819D02*
X125160588Y-77169819D01*
X125160588Y-77169819D02*
X124827255Y-77550771D01*
X124827255Y-77550771D02*
X124970112Y-77550771D01*
X124970112Y-77550771D02*
X125065350Y-77598390D01*
X125065350Y-77598390D02*
X125112969Y-77646009D01*
X125112969Y-77646009D02*
X125160588Y-77741247D01*
X125160588Y-77741247D02*
X125160588Y-77979342D01*
X125160588Y-77979342D02*
X125112969Y-78074580D01*
X125112969Y-78074580D02*
X125065350Y-78122200D01*
X125065350Y-78122200D02*
X124970112Y-78169819D01*
X124970112Y-78169819D02*
X124684398Y-78169819D01*
X124684398Y-78169819D02*
X124589160Y-78122200D01*
X124589160Y-78122200D02*
X124541541Y-78074580D01*
X95281979Y-32874009D02*
X95615312Y-32874009D01*
X95758169Y-33397819D02*
X95281979Y-33397819D01*
X95281979Y-33397819D02*
X95281979Y-32397819D01*
X95281979Y-32397819D02*
X95758169Y-32397819D01*
X96091503Y-32397819D02*
X96758169Y-33397819D01*
X96758169Y-32397819D02*
X96091503Y-33397819D01*
X96996265Y-32397819D02*
X97567693Y-32397819D01*
X97281979Y-33397819D02*
X97281979Y-32397819D01*
X117379979Y-45589819D02*
X117379979Y-44589819D01*
X117379979Y-45066009D02*
X117951407Y-45066009D01*
X117951407Y-45589819D02*
X117951407Y-44589819D01*
X90954819Y-39861904D02*
X91764342Y-39861904D01*
X91764342Y-39861904D02*
X91859580Y-39814285D01*
X91859580Y-39814285D02*
X91907200Y-39766666D01*
X91907200Y-39766666D02*
X91954819Y-39671428D01*
X91954819Y-39671428D02*
X91954819Y-39480952D01*
X91954819Y-39480952D02*
X91907200Y-39385714D01*
X91907200Y-39385714D02*
X91859580Y-39338095D01*
X91859580Y-39338095D02*
X91764342Y-39290476D01*
X91764342Y-39290476D02*
X90954819Y-39290476D01*
X90954819Y-38909523D02*
X90954819Y-38290476D01*
X90954819Y-38290476D02*
X91335771Y-38623809D01*
X91335771Y-38623809D02*
X91335771Y-38480952D01*
X91335771Y-38480952D02*
X91383390Y-38385714D01*
X91383390Y-38385714D02*
X91431009Y-38338095D01*
X91431009Y-38338095D02*
X91526247Y-38290476D01*
X91526247Y-38290476D02*
X91764342Y-38290476D01*
X91764342Y-38290476D02*
X91859580Y-38338095D01*
X91859580Y-38338095D02*
X91907200Y-38385714D01*
X91907200Y-38385714D02*
X91954819Y-38480952D01*
X91954819Y-38480952D02*
X91954819Y-38766666D01*
X91954819Y-38766666D02*
X91907200Y-38861904D01*
X91907200Y-38861904D02*
X91859580Y-38909523D01*
X112264819Y-40584285D02*
X112264819Y-41155713D01*
X112264819Y-40869999D02*
X111264819Y-40869999D01*
X111264819Y-40869999D02*
X111407676Y-40965237D01*
X111407676Y-40965237D02*
X111502914Y-41060475D01*
X111502914Y-41060475D02*
X111550533Y-41155713D01*
D16*
%TO.C,U3*%
X90410000Y-37250000D02*
X90410000Y-41010000D01*
X83590000Y-37250000D02*
X83590000Y-41010000D01*
X90410000Y-41010000D02*
X89150000Y-41010000D01*
X83590000Y-41010000D02*
X84850000Y-41010000D01*
X90640000Y-36210000D02*
X90310000Y-35970000D01*
X90640000Y-35730000D01*
X90640000Y-36210000D01*
G36*
X90640000Y-36210000D02*
G01*
X90310000Y-35970000D01*
X90640000Y-35730000D01*
X90640000Y-36210000D01*
G37*
D11*
%TO.C,G\u002A\u002A\u002A*%
G36*
X87428960Y-62345132D02*
G01*
X87424036Y-62422944D01*
X87399489Y-62462065D01*
X87340654Y-62483645D01*
X87331383Y-62485875D01*
X87233806Y-62508909D01*
X87323877Y-62525934D01*
X87381330Y-62543118D01*
X87409592Y-62578486D01*
X87421640Y-62651070D01*
X87423241Y-62671659D01*
X87432534Y-62800358D01*
X87183052Y-62791609D01*
X87060492Y-62786146D01*
X86985538Y-62777871D01*
X86945753Y-62763122D01*
X86928701Y-62738236D01*
X86923976Y-62715307D01*
X86923537Y-62676020D01*
X86945876Y-62655310D01*
X87004847Y-62646614D01*
X87074094Y-62644187D01*
X87233806Y-62640621D01*
X87083688Y-62605172D01*
X86988182Y-62576473D01*
X86939191Y-62543023D01*
X86924313Y-62506225D01*
X86926657Y-62467724D01*
X86956466Y-62442650D01*
X87026943Y-62422863D01*
X87074431Y-62413700D01*
X87233806Y-62384674D01*
X87076182Y-62381108D01*
X86984254Y-62376743D01*
X86937365Y-62364067D01*
X86920515Y-62335596D01*
X86918558Y-62302482D01*
X86920901Y-62266135D01*
X86935856Y-62243952D01*
X86975312Y-62232437D01*
X87051156Y-62228093D01*
X87173759Y-62227423D01*
X87428960Y-62227423D01*
X87428960Y-62345132D01*
G37*
G36*
X87017271Y-62832594D02*
G01*
X87108665Y-62844914D01*
X87158747Y-62852704D01*
X87219777Y-62862197D01*
X87220517Y-62862319D01*
X87428960Y-62896743D01*
X87428960Y-63025426D01*
X87427668Y-63090588D01*
X87416462Y-63133654D01*
X87384348Y-63162041D01*
X87320331Y-63183167D01*
X87213417Y-63204451D01*
X87145727Y-63216529D01*
X87031081Y-63236514D01*
X86963376Y-63243742D01*
X86930277Y-63235045D01*
X86919450Y-63207252D01*
X86918558Y-63158156D01*
X86931985Y-63086648D01*
X86963594Y-63068085D01*
X87003548Y-63051873D01*
X87008629Y-63038061D01*
X86991248Y-63019023D01*
X87134035Y-63019023D01*
X87138732Y-63028053D01*
X87174363Y-63031646D01*
X87178763Y-63028053D01*
X87174642Y-63010204D01*
X87158747Y-63008037D01*
X87134035Y-63019023D01*
X86991248Y-63019023D01*
X86984311Y-63011425D01*
X86963594Y-63008037D01*
X86927840Y-62981184D01*
X86918558Y-62917967D01*
X86931201Y-62847597D01*
X86965316Y-62827896D01*
X87017271Y-62832594D01*
G37*
G36*
X86988081Y-63282087D02*
G01*
X87043752Y-63290593D01*
X87142287Y-63305700D01*
X87205710Y-63311220D01*
X87258163Y-63307307D01*
X87323786Y-63294114D01*
X87331383Y-63292428D01*
X87397661Y-63281765D01*
X87424101Y-63299787D01*
X87428956Y-63359991D01*
X87428960Y-63364568D01*
X87420794Y-63431671D01*
X87388067Y-63457477D01*
X87361407Y-63460295D01*
X87293854Y-63462198D01*
X87361407Y-63489351D01*
X87417482Y-63538168D01*
X87428960Y-63595743D01*
X87421135Y-63651164D01*
X87390767Y-63659386D01*
X87376419Y-63654655D01*
X87234569Y-63619282D01*
X87105070Y-63633119D01*
X87055420Y-63650877D01*
X86973546Y-63684401D01*
X86933182Y-63692296D01*
X86919721Y-63670295D01*
X86918556Y-63614130D01*
X86918558Y-63610896D01*
X86928225Y-63547239D01*
X86969196Y-63513982D01*
X87016135Y-63500177D01*
X87113712Y-63477143D01*
X87023641Y-63460119D01*
X86955709Y-63434742D01*
X86927334Y-63380493D01*
X86923657Y-63356397D01*
X86920323Y-63303105D01*
X86936769Y-63281090D01*
X86988081Y-63282087D01*
G37*
G36*
X87250196Y-63942278D02*
G01*
X87348274Y-63967397D01*
X87398937Y-63998818D01*
X87446496Y-64079730D01*
X87455036Y-64173436D01*
X87429665Y-64262703D01*
X87375490Y-64330300D01*
X87297619Y-64358993D01*
X87292151Y-64359101D01*
X87239639Y-64349054D01*
X87220464Y-64306908D01*
X87218795Y-64269030D01*
X87228231Y-64203101D01*
X87263341Y-64179889D01*
X87278842Y-64178959D01*
X87327629Y-64166386D01*
X87338889Y-64148936D01*
X87311905Y-64131722D01*
X87242990Y-64120861D01*
X87190543Y-64118912D01*
X87101004Y-64124520D01*
X87038648Y-64138804D01*
X87023641Y-64148936D01*
X87034271Y-64171199D01*
X87081916Y-64178959D01*
X87136741Y-64188313D01*
X87156830Y-64228612D01*
X87158747Y-64269030D01*
X87150536Y-64333537D01*
X87116212Y-64357079D01*
X87085833Y-64359101D01*
X86994974Y-64333897D01*
X86937947Y-64261478D01*
X86918558Y-64148936D01*
X86930775Y-64057956D01*
X86961288Y-63990880D01*
X86965738Y-63985950D01*
X87035591Y-63950862D01*
X87138190Y-63936536D01*
X87250196Y-63942278D01*
G37*
G36*
X87292082Y-64389125D02*
G01*
X87431825Y-64389125D01*
X87422887Y-64576773D01*
X87413948Y-64764420D01*
X87166253Y-64772236D01*
X87044924Y-64775409D01*
X86971549Y-64773314D01*
X86934070Y-64762661D01*
X86920426Y-64740162D01*
X86918558Y-64704682D01*
X86926538Y-64653412D01*
X86962325Y-64632657D01*
X87021869Y-64629314D01*
X87096652Y-64621358D01*
X87141697Y-64601939D01*
X87143736Y-64599290D01*
X87133131Y-64583822D01*
X87261006Y-64583822D01*
X87263830Y-64599290D01*
X87302214Y-64628169D01*
X87310637Y-64629314D01*
X87338081Y-64606414D01*
X87338889Y-64599290D01*
X87314451Y-64572941D01*
X87292082Y-64569267D01*
X87261006Y-64583822D01*
X87133131Y-64583822D01*
X87130222Y-64579579D01*
X87066798Y-64569828D01*
X87040425Y-64569267D01*
X86962686Y-64565843D01*
X86927842Y-64547149D01*
X86918797Y-64500548D01*
X86918558Y-64479196D01*
X86918558Y-64389125D01*
X87175192Y-64389125D01*
X87292082Y-64389125D01*
G37*
G36*
X87428960Y-64974586D02*
G01*
X87424917Y-65074169D01*
X87410730Y-65125439D01*
X87383925Y-65139716D01*
X87347248Y-65114685D01*
X87338889Y-65079669D01*
X87320116Y-65030766D01*
X87293854Y-65019621D01*
X87254049Y-65043654D01*
X87248818Y-65064657D01*
X87223788Y-65101334D01*
X87188771Y-65109692D01*
X87139869Y-65090919D01*
X87128724Y-65064657D01*
X87104691Y-65024852D01*
X87083688Y-65019621D01*
X87046683Y-65044469D01*
X87038653Y-65077167D01*
X87021492Y-65132361D01*
X87001123Y-65149856D01*
X86998375Y-65161222D01*
X87044327Y-65167359D01*
X87044681Y-65167369D01*
X87122410Y-65175139D01*
X87173759Y-65183499D01*
X87226700Y-65192119D01*
X87277364Y-65202251D01*
X87428960Y-65234763D01*
X87428960Y-65362573D01*
X87428960Y-65490383D01*
X87211289Y-65529167D01*
X87099615Y-65550047D01*
X87009173Y-65568749D01*
X86958127Y-65581497D01*
X86956088Y-65582223D01*
X86927454Y-65568575D01*
X86918558Y-65503212D01*
X86931055Y-65430316D01*
X86963594Y-65409929D01*
X87003398Y-65385896D01*
X87007761Y-65368379D01*
X87117970Y-65368379D01*
X87120646Y-65369575D01*
X87180249Y-65375514D01*
X87210717Y-65370688D01*
X87222961Y-65361131D01*
X87183083Y-65355933D01*
X87173759Y-65355735D01*
X87122484Y-65358980D01*
X87117970Y-65368379D01*
X87007761Y-65368379D01*
X87008629Y-65364893D01*
X86986045Y-65325056D01*
X86966417Y-65319858D01*
X86944007Y-65305404D01*
X86930237Y-65255639D01*
X86923284Y-65160962D01*
X86921684Y-65084370D01*
X86922848Y-64970763D01*
X86928199Y-64881614D01*
X86936661Y-64832912D01*
X86938877Y-64829169D01*
X86976323Y-64819849D01*
X87057799Y-64812907D01*
X87167299Y-64809580D01*
X87193775Y-64809456D01*
X87428960Y-64809456D01*
X87428960Y-64974586D01*
G37*
G36*
X87404889Y-65539923D02*
G01*
X87418364Y-65576196D01*
X87425822Y-65648704D01*
X87428736Y-65767308D01*
X87428960Y-65831474D01*
X87428960Y-66132925D01*
X87181265Y-66124204D01*
X86933570Y-66115484D01*
X86933570Y-66025413D01*
X86933570Y-65935342D01*
X87136230Y-65926465D01*
X87251827Y-65917723D01*
X87316351Y-65902634D01*
X87338634Y-65878968D01*
X87338889Y-65875295D01*
X87321265Y-65850400D01*
X87262504Y-65834361D01*
X87153774Y-65824947D01*
X87136230Y-65824126D01*
X87028447Y-65817904D01*
X86966791Y-65807381D01*
X86937355Y-65786965D01*
X86926229Y-65751063D01*
X86924686Y-65739065D01*
X86925487Y-65673483D01*
X86937196Y-65641488D01*
X86976359Y-65630345D01*
X87057102Y-65622606D01*
X87148739Y-65620094D01*
X87256599Y-65616949D01*
X87315900Y-65605738D01*
X87337887Y-65583797D01*
X87338889Y-65575059D01*
X87362922Y-65535254D01*
X87383925Y-65530023D01*
X87404889Y-65539923D01*
G37*
G36*
X87286411Y-66163724D02*
G01*
X87352505Y-66176683D01*
X87393949Y-66204411D01*
X87412246Y-66227247D01*
X87453988Y-66331331D01*
X87446444Y-66438863D01*
X87395571Y-66524169D01*
X87349683Y-66560197D01*
X87293055Y-66576716D01*
X87205752Y-66577874D01*
X87152996Y-66574622D01*
X87037029Y-66559062D01*
X86963621Y-66533772D01*
X86946656Y-66518715D01*
X86926060Y-66452849D01*
X86920486Y-66370685D01*
X87023641Y-66370685D01*
X87062117Y-66388105D01*
X87139387Y-66398939D01*
X87190543Y-66400709D01*
X87275594Y-66395248D01*
X87329259Y-66381300D01*
X87338889Y-66370685D01*
X87311728Y-66354319D01*
X87241594Y-66343414D01*
X87171987Y-66340662D01*
X87074880Y-66345444D01*
X87026401Y-66358863D01*
X87023641Y-66370685D01*
X86920486Y-66370685D01*
X86919841Y-66361179D01*
X86927356Y-66269862D01*
X86947961Y-66205056D01*
X86954587Y-66196548D01*
X87003308Y-66176907D01*
X87092731Y-66163967D01*
X87171987Y-66160765D01*
X87178061Y-66160520D01*
X87286411Y-66163724D01*
G37*
G36*
X87297333Y-66611530D02*
G01*
X87372749Y-66615872D01*
X87411899Y-66627467D01*
X87426673Y-66649877D01*
X87428960Y-66686669D01*
X87428960Y-66687383D01*
X87412010Y-66750811D01*
X87351958Y-66796773D01*
X87331383Y-66806302D01*
X87233806Y-66848713D01*
X87331383Y-66849888D01*
X87399236Y-66857530D01*
X87425583Y-66887531D01*
X87428960Y-66926123D01*
X87426617Y-66962470D01*
X87411662Y-66984653D01*
X87372207Y-66996168D01*
X87296362Y-67000512D01*
X87173759Y-67001182D01*
X87050091Y-67000336D01*
X86974603Y-66995664D01*
X86935431Y-66983966D01*
X86920709Y-66962040D01*
X86918558Y-66932327D01*
X86932956Y-66881517D01*
X86984881Y-66841207D01*
X87046159Y-66814443D01*
X87173759Y-66765414D01*
X87046159Y-66763203D01*
X86965671Y-66758131D01*
X86928689Y-66740002D01*
X86918751Y-66698846D01*
X86918558Y-66685933D01*
X86920901Y-66649586D01*
X86935856Y-66627403D01*
X86975312Y-66615888D01*
X87051156Y-66611544D01*
X87173759Y-66610874D01*
X87297333Y-66611530D01*
G37*
G36*
X87367031Y-67328383D02*
G01*
X87432116Y-67397734D01*
X87458932Y-67492156D01*
X87458984Y-67496572D01*
X87442017Y-67568265D01*
X87412246Y-67624998D01*
X87373143Y-67665161D01*
X87316118Y-67685356D01*
X87221993Y-67691614D01*
X87200107Y-67691725D01*
X87066371Y-67685260D01*
X86981695Y-67661346D01*
X86936048Y-67613207D01*
X86919400Y-67534066D01*
X86918558Y-67501520D01*
X86926547Y-67413356D01*
X86946505Y-67348797D01*
X86954587Y-67337446D01*
X87007804Y-67305425D01*
X87029646Y-67301418D01*
X87057330Y-67325958D01*
X87068109Y-67382382D01*
X87061779Y-67444895D01*
X87038137Y-67487704D01*
X87031147Y-67491700D01*
X87020616Y-67504917D01*
X87046159Y-67509213D01*
X87085864Y-67493000D01*
X87087041Y-67487374D01*
X87189490Y-67487374D01*
X87208401Y-67498961D01*
X87226301Y-67503420D01*
X87302908Y-67507656D01*
X87331383Y-67503420D01*
X87368194Y-67491247D01*
X87349283Y-67475951D01*
X87331383Y-67467982D01*
X87259572Y-67459642D01*
X87226301Y-67467982D01*
X87189490Y-67487374D01*
X87087041Y-67487374D01*
X87098636Y-67431969D01*
X87098700Y-67424725D01*
X87113210Y-67353685D01*
X87163447Y-67314943D01*
X87259469Y-67301643D01*
X87259572Y-67301642D01*
X87279595Y-67301418D01*
X87367031Y-67328383D01*
G37*
G36*
X87294628Y-67755519D02*
G01*
X87358629Y-67770421D01*
X87399584Y-67801973D01*
X87412246Y-67818500D01*
X87448206Y-67892238D01*
X87458984Y-67946926D01*
X87443351Y-68013636D01*
X87406099Y-68083094D01*
X87361697Y-68132116D01*
X87337187Y-68142080D01*
X87314280Y-68118013D01*
X87310293Y-68062749D01*
X87324101Y-68001693D01*
X87344894Y-67967943D01*
X87361210Y-67939810D01*
X87324367Y-67931928D01*
X87321193Y-67931915D01*
X87275979Y-67947715D01*
X87262623Y-68004469D01*
X87262647Y-68012811D01*
X87241837Y-68089477D01*
X87181265Y-68140411D01*
X87116023Y-68169996D01*
X87062965Y-68164430D01*
X87016135Y-68141124D01*
X86958254Y-68095032D01*
X86931081Y-68027119D01*
X86924518Y-67972178D01*
X86925175Y-67961938D01*
X87008629Y-67961938D01*
X87034323Y-67984508D01*
X87083688Y-67991962D01*
X87140112Y-67981684D01*
X87158747Y-67961938D01*
X87133054Y-67939369D01*
X87083688Y-67931915D01*
X87027265Y-67942192D01*
X87008629Y-67961938D01*
X86925175Y-67961938D01*
X86931745Y-67859513D01*
X86964192Y-67800499D01*
X87027145Y-67767434D01*
X87083688Y-67759862D01*
X87135978Y-67752860D01*
X87189213Y-67751773D01*
X87294628Y-67755519D01*
G37*
G36*
X90101064Y-61762056D02*
G01*
X90580013Y-61762056D01*
X90596858Y-65266747D01*
X90613704Y-68771437D01*
X89168573Y-68779513D01*
X88795702Y-68780967D01*
X88475342Y-68780888D01*
X88208730Y-68779293D01*
X87997107Y-68776201D01*
X87841712Y-68771631D01*
X87743784Y-68765600D01*
X87704562Y-68758128D01*
X87704055Y-68757565D01*
X87700027Y-68747443D01*
X87696459Y-68728263D01*
X87693346Y-68697009D01*
X87690682Y-68650667D01*
X87688464Y-68586225D01*
X87686686Y-68500669D01*
X87685343Y-68390984D01*
X87684430Y-68254157D01*
X87683943Y-68087174D01*
X87683877Y-67887021D01*
X87684227Y-67650685D01*
X87684987Y-67375151D01*
X87686154Y-67057407D01*
X87687722Y-66694437D01*
X87689687Y-66283229D01*
X87692043Y-65820769D01*
X87692630Y-65710165D01*
X87909338Y-65710165D01*
X87909338Y-67106264D01*
X87909338Y-68502364D01*
X88757506Y-68502242D01*
X89001919Y-68501475D01*
X89248761Y-68499379D01*
X89485172Y-68496159D01*
X89698289Y-68492021D01*
X89875253Y-68487170D01*
X89988476Y-68482597D01*
X90371277Y-68463073D01*
X90371277Y-67072479D01*
X90371277Y-65681884D01*
X89982648Y-65673507D01*
X89594019Y-65665130D01*
X89847542Y-65358249D01*
X90101064Y-65051369D01*
X90100827Y-64607658D01*
X90100589Y-64163948D01*
X89860730Y-64003777D01*
X89734442Y-63915385D01*
X89608172Y-63820258D01*
X89503769Y-63735044D01*
X89478166Y-63712239D01*
X89335461Y-63580871D01*
X89718263Y-63579679D01*
X90101064Y-63578487D01*
X90101064Y-62932978D01*
X90101064Y-62287470D01*
X89800828Y-62287470D01*
X89500591Y-62287470D01*
X89500591Y-62436019D01*
X89500591Y-62584568D01*
X89658215Y-62593643D01*
X89815840Y-62602718D01*
X89824607Y-62853323D01*
X89824979Y-63000199D01*
X89814834Y-63101412D01*
X89798413Y-63146054D01*
X89776563Y-63159686D01*
X89732053Y-63170174D01*
X89658283Y-63177878D01*
X89548655Y-63183163D01*
X89396570Y-63186389D01*
X89195427Y-63187921D01*
X89031549Y-63188179D01*
X88299646Y-63188179D01*
X88299646Y-62887943D01*
X88299646Y-62587707D01*
X88149528Y-62587707D01*
X87999409Y-62587707D01*
X87999409Y-63083097D01*
X87999409Y-63578487D01*
X88352187Y-63579486D01*
X88704965Y-63580484D01*
X88629906Y-63642262D01*
X88555023Y-63705344D01*
X88472427Y-63776858D01*
X88464464Y-63783876D01*
X88397339Y-63842556D01*
X88303305Y-63924003D01*
X88201114Y-64011982D01*
X88186745Y-64024306D01*
X87999409Y-64184901D01*
X87999409Y-64423986D01*
X87999409Y-64663071D01*
X88187057Y-64498505D01*
X88417179Y-64298488D01*
X88605489Y-64138823D01*
X88753511Y-64018297D01*
X88862771Y-63935697D01*
X88934792Y-63889812D01*
X88966561Y-63878723D01*
X89016906Y-63895460D01*
X89097972Y-63939493D01*
X89192844Y-64001561D01*
X89199539Y-64006324D01*
X89319939Y-64091715D01*
X89353402Y-64115188D01*
X89458273Y-64188752D01*
X89573899Y-64269030D01*
X89769879Y-64404137D01*
X89770341Y-64591525D01*
X89766609Y-64704144D01*
X89749286Y-64783427D01*
X89710210Y-64855839D01*
X89673099Y-64906773D01*
X89601339Y-64998916D01*
X89505400Y-65119752D01*
X89398132Y-65253337D01*
X89292387Y-65383726D01*
X89201017Y-65494975D01*
X89148893Y-65557152D01*
X89103492Y-65616072D01*
X89081648Y-65655533D01*
X89081340Y-65657624D01*
X89108488Y-65667990D01*
X89181677Y-65675836D01*
X89286912Y-65679868D01*
X89324908Y-65680142D01*
X89569556Y-65680142D01*
X89835694Y-65950365D01*
X90101832Y-66220589D01*
X90093942Y-67278911D01*
X90086052Y-68337234D01*
X89755792Y-68337234D01*
X89425532Y-68337234D01*
X89416457Y-68179610D01*
X89412695Y-68088018D01*
X89420230Y-68041276D01*
X89446728Y-68024295D01*
X89496567Y-68021985D01*
X89583491Y-68018147D01*
X89637688Y-67999030D01*
X89666839Y-67953232D01*
X89678625Y-67869350D01*
X89680733Y-67748561D01*
X89680733Y-67511584D01*
X88825059Y-67511584D01*
X87969386Y-67511584D01*
X87969386Y-67301418D01*
X87969386Y-67091253D01*
X88825059Y-67091253D01*
X89680733Y-67091253D01*
X89680733Y-66788246D01*
X89680937Y-66671442D01*
X89677924Y-66583310D01*
X89666256Y-66512722D01*
X89640496Y-66448547D01*
X89595205Y-66379656D01*
X89524945Y-66294920D01*
X89424279Y-66183210D01*
X89340021Y-66090922D01*
X89242149Y-65982691D01*
X89153637Y-65883391D01*
X89085898Y-65805904D01*
X89055881Y-65770212D01*
X89037562Y-65746763D01*
X89020064Y-65728646D01*
X88996109Y-65715298D01*
X88958421Y-65706154D01*
X88899720Y-65700652D01*
X88812730Y-65698229D01*
X88690174Y-65698321D01*
X88524773Y-65700364D01*
X88309251Y-65703795D01*
X88217081Y-65705276D01*
X87909338Y-65710165D01*
X87692630Y-65710165D01*
X87694786Y-65304042D01*
X87696556Y-64978567D01*
X89021276Y-64978567D01*
X89039232Y-65008022D01*
X89058796Y-65028181D01*
X89103739Y-65068645D01*
X89132622Y-65066304D01*
X89167030Y-65026899D01*
X89212029Y-64971717D01*
X89279935Y-64890374D01*
X89342341Y-64816615D01*
X89409700Y-64735945D01*
X89442625Y-64686768D01*
X89445734Y-64654963D01*
X89423645Y-64626409D01*
X89408960Y-64612890D01*
X89378898Y-64586910D01*
X89353402Y-64576906D01*
X89323687Y-64589016D01*
X89280969Y-64629380D01*
X89216462Y-64704136D01*
X89132179Y-64806304D01*
X89063160Y-64891582D01*
X89027722Y-64944378D01*
X89021276Y-64978567D01*
X87696556Y-64978567D01*
X87697639Y-64779432D01*
X87714185Y-61762056D01*
X89147099Y-61762056D01*
X90101064Y-61762056D01*
G37*
G36*
X89160969Y-66120535D02*
G01*
X89223971Y-66174276D01*
X89306538Y-66252029D01*
X89350565Y-66295719D01*
X89544076Y-66490966D01*
X89467866Y-66567176D01*
X89391655Y-66643387D01*
X89243464Y-66482195D01*
X89137169Y-66366722D01*
X89065804Y-66287567D01*
X89024303Y-66236263D01*
X89007596Y-66204343D01*
X89010615Y-66183340D01*
X89028292Y-66164786D01*
X89044852Y-66150381D01*
X89097944Y-66111812D01*
X89128527Y-66100472D01*
X89160969Y-66120535D01*
G37*
D17*
%TO.C,REF\u002A\u002A*%
X99305814Y-34718931D02*
X99389635Y-35163555D01*
X99698920Y-35291053D01*
X100008206Y-35418551D01*
X100379246Y-35166246D01*
X100483157Y-35095996D01*
X100577087Y-35033272D01*
X100656652Y-34980938D01*
X100717470Y-34941857D01*
X100755157Y-34918893D01*
X100765421Y-34913942D01*
X100783910Y-34926676D01*
X100823420Y-34961882D01*
X100879522Y-35015062D01*
X100947787Y-35081718D01*
X101023786Y-35157354D01*
X101103092Y-35237472D01*
X101181275Y-35317574D01*
X101253907Y-35393164D01*
X101316559Y-35459745D01*
X101364803Y-35512818D01*
X101394210Y-35547887D01*
X101401241Y-35559623D01*
X101391123Y-35581260D01*
X101362759Y-35628662D01*
X101319129Y-35697193D01*
X101263218Y-35782215D01*
X101198006Y-35879093D01*
X101160219Y-35934350D01*
X101091343Y-36035248D01*
X101030140Y-36126299D01*
X100979578Y-36202970D01*
X100942628Y-36260728D01*
X100922258Y-36295043D01*
X100919197Y-36302254D01*
X100926136Y-36322748D01*
X100945051Y-36370513D01*
X100973087Y-36438832D01*
X101007391Y-36520989D01*
X101045109Y-36610270D01*
X101083387Y-36699958D01*
X101119370Y-36783338D01*
X101150206Y-36853694D01*
X101173039Y-36904310D01*
X101185017Y-36928471D01*
X101185724Y-36929422D01*
X101204531Y-36934036D01*
X101254618Y-36944328D01*
X101330793Y-36959287D01*
X101427865Y-36977901D01*
X101540643Y-36999159D01*
X101606442Y-37011418D01*
X101726950Y-37034362D01*
X101835797Y-37056195D01*
X101927476Y-37075722D01*
X101996481Y-37091748D01*
X102037304Y-37103079D01*
X102045511Y-37106674D01*
X102053548Y-37131006D01*
X102060033Y-37185959D01*
X102064970Y-37265108D01*
X102068364Y-37362026D01*
X102070218Y-37470287D01*
X102070538Y-37583465D01*
X102069327Y-37695135D01*
X102066590Y-37798868D01*
X102062331Y-37888241D01*
X102056555Y-37956826D01*
X102049267Y-37998197D01*
X102044895Y-38006810D01*
X102018764Y-38017133D01*
X101963393Y-38031892D01*
X101886107Y-38049352D01*
X101794230Y-38067780D01*
X101762158Y-38073741D01*
X101607524Y-38102066D01*
X101485375Y-38124876D01*
X101391673Y-38143080D01*
X101322384Y-38157583D01*
X101273471Y-38169292D01*
X101240897Y-38179115D01*
X101220628Y-38187956D01*
X101208626Y-38196724D01*
X101206947Y-38198457D01*
X101190184Y-38226371D01*
X101164614Y-38280695D01*
X101132788Y-38354777D01*
X101097260Y-38441965D01*
X101060583Y-38535608D01*
X101025311Y-38629052D01*
X100993996Y-38715647D01*
X100969193Y-38788740D01*
X100953454Y-38841678D01*
X100949332Y-38867811D01*
X100949676Y-38868726D01*
X100963641Y-38890086D01*
X100995322Y-38937084D01*
X101041391Y-39004827D01*
X101098518Y-39088423D01*
X101163373Y-39182982D01*
X101181843Y-39209854D01*
X101247699Y-39307275D01*
X101305650Y-39396163D01*
X101352538Y-39471412D01*
X101385207Y-39527920D01*
X101400500Y-39560581D01*
X101401241Y-39564593D01*
X101388392Y-39585684D01*
X101352888Y-39627464D01*
X101299293Y-39685445D01*
X101232171Y-39755135D01*
X101156087Y-39832045D01*
X101075604Y-39911683D01*
X100995287Y-39989561D01*
X100919699Y-40061186D01*
X100853405Y-40122070D01*
X100800969Y-40167721D01*
X100766955Y-40193650D01*
X100757545Y-40197883D01*
X100735643Y-40187912D01*
X100690800Y-40161020D01*
X100630321Y-40121736D01*
X100583789Y-40090117D01*
X100499475Y-40032098D01*
X100399626Y-39963784D01*
X100299473Y-39895579D01*
X100245627Y-39859075D01*
X100063371Y-39735800D01*
X99910381Y-39818520D01*
X99840682Y-39854759D01*
X99781414Y-39882926D01*
X99741311Y-39898991D01*
X99731103Y-39901226D01*
X99718829Y-39884722D01*
X99694613Y-39838082D01*
X99660263Y-39765609D01*
X99617588Y-39671606D01*
X99568394Y-39560374D01*
X99514490Y-39436215D01*
X99457684Y-39303432D01*
X99399782Y-39166327D01*
X99342593Y-39029202D01*
X99287924Y-38896358D01*
X99237584Y-38772098D01*
X99193380Y-38660725D01*
X99157119Y-38566539D01*
X99130609Y-38493844D01*
X99115658Y-38446941D01*
X99113254Y-38430833D01*
X99132311Y-38410286D01*
X99174036Y-38376933D01*
X99229706Y-38337702D01*
X99234378Y-38334599D01*
X99378264Y-38219423D01*
X99494283Y-38085053D01*
X99581430Y-37935784D01*
X99638699Y-37775913D01*
X99665086Y-37609737D01*
X99659585Y-37441552D01*
X99621190Y-37275655D01*
X99548895Y-37116342D01*
X99527626Y-37081487D01*
X99416996Y-36940737D01*
X99286302Y-36827714D01*
X99140064Y-36743003D01*
X98982808Y-36687194D01*
X98819057Y-36660874D01*
X98653333Y-36664630D01*
X98490162Y-36699050D01*
X98334065Y-36764723D01*
X98189567Y-36862235D01*
X98144869Y-36901813D01*
X98031112Y-37025703D01*
X97948218Y-37156124D01*
X97891356Y-37302315D01*
X97859687Y-37447088D01*
X97851869Y-37609860D01*
X97877938Y-37773440D01*
X97935245Y-37932298D01*
X98021144Y-38080906D01*
X98132986Y-38213735D01*
X98268123Y-38325256D01*
X98285883Y-38337011D01*
X98342150Y-38375508D01*
X98384923Y-38408863D01*
X98405372Y-38430160D01*
X98405669Y-38430833D01*
X98401279Y-38453871D01*
X98383876Y-38506157D01*
X98355268Y-38583390D01*
X98317265Y-38681268D01*
X98271674Y-38795491D01*
X98220303Y-38921758D01*
X98164962Y-39055767D01*
X98107458Y-39193218D01*
X98049601Y-39329808D01*
X97993198Y-39461237D01*
X97940058Y-39583205D01*
X97891990Y-39691409D01*
X97850801Y-39781549D01*
X97818301Y-39849323D01*
X97796297Y-39890430D01*
X97787436Y-39901226D01*
X97760360Y-39892819D01*
X97709697Y-39870272D01*
X97644183Y-39837613D01*
X97608159Y-39818520D01*
X97455168Y-39735800D01*
X97272912Y-39859075D01*
X97179875Y-39922228D01*
X97078015Y-39991727D01*
X96982562Y-40057165D01*
X96934750Y-40090117D01*
X96867505Y-40135273D01*
X96810564Y-40171057D01*
X96771354Y-40192938D01*
X96758619Y-40197563D01*
X96740083Y-40185085D01*
X96699059Y-40150252D01*
X96639525Y-40096678D01*
X96565458Y-40027983D01*
X96480835Y-39947781D01*
X96427315Y-39896286D01*
X96333681Y-39804286D01*
X96252759Y-39721999D01*
X96187823Y-39652945D01*
X96142142Y-39600644D01*
X96118989Y-39568616D01*
X96116768Y-39562116D01*
X96127076Y-39537394D01*
X96155561Y-39487405D01*
X96199063Y-39417212D01*
X96254423Y-39331875D01*
X96318480Y-39236456D01*
X96336697Y-39209854D01*
X96403073Y-39113167D01*
X96462622Y-39026117D01*
X96512016Y-38953595D01*
X96547925Y-38900493D01*
X96567019Y-38871703D01*
X96568864Y-38868726D01*
X96566105Y-38845782D01*
X96551462Y-38795336D01*
X96527487Y-38724041D01*
X96496734Y-38638547D01*
X96461756Y-38545507D01*
X96425107Y-38451574D01*
X96389339Y-38363399D01*
X96357006Y-38287634D01*
X96330662Y-38230931D01*
X96312858Y-38199943D01*
X96311593Y-38198457D01*
X96300706Y-38189601D01*
X96282318Y-38180843D01*
X96252394Y-38171277D01*
X96206897Y-38159996D01*
X96141791Y-38146093D01*
X96053039Y-38128663D01*
X95936607Y-38106798D01*
X95788458Y-38079591D01*
X95756382Y-38073741D01*
X95661314Y-38055374D01*
X95578435Y-38037405D01*
X95515070Y-38021569D01*
X95478542Y-38009600D01*
X95473644Y-38006810D01*
X95465573Y-37982072D01*
X95459013Y-37926790D01*
X95453967Y-37847389D01*
X95450441Y-37750296D01*
X95448439Y-37641938D01*
X95447964Y-37528740D01*
X95449023Y-37417128D01*
X95451618Y-37313529D01*
X95455754Y-37224368D01*
X95461437Y-37156072D01*
X95468669Y-37115066D01*
X95473029Y-37106674D01*
X95497302Y-37098208D01*
X95552574Y-37084435D01*
X95633338Y-37066550D01*
X95734088Y-37045748D01*
X95849317Y-37023223D01*
X95912098Y-37011418D01*
X96031213Y-36989151D01*
X96137435Y-36968979D01*
X96225573Y-36951915D01*
X96290434Y-36938969D01*
X96326826Y-36931155D01*
X96332816Y-36929422D01*
X96342939Y-36909890D01*
X96364338Y-36862843D01*
X96394161Y-36795003D01*
X96429555Y-36713091D01*
X96467668Y-36623828D01*
X96505647Y-36533935D01*
X96540640Y-36450135D01*
X96569794Y-36379147D01*
X96590257Y-36327694D01*
X96599177Y-36302497D01*
X96599343Y-36301396D01*
X96589231Y-36281519D01*
X96560883Y-36235777D01*
X96517277Y-36168717D01*
X96461394Y-36084884D01*
X96396213Y-35988826D01*
X96358321Y-35933650D01*
X96289275Y-35832481D01*
X96227950Y-35740630D01*
X96177337Y-35662744D01*
X96140429Y-35603469D01*
X96120218Y-35567451D01*
X96117299Y-35559377D01*
X96129847Y-35540584D01*
X96164537Y-35500457D01*
X96216937Y-35443493D01*
X96282616Y-35374185D01*
X96357144Y-35297031D01*
X96436087Y-35216525D01*
X96515017Y-35137163D01*
X96589500Y-35063440D01*
X96655106Y-34999852D01*
X96707404Y-34950894D01*
X96741961Y-34921061D01*
X96753522Y-34913942D01*
X96772346Y-34923953D01*
X96817369Y-34952078D01*
X96884213Y-34995454D01*
X96968501Y-35051218D01*
X97065856Y-35116506D01*
X97139293Y-35166246D01*
X97510333Y-35418551D01*
X98128905Y-35163555D01*
X98212725Y-34718931D01*
X98296546Y-34274307D01*
X99221994Y-34274307D01*
X99305814Y-34718931D01*
G36*
X99305814Y-34718931D02*
G01*
X99389635Y-35163555D01*
X99698920Y-35291053D01*
X100008206Y-35418551D01*
X100379246Y-35166246D01*
X100483157Y-35095996D01*
X100577087Y-35033272D01*
X100656652Y-34980938D01*
X100717470Y-34941857D01*
X100755157Y-34918893D01*
X100765421Y-34913942D01*
X100783910Y-34926676D01*
X100823420Y-34961882D01*
X100879522Y-35015062D01*
X100947787Y-35081718D01*
X101023786Y-35157354D01*
X101103092Y-35237472D01*
X101181275Y-35317574D01*
X101253907Y-35393164D01*
X101316559Y-35459745D01*
X101364803Y-35512818D01*
X101394210Y-35547887D01*
X101401241Y-35559623D01*
X101391123Y-35581260D01*
X101362759Y-35628662D01*
X101319129Y-35697193D01*
X101263218Y-35782215D01*
X101198006Y-35879093D01*
X101160219Y-35934350D01*
X101091343Y-36035248D01*
X101030140Y-36126299D01*
X100979578Y-36202970D01*
X100942628Y-36260728D01*
X100922258Y-36295043D01*
X100919197Y-36302254D01*
X100926136Y-36322748D01*
X100945051Y-36370513D01*
X100973087Y-36438832D01*
X101007391Y-36520989D01*
X101045109Y-36610270D01*
X101083387Y-36699958D01*
X101119370Y-36783338D01*
X101150206Y-36853694D01*
X101173039Y-36904310D01*
X101185017Y-36928471D01*
X101185724Y-36929422D01*
X101204531Y-36934036D01*
X101254618Y-36944328D01*
X101330793Y-36959287D01*
X101427865Y-36977901D01*
X101540643Y-36999159D01*
X101606442Y-37011418D01*
X101726950Y-37034362D01*
X101835797Y-37056195D01*
X101927476Y-37075722D01*
X101996481Y-37091748D01*
X102037304Y-37103079D01*
X102045511Y-37106674D01*
X102053548Y-37131006D01*
X102060033Y-37185959D01*
X102064970Y-37265108D01*
X102068364Y-37362026D01*
X102070218Y-37470287D01*
X102070538Y-37583465D01*
X102069327Y-37695135D01*
X102066590Y-37798868D01*
X102062331Y-37888241D01*
X102056555Y-37956826D01*
X102049267Y-37998197D01*
X102044895Y-38006810D01*
X102018764Y-38017133D01*
X101963393Y-38031892D01*
X101886107Y-38049352D01*
X101794230Y-38067780D01*
X101762158Y-38073741D01*
X101607524Y-38102066D01*
X101485375Y-38124876D01*
X101391673Y-38143080D01*
X101322384Y-38157583D01*
X101273471Y-38169292D01*
X101240897Y-38179115D01*
X101220628Y-38187956D01*
X101208626Y-38196724D01*
X101206947Y-38198457D01*
X101190184Y-38226371D01*
X101164614Y-38280695D01*
X101132788Y-38354777D01*
X101097260Y-38441965D01*
X101060583Y-38535608D01*
X101025311Y-38629052D01*
X100993996Y-38715647D01*
X100969193Y-38788740D01*
X100953454Y-38841678D01*
X100949332Y-38867811D01*
X100949676Y-38868726D01*
X100963641Y-38890086D01*
X100995322Y-38937084D01*
X101041391Y-39004827D01*
X101098518Y-39088423D01*
X101163373Y-39182982D01*
X101181843Y-39209854D01*
X101247699Y-39307275D01*
X101305650Y-39396163D01*
X101352538Y-39471412D01*
X101385207Y-39527920D01*
X101400500Y-39560581D01*
X101401241Y-39564593D01*
X101388392Y-39585684D01*
X101352888Y-39627464D01*
X101299293Y-39685445D01*
X101232171Y-39755135D01*
X101156087Y-39832045D01*
X101075604Y-39911683D01*
X100995287Y-39989561D01*
X100919699Y-40061186D01*
X100853405Y-40122070D01*
X100800969Y-40167721D01*
X100766955Y-40193650D01*
X100757545Y-40197883D01*
X100735643Y-40187912D01*
X100690800Y-40161020D01*
X100630321Y-40121736D01*
X100583789Y-40090117D01*
X100499475Y-40032098D01*
X100399626Y-39963784D01*
X100299473Y-39895579D01*
X100245627Y-39859075D01*
X100063371Y-39735800D01*
X99910381Y-39818520D01*
X99840682Y-39854759D01*
X99781414Y-39882926D01*
X99741311Y-39898991D01*
X99731103Y-39901226D01*
X99718829Y-39884722D01*
X99694613Y-39838082D01*
X99660263Y-39765609D01*
X99617588Y-39671606D01*
X99568394Y-39560374D01*
X99514490Y-39436215D01*
X99457684Y-39303432D01*
X99399782Y-39166327D01*
X99342593Y-39029202D01*
X99287924Y-38896358D01*
X99237584Y-38772098D01*
X99193380Y-38660725D01*
X99157119Y-38566539D01*
X99130609Y-38493844D01*
X99115658Y-38446941D01*
X99113254Y-38430833D01*
X99132311Y-38410286D01*
X99174036Y-38376933D01*
X99229706Y-38337702D01*
X99234378Y-38334599D01*
X99378264Y-38219423D01*
X99494283Y-38085053D01*
X99581430Y-37935784D01*
X99638699Y-37775913D01*
X99665086Y-37609737D01*
X99659585Y-37441552D01*
X99621190Y-37275655D01*
X99548895Y-37116342D01*
X99527626Y-37081487D01*
X99416996Y-36940737D01*
X99286302Y-36827714D01*
X99140064Y-36743003D01*
X98982808Y-36687194D01*
X98819057Y-36660874D01*
X98653333Y-36664630D01*
X98490162Y-36699050D01*
X98334065Y-36764723D01*
X98189567Y-36862235D01*
X98144869Y-36901813D01*
X98031112Y-37025703D01*
X97948218Y-37156124D01*
X97891356Y-37302315D01*
X97859687Y-37447088D01*
X97851869Y-37609860D01*
X97877938Y-37773440D01*
X97935245Y-37932298D01*
X98021144Y-38080906D01*
X98132986Y-38213735D01*
X98268123Y-38325256D01*
X98285883Y-38337011D01*
X98342150Y-38375508D01*
X98384923Y-38408863D01*
X98405372Y-38430160D01*
X98405669Y-38430833D01*
X98401279Y-38453871D01*
X98383876Y-38506157D01*
X98355268Y-38583390D01*
X98317265Y-38681268D01*
X98271674Y-38795491D01*
X98220303Y-38921758D01*
X98164962Y-39055767D01*
X98107458Y-39193218D01*
X98049601Y-39329808D01*
X97993198Y-39461237D01*
X97940058Y-39583205D01*
X97891990Y-39691409D01*
X97850801Y-39781549D01*
X97818301Y-39849323D01*
X97796297Y-39890430D01*
X97787436Y-39901226D01*
X97760360Y-39892819D01*
X97709697Y-39870272D01*
X97644183Y-39837613D01*
X97608159Y-39818520D01*
X97455168Y-39735800D01*
X97272912Y-39859075D01*
X97179875Y-39922228D01*
X97078015Y-39991727D01*
X96982562Y-40057165D01*
X96934750Y-40090117D01*
X96867505Y-40135273D01*
X96810564Y-40171057D01*
X96771354Y-40192938D01*
X96758619Y-40197563D01*
X96740083Y-40185085D01*
X96699059Y-40150252D01*
X96639525Y-40096678D01*
X96565458Y-40027983D01*
X96480835Y-39947781D01*
X96427315Y-39896286D01*
X96333681Y-39804286D01*
X96252759Y-39721999D01*
X96187823Y-39652945D01*
X96142142Y-39600644D01*
X96118989Y-39568616D01*
X96116768Y-39562116D01*
X96127076Y-39537394D01*
X96155561Y-39487405D01*
X96199063Y-39417212D01*
X96254423Y-39331875D01*
X96318480Y-39236456D01*
X96336697Y-39209854D01*
X96403073Y-39113167D01*
X96462622Y-39026117D01*
X96512016Y-38953595D01*
X96547925Y-38900493D01*
X96567019Y-38871703D01*
X96568864Y-38868726D01*
X96566105Y-38845782D01*
X96551462Y-38795336D01*
X96527487Y-38724041D01*
X96496734Y-38638547D01*
X96461756Y-38545507D01*
X96425107Y-38451574D01*
X96389339Y-38363399D01*
X96357006Y-38287634D01*
X96330662Y-38230931D01*
X96312858Y-38199943D01*
X96311593Y-38198457D01*
X96300706Y-38189601D01*
X96282318Y-38180843D01*
X96252394Y-38171277D01*
X96206897Y-38159996D01*
X96141791Y-38146093D01*
X96053039Y-38128663D01*
X95936607Y-38106798D01*
X95788458Y-38079591D01*
X95756382Y-38073741D01*
X95661314Y-38055374D01*
X95578435Y-38037405D01*
X95515070Y-38021569D01*
X95478542Y-38009600D01*
X95473644Y-38006810D01*
X95465573Y-37982072D01*
X95459013Y-37926790D01*
X95453967Y-37847389D01*
X95450441Y-37750296D01*
X95448439Y-37641938D01*
X95447964Y-37528740D01*
X95449023Y-37417128D01*
X95451618Y-37313529D01*
X95455754Y-37224368D01*
X95461437Y-37156072D01*
X95468669Y-37115066D01*
X95473029Y-37106674D01*
X95497302Y-37098208D01*
X95552574Y-37084435D01*
X95633338Y-37066550D01*
X95734088Y-37045748D01*
X95849317Y-37023223D01*
X95912098Y-37011418D01*
X96031213Y-36989151D01*
X96137435Y-36968979D01*
X96225573Y-36951915D01*
X96290434Y-36938969D01*
X96326826Y-36931155D01*
X96332816Y-36929422D01*
X96342939Y-36909890D01*
X96364338Y-36862843D01*
X96394161Y-36795003D01*
X96429555Y-36713091D01*
X96467668Y-36623828D01*
X96505647Y-36533935D01*
X96540640Y-36450135D01*
X96569794Y-36379147D01*
X96590257Y-36327694D01*
X96599177Y-36302497D01*
X96599343Y-36301396D01*
X96589231Y-36281519D01*
X96560883Y-36235777D01*
X96517277Y-36168717D01*
X96461394Y-36084884D01*
X96396213Y-35988826D01*
X96358321Y-35933650D01*
X96289275Y-35832481D01*
X96227950Y-35740630D01*
X96177337Y-35662744D01*
X96140429Y-35603469D01*
X96120218Y-35567451D01*
X96117299Y-35559377D01*
X96129847Y-35540584D01*
X96164537Y-35500457D01*
X96216937Y-35443493D01*
X96282616Y-35374185D01*
X96357144Y-35297031D01*
X96436087Y-35216525D01*
X96515017Y-35137163D01*
X96589500Y-35063440D01*
X96655106Y-34999852D01*
X96707404Y-34950894D01*
X96741961Y-34921061D01*
X96753522Y-34913942D01*
X96772346Y-34923953D01*
X96817369Y-34952078D01*
X96884213Y-34995454D01*
X96968501Y-35051218D01*
X97065856Y-35116506D01*
X97139293Y-35166246D01*
X97510333Y-35418551D01*
X98128905Y-35163555D01*
X98212725Y-34718931D01*
X98296546Y-34274307D01*
X99221994Y-34274307D01*
X99305814Y-34718931D01*
G37*
D16*
%TO.C,SW2*%
X86200000Y-24810500D02*
X86200000Y-26810500D01*
X87250000Y-23510500D02*
X87700000Y-23060500D01*
X87250000Y-28110500D02*
X87700000Y-28560500D01*
X87700000Y-23060500D02*
X90200000Y-23060500D01*
X87700000Y-28560500D02*
X90200000Y-28560500D01*
X90650000Y-23510500D02*
X90200000Y-23060500D01*
X90650000Y-28110500D02*
X90200000Y-28560500D01*
X91700000Y-24810500D02*
X91700000Y-26810500D01*
%TO.C,C6*%
X97886466Y-63192651D02*
X97722651Y-63356466D01*
X97377349Y-62683534D02*
X97213534Y-62847349D01*
%TO.C,U5*%
X86907447Y-61567370D02*
X91150088Y-57324729D01*
X85337670Y-55754952D02*
X87458991Y-53633632D01*
%TO.C,J7*%
X106520000Y-72950500D02*
X106520000Y-85710500D01*
X106520000Y-72950500D02*
X109180000Y-72950500D01*
X106520000Y-85710500D02*
X109180000Y-85710500D01*
X107850000Y-70350500D02*
X109180000Y-70350500D01*
X109180000Y-70350500D02*
X109180000Y-71680500D01*
X109180000Y-72950500D02*
X109180000Y-85710500D01*
%TO.C,J5*%
X75530000Y-83930000D02*
X75530000Y-71170000D01*
X75530000Y-83930000D02*
X72870000Y-83930000D01*
X75530000Y-71170000D02*
X72870000Y-71170000D01*
X74200000Y-86530000D02*
X72870000Y-86530000D01*
X72870000Y-86530000D02*
X72870000Y-85200000D01*
X72870000Y-83930000D02*
X72870000Y-71170000D01*
%TO.C,R20*%
X120840000Y-79002379D02*
X120840000Y-79337621D01*
X120080000Y-79002379D02*
X120080000Y-79337621D01*
%TO.C,C16*%
X82390000Y-40590000D02*
X81890000Y-40590000D01*
X82140000Y-40840000D02*
X82140000Y-40340000D01*
X81650000Y-40225563D02*
X81650000Y-40090000D01*
X81650000Y-40225563D02*
X80585563Y-41290000D01*
X81650000Y-37834437D02*
X81650000Y-37970000D01*
X81650000Y-37834437D02*
X80585563Y-36770000D01*
X80585563Y-41290000D02*
X77130000Y-41290000D01*
X80585563Y-36770000D02*
X77130000Y-36770000D01*
X77130000Y-41290000D02*
X77130000Y-40090000D01*
X77130000Y-36770000D02*
X77130000Y-37970000D01*
%TO.C,R8*%
X113882379Y-50802500D02*
X114217621Y-50802500D01*
X113882379Y-51562500D02*
X114217621Y-51562500D01*
%TO.C,J6*%
X73070000Y-50960500D02*
X73070000Y-68800500D01*
X73070000Y-50960500D02*
X75730000Y-50960500D01*
X73070000Y-68800500D02*
X75730000Y-68800500D01*
X74400000Y-48360500D02*
X75730000Y-48360500D01*
X75730000Y-48360500D02*
X75730000Y-49690500D01*
X75730000Y-50960500D02*
X75730000Y-68800500D01*
%TO.C,JP3*%
X121100000Y-48402500D02*
X117000000Y-48402500D01*
X121100000Y-46402500D02*
X121100000Y-48402500D01*
X120650000Y-45902500D02*
X120050000Y-45902500D01*
X120350000Y-46202500D02*
X120650000Y-45902500D01*
X120350000Y-46202500D02*
X120050000Y-45902500D01*
X117000000Y-48402500D02*
X117000000Y-46402500D01*
X117000000Y-46402500D02*
X121100000Y-46402500D01*
%TO.C,Q5*%
X117952500Y-70560000D02*
X116277500Y-70560000D01*
X117952500Y-70560000D02*
X118602500Y-70560000D01*
X117952500Y-73680000D02*
X117302500Y-73680000D01*
X117952500Y-73680000D02*
X118602500Y-73680000D01*
D18*
%TO.C,SW3*%
X119432500Y-89482500D02*
X114692500Y-89472500D01*
X114692500Y-89472500D02*
X114692500Y-88642500D01*
X119432500Y-88652500D02*
X119432500Y-89482500D01*
X114682500Y-81392500D02*
X114692500Y-80972500D01*
X114692500Y-80972500D02*
X119442500Y-80957500D01*
X119442500Y-80957500D02*
X119442500Y-81787500D01*
D19*
X120602500Y-87772500D02*
G75*
G02*
X120402500Y-87772500I-100000J0D01*
G01*
X120402500Y-87772500D02*
G75*
G02*
X120602500Y-87772500I100000J0D01*
G01*
D16*
%TO.C,C5*%
X96049148Y-51432792D02*
X95885333Y-51268977D01*
X96558265Y-50923675D02*
X96394450Y-50759860D01*
%TO.C,R16*%
X107116599Y-61677430D02*
X106879547Y-61440378D01*
X107654001Y-61140028D02*
X107416949Y-60902976D01*
%TO.C,J3*%
X124050000Y-62350500D02*
X124050000Y-39430500D01*
X124050000Y-62350500D02*
X121390000Y-62350500D01*
X124050000Y-39430500D02*
X121390000Y-39430500D01*
X122720000Y-64950500D02*
X121390000Y-64950500D01*
X121390000Y-64950500D02*
X121390000Y-63620500D01*
X121390000Y-62350500D02*
X121390000Y-39430500D01*
D20*
%TO.C,S1*%
X95650000Y-22240000D02*
X95650000Y-22240000D01*
X95650000Y-22240000D02*
X101150000Y-22240000D01*
X101150000Y-22240000D02*
X95650000Y-22240000D01*
X101150000Y-22240000D02*
X101150000Y-22240000D01*
D16*
%TO.C,R21*%
X120780000Y-75652379D02*
X120780000Y-75987621D01*
X120020000Y-75652379D02*
X120020000Y-75987621D01*
%TO.C,C7*%
X94436466Y-58326325D02*
X94272651Y-58490140D01*
X93927349Y-57817208D02*
X93763534Y-57981023D01*
%TO.C,C1*%
X104487349Y-65926466D02*
X104323534Y-65762651D01*
X104996466Y-65417349D02*
X104832651Y-65253534D01*
%TO.C,D3*%
X103283087Y-31433087D02*
X104467490Y-30248683D01*
X103283087Y-31433087D02*
X102823467Y-31892706D01*
X101076913Y-29226913D02*
X101536533Y-28767294D01*
X101076913Y-29226913D02*
X100617294Y-29686533D01*
%TO.C,Q4*%
X117970000Y-74020000D02*
X116295000Y-74020000D01*
X117970000Y-74020000D02*
X118620000Y-74020000D01*
X117970000Y-77140000D02*
X117320000Y-77140000D01*
X117970000Y-77140000D02*
X118620000Y-77140000D01*
%TO.C,Y1*%
X107019285Y-67067266D02*
X109352738Y-64733813D01*
X109352738Y-64733813D02*
X106524311Y-61905386D01*
%TO.C,JP4*%
X117025200Y-50287200D02*
X117025200Y-49687200D01*
X117725200Y-48987200D02*
X119125200Y-48987200D01*
X119125200Y-50987200D02*
X117725200Y-50987200D01*
X119825200Y-49687200D02*
X119825200Y-50287200D01*
X117025200Y-49687200D02*
G75*
G02*
X117725200Y-48987200I699999J1D01*
G01*
X117725200Y-50987200D02*
G75*
G02*
X117025200Y-50287200I-1J699999D01*
G01*
X119125200Y-48987200D02*
G75*
G02*
X119825200Y-49687200I0J-700000D01*
G01*
X119825200Y-50287200D02*
G75*
G02*
X119125200Y-50987200I-700000J0D01*
G01*
%TO.C,F1*%
X98470000Y-28865436D02*
X98470000Y-30069564D01*
X96650000Y-28865436D02*
X96650000Y-30069564D01*
%TO.C,C15*%
X88993534Y-52767349D02*
X89157349Y-52603534D01*
X89502651Y-53276466D02*
X89666466Y-53112651D01*
%TO.C,C3*%
X94127349Y-50006467D02*
X93963534Y-49842652D01*
X94636466Y-49497350D02*
X94472651Y-49333535D01*
%TO.C,R14*%
X115000000Y-68867621D02*
X115000000Y-68532379D01*
X115760000Y-68867621D02*
X115760000Y-68532379D01*
%TO.C,C9*%
X106925332Y-52503675D02*
X107089147Y-52339860D01*
X107434449Y-53012792D02*
X107598264Y-52848977D01*
%TO.C,R13*%
X115090000Y-72547621D02*
X115090000Y-72212379D01*
X115850000Y-72547621D02*
X115850000Y-72212379D01*
%TO.C,JP6*%
X80370000Y-49780000D02*
X80370000Y-50380000D01*
X79670000Y-51080000D02*
X78270000Y-51080000D01*
X78270000Y-49080000D02*
X79670000Y-49080000D01*
X77570000Y-50380000D02*
X77570000Y-49780000D01*
X80370000Y-50380000D02*
G75*
G02*
X79670000Y-51080000I-699999J-1D01*
G01*
X79670000Y-49080000D02*
G75*
G02*
X80370000Y-49780000I1J-699999D01*
G01*
X78270000Y-51080000D02*
G75*
G02*
X77570000Y-50380000I0J700000D01*
G01*
X77570000Y-49780000D02*
G75*
G02*
X78270000Y-49080000I700000J0D01*
G01*
%TO.C,R4*%
X98291973Y-49789099D02*
X98529025Y-50026151D01*
X97754571Y-50326501D02*
X97991623Y-50563553D01*
%TO.C,JP2*%
X93220000Y-81090000D02*
X92620000Y-81090000D01*
X91920000Y-80390000D02*
X91920000Y-78990000D01*
X93920000Y-78990000D02*
X93920000Y-80390000D01*
X92620000Y-78290000D02*
X93220000Y-78290000D01*
X92620000Y-81090000D02*
G75*
G02*
X91920000Y-80390000I-1J699999D01*
G01*
X93920000Y-80390000D02*
G75*
G02*
X93220000Y-81090000I-699999J-1D01*
G01*
X91920000Y-78990000D02*
G75*
G02*
X92620000Y-78290000I700000J0D01*
G01*
X93220000Y-78290000D02*
G75*
G02*
X93920000Y-78990000I0J-700000D01*
G01*
D18*
%TO.C,J2*%
X88150000Y-85880000D02*
X88150000Y-88155000D01*
X88950000Y-85880000D02*
X88150000Y-85880000D01*
X89350000Y-90130000D02*
X92950000Y-90130000D01*
X93350000Y-85880000D02*
X94150000Y-85880000D01*
X94150000Y-85880000D02*
X94150000Y-88155000D01*
D21*
X88800000Y-85170000D02*
G75*
G02*
X88600000Y-85170000I-100000J0D01*
G01*
X88600000Y-85170000D02*
G75*
G02*
X88800000Y-85170000I100000J0D01*
G01*
D16*
%TO.C,C14*%
X87170000Y-44614165D02*
X87170000Y-44845835D01*
X86450000Y-44614165D02*
X86450000Y-44845835D01*
%TO.C,D5*%
X110940000Y-50682500D02*
X112860000Y-50682500D01*
X112860000Y-50682500D02*
X112860000Y-47822500D01*
X110940000Y-47822500D02*
X110940000Y-50682500D01*
%TO.C,C12*%
X99139147Y-49732792D02*
X98975332Y-49568977D01*
X99648264Y-49223675D02*
X99484449Y-49059860D01*
%TO.C,JP5*%
X80320000Y-52340000D02*
X80320000Y-52940000D01*
X79620000Y-53640000D02*
X78220000Y-53640000D01*
X78220000Y-51640000D02*
X79620000Y-51640000D01*
X77520000Y-52940000D02*
X77520000Y-52340000D01*
X80320000Y-52940000D02*
G75*
G02*
X79620000Y-53640000I-699999J-1D01*
G01*
X79620000Y-51640000D02*
G75*
G02*
X80320000Y-52340000I1J-699999D01*
G01*
X78220000Y-53640000D02*
G75*
G02*
X77520000Y-52940000I0J700000D01*
G01*
X77520000Y-52340000D02*
G75*
G02*
X78220000Y-51640000I700000J0D01*
G01*
%TO.C,R2*%
X108327227Y-27550175D02*
X108090175Y-27787227D01*
X107789825Y-27012773D02*
X107552773Y-27249825D01*
%TO.C,R1*%
X112177621Y-46802500D02*
X111842379Y-46802500D01*
X112177621Y-46042500D02*
X111842379Y-46042500D01*
%TO.C,R11*%
X115150000Y-79487621D02*
X115150000Y-79152379D01*
X115910000Y-79487621D02*
X115910000Y-79152379D01*
%TO.C,J10*%
X116400000Y-44015000D02*
X115070000Y-44015000D01*
X116400000Y-42685000D02*
X116400000Y-44015000D01*
X116400000Y-41415000D02*
X116400000Y-38815000D01*
X116400000Y-41415000D02*
X113740000Y-41415000D01*
X116400000Y-38815000D02*
X113740000Y-38815000D01*
X113740000Y-41415000D02*
X113740000Y-38815000D01*
%TO.C,U1*%
X101549584Y-61588064D02*
X101089965Y-61128445D01*
X96903892Y-56023134D02*
X96444273Y-56482753D01*
X102009203Y-61128445D02*
X101549584Y-61588064D01*
X101089965Y-51837061D02*
X101549584Y-51377442D01*
X106195276Y-56942372D02*
X106654895Y-56482753D01*
X101549584Y-51377442D02*
X102009203Y-51837061D01*
X106654895Y-56482753D02*
X106195276Y-56023134D01*
%TO.C,U4*%
X110520000Y-30640000D02*
X116530000Y-30640000D01*
X112770000Y-37460000D02*
X116530000Y-37460000D01*
X116530000Y-30640000D02*
X116530000Y-31900000D01*
X116530000Y-37460000D02*
X116530000Y-36200000D01*
%TO.C,Q3*%
X117972500Y-77460000D02*
X116297500Y-77460000D01*
X117972500Y-77460000D02*
X118622500Y-77460000D01*
X117972500Y-80580000D02*
X117322500Y-80580000D01*
X117972500Y-80580000D02*
X118622500Y-80580000D01*
%TO.C,R22*%
X120810000Y-72012379D02*
X120810000Y-72347621D01*
X120050000Y-72012379D02*
X120050000Y-72347621D01*
%TO.C,JP1*%
X90690000Y-81080000D02*
X90090000Y-81080000D01*
X89390000Y-80380000D02*
X89390000Y-78980000D01*
X91390000Y-78980000D02*
X91390000Y-80380000D01*
X90090000Y-78280000D02*
X90690000Y-78280000D01*
X90090000Y-81080000D02*
G75*
G02*
X89390000Y-80380000I-1J699999D01*
G01*
X91390000Y-80380000D02*
G75*
G02*
X90690000Y-81080000I-699999J-1D01*
G01*
X89390000Y-78980000D02*
G75*
G02*
X90090000Y-78280000I700000J0D01*
G01*
X90690000Y-78280000D02*
G75*
G02*
X91390000Y-78980000I0J-700000D01*
G01*
%TO.C,J1*%
X114410000Y-21375000D02*
X114410000Y-19455000D01*
X114410000Y-15740000D02*
X114410000Y-17445000D01*
X105250000Y-19455000D02*
X105250000Y-21375000D01*
X105250000Y-17445000D02*
X105250000Y-15740000D01*
X105250000Y-15740000D02*
X114410000Y-15740000D01*
%TO.C,R6*%
X82801775Y-61944373D02*
X83038827Y-62181425D01*
X82264373Y-62481775D02*
X82501425Y-62718827D01*
%TO.C,C11*%
X108203099Y-60190062D02*
X108366914Y-60353877D01*
X107693982Y-60699179D02*
X107857797Y-60862994D01*
%TO.C,R5*%
X97583099Y-50508580D02*
X97820151Y-50745632D01*
X97045697Y-51045982D02*
X97282749Y-51283034D01*
%TO.C,C10*%
X103023534Y-49927349D02*
X103187349Y-49763534D01*
X103532651Y-50436466D02*
X103696466Y-50272651D01*
%TO.C,D4*%
X114840000Y-46962500D02*
X112920000Y-46962500D01*
X112920000Y-46962500D02*
X112920000Y-49822500D01*
X114840000Y-49822500D02*
X114840000Y-46962500D01*
%TO.C,SW1*%
X123650000Y-24290000D02*
X121650000Y-24290000D01*
X124950000Y-25340000D02*
X125400000Y-25790000D01*
X120350000Y-25340000D02*
X119900000Y-25790000D01*
X125400000Y-25790000D02*
X125400000Y-28290000D01*
X119900000Y-25790000D02*
X119900000Y-28290000D01*
X124950000Y-28740000D02*
X125400000Y-28290000D01*
X120350000Y-28740000D02*
X119900000Y-28290000D01*
X123650000Y-29790000D02*
X121650000Y-29790000D01*
%TO.C,Q6*%
X117840000Y-67090000D02*
X116165000Y-67090000D01*
X117840000Y-67090000D02*
X118490000Y-67090000D01*
X117840000Y-70210000D02*
X117190000Y-70210000D01*
X117840000Y-70210000D02*
X118490000Y-70210000D01*
%TO.C,R12*%
X115150000Y-75917621D02*
X115150000Y-75582379D01*
X115910000Y-75917621D02*
X115910000Y-75582379D01*
%TO.C,D2*%
X113230000Y-38120000D02*
X113230000Y-45420000D01*
X107730000Y-38120000D02*
X107730000Y-45420000D01*
X107730000Y-45420000D02*
X108880000Y-45420000D01*
%TO.C,R23*%
X120690000Y-68622379D02*
X120690000Y-68957621D01*
X119930000Y-68622379D02*
X119930000Y-68957621D01*
%TO.C,J4*%
X124105000Y-84210000D02*
X124105000Y-66370000D01*
X124105000Y-84210000D02*
X121445000Y-84210000D01*
X124105000Y-66370000D02*
X121445000Y-66370000D01*
X122775000Y-86810000D02*
X121445000Y-86810000D01*
X121445000Y-86810000D02*
X121445000Y-85480000D01*
X121445000Y-84210000D02*
X121445000Y-66370000D01*
%TO.C,C4*%
X93447349Y-50656466D02*
X93283534Y-50492651D01*
X93956466Y-50147349D02*
X93792651Y-49983534D01*
%TO.C,R33*%
X108949825Y-59707227D02*
X108712773Y-59470175D01*
X109487227Y-59169825D02*
X109250175Y-58932773D01*
%TO.C,J9*%
X83798000Y-17192500D02*
X83798000Y-31892500D01*
X74598000Y-17192500D02*
X83798000Y-17192500D01*
X74598000Y-25992500D02*
X74598000Y-17192500D01*
X83998000Y-31042500D02*
X83998000Y-32092500D01*
X83798000Y-31892500D02*
X81198000Y-31892500D01*
X77298000Y-31892500D02*
X74598000Y-31892500D01*
X74598000Y-31892500D02*
X74598000Y-29992500D01*
X82948000Y-32092500D02*
X83998000Y-32092500D01*
%TO.C,C2*%
X108997349Y-63906466D02*
X108833534Y-63742651D01*
X109506466Y-63397349D02*
X109342651Y-63233534D01*
%TO.C,J8*%
X99090000Y-89530000D02*
X104230000Y-89530000D01*
X99090000Y-89530000D02*
X99090000Y-86870000D01*
X104230000Y-89530000D02*
X104230000Y-86870000D01*
X96490000Y-88200000D02*
X96490000Y-86870000D01*
X96490000Y-86870000D02*
X97820000Y-86870000D01*
X99090000Y-86870000D02*
X104230000Y-86870000D01*
%TO.C,C13*%
X107410000Y-32304165D02*
X107410000Y-32535835D01*
X106690000Y-32304165D02*
X106690000Y-32535835D01*
%TO.C,R3*%
X105694731Y-25962671D02*
X105457679Y-26199723D01*
X105157329Y-25425269D02*
X104920277Y-25662321D01*
%TO.C,C17*%
X82320000Y-45470000D02*
X81820000Y-45470000D01*
X82070000Y-45720000D02*
X82070000Y-45220000D01*
X81580000Y-45105563D02*
X81580000Y-44970000D01*
X81580000Y-45105563D02*
X80515563Y-46170000D01*
X81580000Y-42714437D02*
X81580000Y-42850000D01*
X81580000Y-42714437D02*
X80515563Y-41650000D01*
X80515563Y-46170000D02*
X77060000Y-46170000D01*
X80515563Y-41650000D02*
X77060000Y-41650000D01*
X77060000Y-46170000D02*
X77060000Y-44970000D01*
X77060000Y-41650000D02*
X77060000Y-42850000D01*
%TO.C,C8*%
X95106466Y-59032651D02*
X94942651Y-59196466D01*
X94597349Y-58523534D02*
X94433534Y-58687349D01*
%TO.C,R15*%
X92080000Y-82917621D02*
X92080000Y-82582379D01*
X92840000Y-82917621D02*
X92840000Y-82582379D01*
%TO.C,R7*%
X84127025Y-64293627D02*
X83889973Y-64056575D01*
X84664427Y-63756225D02*
X84427375Y-63519173D01*
%TO.C,R17*%
X90580000Y-82817621D02*
X90580000Y-82482379D01*
X91340000Y-82817621D02*
X91340000Y-82482379D01*
%TO.C,D1*%
X106683877Y-29682792D02*
X108607208Y-31606123D01*
X106683877Y-29682792D02*
X110261838Y-26104832D01*
X108607208Y-31606123D02*
X112185168Y-28028162D01*
%TD*%
M02*
