%TF.GenerationSoftware,KiCad,Pcbnew,9.0.7-9.0.7~ubuntu22.04.1*%
%TF.CreationDate,2026-01-29T20:02:14+05:30*%
%TF.ProjectId,v3,76332e6b-6963-4616-945f-706362585858,V3.0.0*%
%TF.SameCoordinates,Original*%
%TF.FileFunction,Paste,Top*%
%TF.FilePolarity,Positive*%
%FSLAX46Y46*%
G04 Gerber Fmt 4.6, Leading zero omitted, Abs format (unit mm)*
G04 Created by KiCad (PCBNEW 9.0.7-9.0.7~ubuntu22.04.1) date 2026-01-29 20:02:14*
%MOMM*%
%LPD*%
G01*
G04 APERTURE LIST*
G04 Aperture macros list*
%AMRoundRect*
0 Rectangle with rounded corners*
0 $1 Rounding radius*
0 $2 $3 $4 $5 $6 $7 $8 $9 X,Y pos of 4 corners*
0 Add a 4 corners polygon primitive as box body*
4,1,4,$2,$3,$4,$5,$6,$7,$8,$9,$2,$3,0*
0 Add four circle primitives for the rounded corners*
1,1,$1+$1,$2,$3*
1,1,$1+$1,$4,$5*
1,1,$1+$1,$6,$7*
1,1,$1+$1,$8,$9*
0 Add four rect primitives between the rounded corners*
20,1,$1+$1,$2,$3,$4,$5,0*
20,1,$1+$1,$4,$5,$6,$7,0*
20,1,$1+$1,$6,$7,$8,$9,0*
20,1,$1+$1,$8,$9,$2,$3,0*%
%AMRotRect*
0 Rectangle, with rotation*
0 The origin of the aperture is its center*
0 $1 length*
0 $2 width*
0 $3 Rotation angle, in degrees counterclockwise*
0 Add horizontal line*
21,1,$1,$2,0,0,$3*%
G04 Aperture macros list end*
%ADD10C,0.150000*%
%ADD11RoundRect,0.375000X-0.375000X0.625000X-0.375000X-0.625000X0.375000X-0.625000X0.375000X0.625000X0*%
%ADD12RoundRect,0.500000X-1.400000X0.500000X-1.400000X-0.500000X1.400000X-0.500000X1.400000X0.500000X0*%
%ADD13R,1.700000X1.000000*%
%ADD14RoundRect,0.155000X0.040659X0.259862X-0.259862X-0.040659X-0.040659X-0.259862X0.259862X0.040659X0*%
%ADD15RoundRect,0.250000X0.127279X-0.742462X0.742462X-0.127279X-0.127279X0.742462X-0.742462X0.127279X0*%
%ADD16RoundRect,0.125000X-0.088388X-0.265165X0.265165X0.088388X0.088388X0.265165X-0.265165X-0.088388X0*%
%ADD17RoundRect,0.160000X-0.160000X0.197500X-0.160000X-0.197500X0.160000X-0.197500X0.160000X0.197500X0*%
%ADD18RoundRect,0.250000X1.050000X0.550000X-1.050000X0.550000X-1.050000X-0.550000X1.050000X-0.550000X0*%
%ADD19RoundRect,0.160000X-0.197500X-0.160000X0.197500X-0.160000X0.197500X0.160000X-0.197500X0.160000X0*%
%ADD20RoundRect,0.150000X-0.587500X-0.150000X0.587500X-0.150000X0.587500X0.150000X-0.587500X0.150000X0*%
%ADD21R,2.625000X1.820000*%
%ADD22R,2.690000X1.840000*%
%ADD23R,2.750000X1.840000*%
%ADD24R,2.930000X1.850000*%
%ADD25R,2.930000X1.770000*%
%ADD26R,2.930000X1.890000*%
%ADD27RoundRect,0.155000X0.259862X-0.040659X-0.040659X0.259862X-0.259862X0.040659X0.040659X-0.259862X0*%
%ADD28RoundRect,0.160000X0.252791X-0.026517X-0.026517X0.252791X-0.252791X0.026517X0.026517X-0.252791X0*%
%ADD29R,0.900000X1.250000*%
%ADD30R,0.800000X0.900000*%
%ADD31RoundRect,0.150000X0.309359X0.521491X-0.521491X-0.309359X-0.309359X-0.521491X0.521491X0.309359X0*%
%ADD32RotRect,1.400000X1.200000X135.000000*%
%ADD33RoundRect,0.250001X-0.624999X0.462499X-0.624999X-0.462499X0.624999X-0.462499X0.624999X0.462499X0*%
%ADD34RoundRect,0.155000X-0.040659X-0.259862X0.259862X0.040659X0.040659X0.259862X-0.259862X-0.040659X0*%
%ADD35RoundRect,0.160000X0.160000X-0.197500X0.160000X0.197500X-0.160000X0.197500X-0.160000X-0.197500X0*%
%ADD36RoundRect,0.160000X-0.252791X0.026517X0.026517X-0.252791X0.252791X-0.026517X-0.026517X0.252791X0*%
%ADD37R,0.600000X1.550000*%
%ADD38R,1.200000X1.800000*%
%ADD39RoundRect,0.155000X-0.155000X0.212500X-0.155000X-0.212500X0.155000X-0.212500X0.155000X0.212500X0*%
%ADD40RoundRect,0.250000X0.450000X-0.325000X0.450000X0.325000X-0.450000X0.325000X-0.450000X-0.325000X0*%
%ADD41RoundRect,0.160000X0.026517X0.252791X-0.252791X-0.026517X-0.026517X-0.252791X0.252791X0.026517X0*%
%ADD42RoundRect,0.160000X0.197500X0.160000X-0.197500X0.160000X-0.197500X-0.160000X0.197500X-0.160000X0*%
%ADD43RoundRect,0.249999X0.000000X-0.558616X0.558616X0.000000X0.000000X0.558616X-0.558616X0.000000X0*%
%ADD44RoundRect,0.050000X-0.238649X-0.309359X0.309359X0.238649X0.238649X0.309359X-0.309359X-0.238649X0*%
%ADD45RoundRect,0.050000X0.238649X-0.309359X0.309359X-0.238649X-0.238649X0.309359X-0.309359X0.238649X0*%
%ADD46R,2.000000X1.500000*%
%ADD47R,2.000000X3.800000*%
%ADD48R,0.600000X1.240000*%
%ADD49R,0.300000X1.240000*%
%ADD50RoundRect,0.155000X-0.259862X0.040659X0.040659X-0.259862X0.259862X-0.040659X-0.040659X0.259862X0*%
%ADD51RoundRect,0.250000X-0.450000X0.325000X-0.450000X-0.325000X0.450000X-0.325000X0.450000X0.325000X0*%
%ADD52R,1.000000X1.700000*%
%ADD53R,0.900000X1.500000*%
%ADD54RoundRect,0.250000X0.247487X-0.883883X0.883883X-0.247487X-0.247487X0.883883X-0.883883X0.247487X0*%
G04 APERTURE END LIST*
D10*
X90322400Y-41148000D02*
X88798400Y-43383200D01*
X85039200Y-43383200D01*
X83464400Y-41148000D01*
X83464400Y-38354000D01*
X90322400Y-38354000D01*
X90322400Y-41148000D01*
G36*
X90322400Y-41148000D02*
G01*
X88798400Y-43383200D01*
X85039200Y-43383200D01*
X83464400Y-41148000D01*
X83464400Y-38354000D01*
X90322400Y-38354000D01*
X90322400Y-41148000D01*
G37*
X118770400Y-32207200D02*
X118770400Y-35966400D01*
X116535200Y-37541200D01*
X113741200Y-37541200D01*
X113741200Y-30683200D01*
X116535200Y-30683200D01*
X118770400Y-32207200D01*
G36*
X118770400Y-32207200D02*
G01*
X118770400Y-35966400D01*
X116535200Y-37541200D01*
X113741200Y-37541200D01*
X113741200Y-30683200D01*
X116535200Y-30683200D01*
X118770400Y-32207200D01*
G37*
D11*
%TO.C,U3*%
X89300000Y-35950000D03*
X87000000Y-35950000D03*
D12*
X87000000Y-42250000D03*
D11*
X84700000Y-35950000D03*
%TD*%
D13*
%TO.C,SW2*%
X85800000Y-23910500D03*
X92100000Y-23910500D03*
X85800000Y-27710500D03*
X92100000Y-27710500D03*
%TD*%
D14*
%TO.C,C6*%
X97951283Y-62618717D03*
X97148717Y-63421283D03*
%TD*%
D15*
%TO.C,U5*%
X85822038Y-57441402D03*
X87342318Y-58961682D03*
X87024120Y-56239320D03*
X88544400Y-57759600D03*
D16*
X83926992Y-58162651D03*
X84825018Y-59060677D03*
X85723043Y-59958702D03*
X86621069Y-60856728D03*
X90439446Y-57038351D03*
X89541420Y-56140325D03*
X88643395Y-55242300D03*
X87745369Y-54344274D03*
%TD*%
D17*
%TO.C,R20*%
X120460000Y-78572500D03*
X120460000Y-79767500D03*
%TD*%
D18*
%TO.C,C16*%
X81190000Y-39030000D03*
X77590000Y-39030000D03*
%TD*%
D19*
%TO.C,R8*%
X113452500Y-51182500D03*
X114647500Y-51182500D03*
%TD*%
D20*
%TO.C,Q5*%
X117015000Y-71170000D03*
X117015000Y-73070000D03*
X118890000Y-72120000D03*
%TD*%
D21*
%TO.C,SW3*%
X118910000Y-87662500D03*
D22*
X118917500Y-85042500D03*
D23*
X118917500Y-82452500D03*
D24*
X115397500Y-87637500D03*
D25*
X115362500Y-85002500D03*
D26*
X115382500Y-82482500D03*
%TD*%
D27*
%TO.C,C5*%
X96623082Y-51497609D03*
X95820516Y-50695043D03*
%TD*%
D28*
%TO.C,R16*%
X107689270Y-61712699D03*
X106844278Y-60867707D03*
%TD*%
D29*
%TO.C,S1*%
X100650000Y-25740000D03*
X97650000Y-25740000D03*
X96150000Y-25740000D03*
D30*
X94600000Y-24715000D03*
X94600000Y-22515000D03*
X102200000Y-24715000D03*
X102200000Y-22515000D03*
%TD*%
D17*
%TO.C,R21*%
X120400000Y-75222500D03*
X120400000Y-76417500D03*
%TD*%
D14*
%TO.C,C7*%
X94501283Y-57752391D03*
X93698717Y-58554957D03*
%TD*%
D27*
%TO.C,C1*%
X105061283Y-65991283D03*
X104258717Y-65188717D03*
%TD*%
D31*
%TO.C,D3*%
X103514664Y-30338839D03*
X102171161Y-28995336D03*
X101517087Y-30992913D03*
%TD*%
D20*
%TO.C,Q4*%
X117032500Y-74630000D03*
X117032500Y-76530000D03*
X118907500Y-75580000D03*
%TD*%
D32*
%TO.C,Y1*%
X108150656Y-64663103D03*
X106595021Y-63107468D03*
X105392940Y-64309549D03*
X106948575Y-65865184D03*
%TD*%
D33*
%TO.C,F1*%
X97560000Y-27980000D03*
X97560000Y-30955000D03*
%TD*%
D34*
%TO.C,C15*%
X88928717Y-53341283D03*
X89731283Y-52538717D03*
%TD*%
D27*
%TO.C,C3*%
X94701283Y-50071284D03*
X93898717Y-49268718D03*
%TD*%
D35*
%TO.C,R14*%
X115380000Y-69297500D03*
X115380000Y-68102500D03*
%TD*%
D34*
%TO.C,C9*%
X106860515Y-53077609D03*
X107663081Y-52275043D03*
%TD*%
D35*
%TO.C,R13*%
X115470000Y-72977500D03*
X115470000Y-71782500D03*
%TD*%
D36*
%TO.C,R4*%
X97719302Y-49753830D03*
X98564294Y-50598822D03*
%TD*%
D37*
%TO.C,J2*%
X89650000Y-85555000D03*
X90650000Y-85555000D03*
X91650000Y-85555000D03*
X92650000Y-85555000D03*
D38*
X88350000Y-89430000D03*
X93950000Y-89430000D03*
%TD*%
D39*
%TO.C,C14*%
X86810000Y-44162500D03*
X86810000Y-45297500D03*
%TD*%
D40*
%TO.C,D5*%
X111900000Y-49847500D03*
X111900000Y-47797500D03*
%TD*%
D27*
%TO.C,C12*%
X99713081Y-49797609D03*
X98910515Y-48995043D03*
%TD*%
D41*
%TO.C,R2*%
X108362496Y-26977504D03*
X107517504Y-27822496D03*
%TD*%
D42*
%TO.C,R1*%
X112607500Y-46422500D03*
X111412500Y-46422500D03*
%TD*%
D35*
%TO.C,R11*%
X115530000Y-79917500D03*
X115530000Y-78722500D03*
%TD*%
D43*
%TO.C,U1*%
X100418213Y-56482753D03*
X101549584Y-57614124D03*
X101549584Y-55351382D03*
X102680955Y-56482753D03*
D44*
X97280427Y-57074955D03*
X97563270Y-57357798D03*
X97846112Y-57640640D03*
X98128955Y-57923483D03*
X98411798Y-58206326D03*
X98694640Y-58489168D03*
X98977483Y-58772011D03*
X99260326Y-59054854D03*
X99543169Y-59337697D03*
X99826011Y-59620539D03*
X100108854Y-59903382D03*
X100391697Y-60186225D03*
X100674539Y-60469067D03*
X100957382Y-60751910D03*
D45*
X102141786Y-60751910D03*
X102424629Y-60469067D03*
X102707471Y-60186225D03*
X102990314Y-59903382D03*
X103273157Y-59620539D03*
X103555999Y-59337697D03*
X103838842Y-59054854D03*
X104121685Y-58772011D03*
X104404528Y-58489168D03*
X104687370Y-58206326D03*
X104970213Y-57923483D03*
X105253056Y-57640640D03*
X105535898Y-57357798D03*
X105818741Y-57074955D03*
D44*
X105818741Y-55890551D03*
X105535898Y-55607708D03*
X105253056Y-55324866D03*
X104970213Y-55042023D03*
X104687370Y-54759180D03*
X104404528Y-54476338D03*
X104121685Y-54193495D03*
X103838842Y-53910652D03*
X103555999Y-53627809D03*
X103273157Y-53344967D03*
X102990314Y-53062124D03*
X102707471Y-52779281D03*
X102424629Y-52496439D03*
X102141786Y-52213596D03*
D45*
X100957382Y-52213596D03*
X100674539Y-52496439D03*
X100391697Y-52779281D03*
X100108854Y-53062124D03*
X99826011Y-53344967D03*
X99543169Y-53627809D03*
X99260326Y-53910652D03*
X98977483Y-54193495D03*
X98694640Y-54476338D03*
X98411798Y-54759180D03*
X98128955Y-55042023D03*
X97846112Y-55324866D03*
X97563270Y-55607708D03*
X97280427Y-55890551D03*
%TD*%
D46*
%TO.C,U4*%
X111470000Y-31750000D03*
X111470000Y-34050000D03*
D47*
X117770000Y-34050000D03*
D46*
X111470000Y-36350000D03*
%TD*%
D20*
%TO.C,Q3*%
X117035000Y-78070000D03*
X117035000Y-79970000D03*
X118910000Y-79020000D03*
%TD*%
D17*
%TO.C,R22*%
X120430000Y-71582500D03*
X120430000Y-72777500D03*
%TD*%
D48*
%TO.C,J1*%
X113030000Y-23250000D03*
X112230000Y-23250000D03*
D49*
X111080000Y-23250000D03*
X110080000Y-23250000D03*
X109580000Y-23250000D03*
X108580000Y-23250000D03*
D48*
X107430000Y-23250000D03*
X106630000Y-23250000D03*
X106630000Y-23250000D03*
X107430000Y-23250000D03*
D49*
X108080000Y-23250000D03*
X109080000Y-23250000D03*
X110580000Y-23250000D03*
X111580000Y-23250000D03*
D48*
X112230000Y-23250000D03*
X113030000Y-23250000D03*
%TD*%
D36*
%TO.C,R6*%
X82229104Y-61909104D03*
X83074096Y-62754096D03*
%TD*%
D50*
%TO.C,C11*%
X107629165Y-60125245D03*
X108431731Y-60927811D03*
%TD*%
D36*
%TO.C,R5*%
X97010428Y-50473311D03*
X97855420Y-51318303D03*
%TD*%
D34*
%TO.C,C10*%
X102958717Y-50501283D03*
X103761283Y-49698717D03*
%TD*%
D51*
%TO.C,D4*%
X113880000Y-47797500D03*
X113880000Y-49847500D03*
%TD*%
D52*
%TO.C,SW1*%
X124550000Y-23890000D03*
X124550000Y-30190000D03*
X120750000Y-23890000D03*
X120750000Y-30190000D03*
%TD*%
D20*
%TO.C,Q6*%
X116902500Y-67700000D03*
X116902500Y-69600000D03*
X118777500Y-68650000D03*
%TD*%
D35*
%TO.C,R12*%
X115530000Y-76347500D03*
X115530000Y-75152500D03*
%TD*%
D53*
%TO.C,D2*%
X112130000Y-39320000D03*
X108830000Y-39320000D03*
X108830000Y-44220000D03*
X112130000Y-44220000D03*
%TD*%
D17*
%TO.C,R23*%
X120310000Y-68192500D03*
X120310000Y-69387500D03*
%TD*%
D27*
%TO.C,C4*%
X94021283Y-50721283D03*
X93218717Y-49918717D03*
%TD*%
D28*
%TO.C,R33*%
X109522496Y-59742496D03*
X108677504Y-58897504D03*
%TD*%
D27*
%TO.C,C2*%
X109571283Y-63971283D03*
X108768717Y-63168717D03*
%TD*%
D39*
%TO.C,C13*%
X107050000Y-31852500D03*
X107050000Y-32987500D03*
%TD*%
D41*
%TO.C,R3*%
X105730000Y-25390000D03*
X104885008Y-26234992D03*
%TD*%
D18*
%TO.C,C17*%
X81120000Y-43910000D03*
X77520000Y-43910000D03*
%TD*%
D14*
%TO.C,C8*%
X95171283Y-58458717D03*
X94368717Y-59261283D03*
%TD*%
D35*
%TO.C,R15*%
X92460000Y-83347500D03*
X92460000Y-82152500D03*
%TD*%
D28*
%TO.C,R7*%
X84699696Y-64328896D03*
X83854704Y-63483904D03*
%TD*%
D35*
%TO.C,R17*%
X90960000Y-83247500D03*
X90960000Y-82052500D03*
%TD*%
D54*
%TO.C,D1*%
X108324365Y-29965635D03*
X111435635Y-26854365D03*
%TD*%
M02*
