M48
; DRILL file {KiCad 9.0.7-9.0.7~ubuntu22.04.1} date 2026-01-29T20:02:40+0530
; FORMAT={-:-/ absolute / metric / decimal}
; #@! TF.CreationDate,2026-01-29T20:02:40+05:30
; #@! TF.GenerationSoftware,Kicad,Pcbnew,9.0.7-9.0.7~ubuntu22.04.1
; #@! TF.FileFunction,Plated,1,2,PTH
FMAT,2
METRIC
; #@! TA.AperFunction,Plated,PTH,ViaDrill
T1C0.400
; #@! TA.AperFunction,Plated,PTH,ComponentDrill
T2C0.600
; #@! TA.AperFunction,Plated,PTH,ComponentDrill
T3C1.000
%
G90
G05
T1
X80.518Y-45.466
X81.35Y-50.0
X81.38Y-52.57
X82.33Y-60.808
X83.85Y-33.12
X84.023Y-69.647
X84.328Y-87.478
X84.552Y-34.386
X85.039Y-65.227
X85.55Y-47.54
X85.75Y-61.824
X86.07Y-24.98
X86.106Y-57.201
X86.84Y-34.36
X87.427Y-53.442
X87.732Y-73.457
X88.494Y-58.268
X88.595Y-69.545
X89.14Y-34.4
X89.321Y-59.352
X90.02Y-44.65
X90.04Y-82.753
X90.55Y-77.54
X91.335Y-50.885
X91.54Y-43.98
X91.92Y-45.38
X91.92Y-62.83
X92.2Y-61.87
X92.26Y-24.92
X92.62Y-46.28
X92.65Y-47.83
X92.65Y-59.63
X92.73Y-49.0
X92.73Y-61.1
X92.8Y-63.83
X93.167Y-55.778
X93.46Y-60.38
X93.92Y-64.27
X94.435Y-81.835
X94.92Y-64.25
X95.352Y-56.998
X96.01Y-63.65
X96.05Y-32.05
X96.09Y-27.07
X96.75Y-64.45
X97.1Y-65.69
X98.046Y-65.328
X98.97Y-65.71
X99.905Y-65.355
X100.032Y-54.324
X100.182Y-56.656
X100.28Y-32.28
X100.692Y-56.106
X100.73Y-26.93
X100.8Y-58.98
X100.836Y-65.75
X100.922Y-57.536
X101.272Y-55.456
X101.54Y-51.51
X101.552Y-56.736
X101.612Y-58.046
X101.725Y-66.685
X102.102Y-57.266
X102.142Y-56.106
X102.752Y-56.616
X102.774Y-66.652
X103.14Y-58.27
X103.219Y-46.389
X103.69Y-66.25
X103.74Y-26.71
X103.77Y-48.18
X103.829Y-47.182
X104.46Y-61.97
X104.55Y-48.97
X105.49Y-43.75
X105.77Y-45.08
X105.864Y-59.525
X105.99Y-46.88
X106.63Y-28.58
X106.832Y-53.086
X106.858Y-59.425
X106.93Y-30.75
X107.54Y-58.63
X108.27Y-57.89
X108.41Y-56.87
X108.49Y-51.48
X109.74Y-31.82
X109.74Y-34.11
X109.77Y-36.22
X109.779Y-60.808
X110.67Y-49.33
X112.82Y-87.35
X113.24Y-82.42
X114.48Y-68.14
X114.681Y-74.389
X114.906Y-71.009
X114.924Y-77.789
X115.53Y-73.86
X115.64Y-70.33
X115.64Y-80.79
X115.76Y-77.24
X118.15Y-57.27
X119.03Y-81.08
X120.25Y-70.33
X120.36Y-77.45
X120.37Y-80.85
X120.41Y-73.81
X120.498Y-49.073
X120.73Y-87.45
X120.76Y-28.73
X123.23Y-87.92
T3
X74.2Y-72.5
X74.2Y-75.04
X74.2Y-77.58
X74.2Y-80.12
X74.2Y-82.66
X74.2Y-85.2
X74.4Y-49.691
X74.4Y-52.23
X74.4Y-54.77
X74.4Y-57.31
X74.4Y-59.85
X74.4Y-62.39
X74.4Y-64.93
X74.4Y-67.471
X97.82Y-88.2
X100.36Y-88.2
X102.9Y-88.2
X107.85Y-71.68
X107.85Y-74.221
X107.85Y-76.76
X107.85Y-79.3
X107.85Y-81.84
X107.85Y-84.38
X115.07Y-40.145
X115.07Y-42.685
X122.72Y-40.761
X122.72Y-43.3
X122.72Y-45.84
X122.72Y-48.38
X122.72Y-50.92
X122.72Y-53.46
X122.72Y-56.0
X122.72Y-58.54
X122.72Y-61.081
X122.72Y-63.62
X122.775Y-67.7
X122.775Y-70.24
X122.775Y-72.78
X122.775Y-75.32
X122.775Y-77.86
X122.775Y-80.4
X122.775Y-82.94
X122.775Y-85.48
T2
G00X105.51Y-18.85
M15
G01X105.51Y-18.05
M16
G05
G00X105.51Y-23.2
M15
G01X105.51Y-22.1
M16
G05
G00X114.15Y-18.85
M15
G01X114.15Y-18.05
M16
G05
G00X114.15Y-23.2
M15
G01X114.15Y-22.1
M16
G05
T3
G00X74.498Y-26.992
M15
G01X74.498Y-28.992
M16
G05
G00X80.198Y-24.992
M15
G01X78.198Y-24.992
M16
G05
G00X80.198Y-30.992
M15
G01X78.198Y-30.992
M16
G05
M30
