%TF.GenerationSoftware,KiCad,Pcbnew,9.0.7-9.0.7~ubuntu22.04.1*%
%TF.CreationDate,2026-01-29T20:02:16+05:30*%
%TF.ProjectId,v3,76332e6b-6963-4616-945f-706362585858,V3.0.0*%
%TF.SameCoordinates,Original*%
%TF.FileFunction,Other,User*%
%FSLAX46Y46*%
G04 Gerber Fmt 4.6, Leading zero omitted, Abs format (unit mm)*
G04 Created by KiCad (PCBNEW 9.0.7-9.0.7~ubuntu22.04.1) date 2026-01-29 20:02:16*
%MOMM*%
%LPD*%
G01*
G04 APERTURE LIST*
%ADD10C,0.150000*%
%ADD11C,0.254000*%
%ADD12C,0.125000*%
%ADD13C,0.127000*%
G04 APERTURE END LIST*
D10*
X87616667Y-22467700D02*
X87759524Y-22515319D01*
X87759524Y-22515319D02*
X87997619Y-22515319D01*
X87997619Y-22515319D02*
X88092857Y-22467700D01*
X88092857Y-22467700D02*
X88140476Y-22420080D01*
X88140476Y-22420080D02*
X88188095Y-22324842D01*
X88188095Y-22324842D02*
X88188095Y-22229604D01*
X88188095Y-22229604D02*
X88140476Y-22134366D01*
X88140476Y-22134366D02*
X88092857Y-22086747D01*
X88092857Y-22086747D02*
X87997619Y-22039128D01*
X87997619Y-22039128D02*
X87807143Y-21991509D01*
X87807143Y-21991509D02*
X87711905Y-21943890D01*
X87711905Y-21943890D02*
X87664286Y-21896271D01*
X87664286Y-21896271D02*
X87616667Y-21801033D01*
X87616667Y-21801033D02*
X87616667Y-21705795D01*
X87616667Y-21705795D02*
X87664286Y-21610557D01*
X87664286Y-21610557D02*
X87711905Y-21562938D01*
X87711905Y-21562938D02*
X87807143Y-21515319D01*
X87807143Y-21515319D02*
X88045238Y-21515319D01*
X88045238Y-21515319D02*
X88188095Y-21562938D01*
X88521429Y-21515319D02*
X88759524Y-22515319D01*
X88759524Y-22515319D02*
X88950000Y-21801033D01*
X88950000Y-21801033D02*
X89140476Y-22515319D01*
X89140476Y-22515319D02*
X89378572Y-21515319D01*
X89711905Y-21610557D02*
X89759524Y-21562938D01*
X89759524Y-21562938D02*
X89854762Y-21515319D01*
X89854762Y-21515319D02*
X90092857Y-21515319D01*
X90092857Y-21515319D02*
X90188095Y-21562938D01*
X90188095Y-21562938D02*
X90235714Y-21610557D01*
X90235714Y-21610557D02*
X90283333Y-21705795D01*
X90283333Y-21705795D02*
X90283333Y-21801033D01*
X90283333Y-21801033D02*
X90235714Y-21943890D01*
X90235714Y-21943890D02*
X89664286Y-22515319D01*
X89664286Y-22515319D02*
X90283333Y-22515319D01*
X98506655Y-64212356D02*
X98506655Y-64279700D01*
X98506655Y-64279700D02*
X98439311Y-64414387D01*
X98439311Y-64414387D02*
X98371968Y-64481730D01*
X98371968Y-64481730D02*
X98237281Y-64549074D01*
X98237281Y-64549074D02*
X98102594Y-64549074D01*
X98102594Y-64549074D02*
X98001579Y-64515402D01*
X98001579Y-64515402D02*
X97833220Y-64414387D01*
X97833220Y-64414387D02*
X97732205Y-64313372D01*
X97732205Y-64313372D02*
X97631189Y-64145013D01*
X97631189Y-64145013D02*
X97597518Y-64043998D01*
X97597518Y-64043998D02*
X97597518Y-63909311D01*
X97597518Y-63909311D02*
X97664861Y-63774624D01*
X97664861Y-63774624D02*
X97732205Y-63707280D01*
X97732205Y-63707280D02*
X97866892Y-63639937D01*
X97866892Y-63639937D02*
X97934235Y-63639937D01*
X98472983Y-62966502D02*
X98338296Y-63101189D01*
X98338296Y-63101189D02*
X98304624Y-63202204D01*
X98304624Y-63202204D02*
X98304624Y-63269547D01*
X98304624Y-63269547D02*
X98338296Y-63437906D01*
X98338296Y-63437906D02*
X98439311Y-63606265D01*
X98439311Y-63606265D02*
X98708685Y-63875639D01*
X98708685Y-63875639D02*
X98809701Y-63909311D01*
X98809701Y-63909311D02*
X98877044Y-63909311D01*
X98877044Y-63909311D02*
X98978059Y-63875639D01*
X98978059Y-63875639D02*
X99112746Y-63740952D01*
X99112746Y-63740952D02*
X99146418Y-63639937D01*
X99146418Y-63639937D02*
X99146418Y-63572593D01*
X99146418Y-63572593D02*
X99112746Y-63471578D01*
X99112746Y-63471578D02*
X98944388Y-63303219D01*
X98944388Y-63303219D02*
X98843372Y-63269547D01*
X98843372Y-63269547D02*
X98776029Y-63269547D01*
X98776029Y-63269547D02*
X98675014Y-63303219D01*
X98675014Y-63303219D02*
X98540327Y-63437906D01*
X98540327Y-63437906D02*
X98506655Y-63538921D01*
X98506655Y-63538921D02*
X98506655Y-63606265D01*
X98506655Y-63606265D02*
X98540327Y-63707280D01*
X107516666Y-68365319D02*
X107516666Y-69079604D01*
X107516666Y-69079604D02*
X107469047Y-69222461D01*
X107469047Y-69222461D02*
X107373809Y-69317700D01*
X107373809Y-69317700D02*
X107230952Y-69365319D01*
X107230952Y-69365319D02*
X107135714Y-69365319D01*
X107897619Y-68365319D02*
X108564285Y-68365319D01*
X108564285Y-68365319D02*
X108135714Y-69365319D01*
X121286666Y-34294819D02*
X120953333Y-33818628D01*
X120715238Y-34294819D02*
X120715238Y-33294819D01*
X120715238Y-33294819D02*
X121096190Y-33294819D01*
X121096190Y-33294819D02*
X121191428Y-33342438D01*
X121191428Y-33342438D02*
X121239047Y-33390057D01*
X121239047Y-33390057D02*
X121286666Y-33485295D01*
X121286666Y-33485295D02*
X121286666Y-33628152D01*
X121286666Y-33628152D02*
X121239047Y-33723390D01*
X121239047Y-33723390D02*
X121191428Y-33771009D01*
X121191428Y-33771009D02*
X121096190Y-33818628D01*
X121096190Y-33818628D02*
X120715238Y-33818628D01*
X121715238Y-33771009D02*
X122048571Y-33771009D01*
X122191428Y-34294819D02*
X121715238Y-34294819D01*
X121715238Y-34294819D02*
X121715238Y-33294819D01*
X121715238Y-33294819D02*
X122191428Y-33294819D01*
X122953333Y-33771009D02*
X122620000Y-33771009D01*
X122620000Y-34294819D02*
X122620000Y-33294819D01*
X122620000Y-33294819D02*
X123096190Y-33294819D01*
X123620000Y-33294819D02*
X123620000Y-33532914D01*
X123381905Y-33437676D02*
X123620000Y-33532914D01*
X123620000Y-33532914D02*
X123858095Y-33437676D01*
X123477143Y-33723390D02*
X123620000Y-33532914D01*
X123620000Y-33532914D02*
X123762857Y-33723390D01*
X124381905Y-33294819D02*
X124381905Y-33532914D01*
X124143810Y-33437676D02*
X124381905Y-33532914D01*
X124381905Y-33532914D02*
X124620000Y-33437676D01*
X124239048Y-33723390D02*
X124381905Y-33532914D01*
X124381905Y-33532914D02*
X124524762Y-33723390D01*
X73866666Y-87424819D02*
X73866666Y-88139104D01*
X73866666Y-88139104D02*
X73819047Y-88281961D01*
X73819047Y-88281961D02*
X73723809Y-88377200D01*
X73723809Y-88377200D02*
X73580952Y-88424819D01*
X73580952Y-88424819D02*
X73485714Y-88424819D01*
X74819047Y-87424819D02*
X74342857Y-87424819D01*
X74342857Y-87424819D02*
X74295238Y-87901009D01*
X74295238Y-87901009D02*
X74342857Y-87853390D01*
X74342857Y-87853390D02*
X74438095Y-87805771D01*
X74438095Y-87805771D02*
X74676190Y-87805771D01*
X74676190Y-87805771D02*
X74771428Y-87853390D01*
X74771428Y-87853390D02*
X74819047Y-87901009D01*
X74819047Y-87901009D02*
X74866666Y-87996247D01*
X74866666Y-87996247D02*
X74866666Y-88234342D01*
X74866666Y-88234342D02*
X74819047Y-88329580D01*
X74819047Y-88329580D02*
X74771428Y-88377200D01*
X74771428Y-88377200D02*
X74676190Y-88424819D01*
X74676190Y-88424819D02*
X74438095Y-88424819D01*
X74438095Y-88424819D02*
X74342857Y-88377200D01*
X74342857Y-88377200D02*
X74295238Y-88329580D01*
X122084819Y-79812857D02*
X121608628Y-80146190D01*
X122084819Y-80384285D02*
X121084819Y-80384285D01*
X121084819Y-80384285D02*
X121084819Y-80003333D01*
X121084819Y-80003333D02*
X121132438Y-79908095D01*
X121132438Y-79908095D02*
X121180057Y-79860476D01*
X121180057Y-79860476D02*
X121275295Y-79812857D01*
X121275295Y-79812857D02*
X121418152Y-79812857D01*
X121418152Y-79812857D02*
X121513390Y-79860476D01*
X121513390Y-79860476D02*
X121561009Y-79908095D01*
X121561009Y-79908095D02*
X121608628Y-80003333D01*
X121608628Y-80003333D02*
X121608628Y-80384285D01*
X121180057Y-79431904D02*
X121132438Y-79384285D01*
X121132438Y-79384285D02*
X121084819Y-79289047D01*
X121084819Y-79289047D02*
X121084819Y-79050952D01*
X121084819Y-79050952D02*
X121132438Y-78955714D01*
X121132438Y-78955714D02*
X121180057Y-78908095D01*
X121180057Y-78908095D02*
X121275295Y-78860476D01*
X121275295Y-78860476D02*
X121370533Y-78860476D01*
X121370533Y-78860476D02*
X121513390Y-78908095D01*
X121513390Y-78908095D02*
X122084819Y-79479523D01*
X122084819Y-79479523D02*
X122084819Y-78860476D01*
X121084819Y-78241428D02*
X121084819Y-78146190D01*
X121084819Y-78146190D02*
X121132438Y-78050952D01*
X121132438Y-78050952D02*
X121180057Y-78003333D01*
X121180057Y-78003333D02*
X121275295Y-77955714D01*
X121275295Y-77955714D02*
X121465771Y-77908095D01*
X121465771Y-77908095D02*
X121703866Y-77908095D01*
X121703866Y-77908095D02*
X121894342Y-77955714D01*
X121894342Y-77955714D02*
X121989580Y-78003333D01*
X121989580Y-78003333D02*
X122037200Y-78050952D01*
X122037200Y-78050952D02*
X122084819Y-78146190D01*
X122084819Y-78146190D02*
X122084819Y-78241428D01*
X122084819Y-78241428D02*
X122037200Y-78336666D01*
X122037200Y-78336666D02*
X121989580Y-78384285D01*
X121989580Y-78384285D02*
X121894342Y-78431904D01*
X121894342Y-78431904D02*
X121703866Y-78479523D01*
X121703866Y-78479523D02*
X121465771Y-78479523D01*
X121465771Y-78479523D02*
X121275295Y-78431904D01*
X121275295Y-78431904D02*
X121180057Y-78384285D01*
X121180057Y-78384285D02*
X121132438Y-78336666D01*
X121132438Y-78336666D02*
X121084819Y-78241428D01*
X113883333Y-50467319D02*
X113550000Y-49991128D01*
X113311905Y-50467319D02*
X113311905Y-49467319D01*
X113311905Y-49467319D02*
X113692857Y-49467319D01*
X113692857Y-49467319D02*
X113788095Y-49514938D01*
X113788095Y-49514938D02*
X113835714Y-49562557D01*
X113835714Y-49562557D02*
X113883333Y-49657795D01*
X113883333Y-49657795D02*
X113883333Y-49800652D01*
X113883333Y-49800652D02*
X113835714Y-49895890D01*
X113835714Y-49895890D02*
X113788095Y-49943509D01*
X113788095Y-49943509D02*
X113692857Y-49991128D01*
X113692857Y-49991128D02*
X113311905Y-49991128D01*
X114454762Y-49895890D02*
X114359524Y-49848271D01*
X114359524Y-49848271D02*
X114311905Y-49800652D01*
X114311905Y-49800652D02*
X114264286Y-49705414D01*
X114264286Y-49705414D02*
X114264286Y-49657795D01*
X114264286Y-49657795D02*
X114311905Y-49562557D01*
X114311905Y-49562557D02*
X114359524Y-49514938D01*
X114359524Y-49514938D02*
X114454762Y-49467319D01*
X114454762Y-49467319D02*
X114645238Y-49467319D01*
X114645238Y-49467319D02*
X114740476Y-49514938D01*
X114740476Y-49514938D02*
X114788095Y-49562557D01*
X114788095Y-49562557D02*
X114835714Y-49657795D01*
X114835714Y-49657795D02*
X114835714Y-49705414D01*
X114835714Y-49705414D02*
X114788095Y-49800652D01*
X114788095Y-49800652D02*
X114740476Y-49848271D01*
X114740476Y-49848271D02*
X114645238Y-49895890D01*
X114645238Y-49895890D02*
X114454762Y-49895890D01*
X114454762Y-49895890D02*
X114359524Y-49943509D01*
X114359524Y-49943509D02*
X114311905Y-49991128D01*
X114311905Y-49991128D02*
X114264286Y-50086366D01*
X114264286Y-50086366D02*
X114264286Y-50276842D01*
X114264286Y-50276842D02*
X114311905Y-50372080D01*
X114311905Y-50372080D02*
X114359524Y-50419700D01*
X114359524Y-50419700D02*
X114454762Y-50467319D01*
X114454762Y-50467319D02*
X114645238Y-50467319D01*
X114645238Y-50467319D02*
X114740476Y-50419700D01*
X114740476Y-50419700D02*
X114788095Y-50372080D01*
X114788095Y-50372080D02*
X114835714Y-50276842D01*
X114835714Y-50276842D02*
X114835714Y-50086366D01*
X114835714Y-50086366D02*
X114788095Y-49991128D01*
X114788095Y-49991128D02*
X114740476Y-49943509D01*
X114740476Y-49943509D02*
X114645238Y-49895890D01*
X74066666Y-46375319D02*
X74066666Y-47089604D01*
X74066666Y-47089604D02*
X74019047Y-47232461D01*
X74019047Y-47232461D02*
X73923809Y-47327700D01*
X73923809Y-47327700D02*
X73780952Y-47375319D01*
X73780952Y-47375319D02*
X73685714Y-47375319D01*
X74971428Y-46375319D02*
X74780952Y-46375319D01*
X74780952Y-46375319D02*
X74685714Y-46422938D01*
X74685714Y-46422938D02*
X74638095Y-46470557D01*
X74638095Y-46470557D02*
X74542857Y-46613414D01*
X74542857Y-46613414D02*
X74495238Y-46803890D01*
X74495238Y-46803890D02*
X74495238Y-47184842D01*
X74495238Y-47184842D02*
X74542857Y-47280080D01*
X74542857Y-47280080D02*
X74590476Y-47327700D01*
X74590476Y-47327700D02*
X74685714Y-47375319D01*
X74685714Y-47375319D02*
X74876190Y-47375319D01*
X74876190Y-47375319D02*
X74971428Y-47327700D01*
X74971428Y-47327700D02*
X75019047Y-47280080D01*
X75019047Y-47280080D02*
X75066666Y-47184842D01*
X75066666Y-47184842D02*
X75066666Y-46946747D01*
X75066666Y-46946747D02*
X75019047Y-46851509D01*
X75019047Y-46851509D02*
X74971428Y-46803890D01*
X74971428Y-46803890D02*
X74876190Y-46756271D01*
X74876190Y-46756271D02*
X74685714Y-46756271D01*
X74685714Y-46756271D02*
X74590476Y-46803890D01*
X74590476Y-46803890D02*
X74542857Y-46851509D01*
X74542857Y-46851509D02*
X74495238Y-46946747D01*
X72570475Y-32954819D02*
X72237142Y-32478628D01*
X71999047Y-32954819D02*
X71999047Y-31954819D01*
X71999047Y-31954819D02*
X72379999Y-31954819D01*
X72379999Y-31954819D02*
X72475237Y-32002438D01*
X72475237Y-32002438D02*
X72522856Y-32050057D01*
X72522856Y-32050057D02*
X72570475Y-32145295D01*
X72570475Y-32145295D02*
X72570475Y-32288152D01*
X72570475Y-32288152D02*
X72522856Y-32383390D01*
X72522856Y-32383390D02*
X72475237Y-32431009D01*
X72475237Y-32431009D02*
X72379999Y-32478628D01*
X72379999Y-32478628D02*
X71999047Y-32478628D01*
X72999047Y-32431009D02*
X73332380Y-32431009D01*
X73475237Y-32954819D02*
X72999047Y-32954819D01*
X72999047Y-32954819D02*
X72999047Y-31954819D01*
X72999047Y-31954819D02*
X73475237Y-31954819D01*
X74237142Y-32431009D02*
X73903809Y-32431009D01*
X73903809Y-32954819D02*
X73903809Y-31954819D01*
X73903809Y-31954819D02*
X74379999Y-31954819D01*
X75284761Y-32954819D02*
X74713333Y-32954819D01*
X74999047Y-32954819D02*
X74999047Y-31954819D01*
X74999047Y-31954819D02*
X74903809Y-32097676D01*
X74903809Y-32097676D02*
X74808571Y-32192914D01*
X74808571Y-32192914D02*
X74713333Y-32240533D01*
X75856190Y-31954819D02*
X75856190Y-32192914D01*
X75618095Y-32097676D02*
X75856190Y-32192914D01*
X75856190Y-32192914D02*
X76094285Y-32097676D01*
X75713333Y-32383390D02*
X75856190Y-32192914D01*
X75856190Y-32192914D02*
X75999047Y-32383390D01*
X76618095Y-31954819D02*
X76618095Y-32192914D01*
X76380000Y-32097676D02*
X76618095Y-32192914D01*
X76618095Y-32192914D02*
X76856190Y-32097676D01*
X76475238Y-32383390D02*
X76618095Y-32192914D01*
X76618095Y-32192914D02*
X76760952Y-32383390D01*
X118216666Y-48657319D02*
X118216666Y-49371604D01*
X118216666Y-49371604D02*
X118169047Y-49514461D01*
X118169047Y-49514461D02*
X118073809Y-49609700D01*
X118073809Y-49609700D02*
X117930952Y-49657319D01*
X117930952Y-49657319D02*
X117835714Y-49657319D01*
X118692857Y-49657319D02*
X118692857Y-48657319D01*
X118692857Y-48657319D02*
X119073809Y-48657319D01*
X119073809Y-48657319D02*
X119169047Y-48704938D01*
X119169047Y-48704938D02*
X119216666Y-48752557D01*
X119216666Y-48752557D02*
X119264285Y-48847795D01*
X119264285Y-48847795D02*
X119264285Y-48990652D01*
X119264285Y-48990652D02*
X119216666Y-49085890D01*
X119216666Y-49085890D02*
X119169047Y-49133509D01*
X119169047Y-49133509D02*
X119073809Y-49181128D01*
X119073809Y-49181128D02*
X118692857Y-49181128D01*
X119597619Y-48657319D02*
X120216666Y-48657319D01*
X120216666Y-48657319D02*
X119883333Y-49038271D01*
X119883333Y-49038271D02*
X120026190Y-49038271D01*
X120026190Y-49038271D02*
X120121428Y-49085890D01*
X120121428Y-49085890D02*
X120169047Y-49133509D01*
X120169047Y-49133509D02*
X120216666Y-49228747D01*
X120216666Y-49228747D02*
X120216666Y-49466842D01*
X120216666Y-49466842D02*
X120169047Y-49562080D01*
X120169047Y-49562080D02*
X120121428Y-49609700D01*
X120121428Y-49609700D02*
X120026190Y-49657319D01*
X120026190Y-49657319D02*
X119740476Y-49657319D01*
X119740476Y-49657319D02*
X119645238Y-49609700D01*
X119645238Y-49609700D02*
X119597619Y-49562080D01*
X117857261Y-70270057D02*
X117762023Y-70222438D01*
X117762023Y-70222438D02*
X117666785Y-70127200D01*
X117666785Y-70127200D02*
X117523928Y-69984342D01*
X117523928Y-69984342D02*
X117428690Y-69936723D01*
X117428690Y-69936723D02*
X117333452Y-69936723D01*
X117381071Y-70174819D02*
X117285833Y-70127200D01*
X117285833Y-70127200D02*
X117190595Y-70031961D01*
X117190595Y-70031961D02*
X117142976Y-69841485D01*
X117142976Y-69841485D02*
X117142976Y-69508152D01*
X117142976Y-69508152D02*
X117190595Y-69317676D01*
X117190595Y-69317676D02*
X117285833Y-69222438D01*
X117285833Y-69222438D02*
X117381071Y-69174819D01*
X117381071Y-69174819D02*
X117571547Y-69174819D01*
X117571547Y-69174819D02*
X117666785Y-69222438D01*
X117666785Y-69222438D02*
X117762023Y-69317676D01*
X117762023Y-69317676D02*
X117809642Y-69508152D01*
X117809642Y-69508152D02*
X117809642Y-69841485D01*
X117809642Y-69841485D02*
X117762023Y-70031961D01*
X117762023Y-70031961D02*
X117666785Y-70127200D01*
X117666785Y-70127200D02*
X117571547Y-70174819D01*
X117571547Y-70174819D02*
X117381071Y-70174819D01*
X118714404Y-69174819D02*
X118238214Y-69174819D01*
X118238214Y-69174819D02*
X118190595Y-69651009D01*
X118190595Y-69651009D02*
X118238214Y-69603390D01*
X118238214Y-69603390D02*
X118333452Y-69555771D01*
X118333452Y-69555771D02*
X118571547Y-69555771D01*
X118571547Y-69555771D02*
X118666785Y-69603390D01*
X118666785Y-69603390D02*
X118714404Y-69651009D01*
X118714404Y-69651009D02*
X118762023Y-69746247D01*
X118762023Y-69746247D02*
X118762023Y-69984342D01*
X118762023Y-69984342D02*
X118714404Y-70079580D01*
X118714404Y-70079580D02*
X118666785Y-70127200D01*
X118666785Y-70127200D02*
X118571547Y-70174819D01*
X118571547Y-70174819D02*
X118333452Y-70174819D01*
X118333452Y-70174819D02*
X118238214Y-70127200D01*
X118238214Y-70127200D02*
X118190595Y-70079580D01*
X95029442Y-52052981D02*
X94962098Y-52052981D01*
X94962098Y-52052981D02*
X94827411Y-51985637D01*
X94827411Y-51985637D02*
X94760068Y-51918294D01*
X94760068Y-51918294D02*
X94692724Y-51783607D01*
X94692724Y-51783607D02*
X94692724Y-51648920D01*
X94692724Y-51648920D02*
X94726396Y-51547905D01*
X94726396Y-51547905D02*
X94827411Y-51379546D01*
X94827411Y-51379546D02*
X94928426Y-51278531D01*
X94928426Y-51278531D02*
X95096785Y-51177515D01*
X95096785Y-51177515D02*
X95197800Y-51143844D01*
X95197800Y-51143844D02*
X95332487Y-51143844D01*
X95332487Y-51143844D02*
X95467174Y-51211187D01*
X95467174Y-51211187D02*
X95534518Y-51278531D01*
X95534518Y-51278531D02*
X95601861Y-51413218D01*
X95601861Y-51413218D02*
X95601861Y-51480561D01*
X96308968Y-52052981D02*
X95972251Y-51716263D01*
X95972251Y-51716263D02*
X95601861Y-52019309D01*
X95601861Y-52019309D02*
X95669205Y-52019309D01*
X95669205Y-52019309D02*
X95770220Y-52052981D01*
X95770220Y-52052981D02*
X95938579Y-52221340D01*
X95938579Y-52221340D02*
X95972251Y-52322355D01*
X95972251Y-52322355D02*
X95972251Y-52389698D01*
X95972251Y-52389698D02*
X95938579Y-52490714D01*
X95938579Y-52490714D02*
X95770220Y-52659072D01*
X95770220Y-52659072D02*
X95669205Y-52692744D01*
X95669205Y-52692744D02*
X95601861Y-52692744D01*
X95601861Y-52692744D02*
X95500846Y-52659072D01*
X95500846Y-52659072D02*
X95332487Y-52490714D01*
X95332487Y-52490714D02*
X95298816Y-52389698D01*
X95298816Y-52389698D02*
X95298816Y-52322355D01*
X105663284Y-61984554D02*
X105764299Y-61412135D01*
X105259223Y-61580493D02*
X105966330Y-60873387D01*
X105966330Y-60873387D02*
X106235704Y-61142761D01*
X106235704Y-61142761D02*
X106269376Y-61243776D01*
X106269376Y-61243776D02*
X106269376Y-61311119D01*
X106269376Y-61311119D02*
X106235704Y-61412135D01*
X106235704Y-61412135D02*
X106134689Y-61513150D01*
X106134689Y-61513150D02*
X106033673Y-61546822D01*
X106033673Y-61546822D02*
X105966330Y-61546822D01*
X105966330Y-61546822D02*
X105865315Y-61513150D01*
X105865315Y-61513150D02*
X105595941Y-61243776D01*
X106336719Y-62657989D02*
X105932658Y-62253928D01*
X106134689Y-62455959D02*
X106841795Y-61748852D01*
X106841795Y-61748852D02*
X106673437Y-61782524D01*
X106673437Y-61782524D02*
X106538750Y-61782524D01*
X106538750Y-61782524D02*
X106437734Y-61748852D01*
X107649918Y-62556974D02*
X107515231Y-62422287D01*
X107515231Y-62422287D02*
X107414215Y-62388616D01*
X107414215Y-62388616D02*
X107346872Y-62388616D01*
X107346872Y-62388616D02*
X107178513Y-62422287D01*
X107178513Y-62422287D02*
X107010154Y-62523303D01*
X107010154Y-62523303D02*
X106740780Y-62792677D01*
X106740780Y-62792677D02*
X106707109Y-62893692D01*
X106707109Y-62893692D02*
X106707109Y-62961035D01*
X106707109Y-62961035D02*
X106740780Y-63062051D01*
X106740780Y-63062051D02*
X106875467Y-63196738D01*
X106875467Y-63196738D02*
X106976483Y-63230409D01*
X106976483Y-63230409D02*
X107043826Y-63230409D01*
X107043826Y-63230409D02*
X107144841Y-63196738D01*
X107144841Y-63196738D02*
X107313200Y-63028379D01*
X107313200Y-63028379D02*
X107346872Y-62927364D01*
X107346872Y-62927364D02*
X107346872Y-62860020D01*
X107346872Y-62860020D02*
X107313200Y-62759005D01*
X107313200Y-62759005D02*
X107178513Y-62624318D01*
X107178513Y-62624318D02*
X107077498Y-62590646D01*
X107077498Y-62590646D02*
X107010154Y-62590646D01*
X107010154Y-62590646D02*
X106909139Y-62624318D01*
X122386666Y-65845319D02*
X122386666Y-66559604D01*
X122386666Y-66559604D02*
X122339047Y-66702461D01*
X122339047Y-66702461D02*
X122243809Y-66797700D01*
X122243809Y-66797700D02*
X122100952Y-66845319D01*
X122100952Y-66845319D02*
X122005714Y-66845319D01*
X122767619Y-65845319D02*
X123386666Y-65845319D01*
X123386666Y-65845319D02*
X123053333Y-66226271D01*
X123053333Y-66226271D02*
X123196190Y-66226271D01*
X123196190Y-66226271D02*
X123291428Y-66273890D01*
X123291428Y-66273890D02*
X123339047Y-66321509D01*
X123339047Y-66321509D02*
X123386666Y-66416747D01*
X123386666Y-66416747D02*
X123386666Y-66654842D01*
X123386666Y-66654842D02*
X123339047Y-66750080D01*
X123339047Y-66750080D02*
X123291428Y-66797700D01*
X123291428Y-66797700D02*
X123196190Y-66845319D01*
X123196190Y-66845319D02*
X122910476Y-66845319D01*
X122910476Y-66845319D02*
X122815238Y-66797700D01*
X122815238Y-66797700D02*
X122767619Y-66750080D01*
D11*
X97432380Y-25566842D02*
X97613809Y-25627318D01*
X97613809Y-25627318D02*
X97916190Y-25627318D01*
X97916190Y-25627318D02*
X98037142Y-25566842D01*
X98037142Y-25566842D02*
X98097618Y-25506365D01*
X98097618Y-25506365D02*
X98158095Y-25385413D01*
X98158095Y-25385413D02*
X98158095Y-25264461D01*
X98158095Y-25264461D02*
X98097618Y-25143508D01*
X98097618Y-25143508D02*
X98037142Y-25083032D01*
X98037142Y-25083032D02*
X97916190Y-25022556D01*
X97916190Y-25022556D02*
X97674285Y-24962080D01*
X97674285Y-24962080D02*
X97553333Y-24901603D01*
X97553333Y-24901603D02*
X97492856Y-24841127D01*
X97492856Y-24841127D02*
X97432380Y-24720175D01*
X97432380Y-24720175D02*
X97432380Y-24599222D01*
X97432380Y-24599222D02*
X97492856Y-24478270D01*
X97492856Y-24478270D02*
X97553333Y-24417794D01*
X97553333Y-24417794D02*
X97674285Y-24357318D01*
X97674285Y-24357318D02*
X97976666Y-24357318D01*
X97976666Y-24357318D02*
X98158095Y-24417794D01*
X99367619Y-25627318D02*
X98641904Y-25627318D01*
X99004761Y-25627318D02*
X99004761Y-24357318D01*
X99004761Y-24357318D02*
X98883809Y-24538746D01*
X98883809Y-24538746D02*
X98762857Y-24659699D01*
X98762857Y-24659699D02*
X98641904Y-24720175D01*
D10*
X122024819Y-76462857D02*
X121548628Y-76796190D01*
X122024819Y-77034285D02*
X121024819Y-77034285D01*
X121024819Y-77034285D02*
X121024819Y-76653333D01*
X121024819Y-76653333D02*
X121072438Y-76558095D01*
X121072438Y-76558095D02*
X121120057Y-76510476D01*
X121120057Y-76510476D02*
X121215295Y-76462857D01*
X121215295Y-76462857D02*
X121358152Y-76462857D01*
X121358152Y-76462857D02*
X121453390Y-76510476D01*
X121453390Y-76510476D02*
X121501009Y-76558095D01*
X121501009Y-76558095D02*
X121548628Y-76653333D01*
X121548628Y-76653333D02*
X121548628Y-77034285D01*
X121120057Y-76081904D02*
X121072438Y-76034285D01*
X121072438Y-76034285D02*
X121024819Y-75939047D01*
X121024819Y-75939047D02*
X121024819Y-75700952D01*
X121024819Y-75700952D02*
X121072438Y-75605714D01*
X121072438Y-75605714D02*
X121120057Y-75558095D01*
X121120057Y-75558095D02*
X121215295Y-75510476D01*
X121215295Y-75510476D02*
X121310533Y-75510476D01*
X121310533Y-75510476D02*
X121453390Y-75558095D01*
X121453390Y-75558095D02*
X122024819Y-76129523D01*
X122024819Y-76129523D02*
X122024819Y-75510476D01*
X122024819Y-74558095D02*
X122024819Y-75129523D01*
X122024819Y-74843809D02*
X121024819Y-74843809D01*
X121024819Y-74843809D02*
X121167676Y-74939047D01*
X121167676Y-74939047D02*
X121262914Y-75034285D01*
X121262914Y-75034285D02*
X121310533Y-75129523D01*
X95056655Y-59346030D02*
X95056655Y-59413374D01*
X95056655Y-59413374D02*
X94989311Y-59548061D01*
X94989311Y-59548061D02*
X94921968Y-59615404D01*
X94921968Y-59615404D02*
X94787281Y-59682748D01*
X94787281Y-59682748D02*
X94652594Y-59682748D01*
X94652594Y-59682748D02*
X94551579Y-59649076D01*
X94551579Y-59649076D02*
X94383220Y-59548061D01*
X94383220Y-59548061D02*
X94282205Y-59447046D01*
X94282205Y-59447046D02*
X94181189Y-59278687D01*
X94181189Y-59278687D02*
X94147518Y-59177672D01*
X94147518Y-59177672D02*
X94147518Y-59042985D01*
X94147518Y-59042985D02*
X94214861Y-58908298D01*
X94214861Y-58908298D02*
X94282205Y-58840954D01*
X94282205Y-58840954D02*
X94416892Y-58773611D01*
X94416892Y-58773611D02*
X94484235Y-58773611D01*
X94652594Y-58470565D02*
X95123998Y-57999160D01*
X95123998Y-57999160D02*
X95528059Y-59009313D01*
X103467643Y-66546655D02*
X103400299Y-66546655D01*
X103400299Y-66546655D02*
X103265612Y-66479311D01*
X103265612Y-66479311D02*
X103198269Y-66411968D01*
X103198269Y-66411968D02*
X103130925Y-66277281D01*
X103130925Y-66277281D02*
X103130925Y-66142594D01*
X103130925Y-66142594D02*
X103164597Y-66041579D01*
X103164597Y-66041579D02*
X103265612Y-65873220D01*
X103265612Y-65873220D02*
X103366627Y-65772205D01*
X103366627Y-65772205D02*
X103534986Y-65671189D01*
X103534986Y-65671189D02*
X103636001Y-65637518D01*
X103636001Y-65637518D02*
X103770688Y-65637518D01*
X103770688Y-65637518D02*
X103905375Y-65704861D01*
X103905375Y-65704861D02*
X103972719Y-65772205D01*
X103972719Y-65772205D02*
X104040062Y-65906892D01*
X104040062Y-65906892D02*
X104040062Y-65974235D01*
X104073734Y-67287433D02*
X103669673Y-66883372D01*
X103871704Y-67085403D02*
X104578810Y-66378296D01*
X104578810Y-66378296D02*
X104410452Y-66411968D01*
X104410452Y-66411968D02*
X104275765Y-66411968D01*
X104275765Y-66411968D02*
X104174749Y-66378296D01*
D12*
X101426409Y-33596378D02*
X101072856Y-33242824D01*
X101072856Y-33242824D02*
X101157035Y-33158645D01*
X101157035Y-33158645D02*
X101224378Y-33124973D01*
X101224378Y-33124973D02*
X101291722Y-33124973D01*
X101291722Y-33124973D02*
X101342230Y-33141809D01*
X101342230Y-33141809D02*
X101426409Y-33192317D01*
X101426409Y-33192317D02*
X101476917Y-33242824D01*
X101476917Y-33242824D02*
X101527424Y-33327004D01*
X101527424Y-33327004D02*
X101544260Y-33377511D01*
X101544260Y-33377511D02*
X101544260Y-33444855D01*
X101544260Y-33444855D02*
X101510588Y-33512198D01*
X101510588Y-33512198D02*
X101426409Y-33596378D01*
X101392737Y-32922943D02*
X101611604Y-32704076D01*
X101611604Y-32704076D02*
X101628439Y-32956614D01*
X101628439Y-32956614D02*
X101678947Y-32906107D01*
X101678947Y-32906107D02*
X101729455Y-32889271D01*
X101729455Y-32889271D02*
X101763126Y-32889271D01*
X101763126Y-32889271D02*
X101813634Y-32906107D01*
X101813634Y-32906107D02*
X101897813Y-32990286D01*
X101897813Y-32990286D02*
X101914649Y-33040794D01*
X101914649Y-33040794D02*
X101914649Y-33074466D01*
X101914649Y-33074466D02*
X101897813Y-33124973D01*
X101897813Y-33124973D02*
X101796798Y-33225988D01*
X101796798Y-33225988D02*
X101746291Y-33242824D01*
X101746291Y-33242824D02*
X101712619Y-33242824D01*
D10*
X117874761Y-73730057D02*
X117779523Y-73682438D01*
X117779523Y-73682438D02*
X117684285Y-73587200D01*
X117684285Y-73587200D02*
X117541428Y-73444342D01*
X117541428Y-73444342D02*
X117446190Y-73396723D01*
X117446190Y-73396723D02*
X117350952Y-73396723D01*
X117398571Y-73634819D02*
X117303333Y-73587200D01*
X117303333Y-73587200D02*
X117208095Y-73491961D01*
X117208095Y-73491961D02*
X117160476Y-73301485D01*
X117160476Y-73301485D02*
X117160476Y-72968152D01*
X117160476Y-72968152D02*
X117208095Y-72777676D01*
X117208095Y-72777676D02*
X117303333Y-72682438D01*
X117303333Y-72682438D02*
X117398571Y-72634819D01*
X117398571Y-72634819D02*
X117589047Y-72634819D01*
X117589047Y-72634819D02*
X117684285Y-72682438D01*
X117684285Y-72682438D02*
X117779523Y-72777676D01*
X117779523Y-72777676D02*
X117827142Y-72968152D01*
X117827142Y-72968152D02*
X117827142Y-73301485D01*
X117827142Y-73301485D02*
X117779523Y-73491961D01*
X117779523Y-73491961D02*
X117684285Y-73587200D01*
X117684285Y-73587200D02*
X117589047Y-73634819D01*
X117589047Y-73634819D02*
X117398571Y-73634819D01*
X118684285Y-72968152D02*
X118684285Y-73634819D01*
X118446190Y-72587200D02*
X118208095Y-73301485D01*
X118208095Y-73301485D02*
X118827142Y-73301485D01*
X104717780Y-65866908D02*
X104381062Y-66203626D01*
X104852467Y-65260817D02*
X104717780Y-65866908D01*
X104717780Y-65866908D02*
X105323871Y-65732221D01*
X105222856Y-67045419D02*
X104818795Y-66641358D01*
X105020826Y-66843389D02*
X105727932Y-66136282D01*
X105727932Y-66136282D02*
X105559574Y-66169954D01*
X105559574Y-66169954D02*
X105424887Y-66169954D01*
X105424887Y-66169954D02*
X105323871Y-66136282D01*
X117591866Y-47642019D02*
X117591866Y-48356304D01*
X117591866Y-48356304D02*
X117544247Y-48499161D01*
X117544247Y-48499161D02*
X117449009Y-48594400D01*
X117449009Y-48594400D02*
X117306152Y-48642019D01*
X117306152Y-48642019D02*
X117210914Y-48642019D01*
X118068057Y-48642019D02*
X118068057Y-47642019D01*
X118068057Y-47642019D02*
X118449009Y-47642019D01*
X118449009Y-47642019D02*
X118544247Y-47689638D01*
X118544247Y-47689638D02*
X118591866Y-47737257D01*
X118591866Y-47737257D02*
X118639485Y-47832495D01*
X118639485Y-47832495D02*
X118639485Y-47975352D01*
X118639485Y-47975352D02*
X118591866Y-48070590D01*
X118591866Y-48070590D02*
X118544247Y-48118209D01*
X118544247Y-48118209D02*
X118449009Y-48165828D01*
X118449009Y-48165828D02*
X118068057Y-48165828D01*
X119496628Y-47975352D02*
X119496628Y-48642019D01*
X119258533Y-47594400D02*
X119020438Y-48308685D01*
X119020438Y-48308685D02*
X119639485Y-48308685D01*
X99311009Y-29800833D02*
X99311009Y-30134166D01*
X99834819Y-30134166D02*
X98834819Y-30134166D01*
X98834819Y-30134166D02*
X98834819Y-29657976D01*
X99834819Y-28753214D02*
X99834819Y-29324642D01*
X99834819Y-29038928D02*
X98834819Y-29038928D01*
X98834819Y-29038928D02*
X98977676Y-29134166D01*
X98977676Y-29134166D02*
X99072914Y-29229404D01*
X99072914Y-29229404D02*
X99120533Y-29324642D01*
X88309449Y-52828586D02*
X88309449Y-52895930D01*
X88309449Y-52895930D02*
X88242105Y-53030617D01*
X88242105Y-53030617D02*
X88174762Y-53097960D01*
X88174762Y-53097960D02*
X88040075Y-53165304D01*
X88040075Y-53165304D02*
X87905388Y-53165304D01*
X87905388Y-53165304D02*
X87804373Y-53131632D01*
X87804373Y-53131632D02*
X87636014Y-53030617D01*
X87636014Y-53030617D02*
X87534999Y-52929602D01*
X87534999Y-52929602D02*
X87433983Y-52761243D01*
X87433983Y-52761243D02*
X87400312Y-52660228D01*
X87400312Y-52660228D02*
X87400312Y-52525541D01*
X87400312Y-52525541D02*
X87467655Y-52390854D01*
X87467655Y-52390854D02*
X87534999Y-52323510D01*
X87534999Y-52323510D02*
X87669686Y-52256167D01*
X87669686Y-52256167D02*
X87737029Y-52256167D01*
X89050227Y-52222495D02*
X88646166Y-52626556D01*
X88848197Y-52424525D02*
X88141090Y-51717419D01*
X88141090Y-51717419D02*
X88174762Y-51885777D01*
X88174762Y-51885777D02*
X88174762Y-52020464D01*
X88174762Y-52020464D02*
X88141090Y-52121480D01*
X88982884Y-50875625D02*
X88646166Y-51212342D01*
X88646166Y-51212342D02*
X88949212Y-51582731D01*
X88949212Y-51582731D02*
X88949212Y-51515388D01*
X88949212Y-51515388D02*
X88982884Y-51414373D01*
X88982884Y-51414373D02*
X89151243Y-51246014D01*
X89151243Y-51246014D02*
X89252258Y-51212342D01*
X89252258Y-51212342D02*
X89319602Y-51212342D01*
X89319602Y-51212342D02*
X89420617Y-51246014D01*
X89420617Y-51246014D02*
X89588976Y-51414373D01*
X89588976Y-51414373D02*
X89622647Y-51515388D01*
X89622647Y-51515388D02*
X89622647Y-51582731D01*
X89622647Y-51582731D02*
X89588976Y-51683747D01*
X89588976Y-51683747D02*
X89420617Y-51852105D01*
X89420617Y-51852105D02*
X89319602Y-51885777D01*
X89319602Y-51885777D02*
X89252258Y-51885777D01*
X93107643Y-50626656D02*
X93040299Y-50626656D01*
X93040299Y-50626656D02*
X92905612Y-50559312D01*
X92905612Y-50559312D02*
X92838269Y-50491969D01*
X92838269Y-50491969D02*
X92770925Y-50357282D01*
X92770925Y-50357282D02*
X92770925Y-50222595D01*
X92770925Y-50222595D02*
X92804597Y-50121580D01*
X92804597Y-50121580D02*
X92905612Y-49953221D01*
X92905612Y-49953221D02*
X93006627Y-49852206D01*
X93006627Y-49852206D02*
X93174986Y-49751190D01*
X93174986Y-49751190D02*
X93276001Y-49717519D01*
X93276001Y-49717519D02*
X93410688Y-49717519D01*
X93410688Y-49717519D02*
X93545375Y-49784862D01*
X93545375Y-49784862D02*
X93612719Y-49852206D01*
X93612719Y-49852206D02*
X93680062Y-49986893D01*
X93680062Y-49986893D02*
X93680062Y-50054236D01*
X93983108Y-50222595D02*
X94420841Y-50660328D01*
X94420841Y-50660328D02*
X93915765Y-50693999D01*
X93915765Y-50693999D02*
X94016780Y-50795015D01*
X94016780Y-50795015D02*
X94050452Y-50896030D01*
X94050452Y-50896030D02*
X94050452Y-50963373D01*
X94050452Y-50963373D02*
X94016780Y-51064389D01*
X94016780Y-51064389D02*
X93848421Y-51232747D01*
X93848421Y-51232747D02*
X93747406Y-51266419D01*
X93747406Y-51266419D02*
X93680062Y-51266419D01*
X93680062Y-51266419D02*
X93579047Y-51232747D01*
X93579047Y-51232747D02*
X93377017Y-51030717D01*
X93377017Y-51030717D02*
X93343345Y-50929702D01*
X93343345Y-50929702D02*
X93343345Y-50862358D01*
X114664819Y-69342857D02*
X114188628Y-69676190D01*
X114664819Y-69914285D02*
X113664819Y-69914285D01*
X113664819Y-69914285D02*
X113664819Y-69533333D01*
X113664819Y-69533333D02*
X113712438Y-69438095D01*
X113712438Y-69438095D02*
X113760057Y-69390476D01*
X113760057Y-69390476D02*
X113855295Y-69342857D01*
X113855295Y-69342857D02*
X113998152Y-69342857D01*
X113998152Y-69342857D02*
X114093390Y-69390476D01*
X114093390Y-69390476D02*
X114141009Y-69438095D01*
X114141009Y-69438095D02*
X114188628Y-69533333D01*
X114188628Y-69533333D02*
X114188628Y-69914285D01*
X114664819Y-68390476D02*
X114664819Y-68961904D01*
X114664819Y-68676190D02*
X113664819Y-68676190D01*
X113664819Y-68676190D02*
X113807676Y-68771428D01*
X113807676Y-68771428D02*
X113902914Y-68866666D01*
X113902914Y-68866666D02*
X113950533Y-68961904D01*
X113998152Y-67533333D02*
X114664819Y-67533333D01*
X113617200Y-67771428D02*
X114331485Y-68009523D01*
X114331485Y-68009523D02*
X114331485Y-67390476D01*
X106577965Y-52228194D02*
X106577965Y-52295538D01*
X106577965Y-52295538D02*
X106510621Y-52430225D01*
X106510621Y-52430225D02*
X106443278Y-52497568D01*
X106443278Y-52497568D02*
X106308591Y-52564912D01*
X106308591Y-52564912D02*
X106173904Y-52564912D01*
X106173904Y-52564912D02*
X106072889Y-52531240D01*
X106072889Y-52531240D02*
X105904530Y-52430225D01*
X105904530Y-52430225D02*
X105803515Y-52329210D01*
X105803515Y-52329210D02*
X105702499Y-52160851D01*
X105702499Y-52160851D02*
X105668828Y-52059836D01*
X105668828Y-52059836D02*
X105668828Y-51925149D01*
X105668828Y-51925149D02*
X105736171Y-51790462D01*
X105736171Y-51790462D02*
X105803515Y-51723118D01*
X105803515Y-51723118D02*
X105938202Y-51655775D01*
X105938202Y-51655775D02*
X106005545Y-51655775D01*
X106982026Y-51958820D02*
X107116713Y-51824133D01*
X107116713Y-51824133D02*
X107150385Y-51723118D01*
X107150385Y-51723118D02*
X107150385Y-51655775D01*
X107150385Y-51655775D02*
X107116713Y-51487416D01*
X107116713Y-51487416D02*
X107015698Y-51319057D01*
X107015698Y-51319057D02*
X106746324Y-51049683D01*
X106746324Y-51049683D02*
X106645308Y-51016011D01*
X106645308Y-51016011D02*
X106577965Y-51016011D01*
X106577965Y-51016011D02*
X106476950Y-51049683D01*
X106476950Y-51049683D02*
X106342263Y-51184370D01*
X106342263Y-51184370D02*
X106308591Y-51285385D01*
X106308591Y-51285385D02*
X106308591Y-51352729D01*
X106308591Y-51352729D02*
X106342263Y-51453744D01*
X106342263Y-51453744D02*
X106510621Y-51622103D01*
X106510621Y-51622103D02*
X106611637Y-51655775D01*
X106611637Y-51655775D02*
X106678980Y-51655775D01*
X106678980Y-51655775D02*
X106779995Y-51622103D01*
X106779995Y-51622103D02*
X106914682Y-51487416D01*
X106914682Y-51487416D02*
X106948354Y-51386401D01*
X106948354Y-51386401D02*
X106948354Y-51319057D01*
X106948354Y-51319057D02*
X106914682Y-51218042D01*
X114754819Y-73022857D02*
X114278628Y-73356190D01*
X114754819Y-73594285D02*
X113754819Y-73594285D01*
X113754819Y-73594285D02*
X113754819Y-73213333D01*
X113754819Y-73213333D02*
X113802438Y-73118095D01*
X113802438Y-73118095D02*
X113850057Y-73070476D01*
X113850057Y-73070476D02*
X113945295Y-73022857D01*
X113945295Y-73022857D02*
X114088152Y-73022857D01*
X114088152Y-73022857D02*
X114183390Y-73070476D01*
X114183390Y-73070476D02*
X114231009Y-73118095D01*
X114231009Y-73118095D02*
X114278628Y-73213333D01*
X114278628Y-73213333D02*
X114278628Y-73594285D01*
X114754819Y-72070476D02*
X114754819Y-72641904D01*
X114754819Y-72356190D02*
X113754819Y-72356190D01*
X113754819Y-72356190D02*
X113897676Y-72451428D01*
X113897676Y-72451428D02*
X113992914Y-72546666D01*
X113992914Y-72546666D02*
X114040533Y-72641904D01*
X113754819Y-71737142D02*
X113754819Y-71118095D01*
X113754819Y-71118095D02*
X114135771Y-71451428D01*
X114135771Y-71451428D02*
X114135771Y-71308571D01*
X114135771Y-71308571D02*
X114183390Y-71213333D01*
X114183390Y-71213333D02*
X114231009Y-71165714D01*
X114231009Y-71165714D02*
X114326247Y-71118095D01*
X114326247Y-71118095D02*
X114564342Y-71118095D01*
X114564342Y-71118095D02*
X114659580Y-71165714D01*
X114659580Y-71165714D02*
X114707200Y-71213333D01*
X114707200Y-71213333D02*
X114754819Y-71308571D01*
X114754819Y-71308571D02*
X114754819Y-71594285D01*
X114754819Y-71594285D02*
X114707200Y-71689523D01*
X114707200Y-71689523D02*
X114659580Y-71737142D01*
D13*
X78586666Y-48200406D02*
X78586666Y-48563263D01*
X78586666Y-48563263D02*
X78562475Y-48635835D01*
X78562475Y-48635835D02*
X78514094Y-48684216D01*
X78514094Y-48684216D02*
X78441523Y-48708406D01*
X78441523Y-48708406D02*
X78393142Y-48708406D01*
X78828571Y-48708406D02*
X78828571Y-48200406D01*
X78828571Y-48200406D02*
X79022095Y-48200406D01*
X79022095Y-48200406D02*
X79070476Y-48224596D01*
X79070476Y-48224596D02*
X79094666Y-48248787D01*
X79094666Y-48248787D02*
X79118857Y-48297168D01*
X79118857Y-48297168D02*
X79118857Y-48369739D01*
X79118857Y-48369739D02*
X79094666Y-48418120D01*
X79094666Y-48418120D02*
X79070476Y-48442311D01*
X79070476Y-48442311D02*
X79022095Y-48466501D01*
X79022095Y-48466501D02*
X78828571Y-48466501D01*
X79554285Y-48200406D02*
X79457523Y-48200406D01*
X79457523Y-48200406D02*
X79409142Y-48224596D01*
X79409142Y-48224596D02*
X79384952Y-48248787D01*
X79384952Y-48248787D02*
X79336571Y-48321358D01*
X79336571Y-48321358D02*
X79312380Y-48418120D01*
X79312380Y-48418120D02*
X79312380Y-48611644D01*
X79312380Y-48611644D02*
X79336571Y-48660025D01*
X79336571Y-48660025D02*
X79360761Y-48684216D01*
X79360761Y-48684216D02*
X79409142Y-48708406D01*
X79409142Y-48708406D02*
X79505904Y-48708406D01*
X79505904Y-48708406D02*
X79554285Y-48684216D01*
X79554285Y-48684216D02*
X79578476Y-48660025D01*
X79578476Y-48660025D02*
X79602666Y-48611644D01*
X79602666Y-48611644D02*
X79602666Y-48490692D01*
X79602666Y-48490692D02*
X79578476Y-48442311D01*
X79578476Y-48442311D02*
X79554285Y-48418120D01*
X79554285Y-48418120D02*
X79505904Y-48393930D01*
X79505904Y-48393930D02*
X79409142Y-48393930D01*
X79409142Y-48393930D02*
X79360761Y-48418120D01*
X79360761Y-48418120D02*
X79336571Y-48442311D01*
X79336571Y-48442311D02*
X79312380Y-48490692D01*
D10*
X98529656Y-49552765D02*
X98630671Y-48980346D01*
X98125595Y-49148704D02*
X98832702Y-48441598D01*
X98832702Y-48441598D02*
X99102076Y-48710972D01*
X99102076Y-48710972D02*
X99135748Y-48811987D01*
X99135748Y-48811987D02*
X99135748Y-48879330D01*
X99135748Y-48879330D02*
X99102076Y-48980346D01*
X99102076Y-48980346D02*
X99001061Y-49081361D01*
X99001061Y-49081361D02*
X98900045Y-49115033D01*
X98900045Y-49115033D02*
X98832702Y-49115033D01*
X98832702Y-49115033D02*
X98731687Y-49081361D01*
X98731687Y-49081361D02*
X98462313Y-48811987D01*
X99607152Y-49687452D02*
X99135748Y-50158857D01*
X99708167Y-49249720D02*
X99034732Y-49586437D01*
X99034732Y-49586437D02*
X99472465Y-50024170D01*
X90574819Y-80523333D02*
X91289104Y-80523333D01*
X91289104Y-80523333D02*
X91431961Y-80570952D01*
X91431961Y-80570952D02*
X91527200Y-80666190D01*
X91527200Y-80666190D02*
X91574819Y-80809047D01*
X91574819Y-80809047D02*
X91574819Y-80904285D01*
X91574819Y-80047142D02*
X90574819Y-80047142D01*
X90574819Y-80047142D02*
X90574819Y-79666190D01*
X90574819Y-79666190D02*
X90622438Y-79570952D01*
X90622438Y-79570952D02*
X90670057Y-79523333D01*
X90670057Y-79523333D02*
X90765295Y-79475714D01*
X90765295Y-79475714D02*
X90908152Y-79475714D01*
X90908152Y-79475714D02*
X91003390Y-79523333D01*
X91003390Y-79523333D02*
X91051009Y-79570952D01*
X91051009Y-79570952D02*
X91098628Y-79666190D01*
X91098628Y-79666190D02*
X91098628Y-80047142D01*
X90670057Y-79094761D02*
X90622438Y-79047142D01*
X90622438Y-79047142D02*
X90574819Y-78951904D01*
X90574819Y-78951904D02*
X90574819Y-78713809D01*
X90574819Y-78713809D02*
X90622438Y-78618571D01*
X90622438Y-78618571D02*
X90670057Y-78570952D01*
X90670057Y-78570952D02*
X90765295Y-78523333D01*
X90765295Y-78523333D02*
X90860533Y-78523333D01*
X90860533Y-78523333D02*
X91003390Y-78570952D01*
X91003390Y-78570952D02*
X91574819Y-79142380D01*
X91574819Y-79142380D02*
X91574819Y-78523333D01*
X90271180Y-83241503D02*
X90271180Y-83956627D01*
X90271180Y-83956627D02*
X90223506Y-84099652D01*
X90223506Y-84099652D02*
X90128156Y-84195002D01*
X90128156Y-84195002D02*
X89985131Y-84242676D01*
X89985131Y-84242676D02*
X89889781Y-84242676D01*
X90700254Y-83336853D02*
X90747929Y-83289178D01*
X90747929Y-83289178D02*
X90843279Y-83241503D01*
X90843279Y-83241503D02*
X91081653Y-83241503D01*
X91081653Y-83241503D02*
X91177003Y-83289178D01*
X91177003Y-83289178D02*
X91224678Y-83336853D01*
X91224678Y-83336853D02*
X91272353Y-83432203D01*
X91272353Y-83432203D02*
X91272353Y-83527553D01*
X91272353Y-83527553D02*
X91224678Y-83670578D01*
X91224678Y-83670578D02*
X90652579Y-84242676D01*
X90652579Y-84242676D02*
X91272353Y-84242676D01*
X88329580Y-45372857D02*
X88377200Y-45420476D01*
X88377200Y-45420476D02*
X88424819Y-45563333D01*
X88424819Y-45563333D02*
X88424819Y-45658571D01*
X88424819Y-45658571D02*
X88377200Y-45801428D01*
X88377200Y-45801428D02*
X88281961Y-45896666D01*
X88281961Y-45896666D02*
X88186723Y-45944285D01*
X88186723Y-45944285D02*
X87996247Y-45991904D01*
X87996247Y-45991904D02*
X87853390Y-45991904D01*
X87853390Y-45991904D02*
X87662914Y-45944285D01*
X87662914Y-45944285D02*
X87567676Y-45896666D01*
X87567676Y-45896666D02*
X87472438Y-45801428D01*
X87472438Y-45801428D02*
X87424819Y-45658571D01*
X87424819Y-45658571D02*
X87424819Y-45563333D01*
X87424819Y-45563333D02*
X87472438Y-45420476D01*
X87472438Y-45420476D02*
X87520057Y-45372857D01*
X88424819Y-44420476D02*
X88424819Y-44991904D01*
X88424819Y-44706190D02*
X87424819Y-44706190D01*
X87424819Y-44706190D02*
X87567676Y-44801428D01*
X87567676Y-44801428D02*
X87662914Y-44896666D01*
X87662914Y-44896666D02*
X87710533Y-44991904D01*
X87758152Y-43563333D02*
X88424819Y-43563333D01*
X87377200Y-43801428D02*
X88091485Y-44039523D01*
X88091485Y-44039523D02*
X88091485Y-43420476D01*
X110704819Y-49560594D02*
X109704819Y-49560594D01*
X109704819Y-49560594D02*
X109704819Y-49322499D01*
X109704819Y-49322499D02*
X109752438Y-49179642D01*
X109752438Y-49179642D02*
X109847676Y-49084404D01*
X109847676Y-49084404D02*
X109942914Y-49036785D01*
X109942914Y-49036785D02*
X110133390Y-48989166D01*
X110133390Y-48989166D02*
X110276247Y-48989166D01*
X110276247Y-48989166D02*
X110466723Y-49036785D01*
X110466723Y-49036785D02*
X110561961Y-49084404D01*
X110561961Y-49084404D02*
X110657200Y-49179642D01*
X110657200Y-49179642D02*
X110704819Y-49322499D01*
X110704819Y-49322499D02*
X110704819Y-49560594D01*
X109704819Y-48084404D02*
X109704819Y-48560594D01*
X109704819Y-48560594D02*
X110181009Y-48608213D01*
X110181009Y-48608213D02*
X110133390Y-48560594D01*
X110133390Y-48560594D02*
X110085771Y-48465356D01*
X110085771Y-48465356D02*
X110085771Y-48227261D01*
X110085771Y-48227261D02*
X110133390Y-48132023D01*
X110133390Y-48132023D02*
X110181009Y-48084404D01*
X110181009Y-48084404D02*
X110276247Y-48036785D01*
X110276247Y-48036785D02*
X110514342Y-48036785D01*
X110514342Y-48036785D02*
X110609580Y-48084404D01*
X110609580Y-48084404D02*
X110657200Y-48132023D01*
X110657200Y-48132023D02*
X110704819Y-48227261D01*
X110704819Y-48227261D02*
X110704819Y-48465356D01*
X110704819Y-48465356D02*
X110657200Y-48560594D01*
X110657200Y-48560594D02*
X110609580Y-48608213D01*
X97782723Y-50016263D02*
X97715379Y-50016263D01*
X97715379Y-50016263D02*
X97580692Y-49948919D01*
X97580692Y-49948919D02*
X97513349Y-49881576D01*
X97513349Y-49881576D02*
X97446005Y-49746889D01*
X97446005Y-49746889D02*
X97446005Y-49612202D01*
X97446005Y-49612202D02*
X97479677Y-49511187D01*
X97479677Y-49511187D02*
X97580692Y-49342828D01*
X97580692Y-49342828D02*
X97681707Y-49241813D01*
X97681707Y-49241813D02*
X97850066Y-49140797D01*
X97850066Y-49140797D02*
X97951081Y-49107126D01*
X97951081Y-49107126D02*
X98085768Y-49107126D01*
X98085768Y-49107126D02*
X98220455Y-49174469D01*
X98220455Y-49174469D02*
X98287799Y-49241813D01*
X98287799Y-49241813D02*
X98355142Y-49376500D01*
X98355142Y-49376500D02*
X98355142Y-49443843D01*
X98388814Y-50757041D02*
X97984753Y-50352980D01*
X98186784Y-50555011D02*
X98893890Y-49847904D01*
X98893890Y-49847904D02*
X98725532Y-49881576D01*
X98725532Y-49881576D02*
X98590845Y-49881576D01*
X98590845Y-49881576D02*
X98489829Y-49847904D01*
X99297952Y-50386652D02*
X99365295Y-50386652D01*
X99365295Y-50386652D02*
X99466310Y-50420324D01*
X99466310Y-50420324D02*
X99634669Y-50588683D01*
X99634669Y-50588683D02*
X99668341Y-50689698D01*
X99668341Y-50689698D02*
X99668341Y-50757042D01*
X99668341Y-50757042D02*
X99634669Y-50858057D01*
X99634669Y-50858057D02*
X99567326Y-50925400D01*
X99567326Y-50925400D02*
X99432639Y-50992744D01*
X99432639Y-50992744D02*
X98624517Y-50992744D01*
X98624517Y-50992744D02*
X99062249Y-51430477D01*
D13*
X78666666Y-54320406D02*
X78666666Y-54683263D01*
X78666666Y-54683263D02*
X78642475Y-54755835D01*
X78642475Y-54755835D02*
X78594094Y-54804216D01*
X78594094Y-54804216D02*
X78521523Y-54828406D01*
X78521523Y-54828406D02*
X78473142Y-54828406D01*
X78908571Y-54828406D02*
X78908571Y-54320406D01*
X78908571Y-54320406D02*
X79102095Y-54320406D01*
X79102095Y-54320406D02*
X79150476Y-54344596D01*
X79150476Y-54344596D02*
X79174666Y-54368787D01*
X79174666Y-54368787D02*
X79198857Y-54417168D01*
X79198857Y-54417168D02*
X79198857Y-54489739D01*
X79198857Y-54489739D02*
X79174666Y-54538120D01*
X79174666Y-54538120D02*
X79150476Y-54562311D01*
X79150476Y-54562311D02*
X79102095Y-54586501D01*
X79102095Y-54586501D02*
X78908571Y-54586501D01*
X79658476Y-54320406D02*
X79416571Y-54320406D01*
X79416571Y-54320406D02*
X79392380Y-54562311D01*
X79392380Y-54562311D02*
X79416571Y-54538120D01*
X79416571Y-54538120D02*
X79464952Y-54513930D01*
X79464952Y-54513930D02*
X79585904Y-54513930D01*
X79585904Y-54513930D02*
X79634285Y-54538120D01*
X79634285Y-54538120D02*
X79658476Y-54562311D01*
X79658476Y-54562311D02*
X79682666Y-54610692D01*
X79682666Y-54610692D02*
X79682666Y-54731644D01*
X79682666Y-54731644D02*
X79658476Y-54780025D01*
X79658476Y-54780025D02*
X79634285Y-54804216D01*
X79634285Y-54804216D02*
X79585904Y-54828406D01*
X79585904Y-54828406D02*
X79464952Y-54828406D01*
X79464952Y-54828406D02*
X79416571Y-54804216D01*
X79416571Y-54804216D02*
X79392380Y-54780025D01*
D10*
X108971069Y-28666771D02*
X108398650Y-28565756D01*
X108567008Y-29070832D02*
X107859902Y-28363725D01*
X107859902Y-28363725D02*
X108129276Y-28094351D01*
X108129276Y-28094351D02*
X108230291Y-28060679D01*
X108230291Y-28060679D02*
X108297634Y-28060679D01*
X108297634Y-28060679D02*
X108398650Y-28094351D01*
X108398650Y-28094351D02*
X108499665Y-28195366D01*
X108499665Y-28195366D02*
X108533337Y-28296382D01*
X108533337Y-28296382D02*
X108533337Y-28363725D01*
X108533337Y-28363725D02*
X108499665Y-28464740D01*
X108499665Y-28464740D02*
X108230291Y-28734114D01*
X108600680Y-27757634D02*
X108600680Y-27690290D01*
X108600680Y-27690290D02*
X108634352Y-27589275D01*
X108634352Y-27589275D02*
X108802711Y-27420916D01*
X108802711Y-27420916D02*
X108903726Y-27387244D01*
X108903726Y-27387244D02*
X108971069Y-27387244D01*
X108971069Y-27387244D02*
X109072085Y-27420916D01*
X109072085Y-27420916D02*
X109139428Y-27488260D01*
X109139428Y-27488260D02*
X109206772Y-27622947D01*
X109206772Y-27622947D02*
X109206772Y-28431069D01*
X109206772Y-28431069D02*
X109644504Y-27993336D01*
X111843333Y-48047319D02*
X111510000Y-47571128D01*
X111271905Y-48047319D02*
X111271905Y-47047319D01*
X111271905Y-47047319D02*
X111652857Y-47047319D01*
X111652857Y-47047319D02*
X111748095Y-47094938D01*
X111748095Y-47094938D02*
X111795714Y-47142557D01*
X111795714Y-47142557D02*
X111843333Y-47237795D01*
X111843333Y-47237795D02*
X111843333Y-47380652D01*
X111843333Y-47380652D02*
X111795714Y-47475890D01*
X111795714Y-47475890D02*
X111748095Y-47523509D01*
X111748095Y-47523509D02*
X111652857Y-47571128D01*
X111652857Y-47571128D02*
X111271905Y-47571128D01*
X112795714Y-48047319D02*
X112224286Y-48047319D01*
X112510000Y-48047319D02*
X112510000Y-47047319D01*
X112510000Y-47047319D02*
X112414762Y-47190176D01*
X112414762Y-47190176D02*
X112319524Y-47285414D01*
X112319524Y-47285414D02*
X112224286Y-47333033D01*
X114814819Y-79962857D02*
X114338628Y-80296190D01*
X114814819Y-80534285D02*
X113814819Y-80534285D01*
X113814819Y-80534285D02*
X113814819Y-80153333D01*
X113814819Y-80153333D02*
X113862438Y-80058095D01*
X113862438Y-80058095D02*
X113910057Y-80010476D01*
X113910057Y-80010476D02*
X114005295Y-79962857D01*
X114005295Y-79962857D02*
X114148152Y-79962857D01*
X114148152Y-79962857D02*
X114243390Y-80010476D01*
X114243390Y-80010476D02*
X114291009Y-80058095D01*
X114291009Y-80058095D02*
X114338628Y-80153333D01*
X114338628Y-80153333D02*
X114338628Y-80534285D01*
X114814819Y-79010476D02*
X114814819Y-79581904D01*
X114814819Y-79296190D02*
X113814819Y-79296190D01*
X113814819Y-79296190D02*
X113957676Y-79391428D01*
X113957676Y-79391428D02*
X114052914Y-79486666D01*
X114052914Y-79486666D02*
X114100533Y-79581904D01*
X114814819Y-78058095D02*
X114814819Y-78629523D01*
X114814819Y-78343809D02*
X113814819Y-78343809D01*
X113814819Y-78343809D02*
X113957676Y-78439047D01*
X113957676Y-78439047D02*
X114052914Y-78534285D01*
X114052914Y-78534285D02*
X114100533Y-78629523D01*
X114260476Y-44469819D02*
X114260476Y-45184104D01*
X114260476Y-45184104D02*
X114212857Y-45326961D01*
X114212857Y-45326961D02*
X114117619Y-45422200D01*
X114117619Y-45422200D02*
X113974762Y-45469819D01*
X113974762Y-45469819D02*
X113879524Y-45469819D01*
X115260476Y-45469819D02*
X114689048Y-45469819D01*
X114974762Y-45469819D02*
X114974762Y-44469819D01*
X114974762Y-44469819D02*
X114879524Y-44612676D01*
X114879524Y-44612676D02*
X114784286Y-44707914D01*
X114784286Y-44707914D02*
X114689048Y-44755533D01*
X115879524Y-44469819D02*
X115974762Y-44469819D01*
X115974762Y-44469819D02*
X116070000Y-44517438D01*
X116070000Y-44517438D02*
X116117619Y-44565057D01*
X116117619Y-44565057D02*
X116165238Y-44660295D01*
X116165238Y-44660295D02*
X116212857Y-44850771D01*
X116212857Y-44850771D02*
X116212857Y-45088866D01*
X116212857Y-45088866D02*
X116165238Y-45279342D01*
X116165238Y-45279342D02*
X116117619Y-45374580D01*
X116117619Y-45374580D02*
X116070000Y-45422200D01*
X116070000Y-45422200D02*
X115974762Y-45469819D01*
X115974762Y-45469819D02*
X115879524Y-45469819D01*
X115879524Y-45469819D02*
X115784286Y-45422200D01*
X115784286Y-45422200D02*
X115736667Y-45374580D01*
X115736667Y-45374580D02*
X115689048Y-45279342D01*
X115689048Y-45279342D02*
X115641429Y-45088866D01*
X115641429Y-45088866D02*
X115641429Y-44850771D01*
X115641429Y-44850771D02*
X115689048Y-44660295D01*
X115689048Y-44660295D02*
X115736667Y-44565057D01*
X115736667Y-44565057D02*
X115784286Y-44517438D01*
X115784286Y-44517438D02*
X115879524Y-44469819D01*
X112120062Y-44782061D02*
X112692482Y-45354481D01*
X112692482Y-45354481D02*
X112793497Y-45388153D01*
X112793497Y-45388153D02*
X112860841Y-45388153D01*
X112860841Y-45388153D02*
X112961856Y-45354481D01*
X112961856Y-45354481D02*
X113096543Y-45219794D01*
X113096543Y-45219794D02*
X113130215Y-45118779D01*
X113130215Y-45118779D02*
X113130215Y-45051435D01*
X113130215Y-45051435D02*
X113096543Y-44950420D01*
X113096543Y-44950420D02*
X112524123Y-44378000D01*
X113938337Y-44378000D02*
X113534276Y-44782061D01*
X113736306Y-44580031D02*
X113029200Y-43872924D01*
X113029200Y-43872924D02*
X113062871Y-44041283D01*
X113062871Y-44041283D02*
X113062871Y-44175970D01*
X113062871Y-44175970D02*
X113029200Y-44276985D01*
X117877261Y-77170057D02*
X117782023Y-77122438D01*
X117782023Y-77122438D02*
X117686785Y-77027200D01*
X117686785Y-77027200D02*
X117543928Y-76884342D01*
X117543928Y-76884342D02*
X117448690Y-76836723D01*
X117448690Y-76836723D02*
X117353452Y-76836723D01*
X117401071Y-77074819D02*
X117305833Y-77027200D01*
X117305833Y-77027200D02*
X117210595Y-76931961D01*
X117210595Y-76931961D02*
X117162976Y-76741485D01*
X117162976Y-76741485D02*
X117162976Y-76408152D01*
X117162976Y-76408152D02*
X117210595Y-76217676D01*
X117210595Y-76217676D02*
X117305833Y-76122438D01*
X117305833Y-76122438D02*
X117401071Y-76074819D01*
X117401071Y-76074819D02*
X117591547Y-76074819D01*
X117591547Y-76074819D02*
X117686785Y-76122438D01*
X117686785Y-76122438D02*
X117782023Y-76217676D01*
X117782023Y-76217676D02*
X117829642Y-76408152D01*
X117829642Y-76408152D02*
X117829642Y-76741485D01*
X117829642Y-76741485D02*
X117782023Y-76931961D01*
X117782023Y-76931961D02*
X117686785Y-77027200D01*
X117686785Y-77027200D02*
X117591547Y-77074819D01*
X117591547Y-77074819D02*
X117401071Y-77074819D01*
X118162976Y-76074819D02*
X118782023Y-76074819D01*
X118782023Y-76074819D02*
X118448690Y-76455771D01*
X118448690Y-76455771D02*
X118591547Y-76455771D01*
X118591547Y-76455771D02*
X118686785Y-76503390D01*
X118686785Y-76503390D02*
X118734404Y-76551009D01*
X118734404Y-76551009D02*
X118782023Y-76646247D01*
X118782023Y-76646247D02*
X118782023Y-76884342D01*
X118782023Y-76884342D02*
X118734404Y-76979580D01*
X118734404Y-76979580D02*
X118686785Y-77027200D01*
X118686785Y-77027200D02*
X118591547Y-77074819D01*
X118591547Y-77074819D02*
X118305833Y-77074819D01*
X118305833Y-77074819D02*
X118210595Y-77027200D01*
X118210595Y-77027200D02*
X118162976Y-76979580D01*
X122054819Y-72822857D02*
X121578628Y-73156190D01*
X122054819Y-73394285D02*
X121054819Y-73394285D01*
X121054819Y-73394285D02*
X121054819Y-73013333D01*
X121054819Y-73013333D02*
X121102438Y-72918095D01*
X121102438Y-72918095D02*
X121150057Y-72870476D01*
X121150057Y-72870476D02*
X121245295Y-72822857D01*
X121245295Y-72822857D02*
X121388152Y-72822857D01*
X121388152Y-72822857D02*
X121483390Y-72870476D01*
X121483390Y-72870476D02*
X121531009Y-72918095D01*
X121531009Y-72918095D02*
X121578628Y-73013333D01*
X121578628Y-73013333D02*
X121578628Y-73394285D01*
X121150057Y-72441904D02*
X121102438Y-72394285D01*
X121102438Y-72394285D02*
X121054819Y-72299047D01*
X121054819Y-72299047D02*
X121054819Y-72060952D01*
X121054819Y-72060952D02*
X121102438Y-71965714D01*
X121102438Y-71965714D02*
X121150057Y-71918095D01*
X121150057Y-71918095D02*
X121245295Y-71870476D01*
X121245295Y-71870476D02*
X121340533Y-71870476D01*
X121340533Y-71870476D02*
X121483390Y-71918095D01*
X121483390Y-71918095D02*
X122054819Y-72489523D01*
X122054819Y-72489523D02*
X122054819Y-71870476D01*
X121150057Y-71489523D02*
X121102438Y-71441904D01*
X121102438Y-71441904D02*
X121054819Y-71346666D01*
X121054819Y-71346666D02*
X121054819Y-71108571D01*
X121054819Y-71108571D02*
X121102438Y-71013333D01*
X121102438Y-71013333D02*
X121150057Y-70965714D01*
X121150057Y-70965714D02*
X121245295Y-70918095D01*
X121245295Y-70918095D02*
X121340533Y-70918095D01*
X121340533Y-70918095D02*
X121483390Y-70965714D01*
X121483390Y-70965714D02*
X122054819Y-71537142D01*
X122054819Y-71537142D02*
X122054819Y-70918095D01*
X88044819Y-80513333D02*
X88759104Y-80513333D01*
X88759104Y-80513333D02*
X88901961Y-80560952D01*
X88901961Y-80560952D02*
X88997200Y-80656190D01*
X88997200Y-80656190D02*
X89044819Y-80799047D01*
X89044819Y-80799047D02*
X89044819Y-80894285D01*
X89044819Y-80037142D02*
X88044819Y-80037142D01*
X88044819Y-80037142D02*
X88044819Y-79656190D01*
X88044819Y-79656190D02*
X88092438Y-79560952D01*
X88092438Y-79560952D02*
X88140057Y-79513333D01*
X88140057Y-79513333D02*
X88235295Y-79465714D01*
X88235295Y-79465714D02*
X88378152Y-79465714D01*
X88378152Y-79465714D02*
X88473390Y-79513333D01*
X88473390Y-79513333D02*
X88521009Y-79560952D01*
X88521009Y-79560952D02*
X88568628Y-79656190D01*
X88568628Y-79656190D02*
X88568628Y-80037142D01*
X89044819Y-78513333D02*
X89044819Y-79084761D01*
X89044819Y-78799047D02*
X88044819Y-78799047D01*
X88044819Y-78799047D02*
X88187676Y-78894285D01*
X88187676Y-78894285D02*
X88282914Y-78989523D01*
X88282914Y-78989523D02*
X88330533Y-79084761D01*
X109496666Y-20418819D02*
X109496666Y-21133104D01*
X109496666Y-21133104D02*
X109449047Y-21275961D01*
X109449047Y-21275961D02*
X109353809Y-21371200D01*
X109353809Y-21371200D02*
X109210952Y-21418819D01*
X109210952Y-21418819D02*
X109115714Y-21418819D01*
X110496666Y-21418819D02*
X109925238Y-21418819D01*
X110210952Y-21418819D02*
X110210952Y-20418819D01*
X110210952Y-20418819D02*
X110115714Y-20561676D01*
X110115714Y-20561676D02*
X110020476Y-20656914D01*
X110020476Y-20656914D02*
X109925238Y-20704533D01*
X83039458Y-61708039D02*
X83140473Y-61135620D01*
X82635397Y-61303978D02*
X83342504Y-60596872D01*
X83342504Y-60596872D02*
X83611878Y-60866246D01*
X83611878Y-60866246D02*
X83645550Y-60967261D01*
X83645550Y-60967261D02*
X83645550Y-61034604D01*
X83645550Y-61034604D02*
X83611878Y-61135620D01*
X83611878Y-61135620D02*
X83510863Y-61236635D01*
X83510863Y-61236635D02*
X83409847Y-61270307D01*
X83409847Y-61270307D02*
X83342504Y-61270307D01*
X83342504Y-61270307D02*
X83241489Y-61236635D01*
X83241489Y-61236635D02*
X82972115Y-60967261D01*
X84352656Y-61607024D02*
X84217969Y-61472337D01*
X84217969Y-61472337D02*
X84116954Y-61438665D01*
X84116954Y-61438665D02*
X84049611Y-61438665D01*
X84049611Y-61438665D02*
X83881252Y-61472337D01*
X83881252Y-61472337D02*
X83712893Y-61573352D01*
X83712893Y-61573352D02*
X83443519Y-61842726D01*
X83443519Y-61842726D02*
X83409847Y-61943742D01*
X83409847Y-61943742D02*
X83409847Y-62011085D01*
X83409847Y-62011085D02*
X83443519Y-62112100D01*
X83443519Y-62112100D02*
X83578206Y-62246787D01*
X83578206Y-62246787D02*
X83679221Y-62280459D01*
X83679221Y-62280459D02*
X83746565Y-62280459D01*
X83746565Y-62280459D02*
X83847580Y-62246787D01*
X83847580Y-62246787D02*
X84015939Y-62078429D01*
X84015939Y-62078429D02*
X84049611Y-61977413D01*
X84049611Y-61977413D02*
X84049611Y-61910070D01*
X84049611Y-61910070D02*
X84015939Y-61809055D01*
X84015939Y-61809055D02*
X83881252Y-61674368D01*
X83881252Y-61674368D02*
X83780237Y-61640696D01*
X83780237Y-61640696D02*
X83712893Y-61640696D01*
X83712893Y-61640696D02*
X83611878Y-61674368D01*
X108141861Y-59505977D02*
X108074517Y-59505977D01*
X108074517Y-59505977D02*
X107939830Y-59438633D01*
X107939830Y-59438633D02*
X107872487Y-59371290D01*
X107872487Y-59371290D02*
X107805143Y-59236603D01*
X107805143Y-59236603D02*
X107805143Y-59101916D01*
X107805143Y-59101916D02*
X107838815Y-59000901D01*
X107838815Y-59000901D02*
X107939830Y-58832542D01*
X107939830Y-58832542D02*
X108040845Y-58731527D01*
X108040845Y-58731527D02*
X108209204Y-58630511D01*
X108209204Y-58630511D02*
X108310219Y-58596840D01*
X108310219Y-58596840D02*
X108444906Y-58596840D01*
X108444906Y-58596840D02*
X108579593Y-58664183D01*
X108579593Y-58664183D02*
X108646937Y-58731527D01*
X108646937Y-58731527D02*
X108714280Y-58866214D01*
X108714280Y-58866214D02*
X108714280Y-58933557D01*
X108747952Y-60246755D02*
X108343891Y-59842694D01*
X108545922Y-60044725D02*
X109253028Y-59337618D01*
X109253028Y-59337618D02*
X109084670Y-59371290D01*
X109084670Y-59371290D02*
X108949983Y-59371290D01*
X108949983Y-59371290D02*
X108848967Y-59337618D01*
X109421387Y-60920191D02*
X109017326Y-60516130D01*
X109219357Y-60718160D02*
X109926464Y-60011053D01*
X109926464Y-60011053D02*
X109758105Y-60044725D01*
X109758105Y-60044725D02*
X109623418Y-60044725D01*
X109623418Y-60044725D02*
X109522403Y-60011053D01*
X97820782Y-50272246D02*
X97921797Y-49699827D01*
X97416721Y-49868185D02*
X98123828Y-49161079D01*
X98123828Y-49161079D02*
X98393202Y-49430453D01*
X98393202Y-49430453D02*
X98426874Y-49531468D01*
X98426874Y-49531468D02*
X98426874Y-49598811D01*
X98426874Y-49598811D02*
X98393202Y-49699827D01*
X98393202Y-49699827D02*
X98292187Y-49800842D01*
X98292187Y-49800842D02*
X98191171Y-49834514D01*
X98191171Y-49834514D02*
X98123828Y-49834514D01*
X98123828Y-49834514D02*
X98022813Y-49800842D01*
X98022813Y-49800842D02*
X97753439Y-49531468D01*
X99167652Y-50204903D02*
X98830935Y-49868185D01*
X98830935Y-49868185D02*
X98460545Y-50171231D01*
X98460545Y-50171231D02*
X98527889Y-50171231D01*
X98527889Y-50171231D02*
X98628904Y-50204903D01*
X98628904Y-50204903D02*
X98797263Y-50373262D01*
X98797263Y-50373262D02*
X98830935Y-50474277D01*
X98830935Y-50474277D02*
X98830935Y-50541620D01*
X98830935Y-50541620D02*
X98797263Y-50642636D01*
X98797263Y-50642636D02*
X98628904Y-50810994D01*
X98628904Y-50810994D02*
X98527889Y-50844666D01*
X98527889Y-50844666D02*
X98460545Y-50844666D01*
X98460545Y-50844666D02*
X98359530Y-50810994D01*
X98359530Y-50810994D02*
X98191171Y-50642636D01*
X98191171Y-50642636D02*
X98157500Y-50541620D01*
X98157500Y-50541620D02*
X98157500Y-50474277D01*
X102339449Y-49988586D02*
X102339449Y-50055930D01*
X102339449Y-50055930D02*
X102272105Y-50190617D01*
X102272105Y-50190617D02*
X102204762Y-50257960D01*
X102204762Y-50257960D02*
X102070075Y-50325304D01*
X102070075Y-50325304D02*
X101935388Y-50325304D01*
X101935388Y-50325304D02*
X101834373Y-50291632D01*
X101834373Y-50291632D02*
X101666014Y-50190617D01*
X101666014Y-50190617D02*
X101564999Y-50089602D01*
X101564999Y-50089602D02*
X101463983Y-49921243D01*
X101463983Y-49921243D02*
X101430312Y-49820228D01*
X101430312Y-49820228D02*
X101430312Y-49685541D01*
X101430312Y-49685541D02*
X101497655Y-49550854D01*
X101497655Y-49550854D02*
X101564999Y-49483510D01*
X101564999Y-49483510D02*
X101699686Y-49416167D01*
X101699686Y-49416167D02*
X101767029Y-49416167D01*
X103080227Y-49382495D02*
X102676166Y-49786556D01*
X102878197Y-49584525D02*
X102171090Y-48877419D01*
X102171090Y-48877419D02*
X102204762Y-49045777D01*
X102204762Y-49045777D02*
X102204762Y-49180464D01*
X102204762Y-49180464D02*
X102171090Y-49281480D01*
X102810854Y-48237655D02*
X102878197Y-48170312D01*
X102878197Y-48170312D02*
X102979212Y-48136640D01*
X102979212Y-48136640D02*
X103046556Y-48136640D01*
X103046556Y-48136640D02*
X103147571Y-48170312D01*
X103147571Y-48170312D02*
X103315930Y-48271327D01*
X103315930Y-48271327D02*
X103484289Y-48439686D01*
X103484289Y-48439686D02*
X103585304Y-48608044D01*
X103585304Y-48608044D02*
X103618976Y-48709060D01*
X103618976Y-48709060D02*
X103618976Y-48776403D01*
X103618976Y-48776403D02*
X103585304Y-48877418D01*
X103585304Y-48877418D02*
X103517960Y-48944762D01*
X103517960Y-48944762D02*
X103416945Y-48978434D01*
X103416945Y-48978434D02*
X103349602Y-48978434D01*
X103349602Y-48978434D02*
X103248586Y-48944762D01*
X103248586Y-48944762D02*
X103080228Y-48843747D01*
X103080228Y-48843747D02*
X102911869Y-48675388D01*
X102911869Y-48675388D02*
X102810854Y-48507029D01*
X102810854Y-48507029D02*
X102777182Y-48406014D01*
X102777182Y-48406014D02*
X102777182Y-48338670D01*
X102777182Y-48338670D02*
X102810854Y-48237655D01*
X115984819Y-49560594D02*
X114984819Y-49560594D01*
X114984819Y-49560594D02*
X114984819Y-49322499D01*
X114984819Y-49322499D02*
X115032438Y-49179642D01*
X115032438Y-49179642D02*
X115127676Y-49084404D01*
X115127676Y-49084404D02*
X115222914Y-49036785D01*
X115222914Y-49036785D02*
X115413390Y-48989166D01*
X115413390Y-48989166D02*
X115556247Y-48989166D01*
X115556247Y-48989166D02*
X115746723Y-49036785D01*
X115746723Y-49036785D02*
X115841961Y-49084404D01*
X115841961Y-49084404D02*
X115937200Y-49179642D01*
X115937200Y-49179642D02*
X115984819Y-49322499D01*
X115984819Y-49322499D02*
X115984819Y-49560594D01*
X115318152Y-48132023D02*
X115984819Y-48132023D01*
X114937200Y-48370118D02*
X115651485Y-48608213D01*
X115651485Y-48608213D02*
X115651485Y-47989166D01*
X126807200Y-28373332D02*
X126854819Y-28230475D01*
X126854819Y-28230475D02*
X126854819Y-27992380D01*
X126854819Y-27992380D02*
X126807200Y-27897142D01*
X126807200Y-27897142D02*
X126759580Y-27849523D01*
X126759580Y-27849523D02*
X126664342Y-27801904D01*
X126664342Y-27801904D02*
X126569104Y-27801904D01*
X126569104Y-27801904D02*
X126473866Y-27849523D01*
X126473866Y-27849523D02*
X126426247Y-27897142D01*
X126426247Y-27897142D02*
X126378628Y-27992380D01*
X126378628Y-27992380D02*
X126331009Y-28182856D01*
X126331009Y-28182856D02*
X126283390Y-28278094D01*
X126283390Y-28278094D02*
X126235771Y-28325713D01*
X126235771Y-28325713D02*
X126140533Y-28373332D01*
X126140533Y-28373332D02*
X126045295Y-28373332D01*
X126045295Y-28373332D02*
X125950057Y-28325713D01*
X125950057Y-28325713D02*
X125902438Y-28278094D01*
X125902438Y-28278094D02*
X125854819Y-28182856D01*
X125854819Y-28182856D02*
X125854819Y-27944761D01*
X125854819Y-27944761D02*
X125902438Y-27801904D01*
X125854819Y-27468570D02*
X126854819Y-27230475D01*
X126854819Y-27230475D02*
X126140533Y-27039999D01*
X126140533Y-27039999D02*
X126854819Y-26849523D01*
X126854819Y-26849523D02*
X125854819Y-26611428D01*
X126854819Y-25706666D02*
X126854819Y-26278094D01*
X126854819Y-25992380D02*
X125854819Y-25992380D01*
X125854819Y-25992380D02*
X125997676Y-26087618D01*
X125997676Y-26087618D02*
X126092914Y-26182856D01*
X126092914Y-26182856D02*
X126140533Y-26278094D01*
X117744761Y-66800057D02*
X117649523Y-66752438D01*
X117649523Y-66752438D02*
X117554285Y-66657200D01*
X117554285Y-66657200D02*
X117411428Y-66514342D01*
X117411428Y-66514342D02*
X117316190Y-66466723D01*
X117316190Y-66466723D02*
X117220952Y-66466723D01*
X117268571Y-66704819D02*
X117173333Y-66657200D01*
X117173333Y-66657200D02*
X117078095Y-66561961D01*
X117078095Y-66561961D02*
X117030476Y-66371485D01*
X117030476Y-66371485D02*
X117030476Y-66038152D01*
X117030476Y-66038152D02*
X117078095Y-65847676D01*
X117078095Y-65847676D02*
X117173333Y-65752438D01*
X117173333Y-65752438D02*
X117268571Y-65704819D01*
X117268571Y-65704819D02*
X117459047Y-65704819D01*
X117459047Y-65704819D02*
X117554285Y-65752438D01*
X117554285Y-65752438D02*
X117649523Y-65847676D01*
X117649523Y-65847676D02*
X117697142Y-66038152D01*
X117697142Y-66038152D02*
X117697142Y-66371485D01*
X117697142Y-66371485D02*
X117649523Y-66561961D01*
X117649523Y-66561961D02*
X117554285Y-66657200D01*
X117554285Y-66657200D02*
X117459047Y-66704819D01*
X117459047Y-66704819D02*
X117268571Y-66704819D01*
X118554285Y-65704819D02*
X118363809Y-65704819D01*
X118363809Y-65704819D02*
X118268571Y-65752438D01*
X118268571Y-65752438D02*
X118220952Y-65800057D01*
X118220952Y-65800057D02*
X118125714Y-65942914D01*
X118125714Y-65942914D02*
X118078095Y-66133390D01*
X118078095Y-66133390D02*
X118078095Y-66514342D01*
X118078095Y-66514342D02*
X118125714Y-66609580D01*
X118125714Y-66609580D02*
X118173333Y-66657200D01*
X118173333Y-66657200D02*
X118268571Y-66704819D01*
X118268571Y-66704819D02*
X118459047Y-66704819D01*
X118459047Y-66704819D02*
X118554285Y-66657200D01*
X118554285Y-66657200D02*
X118601904Y-66609580D01*
X118601904Y-66609580D02*
X118649523Y-66514342D01*
X118649523Y-66514342D02*
X118649523Y-66276247D01*
X118649523Y-66276247D02*
X118601904Y-66181009D01*
X118601904Y-66181009D02*
X118554285Y-66133390D01*
X118554285Y-66133390D02*
X118459047Y-66085771D01*
X118459047Y-66085771D02*
X118268571Y-66085771D01*
X118268571Y-66085771D02*
X118173333Y-66133390D01*
X118173333Y-66133390D02*
X118125714Y-66181009D01*
X118125714Y-66181009D02*
X118078095Y-66276247D01*
X114814819Y-76392857D02*
X114338628Y-76726190D01*
X114814819Y-76964285D02*
X113814819Y-76964285D01*
X113814819Y-76964285D02*
X113814819Y-76583333D01*
X113814819Y-76583333D02*
X113862438Y-76488095D01*
X113862438Y-76488095D02*
X113910057Y-76440476D01*
X113910057Y-76440476D02*
X114005295Y-76392857D01*
X114005295Y-76392857D02*
X114148152Y-76392857D01*
X114148152Y-76392857D02*
X114243390Y-76440476D01*
X114243390Y-76440476D02*
X114291009Y-76488095D01*
X114291009Y-76488095D02*
X114338628Y-76583333D01*
X114338628Y-76583333D02*
X114338628Y-76964285D01*
X114814819Y-75440476D02*
X114814819Y-76011904D01*
X114814819Y-75726190D02*
X113814819Y-75726190D01*
X113814819Y-75726190D02*
X113957676Y-75821428D01*
X113957676Y-75821428D02*
X114052914Y-75916666D01*
X114052914Y-75916666D02*
X114100533Y-76011904D01*
X113910057Y-75059523D02*
X113862438Y-75011904D01*
X113862438Y-75011904D02*
X113814819Y-74916666D01*
X113814819Y-74916666D02*
X113814819Y-74678571D01*
X113814819Y-74678571D02*
X113862438Y-74583333D01*
X113862438Y-74583333D02*
X113910057Y-74535714D01*
X113910057Y-74535714D02*
X114005295Y-74488095D01*
X114005295Y-74488095D02*
X114100533Y-74488095D01*
X114100533Y-74488095D02*
X114243390Y-74535714D01*
X114243390Y-74535714D02*
X114814819Y-75107142D01*
X114814819Y-75107142D02*
X114814819Y-74488095D01*
X114434819Y-42508094D02*
X113434819Y-42508094D01*
X113434819Y-42508094D02*
X113434819Y-42269999D01*
X113434819Y-42269999D02*
X113482438Y-42127142D01*
X113482438Y-42127142D02*
X113577676Y-42031904D01*
X113577676Y-42031904D02*
X113672914Y-41984285D01*
X113672914Y-41984285D02*
X113863390Y-41936666D01*
X113863390Y-41936666D02*
X114006247Y-41936666D01*
X114006247Y-41936666D02*
X114196723Y-41984285D01*
X114196723Y-41984285D02*
X114291961Y-42031904D01*
X114291961Y-42031904D02*
X114387200Y-42127142D01*
X114387200Y-42127142D02*
X114434819Y-42269999D01*
X114434819Y-42269999D02*
X114434819Y-42508094D01*
X113530057Y-41555713D02*
X113482438Y-41508094D01*
X113482438Y-41508094D02*
X113434819Y-41412856D01*
X113434819Y-41412856D02*
X113434819Y-41174761D01*
X113434819Y-41174761D02*
X113482438Y-41079523D01*
X113482438Y-41079523D02*
X113530057Y-41031904D01*
X113530057Y-41031904D02*
X113625295Y-40984285D01*
X113625295Y-40984285D02*
X113720533Y-40984285D01*
X113720533Y-40984285D02*
X113863390Y-41031904D01*
X113863390Y-41031904D02*
X114434819Y-41603332D01*
X114434819Y-41603332D02*
X114434819Y-40984285D01*
X121934819Y-69432857D02*
X121458628Y-69766190D01*
X121934819Y-70004285D02*
X120934819Y-70004285D01*
X120934819Y-70004285D02*
X120934819Y-69623333D01*
X120934819Y-69623333D02*
X120982438Y-69528095D01*
X120982438Y-69528095D02*
X121030057Y-69480476D01*
X121030057Y-69480476D02*
X121125295Y-69432857D01*
X121125295Y-69432857D02*
X121268152Y-69432857D01*
X121268152Y-69432857D02*
X121363390Y-69480476D01*
X121363390Y-69480476D02*
X121411009Y-69528095D01*
X121411009Y-69528095D02*
X121458628Y-69623333D01*
X121458628Y-69623333D02*
X121458628Y-70004285D01*
X121030057Y-69051904D02*
X120982438Y-69004285D01*
X120982438Y-69004285D02*
X120934819Y-68909047D01*
X120934819Y-68909047D02*
X120934819Y-68670952D01*
X120934819Y-68670952D02*
X120982438Y-68575714D01*
X120982438Y-68575714D02*
X121030057Y-68528095D01*
X121030057Y-68528095D02*
X121125295Y-68480476D01*
X121125295Y-68480476D02*
X121220533Y-68480476D01*
X121220533Y-68480476D02*
X121363390Y-68528095D01*
X121363390Y-68528095D02*
X121934819Y-69099523D01*
X121934819Y-69099523D02*
X121934819Y-68480476D01*
X120934819Y-68147142D02*
X120934819Y-67528095D01*
X120934819Y-67528095D02*
X121315771Y-67861428D01*
X121315771Y-67861428D02*
X121315771Y-67718571D01*
X121315771Y-67718571D02*
X121363390Y-67623333D01*
X121363390Y-67623333D02*
X121411009Y-67575714D01*
X121411009Y-67575714D02*
X121506247Y-67528095D01*
X121506247Y-67528095D02*
X121744342Y-67528095D01*
X121744342Y-67528095D02*
X121839580Y-67575714D01*
X121839580Y-67575714D02*
X121887200Y-67623333D01*
X121887200Y-67623333D02*
X121934819Y-67718571D01*
X121934819Y-67718571D02*
X121934819Y-68004285D01*
X121934819Y-68004285D02*
X121887200Y-68099523D01*
X121887200Y-68099523D02*
X121839580Y-68147142D01*
X122441666Y-87704819D02*
X122441666Y-88419104D01*
X122441666Y-88419104D02*
X122394047Y-88561961D01*
X122394047Y-88561961D02*
X122298809Y-88657200D01*
X122298809Y-88657200D02*
X122155952Y-88704819D01*
X122155952Y-88704819D02*
X122060714Y-88704819D01*
X123346428Y-88038152D02*
X123346428Y-88704819D01*
X123108333Y-87657200D02*
X122870238Y-88371485D01*
X122870238Y-88371485D02*
X123489285Y-88371485D01*
X92427643Y-51276655D02*
X92360299Y-51276655D01*
X92360299Y-51276655D02*
X92225612Y-51209311D01*
X92225612Y-51209311D02*
X92158269Y-51141968D01*
X92158269Y-51141968D02*
X92090925Y-51007281D01*
X92090925Y-51007281D02*
X92090925Y-50872594D01*
X92090925Y-50872594D02*
X92124597Y-50771579D01*
X92124597Y-50771579D02*
X92225612Y-50603220D01*
X92225612Y-50603220D02*
X92326627Y-50502205D01*
X92326627Y-50502205D02*
X92494986Y-50401189D01*
X92494986Y-50401189D02*
X92596001Y-50367518D01*
X92596001Y-50367518D02*
X92730688Y-50367518D01*
X92730688Y-50367518D02*
X92865375Y-50434861D01*
X92865375Y-50434861D02*
X92932719Y-50502205D01*
X92932719Y-50502205D02*
X93000062Y-50636892D01*
X93000062Y-50636892D02*
X93000062Y-50704235D01*
X93437795Y-51478685D02*
X92966391Y-51950090D01*
X93538810Y-51040953D02*
X92865375Y-51377670D01*
X92865375Y-51377670D02*
X93303108Y-51815403D01*
X108139721Y-60923489D02*
X107567302Y-60822474D01*
X107735660Y-61327550D02*
X107028554Y-60620443D01*
X107028554Y-60620443D02*
X107297928Y-60351069D01*
X107297928Y-60351069D02*
X107398943Y-60317397D01*
X107398943Y-60317397D02*
X107466286Y-60317397D01*
X107466286Y-60317397D02*
X107567302Y-60351069D01*
X107567302Y-60351069D02*
X107668317Y-60452084D01*
X107668317Y-60452084D02*
X107701989Y-60553100D01*
X107701989Y-60553100D02*
X107701989Y-60620443D01*
X107701989Y-60620443D02*
X107668317Y-60721458D01*
X107668317Y-60721458D02*
X107398943Y-60990832D01*
X107668317Y-59980680D02*
X108106050Y-59542947D01*
X108106050Y-59542947D02*
X108139721Y-60048023D01*
X108139721Y-60048023D02*
X108240737Y-59947008D01*
X108240737Y-59947008D02*
X108341752Y-59913336D01*
X108341752Y-59913336D02*
X108409095Y-59913336D01*
X108409095Y-59913336D02*
X108510111Y-59947008D01*
X108510111Y-59947008D02*
X108678469Y-60115367D01*
X108678469Y-60115367D02*
X108712141Y-60216382D01*
X108712141Y-60216382D02*
X108712141Y-60283726D01*
X108712141Y-60283726D02*
X108678469Y-60384741D01*
X108678469Y-60384741D02*
X108476439Y-60586771D01*
X108476439Y-60586771D02*
X108375424Y-60620443D01*
X108375424Y-60620443D02*
X108308080Y-60620443D01*
X108341752Y-59307245D02*
X108779485Y-58869512D01*
X108779485Y-58869512D02*
X108813157Y-59374588D01*
X108813157Y-59374588D02*
X108914172Y-59273573D01*
X108914172Y-59273573D02*
X109015187Y-59239901D01*
X109015187Y-59239901D02*
X109082531Y-59239901D01*
X109082531Y-59239901D02*
X109183546Y-59273573D01*
X109183546Y-59273573D02*
X109351905Y-59441932D01*
X109351905Y-59441932D02*
X109385576Y-59542947D01*
X109385576Y-59542947D02*
X109385576Y-59610290D01*
X109385576Y-59610290D02*
X109351905Y-59711306D01*
X109351905Y-59711306D02*
X109149874Y-59913336D01*
X109149874Y-59913336D02*
X109048859Y-59947008D01*
X109048859Y-59947008D02*
X108981515Y-59947008D01*
X72902819Y-22875833D02*
X73617104Y-22875833D01*
X73617104Y-22875833D02*
X73759961Y-22923452D01*
X73759961Y-22923452D02*
X73855200Y-23018690D01*
X73855200Y-23018690D02*
X73902819Y-23161547D01*
X73902819Y-23161547D02*
X73902819Y-23256785D01*
X73902819Y-22352023D02*
X73902819Y-22161547D01*
X73902819Y-22161547D02*
X73855200Y-22066309D01*
X73855200Y-22066309D02*
X73807580Y-22018690D01*
X73807580Y-22018690D02*
X73664723Y-21923452D01*
X73664723Y-21923452D02*
X73474247Y-21875833D01*
X73474247Y-21875833D02*
X73093295Y-21875833D01*
X73093295Y-21875833D02*
X72998057Y-21923452D01*
X72998057Y-21923452D02*
X72950438Y-21971071D01*
X72950438Y-21971071D02*
X72902819Y-22066309D01*
X72902819Y-22066309D02*
X72902819Y-22256785D01*
X72902819Y-22256785D02*
X72950438Y-22352023D01*
X72950438Y-22352023D02*
X72998057Y-22399642D01*
X72998057Y-22399642D02*
X73093295Y-22447261D01*
X73093295Y-22447261D02*
X73331390Y-22447261D01*
X73331390Y-22447261D02*
X73426628Y-22399642D01*
X73426628Y-22399642D02*
X73474247Y-22352023D01*
X73474247Y-22352023D02*
X73521866Y-22256785D01*
X73521866Y-22256785D02*
X73521866Y-22066309D01*
X73521866Y-22066309D02*
X73474247Y-21971071D01*
X73474247Y-21971071D02*
X73426628Y-21923452D01*
X73426628Y-21923452D02*
X73331390Y-21875833D01*
X107977643Y-64526655D02*
X107910299Y-64526655D01*
X107910299Y-64526655D02*
X107775612Y-64459311D01*
X107775612Y-64459311D02*
X107708269Y-64391968D01*
X107708269Y-64391968D02*
X107640925Y-64257281D01*
X107640925Y-64257281D02*
X107640925Y-64122594D01*
X107640925Y-64122594D02*
X107674597Y-64021579D01*
X107674597Y-64021579D02*
X107775612Y-63853220D01*
X107775612Y-63853220D02*
X107876627Y-63752205D01*
X107876627Y-63752205D02*
X108044986Y-63651189D01*
X108044986Y-63651189D02*
X108146001Y-63617518D01*
X108146001Y-63617518D02*
X108280688Y-63617518D01*
X108280688Y-63617518D02*
X108415375Y-63684861D01*
X108415375Y-63684861D02*
X108482719Y-63752205D01*
X108482719Y-63752205D02*
X108550062Y-63886892D01*
X108550062Y-63886892D02*
X108550062Y-63954235D01*
X108819436Y-64223609D02*
X108886780Y-64223609D01*
X108886780Y-64223609D02*
X108987795Y-64257281D01*
X108987795Y-64257281D02*
X109156154Y-64425640D01*
X109156154Y-64425640D02*
X109189826Y-64526655D01*
X109189826Y-64526655D02*
X109189826Y-64593998D01*
X109189826Y-64593998D02*
X109156154Y-64695014D01*
X109156154Y-64695014D02*
X109088810Y-64762357D01*
X109088810Y-64762357D02*
X108954123Y-64829701D01*
X108954123Y-64829701D02*
X108146001Y-64829701D01*
X108146001Y-64829701D02*
X108583734Y-65267433D01*
X94504819Y-88533333D02*
X95219104Y-88533333D01*
X95219104Y-88533333D02*
X95361961Y-88580952D01*
X95361961Y-88580952D02*
X95457200Y-88676190D01*
X95457200Y-88676190D02*
X95504819Y-88819047D01*
X95504819Y-88819047D02*
X95504819Y-88914285D01*
X94933390Y-87914285D02*
X94885771Y-88009523D01*
X94885771Y-88009523D02*
X94838152Y-88057142D01*
X94838152Y-88057142D02*
X94742914Y-88104761D01*
X94742914Y-88104761D02*
X94695295Y-88104761D01*
X94695295Y-88104761D02*
X94600057Y-88057142D01*
X94600057Y-88057142D02*
X94552438Y-88009523D01*
X94552438Y-88009523D02*
X94504819Y-87914285D01*
X94504819Y-87914285D02*
X94504819Y-87723809D01*
X94504819Y-87723809D02*
X94552438Y-87628571D01*
X94552438Y-87628571D02*
X94600057Y-87580952D01*
X94600057Y-87580952D02*
X94695295Y-87533333D01*
X94695295Y-87533333D02*
X94742914Y-87533333D01*
X94742914Y-87533333D02*
X94838152Y-87580952D01*
X94838152Y-87580952D02*
X94885771Y-87628571D01*
X94885771Y-87628571D02*
X94933390Y-87723809D01*
X94933390Y-87723809D02*
X94933390Y-87914285D01*
X94933390Y-87914285D02*
X94981009Y-88009523D01*
X94981009Y-88009523D02*
X95028628Y-88057142D01*
X95028628Y-88057142D02*
X95123866Y-88104761D01*
X95123866Y-88104761D02*
X95314342Y-88104761D01*
X95314342Y-88104761D02*
X95409580Y-88057142D01*
X95409580Y-88057142D02*
X95457200Y-88009523D01*
X95457200Y-88009523D02*
X95504819Y-87914285D01*
X95504819Y-87914285D02*
X95504819Y-87723809D01*
X95504819Y-87723809D02*
X95457200Y-87628571D01*
X95457200Y-87628571D02*
X95409580Y-87580952D01*
X95409580Y-87580952D02*
X95314342Y-87533333D01*
X95314342Y-87533333D02*
X95123866Y-87533333D01*
X95123866Y-87533333D02*
X95028628Y-87580952D01*
X95028628Y-87580952D02*
X94981009Y-87628571D01*
X94981009Y-87628571D02*
X94933390Y-87723809D01*
X108569580Y-33062857D02*
X108617200Y-33110476D01*
X108617200Y-33110476D02*
X108664819Y-33253333D01*
X108664819Y-33253333D02*
X108664819Y-33348571D01*
X108664819Y-33348571D02*
X108617200Y-33491428D01*
X108617200Y-33491428D02*
X108521961Y-33586666D01*
X108521961Y-33586666D02*
X108426723Y-33634285D01*
X108426723Y-33634285D02*
X108236247Y-33681904D01*
X108236247Y-33681904D02*
X108093390Y-33681904D01*
X108093390Y-33681904D02*
X107902914Y-33634285D01*
X107902914Y-33634285D02*
X107807676Y-33586666D01*
X107807676Y-33586666D02*
X107712438Y-33491428D01*
X107712438Y-33491428D02*
X107664819Y-33348571D01*
X107664819Y-33348571D02*
X107664819Y-33253333D01*
X107664819Y-33253333D02*
X107712438Y-33110476D01*
X107712438Y-33110476D02*
X107760057Y-33062857D01*
X108664819Y-32110476D02*
X108664819Y-32681904D01*
X108664819Y-32396190D02*
X107664819Y-32396190D01*
X107664819Y-32396190D02*
X107807676Y-32491428D01*
X107807676Y-32491428D02*
X107902914Y-32586666D01*
X107902914Y-32586666D02*
X107950533Y-32681904D01*
X107664819Y-31777142D02*
X107664819Y-31158095D01*
X107664819Y-31158095D02*
X108045771Y-31491428D01*
X108045771Y-31491428D02*
X108045771Y-31348571D01*
X108045771Y-31348571D02*
X108093390Y-31253333D01*
X108093390Y-31253333D02*
X108141009Y-31205714D01*
X108141009Y-31205714D02*
X108236247Y-31158095D01*
X108236247Y-31158095D02*
X108474342Y-31158095D01*
X108474342Y-31158095D02*
X108569580Y-31205714D01*
X108569580Y-31205714D02*
X108617200Y-31253333D01*
X108617200Y-31253333D02*
X108664819Y-31348571D01*
X108664819Y-31348571D02*
X108664819Y-31634285D01*
X108664819Y-31634285D02*
X108617200Y-31729523D01*
X108617200Y-31729523D02*
X108569580Y-31777142D01*
X106338573Y-27079267D02*
X105766154Y-26978252D01*
X105934512Y-27483328D02*
X105227406Y-26776221D01*
X105227406Y-26776221D02*
X105496780Y-26506847D01*
X105496780Y-26506847D02*
X105597795Y-26473175D01*
X105597795Y-26473175D02*
X105665138Y-26473175D01*
X105665138Y-26473175D02*
X105766154Y-26506847D01*
X105766154Y-26506847D02*
X105867169Y-26607862D01*
X105867169Y-26607862D02*
X105900841Y-26708878D01*
X105900841Y-26708878D02*
X105900841Y-26776221D01*
X105900841Y-26776221D02*
X105867169Y-26877236D01*
X105867169Y-26877236D02*
X105597795Y-27146610D01*
X105867169Y-26136458D02*
X106304902Y-25698725D01*
X106304902Y-25698725D02*
X106338573Y-26203801D01*
X106338573Y-26203801D02*
X106439589Y-26102786D01*
X106439589Y-26102786D02*
X106540604Y-26069114D01*
X106540604Y-26069114D02*
X106607947Y-26069114D01*
X106607947Y-26069114D02*
X106708963Y-26102786D01*
X106708963Y-26102786D02*
X106877321Y-26271145D01*
X106877321Y-26271145D02*
X106910993Y-26372160D01*
X106910993Y-26372160D02*
X106910993Y-26439504D01*
X106910993Y-26439504D02*
X106877321Y-26540519D01*
X106877321Y-26540519D02*
X106675291Y-26742549D01*
X106675291Y-26742549D02*
X106574276Y-26776221D01*
X106574276Y-26776221D02*
X106506932Y-26776221D01*
X111334819Y-89860024D02*
X110858628Y-90193357D01*
X111334819Y-90431452D02*
X110334819Y-90431452D01*
X110334819Y-90431452D02*
X110334819Y-90050500D01*
X110334819Y-90050500D02*
X110382438Y-89955262D01*
X110382438Y-89955262D02*
X110430057Y-89907643D01*
X110430057Y-89907643D02*
X110525295Y-89860024D01*
X110525295Y-89860024D02*
X110668152Y-89860024D01*
X110668152Y-89860024D02*
X110763390Y-89907643D01*
X110763390Y-89907643D02*
X110811009Y-89955262D01*
X110811009Y-89955262D02*
X110858628Y-90050500D01*
X110858628Y-90050500D02*
X110858628Y-90431452D01*
X110811009Y-89431452D02*
X110811009Y-89098119D01*
X111334819Y-88955262D02*
X111334819Y-89431452D01*
X111334819Y-89431452D02*
X110334819Y-89431452D01*
X110334819Y-89431452D02*
X110334819Y-88955262D01*
X110811009Y-88193357D02*
X110811009Y-88526690D01*
X111334819Y-88526690D02*
X110334819Y-88526690D01*
X110334819Y-88526690D02*
X110334819Y-88050500D01*
X110430057Y-87717166D02*
X110382438Y-87669547D01*
X110382438Y-87669547D02*
X110334819Y-87574309D01*
X110334819Y-87574309D02*
X110334819Y-87336214D01*
X110334819Y-87336214D02*
X110382438Y-87240976D01*
X110382438Y-87240976D02*
X110430057Y-87193357D01*
X110430057Y-87193357D02*
X110525295Y-87145738D01*
X110525295Y-87145738D02*
X110620533Y-87145738D01*
X110620533Y-87145738D02*
X110763390Y-87193357D01*
X110763390Y-87193357D02*
X111334819Y-87764785D01*
X111334819Y-87764785D02*
X111334819Y-87145738D01*
X110334819Y-86574309D02*
X110572914Y-86574309D01*
X110477676Y-86812404D02*
X110572914Y-86574309D01*
X110572914Y-86574309D02*
X110477676Y-86336214D01*
X110763390Y-86717166D02*
X110572914Y-86574309D01*
X110572914Y-86574309D02*
X110763390Y-86431452D01*
X110334819Y-85812404D02*
X110572914Y-85812404D01*
X110477676Y-86050499D02*
X110572914Y-85812404D01*
X110572914Y-85812404D02*
X110477676Y-85574309D01*
X110763390Y-85955261D02*
X110572914Y-85812404D01*
X110572914Y-85812404D02*
X110763390Y-85669547D01*
X95726655Y-60052356D02*
X95726655Y-60119700D01*
X95726655Y-60119700D02*
X95659311Y-60254387D01*
X95659311Y-60254387D02*
X95591968Y-60321730D01*
X95591968Y-60321730D02*
X95457281Y-60389074D01*
X95457281Y-60389074D02*
X95322594Y-60389074D01*
X95322594Y-60389074D02*
X95221579Y-60355402D01*
X95221579Y-60355402D02*
X95053220Y-60254387D01*
X95053220Y-60254387D02*
X94952205Y-60153372D01*
X94952205Y-60153372D02*
X94851189Y-59985013D01*
X94851189Y-59985013D02*
X94817518Y-59883998D01*
X94817518Y-59883998D02*
X94817518Y-59749311D01*
X94817518Y-59749311D02*
X94884861Y-59614624D01*
X94884861Y-59614624D02*
X94952205Y-59547280D01*
X94952205Y-59547280D02*
X95086892Y-59479937D01*
X95086892Y-59479937D02*
X95154235Y-59479937D01*
X95793998Y-59311578D02*
X95692983Y-59345250D01*
X95692983Y-59345250D02*
X95625640Y-59345250D01*
X95625640Y-59345250D02*
X95524624Y-59311578D01*
X95524624Y-59311578D02*
X95490953Y-59277906D01*
X95490953Y-59277906D02*
X95457281Y-59176891D01*
X95457281Y-59176891D02*
X95457281Y-59109547D01*
X95457281Y-59109547D02*
X95490953Y-59008532D01*
X95490953Y-59008532D02*
X95625640Y-58873845D01*
X95625640Y-58873845D02*
X95726655Y-58840173D01*
X95726655Y-58840173D02*
X95793998Y-58840173D01*
X95793998Y-58840173D02*
X95895014Y-58873845D01*
X95895014Y-58873845D02*
X95928685Y-58907517D01*
X95928685Y-58907517D02*
X95962357Y-59008532D01*
X95962357Y-59008532D02*
X95962357Y-59075876D01*
X95962357Y-59075876D02*
X95928685Y-59176891D01*
X95928685Y-59176891D02*
X95793998Y-59311578D01*
X95793998Y-59311578D02*
X95760327Y-59412593D01*
X95760327Y-59412593D02*
X95760327Y-59479937D01*
X95760327Y-59479937D02*
X95793998Y-59580952D01*
X95793998Y-59580952D02*
X95928685Y-59715639D01*
X95928685Y-59715639D02*
X96029701Y-59749311D01*
X96029701Y-59749311D02*
X96097044Y-59749311D01*
X96097044Y-59749311D02*
X96198059Y-59715639D01*
X96198059Y-59715639D02*
X96332746Y-59580952D01*
X96332746Y-59580952D02*
X96366418Y-59479937D01*
X96366418Y-59479937D02*
X96366418Y-59412593D01*
X96366418Y-59412593D02*
X96332746Y-59311578D01*
X96332746Y-59311578D02*
X96198059Y-59176891D01*
X96198059Y-59176891D02*
X96097044Y-59143219D01*
X96097044Y-59143219D02*
X96029701Y-59143219D01*
X96029701Y-59143219D02*
X95928685Y-59176891D01*
X77990475Y-85154819D02*
X77657142Y-84678628D01*
X77419047Y-85154819D02*
X77419047Y-84154819D01*
X77419047Y-84154819D02*
X77799999Y-84154819D01*
X77799999Y-84154819D02*
X77895237Y-84202438D01*
X77895237Y-84202438D02*
X77942856Y-84250057D01*
X77942856Y-84250057D02*
X77990475Y-84345295D01*
X77990475Y-84345295D02*
X77990475Y-84488152D01*
X77990475Y-84488152D02*
X77942856Y-84583390D01*
X77942856Y-84583390D02*
X77895237Y-84631009D01*
X77895237Y-84631009D02*
X77799999Y-84678628D01*
X77799999Y-84678628D02*
X77419047Y-84678628D01*
X78419047Y-84631009D02*
X78752380Y-84631009D01*
X78895237Y-85154819D02*
X78419047Y-85154819D01*
X78419047Y-85154819D02*
X78419047Y-84154819D01*
X78419047Y-84154819D02*
X78895237Y-84154819D01*
X79657142Y-84631009D02*
X79323809Y-84631009D01*
X79323809Y-85154819D02*
X79323809Y-84154819D01*
X79323809Y-84154819D02*
X79799999Y-84154819D01*
X80085714Y-84154819D02*
X80704761Y-84154819D01*
X80704761Y-84154819D02*
X80371428Y-84535771D01*
X80371428Y-84535771D02*
X80514285Y-84535771D01*
X80514285Y-84535771D02*
X80609523Y-84583390D01*
X80609523Y-84583390D02*
X80657142Y-84631009D01*
X80657142Y-84631009D02*
X80704761Y-84726247D01*
X80704761Y-84726247D02*
X80704761Y-84964342D01*
X80704761Y-84964342D02*
X80657142Y-85059580D01*
X80657142Y-85059580D02*
X80609523Y-85107200D01*
X80609523Y-85107200D02*
X80514285Y-85154819D01*
X80514285Y-85154819D02*
X80228571Y-85154819D01*
X80228571Y-85154819D02*
X80133333Y-85107200D01*
X80133333Y-85107200D02*
X80085714Y-85059580D01*
X81276190Y-84154819D02*
X81276190Y-84392914D01*
X81038095Y-84297676D02*
X81276190Y-84392914D01*
X81276190Y-84392914D02*
X81514285Y-84297676D01*
X81133333Y-84583390D02*
X81276190Y-84392914D01*
X81276190Y-84392914D02*
X81419047Y-84583390D01*
X82038095Y-84154819D02*
X82038095Y-84392914D01*
X81800000Y-84297676D02*
X82038095Y-84392914D01*
X82038095Y-84392914D02*
X82276190Y-84297676D01*
X81895238Y-84583390D02*
X82038095Y-84392914D01*
X82038095Y-84392914D02*
X82180952Y-84583390D01*
X91744819Y-83392857D02*
X91268628Y-83726190D01*
X91744819Y-83964285D02*
X90744819Y-83964285D01*
X90744819Y-83964285D02*
X90744819Y-83583333D01*
X90744819Y-83583333D02*
X90792438Y-83488095D01*
X90792438Y-83488095D02*
X90840057Y-83440476D01*
X90840057Y-83440476D02*
X90935295Y-83392857D01*
X90935295Y-83392857D02*
X91078152Y-83392857D01*
X91078152Y-83392857D02*
X91173390Y-83440476D01*
X91173390Y-83440476D02*
X91221009Y-83488095D01*
X91221009Y-83488095D02*
X91268628Y-83583333D01*
X91268628Y-83583333D02*
X91268628Y-83964285D01*
X91744819Y-82440476D02*
X91744819Y-83011904D01*
X91744819Y-82726190D02*
X90744819Y-82726190D01*
X90744819Y-82726190D02*
X90887676Y-82821428D01*
X90887676Y-82821428D02*
X90982914Y-82916666D01*
X90982914Y-82916666D02*
X91030533Y-83011904D01*
X90744819Y-81535714D02*
X90744819Y-82011904D01*
X90744819Y-82011904D02*
X91221009Y-82059523D01*
X91221009Y-82059523D02*
X91173390Y-82011904D01*
X91173390Y-82011904D02*
X91125771Y-81916666D01*
X91125771Y-81916666D02*
X91125771Y-81678571D01*
X91125771Y-81678571D02*
X91173390Y-81583333D01*
X91173390Y-81583333D02*
X91221009Y-81535714D01*
X91221009Y-81535714D02*
X91316247Y-81488095D01*
X91316247Y-81488095D02*
X91554342Y-81488095D01*
X91554342Y-81488095D02*
X91649580Y-81535714D01*
X91649580Y-81535714D02*
X91697200Y-81583333D01*
X91697200Y-81583333D02*
X91744819Y-81678571D01*
X91744819Y-81678571D02*
X91744819Y-81916666D01*
X91744819Y-81916666D02*
X91697200Y-82011904D01*
X91697200Y-82011904D02*
X91649580Y-82059523D01*
X83010428Y-64937469D02*
X83111443Y-64365050D01*
X82606367Y-64533408D02*
X83313474Y-63826302D01*
X83313474Y-63826302D02*
X83582848Y-64095676D01*
X83582848Y-64095676D02*
X83616520Y-64196691D01*
X83616520Y-64196691D02*
X83616520Y-64264034D01*
X83616520Y-64264034D02*
X83582848Y-64365050D01*
X83582848Y-64365050D02*
X83481833Y-64466065D01*
X83481833Y-64466065D02*
X83380817Y-64499737D01*
X83380817Y-64499737D02*
X83313474Y-64499737D01*
X83313474Y-64499737D02*
X83212459Y-64466065D01*
X83212459Y-64466065D02*
X82943085Y-64196691D01*
X83953237Y-64466065D02*
X84424642Y-64937469D01*
X84424642Y-64937469D02*
X83414489Y-65341530D01*
X90244819Y-83292857D02*
X89768628Y-83626190D01*
X90244819Y-83864285D02*
X89244819Y-83864285D01*
X89244819Y-83864285D02*
X89244819Y-83483333D01*
X89244819Y-83483333D02*
X89292438Y-83388095D01*
X89292438Y-83388095D02*
X89340057Y-83340476D01*
X89340057Y-83340476D02*
X89435295Y-83292857D01*
X89435295Y-83292857D02*
X89578152Y-83292857D01*
X89578152Y-83292857D02*
X89673390Y-83340476D01*
X89673390Y-83340476D02*
X89721009Y-83388095D01*
X89721009Y-83388095D02*
X89768628Y-83483333D01*
X89768628Y-83483333D02*
X89768628Y-83864285D01*
X90244819Y-82340476D02*
X90244819Y-82911904D01*
X90244819Y-82626190D02*
X89244819Y-82626190D01*
X89244819Y-82626190D02*
X89387676Y-82721428D01*
X89387676Y-82721428D02*
X89482914Y-82816666D01*
X89482914Y-82816666D02*
X89530533Y-82911904D01*
X89244819Y-82007142D02*
X89244819Y-81340476D01*
X89244819Y-81340476D02*
X90244819Y-81769047D01*
X108088703Y-27662527D02*
X107381597Y-26955420D01*
X107381597Y-26955420D02*
X107549955Y-26787061D01*
X107549955Y-26787061D02*
X107684642Y-26719718D01*
X107684642Y-26719718D02*
X107819329Y-26719718D01*
X107819329Y-26719718D02*
X107920345Y-26753390D01*
X107920345Y-26753390D02*
X108088703Y-26854405D01*
X108088703Y-26854405D02*
X108189719Y-26955420D01*
X108189719Y-26955420D02*
X108290734Y-27123779D01*
X108290734Y-27123779D02*
X108324406Y-27224794D01*
X108324406Y-27224794D02*
X108324406Y-27359481D01*
X108324406Y-27359481D02*
X108257062Y-27494168D01*
X108257062Y-27494168D02*
X108088703Y-27662527D01*
X109166199Y-26585031D02*
X108762138Y-26989092D01*
X108964169Y-26787061D02*
X108257062Y-26079955D01*
X108257062Y-26079955D02*
X108290734Y-26248313D01*
X108290734Y-26248313D02*
X108290734Y-26383000D01*
X108290734Y-26383000D02*
X108257062Y-26484016D01*
M02*
